<?xml version="1.0" encoding="utf-8" ?>
<svg baseProfile="full" height="32mm" version="1.1" viewBox="0,0,190,32" width="190mm" xmlns="http://www.w3.org/2000/svg" xmlns:ev="http://www.w3.org/2001/xml-events" xmlns:xlink="http://www.w3.org/1999/xlink"><defs /><rect fill="none" height="32" width="190" x="0" y="0" /><text fill="#FFFFFF" style="font-size:2.5px; font-family:Arial" x="0.0" y="3.0">Jan</text><text fill="#FFFFFF" style="font-size:2.5px; font-family:Arial" x="15.5" y="3.0">Feb</text><text fill="#FFFFFF" style="font-size:2.5px; font-family:Arial" x="31.0" y="3.0">Mar</text><text fill="#FFFFFF" style="font-size:2.5px; font-family:Arial" x="46.5" y="3.0">Apr</text><text fill="#FFFFFF" style="font-size:2.5px; font-family:Arial" x="62.0" y="3.0">May</text><text fill="#FFFFFF" style="font-size:2.5px; font-family:Arial" x="77.5" y="3.0">Jun</text><text fill="#FFFFFF" style="font-size:2.5px; font-family:Arial" x="93.0" y="3.0">Jul</text><text fill="#FFFFFF" style="font-size:2.5px; font-family:Arial" x="108.5" y="3.0">Aug</text><text fill="#FFFFFF" style="font-size:2.5px; font-family:Arial" x="124.0" y="3.0">Sep</text><text fill="#FFFFFF" style="font-size:2.5px; font-family:Arial" x="139.5" y="3.0">Oct</text><text fill="#FFFFFF" style="font-size:2.5px; font-family:Arial" x="155.0" y="3.0">Nov</text><text fill="#FFFFFF" style="font-size:2.5px; font-family:Arial" x="170.5" y="3.0">Dec</text><rect fill="#444444" height="2.6" width="2.6" x="0.0" y="4.5"><title>2022-12-26</title></rect><rect fill="#444444" height="2.6" width="2.6" x="0.0" y="8.0"><title>2022-12-27</title></rect><rect fill="#444444" height="2.6" width="2.6" x="0.0" y="11.5"><title>2022-12-28</title></rect><rect fill="#444444" height="2.6" width="2.6" x="0.0" y="15.0"><title>2022-12-29</title></rect><rect fill="#444444" height="2.6" width="2.6" x="0.0" y="18.5"><title>2022-12-30</title></rect><rect fill="#444444" height="2.6" width="2.6" x="0.0" y="22.0"><title>2022-12-31</title></rect><rect fill="#444444" height="2.6" width="2.6" x="0.0" y="25.5"><title>2023-01-01</title></rect><rect fill="#444444" height="2.6" width="2.6" x="3.5" y="4.5"><title>2023-01-02</title></rect><rect fill="#444444" height="2.6" width="2.6" x="3.5" y="8.0"><title>2023-01-03</title></rect><rect fill="#444444" height="2.6" width="2.6" x="3.5" y="11.5"><title>2023-01-04</title></rect><rect fill="#444444" height="2.6" width="2.6" x="3.5" y="15.0"><title>2023-01-05</title></rect><rect fill="#444444" height="2.6" width="2.6" x="3.5" y="18.5"><title>2023-01-06</title></rect><rect fill="#4dd2ff" height="2.6" width="2.6" x="3.5" y="22.0"><title>2023-01-07 6.4 km</title></rect><rect fill="#4dd2ff" height="2.6" width="2.6" x="3.5" y="25.5"><title>2023-01-08 8.3 km</title></rect><rect fill="#444444" height="2.6" width="2.6" x="7.0" y="4.5"><title>2023-01-09</title></rect><rect fill="#444444" height="2.6" width="2.6" x="7.0" y="8.0"><title>2023-01-10</title></rect><rect fill="#444444" height="2.6" width="2.6" x="7.0" y="11.5"><title>2023-01-11</title></rect><rect fill="#444444" height="2.6" width="2.6" x="7.0" y="15.0"><title>2023-01-12</title></rect><rect fill="#444444" height="2.6" width="2.6" x="7.0" y="18.5"><title>2023-01-13</title></rect><rect fill="#ffb600" height="2.6" width="2.6" x="7.0" y="22.0"><title>2023-01-14 10.8 km</title></rect><rect fill="#444444" height="2.6" width="2.6" x="7.0" y="25.5"><title>2023-01-15</title></rect><rect fill="#444444" height="2.6" width="2.6" x="10.5" y="4.5"><title>2023-01-16</title></rect><rect fill="#444444" height="2.6" width="2.6" x="10.5" y="8.0"><title>2023-01-17</title></rect><rect fill="#444444" height="2.6" width="2.6" x="10.5" y="11.5"><title>2023-01-18</title></rect><rect fill="#444444" height="2.6" width="2.6" x="10.5" y="15.0"><title>2023-01-19</title></rect><rect fill="#444444" height="2.6" width="2.6" x="10.5" y="18.5"><title>2023-01-20</title></rect><rect fill="#4dd2ff" height="2.6" width="2.6" x="10.5" y="22.0"><title>2023-01-21 9.9 km</title></rect><rect fill="#444444" height="2.6" width="2.6" x="10.5" y="25.5"><title>2023-01-22</title></rect><rect fill="#ffa200" height="2.6" width="2.6" x="14.0" y="4.5"><title>2023-01-23 13.0 km</title></rect><rect fill="#444444" height="2.6" width="2.6" x="14.0" y="8.0"><title>2023-01-24</title></rect><rect fill="#444444" height="2.6" width="2.6" x="14.0" y="11.5"><title>2023-01-25</title></rect><rect fill="#444444" height="2.6" width="2.6" x="14.0" y="15.0"><title>2023-01-26</title></rect><rect fill="#444444" height="2.6" width="2.6" x="14.0" y="18.5"><title>2023-01-27</title></rect><rect fill="#444444" height="2.6" width="2.6" x="14.0" y="22.0"><title>2023-01-28</title></rect><rect fill="#4dd2ff" height="2.6" width="2.6" x="14.0" y="25.5"><title>2023-01-29 8.0 km</title></rect><rect fill="#444444" height="2.6" width="2.6" x="17.5" y="4.5"><title>2023-01-30</title></rect><rect fill="#444444" height="2.6" width="2.6" x="17.5" y="8.0"><title>2023-01-31</title></rect><rect fill="#444444" height="2.6" width="2.6" x="17.5" y="11.5"><title>2023-02-01</title></rect><rect fill="#444444" height="2.6" width="2.6" x="17.5" y="15.0"><title>2023-02-02</title></rect><rect fill="#444444" height="2.6" width="2.6" x="17.5" y="18.5"><title>2023-02-03</title></rect><rect fill="#4dd2ff" height="2.6" width="2.6" x="17.5" y="22.0"><title>2023-02-04 8.5 km</title></rect><rect fill="#ffa500" height="2.6" width="2.6" x="17.5" y="25.5"><title>2023-02-05 12.6 km</title></rect><rect fill="#444444" height="2.6" width="2.6" x="21.0" y="4.5"><title>2023-02-06</title></rect><rect fill="#4dd2ff" height="2.6" width="2.6" x="21.0" y="8.0"><title>2023-02-07 3.1 km</title></rect><rect fill="#444444" height="2.6" width="2.6" x="21.0" y="11.5"><title>2023-02-08</title></rect><rect fill="#444444" height="2.6" width="2.6" x="21.0" y="15.0"><title>2023-02-09</title></rect><rect fill="#444444" height="2.6" width="2.6" x="21.0" y="18.5"><title>2023-02-10</title></rect><rect fill="#4dd2ff" height="2.6" width="2.6" x="21.0" y="22.0"><title>2023-02-11 6.5 km</title></rect><rect fill="#444444" height="2.6" width="2.6" x="21.0" y="25.5"><title>2023-02-12</title></rect><rect fill="#444444" height="2.6" width="2.6" x="24.5" y="4.5"><title>2023-02-13</title></rect><rect fill="#444444" height="2.6" width="2.6" x="24.5" y="8.0"><title>2023-02-14</title></rect><rect fill="#444444" height="2.6" width="2.6" x="24.5" y="11.5"><title>2023-02-15</title></rect><rect fill="#444444" height="2.6" width="2.6" x="24.5" y="15.0"><title>2023-02-16</title></rect><rect fill="#444444" height="2.6" width="2.6" x="24.5" y="18.5"><title>2023-02-17</title></rect><rect fill="#444444" height="2.6" width="2.6" x="24.5" y="22.0"><title>2023-02-18</title></rect><rect fill="#ffbe00" height="2.6" width="2.6" x="24.5" y="25.5"><title>2023-02-19 10.0 km</title></rect><rect fill="#444444" height="2.6" width="2.6" x="28.0" y="4.5"><title>2023-02-20</title></rect><rect fill="#444444" height="2.6" width="2.6" x="28.0" y="8.0"><title>2023-02-21</title></rect><rect fill="#444444" height="2.6" width="2.6" x="28.0" y="11.5"><title>2023-02-22</title></rect><rect fill="#444444" height="2.6" width="2.6" x="28.0" y="15.0"><title>2023-02-23</title></rect><rect fill="#444444" height="2.6" width="2.6" x="28.0" y="18.5"><title>2023-02-24</title></rect><rect fill="#ffbc00" height="2.6" width="2.6" x="28.0" y="22.0"><title>2023-02-25 10.2 km</title></rect><rect fill="#ffbd00" height="2.6" width="2.6" x="28.0" y="25.5"><title>2023-02-26 10.1 km</title></rect><rect fill="#444444" height="2.6" width="2.6" x="31.5" y="4.5"><title>2023-02-27</title></rect><rect fill="#444444" height="2.6" width="2.6" x="31.5" y="8.0"><title>2023-02-28</title></rect><rect fill="#444444" height="2.6" width="2.6" x="31.5" y="11.5"><title>2023-03-01</title></rect><rect fill="#444444" height="2.6" width="2.6" x="31.5" y="15.0"><title>2023-03-02</title></rect><rect fill="#444444" height="2.6" width="2.6" x="31.5" y="18.5"><title>2023-03-03</title></rect><rect fill="#ffbe00" height="2.6" width="2.6" x="31.5" y="22.0"><title>2023-03-04 10.0 km</title></rect><rect fill="#444444" height="2.6" width="2.6" x="31.5" y="25.5"><title>2023-03-05</title></rect><rect fill="#444444" height="2.6" width="2.6" x="35.0" y="4.5"><title>2023-03-06</title></rect><rect fill="#444444" height="2.6" width="2.6" x="35.0" y="8.0"><title>2023-03-07</title></rect><rect fill="#444444" height="2.6" width="2.6" x="35.0" y="11.5"><title>2023-03-08</title></rect><rect fill="#444444" height="2.6" width="2.6" x="35.0" y="15.0"><title>2023-03-09</title></rect><rect fill="#444444" height="2.6" width="2.6" x="35.0" y="18.5"><title>2023-03-10</title></rect><rect fill="#ffbd00" height="2.6" width="2.6" x="35.0" y="22.0"><title>2023-03-11 10.1 km</title></rect><rect fill="#ffbd00" height="2.6" width="2.6" x="35.0" y="25.5"><title>2023-03-12 10.1 km</title></rect><rect fill="#444444" height="2.6" width="2.6" x="38.5" y="4.5"><title>2023-03-13</title></rect><rect fill="#444444" height="2.6" width="2.6" x="38.5" y="8.0"><title>2023-03-14</title></rect><rect fill="#444444" height="2.6" width="2.6" x="38.5" y="11.5"><title>2023-03-15</title></rect><rect fill="#444444" height="2.6" width="2.6" x="38.5" y="15.0"><title>2023-03-16</title></rect><rect fill="#444444" height="2.6" width="2.6" x="38.5" y="18.5"><title>2023-03-17</title></rect><rect fill="#ffbd00" height="2.6" width="2.6" x="38.5" y="22.0"><title>2023-03-18 10.1 km</title></rect><rect fill="#ffbe00" height="2.6" width="2.6" x="38.5" y="25.5"><title>2023-03-19 10.0 km</title></rect><rect fill="#444444" height="2.6" width="2.6" x="42.0" y="4.5"><title>2023-03-20</title></rect><rect fill="#444444" height="2.6" width="2.6" x="42.0" y="8.0"><title>2023-03-21</title></rect><rect fill="#444444" height="2.6" width="2.6" x="42.0" y="11.5"><title>2023-03-22</title></rect><rect fill="#444444" height="2.6" width="2.6" x="42.0" y="15.0"><title>2023-03-23</title></rect><rect fill="#444444" height="2.6" width="2.6" x="42.0" y="18.5"><title>2023-03-24</title></rect><rect fill="#ffbe00" height="2.6" width="2.6" x="42.0" y="22.0"><title>2023-03-25 10.0 km</title></rect><rect fill="#ffbe00" height="2.6" width="2.6" x="42.0" y="25.5"><title>2023-03-26 10.0 km</title></rect><rect fill="#444444" height="2.6" width="2.6" x="45.5" y="4.5"><title>2023-03-27</title></rect><rect fill="#444444" height="2.6" width="2.6" x="45.5" y="8.0"><title>2023-03-28</title></rect><rect fill="#444444" height="2.6" width="2.6" x="45.5" y="11.5"><title>2023-03-29</title></rect><rect fill="#444444" height="2.6" width="2.6" x="45.5" y="15.0"><title>2023-03-30</title></rect><rect fill="#444444" height="2.6" width="2.6" x="45.5" y="18.5"><title>2023-03-31</title></rect><rect fill="#444444" height="2.6" width="2.6" x="45.5" y="22.0"><title>2023-04-01</title></rect><rect fill="#ffa400" height="2.6" width="2.6" x="45.5" y="25.5"><title>2023-04-02 12.7 km</title></rect><rect fill="#444444" height="2.6" width="2.6" x="49.0" y="4.5"><title>2023-04-03</title></rect><rect fill="#444444" height="2.6" width="2.6" x="49.0" y="8.0"><title>2023-04-04</title></rect><rect fill="#444444" height="2.6" width="2.6" x="49.0" y="11.5"><title>2023-04-05</title></rect><rect fill="#444444" height="2.6" width="2.6" x="49.0" y="15.0"><title>2023-04-06</title></rect><rect fill="#444444" height="2.6" width="2.6" x="49.0" y="18.5"><title>2023-04-07</title></rect><rect fill="#ffbe00" height="2.6" width="2.6" x="49.0" y="22.0"><title>2023-04-08 10.0 km</title></rect><rect fill="#444444" height="2.6" width="2.6" x="49.0" y="25.5"><title>2023-04-09</title></rect><rect fill="#444444" height="2.6" width="2.6" x="52.5" y="4.5"><title>2023-04-10</title></rect><rect fill="#444444" height="2.6" width="2.6" x="52.5" y="8.0"><title>2023-04-11</title></rect><rect fill="#444444" height="2.6" width="2.6" x="52.5" y="11.5"><title>2023-04-12</title></rect><rect fill="#444444" height="2.6" width="2.6" x="52.5" y="15.0"><title>2023-04-13</title></rect><rect fill="#444444" height="2.6" width="2.6" x="52.5" y="18.5"><title>2023-04-14</title></rect><rect fill="red" height="2.6" width="2.6" x="52.5" y="22.0"><title>2023-04-15 20.0 km</title></rect><rect fill="#444444" height="2.6" width="2.6" x="52.5" y="25.5"><title>2023-04-16</title></rect><rect fill="#444444" height="2.6" width="2.6" x="56.0" y="4.5"><title>2023-04-17</title></rect><rect fill="#4dd2ff" height="2.6" width="2.6" x="56.0" y="8.0"><title>2023-04-18 5.1 km</title></rect><rect fill="#444444" height="2.6" width="2.6" x="56.0" y="11.5"><title>2023-04-19</title></rect><rect fill="#4dd2ff" height="2.6" width="2.6" x="56.0" y="15.0"><title>2023-04-20 5.1 km</title></rect><rect fill="#444444" height="2.6" width="2.6" x="56.0" y="18.5"><title>2023-04-21</title></rect><rect fill="red" height="2.6" width="2.6" x="56.0" y="22.0"><title>2023-04-22 21.2 km</title></rect><rect fill="#444444" height="2.6" width="2.6" x="56.0" y="25.5"><title>2023-04-23</title></rect><rect fill="#444444" height="2.6" width="2.6" x="59.5" y="4.5"><title>2023-04-24</title></rect><rect fill="#444444" height="2.6" width="2.6" x="59.5" y="8.0"><title>2023-04-25</title></rect><rect fill="#4dd2ff" height="2.6" width="2.6" x="59.5" y="11.5"><title>2023-04-26 6.4 km</title></rect><rect fill="#444444" height="2.6" width="2.6" x="59.5" y="15.0"><title>2023-04-27</title></rect><rect fill="#444444" height="2.6" width="2.6" x="59.5" y="18.5"><title>2023-04-28</title></rect><rect fill="#444444" height="2.6" width="2.6" x="59.5" y="22.0"><title>2023-04-29</title></rect><rect fill="#444444" height="2.6" width="2.6" x="59.5" y="25.5"><title>2023-04-30</title></rect><rect fill="#444444" height="2.6" width="2.6" x="63.0" y="4.5"><title>2023-05-01</title></rect><rect fill="#444444" height="2.6" width="2.6" x="63.0" y="8.0"><title>2023-05-02</title></rect><rect fill="#444444" height="2.6" width="2.6" x="63.0" y="11.5"><title>2023-05-03</title></rect><rect fill="#444444" height="2.6" width="2.6" x="63.0" y="15.0"><title>2023-05-04</title></rect><rect fill="#444444" height="2.6" width="2.6" x="63.0" y="18.5"><title>2023-05-05</title></rect><rect fill="#444444" height="2.6" width="2.6" x="63.0" y="22.0"><title>2023-05-06</title></rect><rect fill="#4dd2ff" height="2.6" width="2.6" x="63.0" y="25.5"><title>2023-05-07 6.4 km</title></rect><rect fill="#444444" height="2.6" width="2.6" x="66.5" y="4.5"><title>2023-05-08</title></rect><rect fill="#444444" height="2.6" width="2.6" x="66.5" y="8.0"><title>2023-05-09</title></rect><rect fill="#444444" height="2.6" width="2.6" x="66.5" y="11.5"><title>2023-05-10</title></rect><rect fill="#444444" height="2.6" width="2.6" x="66.5" y="15.0"><title>2023-05-11</title></rect><rect fill="#444444" height="2.6" width="2.6" x="66.5" y="18.5"><title>2023-05-12</title></rect><rect fill="#ffbe00" height="2.6" width="2.6" x="66.5" y="22.0"><title>2023-05-13 10.0 km</title></rect><rect fill="#444444" height="2.6" width="2.6" x="66.5" y="25.5"><title>2023-05-14</title></rect><rect fill="#444444" height="2.6" width="2.6" x="70.0" y="4.5"><title>2023-05-15</title></rect><rect fill="#444444" height="2.6" width="2.6" x="70.0" y="8.0"><title>2023-05-16</title></rect><rect fill="#444444" height="2.6" width="2.6" x="70.0" y="11.5"><title>2023-05-17</title></rect><rect fill="#444444" height="2.6" width="2.6" x="70.0" y="15.0"><title>2023-05-18</title></rect><rect fill="#ffbe00" height="2.6" width="2.6" x="70.0" y="18.5"><title>2023-05-19 10.0 km</title></rect><rect fill="#ffa600" height="2.6" width="2.6" x="70.0" y="22.0"><title>2023-05-20 12.5 km</title></rect><rect fill="#444444" height="2.6" width="2.6" x="70.0" y="25.5"><title>2023-05-21</title></rect><rect fill="#444444" height="2.6" width="2.6" x="73.5" y="4.5"><title>2023-05-22</title></rect><rect fill="#444444" height="2.6" width="2.6" x="73.5" y="8.0"><title>2023-05-23</title></rect><rect fill="#4dd2ff" height="2.6" width="2.6" x="73.5" y="11.5"><title>2023-05-24 6.0 km</title></rect><rect fill="#4dd2ff" height="2.6" width="2.6" x="73.5" y="15.0"><title>2023-05-25 8.5 km</title></rect><rect fill="#4dd2ff" height="2.6" width="2.6" x="73.5" y="18.5"><title>2023-05-26 6.1 km</title></rect><rect fill="#ffbd00" height="2.6" width="2.6" x="73.5" y="22.0"><title>2023-05-27 10.1 km</title></rect><rect fill="#ff9800" height="2.6" width="2.6" x="73.5" y="25.5"><title>2023-05-28 14.0 km</title></rect><rect fill="#444444" height="2.6" width="2.6" x="77.0" y="4.5"><title>2023-05-29</title></rect><rect fill="#444444" height="2.6" width="2.6" x="77.0" y="8.0"><title>2023-05-30</title></rect><rect fill="#4dd2ff" height="2.6" width="2.6" x="77.0" y="11.5"><title>2023-05-31 9.0 km</title></rect><rect fill="#ffbd00" height="2.6" width="2.6" x="77.0" y="15.0"><title>2023-06-01 10.1 km</title></rect><rect fill="#ffbe00" height="2.6" width="2.6" x="77.0" y="18.5"><title>2023-06-02 10.0 km</title></rect><rect fill="#ffa700" height="2.6" width="2.6" x="77.0" y="22.0"><title>2023-06-03 12.5 km</title></rect><rect fill="#ffbe00" height="2.6" width="2.6" x="77.0" y="25.5"><title>2023-06-04 10.0 km</title></rect><rect fill="#444444" height="2.6" width="2.6" x="80.5" y="4.5"><title>2023-06-05</title></rect><rect fill="#444444" height="2.6" width="2.6" x="80.5" y="8.0"><title>2023-06-06</title></rect><rect fill="#ffbe00" height="2.6" width="2.6" x="80.5" y="11.5"><title>2023-06-07 10.0 km</title></rect><rect fill="#444444" height="2.6" width="2.6" x="80.5" y="15.0"><title>2023-06-08</title></rect><rect fill="#ffbe00" height="2.6" width="2.6" x="80.5" y="18.5"><title>2023-06-09 10.0 km</title></rect><rect fill="#ffbe00" height="2.6" width="2.6" x="80.5" y="22.0"><title>2023-06-10 10.0 km</title></rect><rect fill="#ff9800" height="2.6" width="2.6" x="80.5" y="25.5"><title>2023-06-11 14.0 km</title></rect><rect fill="#444444" height="2.6" width="2.6" x="84.0" y="4.5"><title>2023-06-12</title></rect><rect fill="#444444" height="2.6" width="2.6" x="84.0" y="8.0"><title>2023-06-13</title></rect><rect fill="#ffbe00" height="2.6" width="2.6" x="84.0" y="11.5"><title>2023-06-14 10.0 km</title></rect><rect fill="#ffbe00" height="2.6" width="2.6" x="84.0" y="15.0"><title>2023-06-15 10.0 km</title></rect><rect fill="#444444" height="2.6" width="2.6" x="84.0" y="18.5"><title>2023-06-16</title></rect><rect fill="#ffbe00" height="2.6" width="2.6" x="84.0" y="22.0"><title>2023-06-17 10.0 km</title></rect><rect fill="#ffab00" height="2.6" width="2.6" x="84.0" y="25.5"><title>2023-06-18 12.0 km</title></rect><rect fill="#444444" height="2.6" width="2.6" x="87.5" y="4.5"><title>2023-06-19</title></rect><rect fill="#444444" height="2.6" width="2.6" x="87.5" y="8.0"><title>2023-06-20</title></rect><rect fill="#ffbe00" height="2.6" width="2.6" x="87.5" y="11.5"><title>2023-06-21 10.0 km</title></rect><rect fill="#ff8f00" height="2.6" width="2.6" x="87.5" y="15.0"><title>2023-06-22 15.0 km</title></rect><rect fill="#444444" height="2.6" width="2.6" x="87.5" y="18.5"><title>2023-06-23</title></rect><rect fill="#444444" height="2.6" width="2.6" x="87.5" y="22.0"><title>2023-06-24</title></rect><rect fill="#4dd2ff" height="2.6" width="2.6" x="87.5" y="25.5"><title>2023-06-25 8.1 km</title></rect><rect fill="#444444" height="2.6" width="2.6" x="91.0" y="4.5"><title>2023-06-26</title></rect><rect fill="#ffbb00" height="2.6" width="2.6" x="91.0" y="8.0"><title>2023-06-27 10.3 km</title></rect><rect fill="#444444" height="2.6" width="2.6" x="91.0" y="11.5"><title>2023-06-28</title></rect><rect fill="#ffbe00" height="2.6" width="2.6" x="91.0" y="15.0"><title>2023-06-29 10.0 km</title></rect><rect fill="#444444" height="2.6" width="2.6" x="91.0" y="18.5"><title>2023-06-30</title></rect><rect fill="#ffbe00" height="2.6" width="2.6" x="91.0" y="22.0"><title>2023-07-01 10.0 km</title></rect><rect fill="#ffbe00" height="2.6" width="2.6" x="91.0" y="25.5"><title>2023-07-02 10.0 km</title></rect><rect fill="#444444" height="2.6" width="2.6" x="94.5" y="4.5"><title>2023-07-03</title></rect><rect fill="#444444" height="2.6" width="2.6" x="94.5" y="8.0"><title>2023-07-04</title></rect><rect fill="#ffbe00" height="2.6" width="2.6" x="94.5" y="11.5"><title>2023-07-05 10.0 km</title></rect><rect fill="#ffbe00" height="2.6" width="2.6" x="94.5" y="15.0"><title>2023-07-06 10.0 km</title></rect><rect fill="#444444" height="2.6" width="2.6" x="94.5" y="18.5"><title>2023-07-07</title></rect><rect fill="#ffbe00" height="2.6" width="2.6" x="94.5" y="22.0"><title>2023-07-08 10.0 km</title></rect><rect fill="#ffbe00" height="2.6" width="2.6" x="94.5" y="25.5"><title>2023-07-09 10.0 km</title></rect><rect fill="#444444" height="2.6" width="2.6" x="98.0" y="4.5"><title>2023-07-10</title></rect><rect fill="#ffbe00" height="2.6" width="2.6" x="98.0" y="8.0"><title>2023-07-11 10.0 km</title></rect><rect fill="#444444" height="2.6" width="2.6" x="98.0" y="11.5"><title>2023-07-12</title></rect><rect fill="#ffbe00" height="2.6" width="2.6" x="98.0" y="15.0"><title>2023-07-13 10.0 km</title></rect><rect fill="#444444" height="2.6" width="2.6" x="98.0" y="18.5"><title>2023-07-14</title></rect><rect fill="#ffa100" height="2.6" width="2.6" x="98.0" y="22.0"><title>2023-07-15 13.0 km</title></rect><rect fill="#ffbe00" height="2.6" width="2.6" x="98.0" y="25.5"><title>2023-07-16 10.0 km</title></rect><rect fill="#444444" height="2.6" width="2.6" x="101.5" y="4.5"><title>2023-07-17</title></rect><rect fill="#ffbe00" height="2.6" width="2.6" x="101.5" y="8.0"><title>2023-07-18 10.0 km</title></rect><rect fill="#ffbe00" height="2.6" width="2.6" x="101.5" y="11.5"><title>2023-07-19 10.0 km</title></rect><rect fill="#444444" height="2.6" width="2.6" x="101.5" y="15.0"><title>2023-07-20</title></rect><rect fill="#4dd2ff" height="2.6" width="2.6" x="101.5" y="18.5"><title>2023-07-21 7.0 km</title></rect><rect fill="#ffab00" height="2.6" width="2.6" x="101.5" y="22.0"><title>2023-07-22 12.0 km</title></rect><rect fill="#ffbe00" height="2.6" width="2.6" x="101.5" y="25.5"><title>2023-07-23 10.0 km</title></rect><rect fill="#444444" height="2.6" width="2.6" x="105.0" y="4.5"><title>2023-07-24</title></rect><rect fill="#ffbe00" height="2.6" width="2.6" x="105.0" y="8.0"><title>2023-07-25 10.0 km</title></rect><rect fill="#444444" height="2.6" width="2.6" x="105.0" y="11.5"><title>2023-07-26</title></rect><rect fill="#ffae00" height="2.6" width="2.6" x="105.0" y="15.0"><title>2023-07-27 11.7 km</title></rect><rect fill="#ffbe00" height="2.6" width="2.6" x="105.0" y="18.5"><title>2023-07-28 10.0 km</title></rect><rect fill="#4dd2ff" height="2.6" width="2.6" x="105.0" y="22.0"><title>2023-07-29 8.0 km</title></rect><rect fill="#444444" height="2.6" width="2.6" x="105.0" y="25.5"><title>2023-07-30</title></rect><rect fill="#4dd2ff" height="2.6" width="2.6" x="108.5" y="4.5"><title>2023-07-31 8.0 km</title></rect><rect fill="#ffbe00" height="2.6" width="2.6" x="108.5" y="8.0"><title>2023-08-01 10.0 km</title></rect><rect fill="#444444" height="2.6" width="2.6" x="108.5" y="11.5"><title>2023-08-02</title></rect><rect fill="#4dd2ff" height="2.6" width="2.6" x="108.5" y="15.0"><title>2023-08-03 5.1 km</title></rect><rect fill="#444444" height="2.6" width="2.6" x="108.5" y="18.5"><title>2023-08-04</title></rect><rect fill="#ffbe00" height="2.6" width="2.6" x="108.5" y="22.0"><title>2023-08-05 10.0 km</title></rect><rect fill="#ffbe00" height="2.6" width="2.6" x="108.5" y="25.5"><title>2023-08-06 10.0 km</title></rect><rect fill="#444444" height="2.6" width="2.6" x="112.0" y="4.5"><title>2023-08-07</title></rect><rect fill="#ffbe00" height="2.6" width="2.6" x="112.0" y="8.0"><title>2023-08-08 10.0 km</title></rect><rect fill="#444444" height="2.6" width="2.6" x="112.0" y="11.5"><title>2023-08-09</title></rect><rect fill="#ffbe00" height="2.6" width="2.6" x="112.0" y="15.0"><title>2023-08-10 10.0 km</title></rect><rect fill="#444444" height="2.6" width="2.6" x="112.0" y="18.5"><title>2023-08-11</title></rect><rect fill="#ffbe00" height="2.6" width="2.6" x="112.0" y="22.0"><title>2023-08-12 10.0 km</title></rect><rect fill="#ffb400" height="2.6" width="2.6" x="112.0" y="25.5"><title>2023-08-13 11.0 km</title></rect><rect fill="#444444" height="2.6" width="2.6" x="115.5" y="4.5"><title>2023-08-14</title></rect><rect fill="#ffbe00" height="2.6" width="2.6" x="115.5" y="8.0"><title>2023-08-15 10.0 km</title></rect><rect fill="#ffbe00" height="2.6" width="2.6" x="115.5" y="11.5"><title>2023-08-16 10.0 km</title></rect><rect fill="#444444" height="2.6" width="2.6" x="115.5" y="15.0"><title>2023-08-17</title></rect><rect fill="#4dd2ff" height="2.6" width="2.6" x="115.5" y="18.5"><title>2023-08-18 6.0 km</title></rect><rect fill="#ffbe00" height="2.6" width="2.6" x="115.5" y="22.0"><title>2023-08-19 10.0 km</title></rect><rect fill="#ffbe00" height="2.6" width="2.6" x="115.5" y="25.5"><title>2023-08-20 10.0 km</title></rect><rect fill="#444444" height="2.6" width="2.6" x="119.0" y="4.5"><title>2023-08-21</title></rect><rect fill="#444444" height="2.6" width="2.6" x="119.0" y="8.0"><title>2023-08-22</title></rect><rect fill="#ffbe00" height="2.6" width="2.6" x="119.0" y="11.5"><title>2023-08-23 10.0 km</title></rect><rect fill="#444444" height="2.6" width="2.6" x="119.0" y="15.0"><title>2023-08-24</title></rect><rect fill="#4dd2ff" height="2.6" width="2.6" x="119.0" y="18.5"><title>2023-08-25 6.0 km</title></rect><rect fill="#ffbe00" height="2.6" width="2.6" x="119.0" y="22.0"><title>2023-08-26 10.0 km</title></rect><rect fill="#ffbe00" height="2.6" width="2.6" x="119.0" y="25.5"><title>2023-08-27 10.0 km</title></rect><rect fill="#444444" height="2.6" width="2.6" x="122.5" y="4.5"><title>2023-08-28</title></rect><rect fill="#ffbe00" height="2.6" width="2.6" x="122.5" y="8.0"><title>2023-08-29 10.0 km</title></rect><rect fill="#444444" height="2.6" width="2.6" x="122.5" y="11.5"><title>2023-08-30</title></rect><rect fill="#ffab00" height="2.6" width="2.6" x="122.5" y="15.0"><title>2023-08-31 12.0 km</title></rect><rect fill="#ffbe00" height="2.6" width="2.6" x="122.5" y="18.5"><title>2023-09-01 10.0 km</title></rect><rect fill="#ffa500" height="2.6" width="2.6" x="122.5" y="22.0"><title>2023-09-02 12.6 km</title></rect><rect fill="#444444" height="2.6" width="2.6" x="122.5" y="25.5"><title>2023-09-03</title></rect><rect fill="#444444" height="2.6" width="2.6" x="126.0" y="4.5"><title>2023-09-04</title></rect><rect fill="#ffbe00" height="2.6" width="2.6" x="126.0" y="8.0"><title>2023-09-05 10.0 km</title></rect><rect fill="#444444" height="2.6" width="2.6" x="126.0" y="11.5"><title>2023-09-06</title></rect><rect fill="#ffbe00" height="2.6" width="2.6" x="126.0" y="15.0"><title>2023-09-07 10.0 km</title></rect><rect fill="#444444" height="2.6" width="2.6" x="126.0" y="18.5"><title>2023-09-08</title></rect><rect fill="#ffbe00" height="2.6" width="2.6" x="126.0" y="22.0"><title>2023-09-09 10.0 km</title></rect><rect fill="#ffbe00" height="2.6" width="2.6" x="126.0" y="25.5"><title>2023-09-10 10.0 km</title></rect><rect fill="#ffbe00" height="2.6" width="2.6" x="129.5" y="4.5"><title>2023-09-11 10.0 km</title></rect><rect fill="#444444" height="2.6" width="2.6" x="129.5" y="8.0"><title>2023-09-12</title></rect><rect fill="#444444" height="2.6" width="2.6" x="129.5" y="11.5"><title>2023-09-13</title></rect><rect fill="#ffbe00" height="2.6" width="2.6" x="129.5" y="15.0"><title>2023-09-14 10.0 km</title></rect><rect fill="#444444" height="2.6" width="2.6" x="129.5" y="18.5"><title>2023-09-15</title></rect><rect fill="#ffa100" height="2.6" width="2.6" x="129.5" y="22.0"><title>2023-09-16 13.0 km</title></rect><rect fill="#ffbe00" height="2.6" width="2.6" x="129.5" y="25.5"><title>2023-09-17 10.0 km</title></rect><rect fill="#444444" height="2.6" width="2.6" x="133.0" y="4.5"><title>2023-09-18</title></rect><rect fill="#ffbb00" height="2.6" width="2.6" x="133.0" y="8.0"><title>2023-09-19 10.3 km</title></rect><rect fill="#444444" height="2.6" width="2.6" x="133.0" y="11.5"><title>2023-09-20</title></rect><rect fill="#ffbe00" height="2.6" width="2.6" x="133.0" y="15.0"><title>2023-09-21 10.0 km</title></rect><rect fill="#4dd2ff" height="2.6" width="2.6" x="133.0" y="18.5"><title>2023-09-22 5.0 km</title></rect><rect fill="#ffbe00" height="2.6" width="2.6" x="133.0" y="22.0"><title>2023-09-23 10.0 km</title></rect><rect fill="#4dd2ff" height="2.6" width="2.6" x="133.0" y="25.5"><title>2023-09-24 7.4 km</title></rect><rect fill="#444444" height="2.6" width="2.6" x="136.5" y="4.5"><title>2023-09-25</title></rect><rect fill="#ffbe00" height="2.6" width="2.6" x="136.5" y="8.0"><title>2023-09-26 10.0 km</title></rect><rect fill="#444444" height="2.6" width="2.6" x="136.5" y="11.5"><title>2023-09-27</title></rect><rect fill="#ffbe00" height="2.6" width="2.6" x="136.5" y="15.0"><title>2023-09-28 10.0 km</title></rect><rect fill="#444444" height="2.6" width="2.6" x="136.5" y="18.5"><title>2023-09-29</title></rect><rect fill="#ffb000" height="2.6" width="2.6" x="136.5" y="22.0"><title>2023-09-30 11.5 km</title></rect><rect fill="#ffbd00" height="2.6" width="2.6" x="136.5" y="25.5"><title>2023-10-01 10.0 km</title></rect><rect fill="#444444" height="2.6" width="2.6" x="140.0" y="4.5"><title>2023-10-02</title></rect><rect fill="red" height="2.6" width="2.6" x="140.0" y="8.0"><title>2023-10-03 21.2 km</title></rect><rect fill="#444444" height="2.6" width="2.6" x="140.0" y="11.5"><title>2023-10-04</title></rect><rect fill="#444444" height="2.6" width="2.6" x="140.0" y="15.0"><title>2023-10-05</title></rect><rect fill="#444444" height="2.6" width="2.6" x="140.0" y="18.5"><title>2023-10-06</title></rect><rect fill="#ffbe00" height="2.6" width="2.6" x="140.0" y="22.0"><title>2023-10-07 10.0 km</title></rect><rect fill="#ffbe00" height="2.6" width="2.6" x="140.0" y="25.5"><title>2023-10-08 10.0 km</title></rect><rect fill="#444444" height="2.6" width="2.6" x="143.5" y="4.5"><title>2023-10-09</title></rect><rect fill="#ffbe00" height="2.6" width="2.6" x="143.5" y="8.0"><title>2023-10-10 10.0 km</title></rect><rect fill="#ffbe00" height="2.6" width="2.6" x="143.5" y="11.5"><title>2023-10-11 10.0 km</title></rect><rect fill="#444444" height="2.6" width="2.6" x="143.5" y="15.0"><title>2023-10-12</title></rect><rect fill="#ffbe00" height="2.6" width="2.6" x="143.5" y="18.5"><title>2023-10-13 10.0 km</title></rect><rect fill="#444444" height="2.6" width="2.6" x="143.5" y="22.0"><title>2023-10-14</title></rect><rect fill="red" height="2.6" width="2.6" x="143.5" y="25.5"><title>2023-10-15 25.7 km</title></rect><rect fill="#444444" height="2.6" width="2.6" x="147.0" y="4.5"><title>2023-10-16</title></rect><rect fill="#4dd2ff" height="2.6" width="2.6" x="147.0" y="8.0"><title>2023-10-17 6.2 km</title></rect><rect fill="#444444" height="2.6" width="2.6" x="147.0" y="11.5"><title>2023-10-18</title></rect><rect fill="#4dd2ff" height="2.6" width="2.6" x="147.0" y="15.0"><title>2023-10-19 5.2 km</title></rect><rect fill="#444444" height="2.6" width="2.6" x="147.0" y="18.5"><title>2023-10-20</title></rect><rect fill="#ffa100" height="2.6" width="2.6" x="147.0" y="22.0"><title>2023-10-21 13.0 km</title></rect><rect fill="#ffbe00" height="2.6" width="2.6" x="147.0" y="25.5"><title>2023-10-22 10.0 km</title></rect><rect fill="#444444" height="2.6" width="2.6" x="150.5" y="4.5"><title>2023-10-23</title></rect><rect fill="#4dd2ff" height="2.6" width="2.6" x="150.5" y="8.0"><title>2023-10-24 5.0 km</title></rect><rect fill="#4dd2ff" height="2.6" width="2.6" x="150.5" y="11.5"><title>2023-10-25 6.2 km</title></rect><rect fill="#ffbe00" height="2.6" width="2.6" x="150.5" y="15.0"><title>2023-10-26 10.0 km</title></rect><rect fill="#4dd2ff" height="2.6" width="2.6" x="150.5" y="18.5"><title>2023-10-27 5.0 km</title></rect><rect fill="#ffbe00" height="2.6" width="2.6" x="150.5" y="22.0"><title>2023-10-28 10.0 km</title></rect><rect fill="#ffbe00" height="2.6" width="2.6" x="150.5" y="25.5"><title>2023-10-29 10.0 km</title></rect><rect fill="#ffa100" height="2.6" width="2.6" x="154.0" y="4.5"><title>2023-10-30 13.0 km</title></rect><rect fill="#444444" height="2.6" width="2.6" x="154.0" y="8.0"><title>2023-10-31</title></rect><rect fill="#ffbe00" height="2.6" width="2.6" x="154.0" y="11.5"><title>2023-11-01 10.0 km</title></rect><rect fill="#4dd2ff" height="2.6" width="2.6" x="154.0" y="15.0"><title>2023-11-02 5.7 km</title></rect><rect fill="#444444" height="2.6" width="2.6" x="154.0" y="18.5"><title>2023-11-03</title></rect><rect fill="#ffbe00" height="2.6" width="2.6" x="154.0" y="22.0"><title>2023-11-04 10.0 km</title></rect><rect fill="#ffbe00" height="2.6" width="2.6" x="154.0" y="25.5"><title>2023-11-05 10.0 km</title></rect><rect fill="#444444" height="2.6" width="2.6" x="157.5" y="4.5"><title>2023-11-06</title></rect><rect fill="#4dd2ff" height="2.6" width="2.6" x="157.5" y="8.0"><title>2023-11-07 5.1 km</title></rect><rect fill="#ffbe00" height="2.6" width="2.6" x="157.5" y="11.5"><title>2023-11-08 10.0 km</title></rect><rect fill="#ffbc00" height="2.6" width="2.6" x="157.5" y="15.0"><title>2023-11-09 10.3 km</title></rect><rect fill="#444444" height="2.6" width="2.6" x="157.5" y="18.5"><title>2023-11-10</title></rect><rect fill="#ff8800" height="2.6" width="2.6" x="157.5" y="22.0"><title>2023-11-11 15.7 km</title></rect><rect fill="#ff9b00" height="2.6" width="2.6" x="157.5" y="25.5"><title>2023-11-12 13.7 km</title></rect><rect fill="#444444" height="2.6" width="2.6" x="161.0" y="4.5"><title>2023-11-13</title></rect><rect fill="#ffb700" height="2.6" width="2.6" x="161.0" y="8.0"><title>2023-11-14 10.7 km</title></rect><rect fill="#ffab00" height="2.6" width="2.6" x="161.0" y="11.5"><title>2023-11-15 12.0 km</title></rect><rect fill="#444444" height="2.6" width="2.6" x="161.0" y="15.0"><title>2023-11-16</title></rect><rect fill="#ffa800" height="2.6" width="2.6" x="161.0" y="18.5"><title>2023-11-17 12.3 km</title></rect><rect fill="#ff9800" height="2.6" width="2.6" x="161.0" y="22.0"><title>2023-11-18 14.0 km</title></rect><rect fill="#ff9800" height="2.6" width="2.6" x="161.0" y="25.5"><title>2023-11-19 14.0 km</title></rect><rect fill="#444444" height="2.6" width="2.6" x="164.5" y="4.5"><title>2023-11-20</title></rect><rect fill="#ffab00" height="2.6" width="2.6" x="164.5" y="8.0"><title>2023-11-21 12.0 km</title></rect><rect fill="#ffbe00" height="2.6" width="2.6" x="164.5" y="11.5"><title>2023-11-22 10.0 km</title></rect><rect fill="#444444" height="2.6" width="2.6" x="164.5" y="15.0"><title>2023-11-23</title></rect><rect fill="#ffbc00" height="2.6" width="2.6" x="164.5" y="18.5"><title>2023-11-24 10.2 km</title></rect><rect fill="#ffa100" height="2.6" width="2.6" x="164.5" y="22.0"><title>2023-11-25 13.0 km</title></rect><rect fill="#ff7a00" height="2.6" width="2.6" x="164.5" y="25.5"><title>2023-11-26 17.2 km</title></rect><rect fill="#444444" height="2.6" width="2.6" x="168.0" y="4.5"><title>2023-11-27</title></rect><rect fill="#ffa500" height="2.6" width="2.6" x="168.0" y="8.0"><title>2023-11-28 12.6 km</title></rect><rect fill="#ffa000" height="2.6" width="2.6" x="168.0" y="11.5"><title>2023-11-29 13.1 km</title></rect><rect fill="#ffa000" height="2.6" width="2.6" x="168.0" y="15.0"><title>2023-11-30 13.2 km</title></rect><rect fill="#444444" height="2.6" width="2.6" x="168.0" y="18.5"><title>2023-12-01</title></rect><rect fill="#ffa000" height="2.6" width="2.6" x="168.0" y="22.0"><title>2023-12-02 13.2 km</title></rect><rect fill="red" height="2.6" width="2.6" x="168.0" y="25.5"><title>2023-12-03 21.5 km</title></rect><rect fill="#444444" height="2.6" width="2.6" x="171.5" y="4.5"><title>2023-12-04</title></rect><rect fill="#ffa000" height="2.6" width="2.6" x="171.5" y="8.0"><title>2023-12-05 13.2 km</title></rect><rect fill="#ffa000" height="2.6" width="2.6" x="171.5" y="11.5"><title>2023-12-06 13.2 km</title></rect><rect fill="#4dd2ff" height="2.6" width="2.6" x="171.5" y="15.0"><title>2023-12-07 9.2 km</title></rect><rect fill="#444444" height="2.6" width="2.6" x="171.5" y="18.5"><title>2023-12-08</title></rect><rect fill="#ff8d00" height="2.6" width="2.6" x="171.5" y="22.0"><title>2023-12-09 15.2 km</title></rect><rect fill="red" height="2.6" width="2.6" x="171.5" y="25.5"><title>2023-12-10 30.0 km</title></rect><rect fill="#444444" height="2.6" width="2.6" x="175.0" y="4.5"><title>2023-12-11</title></rect><rect fill="#444444" height="2.6" width="2.6" x="175.0" y="8.0"><title>2023-12-12</title></rect><rect fill="#ffb200" height="2.6" width="2.6" x="175.0" y="11.5"><title>2023-12-13 11.2 km</title></rect><rect fill="#ffab00" height="2.6" width="2.6" x="175.0" y="15.0"><title>2023-12-14 12.0 km</title></rect><rect fill="#444444" height="2.6" width="2.6" x="175.0" y="18.5"><title>2023-12-15</title></rect><rect fill="#ff9300" height="2.6" width="2.6" x="175.0" y="22.0"><title>2023-12-16 14.5 km</title></rect><rect fill="red" height="2.6" width="2.6" x="175.0" y="25.5"><title>2023-12-17 30.1 km</title></rect><rect fill="#444444" height="2.6" width="2.6" x="178.5" y="4.5"><title>2023-12-18</title></rect><rect fill="#444444" height="2.6" width="2.6" x="178.5" y="8.0"><title>2023-12-19</title></rect><rect fill="#ffb300" height="2.6" width="2.6" x="178.5" y="11.5"><title>2023-12-20 11.2 km</title></rect><rect fill="#ff9800" height="2.6" width="2.6" x="178.5" y="15.0"><title>2023-12-21 14.0 km</title></rect><rect fill="#444444" height="2.6" width="2.6" x="178.5" y="18.5"><title>2023-12-22</title></rect><rect fill="#ff9400" height="2.6" width="2.6" x="178.5" y="22.0"><title>2023-12-23 14.4 km</title></rect><rect fill="red" height="2.6" width="2.6" x="178.5" y="25.5"><title>2023-12-24 30.0 km</title></rect><rect fill="#444444" height="2.6" width="2.6" x="182.0" y="4.5"><title>2023-12-25</title></rect><rect fill="#ffb300" height="2.6" width="2.6" x="182.0" y="8.0"><title>2023-12-26 11.2 km</title></rect><rect fill="#ff9300" height="2.6" width="2.6" x="182.0" y="11.5"><title>2023-12-27 14.5 km</title></rect><rect fill="#444444" height="2.6" width="2.6" x="182.0" y="15.0"><title>2023-12-28</title></rect><rect fill="#ffab00" height="2.6" width="2.6" x="182.0" y="18.5"><title>2023-12-29 12.0 km</title></rect><rect fill="#4dd2ff" height="2.6" width="2.6" x="182.0" y="22.0"><title>2023-12-30 3.6 km</title></rect><rect fill="#4dd2ff" height="2.6" width="2.6" x="182.0" y="25.5"><title>2023-12-31 7.0 km</title></rect></svg>