<?xml version="1.0" encoding="utf-8" ?>
<svg baseProfile="full" height="32mm" version="1.1" viewBox="0,0,190,32" width="190mm" xmlns="http://www.w3.org/2000/svg" xmlns:ev="http://www.w3.org/2001/xml-events" xmlns:xlink="http://www.w3.org/1999/xlink"><defs /><rect fill="none" height="32" width="190" x="0" y="0" /><text fill="#FFFFFF" style="font-size:2.5px; font-family:Arial" x="0.0" y="3.0">Jan</text><text fill="#FFFFFF" style="font-size:2.5px; font-family:Arial" x="15.5" y="3.0">Feb</text><text fill="#FFFFFF" style="font-size:2.5px; font-family:Arial" x="31.0" y="3.0">Mar</text><text fill="#FFFFFF" style="font-size:2.5px; font-family:Arial" x="46.5" y="3.0">Apr</text><text fill="#FFFFFF" style="font-size:2.5px; font-family:Arial" x="62.0" y="3.0">May</text><text fill="#FFFFFF" style="font-size:2.5px; font-family:Arial" x="77.5" y="3.0">Jun</text><text fill="#FFFFFF" style="font-size:2.5px; font-family:Arial" x="93.0" y="3.0">Jul</text><text fill="#FFFFFF" style="font-size:2.5px; font-family:Arial" x="108.5" y="3.0">Aug</text><text fill="#FFFFFF" style="font-size:2.5px; font-family:Arial" x="124.0" y="3.0">Sep</text><text fill="#FFFFFF" style="font-size:2.5px; font-family:Arial" x="139.5" y="3.0">Oct</text><text fill="#FFFFFF" style="font-size:2.5px; font-family:Arial" x="155.0" y="3.0">Nov</text><text fill="#FFFFFF" style="font-size:2.5px; font-family:Arial" x="170.5" y="3.0">Dec</text><rect fill="red" height="2.6" width="2.6" x="0.0" y="4.5"><title>2024-01-01 20.2 km</title></rect><rect fill="#444444" height="2.6" width="2.6" x="0.0" y="8.0"><title>2024-01-02</title></rect><rect fill="#ffcc00" height="2.6" width="2.6" x="0.0" y="11.5"><title>2024-01-03 11.2 km</title></rect><rect fill="#4dd2ff" height="2.6" width="2.6" x="0.0" y="15.0"><title>2024-01-04 8.6 km</title></rect><rect fill="#ffcd00" height="2.6" width="2.6" x="0.0" y="18.5"><title>2024-01-05 11.2 km</title></rect><rect fill="#4dd2ff" height="2.6" width="2.6" x="0.0" y="22.0"><title>2024-01-06 5.3 km</title></rect><rect fill="#444444" height="2.6" width="2.6" x="0.0" y="25.5"><title>2024-01-07</title></rect><rect fill="#444444" height="2.6" width="2.6" x="3.5" y="4.5"><title>2024-01-08</title></rect><rect fill="#444444" height="2.6" width="2.6" x="3.5" y="8.0"><title>2024-01-09</title></rect><rect fill="#444444" height="2.6" width="2.6" x="3.5" y="11.5"><title>2024-01-10</title></rect><rect fill="#444444" height="2.6" width="2.6" x="3.5" y="15.0"><title>2024-01-11</title></rect><rect fill="#444444" height="2.6" width="2.6" x="3.5" y="18.5"><title>2024-01-12</title></rect><rect fill="#4dd2ff" height="2.6" width="2.6" x="3.5" y="22.0"><title>2024-01-13 6.0 km</title></rect><rect fill="#4dd2ff" height="2.6" width="2.6" x="3.5" y="25.5"><title>2024-01-14 6.1 km</title></rect><rect fill="#444444" height="2.6" width="2.6" x="7.0" y="4.5"><title>2024-01-15</title></rect><rect fill="#444444" height="2.6" width="2.6" x="7.0" y="8.0"><title>2024-01-16</title></rect><rect fill="#444444" height="2.6" width="2.6" x="7.0" y="11.5"><title>2024-01-17</title></rect><rect fill="#444444" height="2.6" width="2.6" x="7.0" y="15.0"><title>2024-01-18</title></rect><rect fill="#444444" height="2.6" width="2.6" x="7.0" y="18.5"><title>2024-01-19</title></rect><rect fill="#444444" height="2.6" width="2.6" x="7.0" y="22.0"><title>2024-01-20</title></rect><rect fill="red" height="2.6" width="2.6" x="7.0" y="25.5"><title>2024-01-21 29.8 km</title></rect><rect fill="#444444" height="2.6" width="2.6" x="10.5" y="4.5"><title>2024-01-22</title></rect><rect fill="#444444" height="2.6" width="2.6" x="10.5" y="8.0"><title>2024-01-23</title></rect><rect fill="#444444" height="2.6" width="2.6" x="10.5" y="11.5"><title>2024-01-24</title></rect><rect fill="#ffc900" height="2.6" width="2.6" x="10.5" y="15.0"><title>2024-01-25 11.8 km</title></rect><rect fill="#ffc700" height="2.6" width="2.6" x="10.5" y="18.5"><title>2024-01-26 12.0 km</title></rect><rect fill="#444444" height="2.6" width="2.6" x="10.5" y="22.0"><title>2024-01-27</title></rect><rect fill="red" height="2.6" width="2.6" x="10.5" y="25.5"><title>2024-01-28 25.0 km</title></rect><rect fill="#444444" height="2.6" width="2.6" x="14.0" y="4.5"><title>2024-01-29</title></rect><rect fill="#444444" height="2.6" width="2.6" x="14.0" y="8.0"><title>2024-01-30</title></rect><rect fill="#ffcd00" height="2.6" width="2.6" x="14.0" y="11.5"><title>2024-01-31 11.2 km</title></rect><rect fill="#444444" height="2.6" width="2.6" x="14.0" y="15.0"><title>2024-02-01</title></rect><rect fill="#ffbc00" height="2.6" width="2.6" x="14.0" y="18.5"><title>2024-02-02 13.8 km</title></rect><rect fill="#ffcc00" height="2.6" width="2.6" x="14.0" y="22.0"><title>2024-02-03 11.2 km</title></rect><rect fill="#444444" height="2.6" width="2.6" x="14.0" y="25.5"><title>2024-02-04</title></rect><rect fill="#ffba00" height="2.6" width="2.6" x="17.5" y="4.5"><title>2024-02-05 14.1 km</title></rect><rect fill="#ffcc00" height="2.6" width="2.6" x="17.5" y="8.0"><title>2024-02-06 11.3 km</title></rect><rect fill="#ffba00" height="2.6" width="2.6" x="17.5" y="11.5"><title>2024-02-07 14.1 km</title></rect><rect fill="#ffcc00" height="2.6" width="2.6" x="17.5" y="15.0"><title>2024-02-08 11.3 km</title></rect><rect fill="#444444" height="2.6" width="2.6" x="17.5" y="18.5"><title>2024-02-09</title></rect><rect fill="#ffb900" height="2.6" width="2.6" x="17.5" y="22.0"><title>2024-02-10 14.1 km</title></rect><rect fill="#ffcb00" height="2.6" width="2.6" x="17.5" y="25.5"><title>2024-02-11 11.5 km</title></rect><rect fill="#ff9f00" height="2.6" width="2.6" x="21.0" y="4.5"><title>2024-02-12 18.2 km</title></rect><rect fill="#ffcb00" height="2.6" width="2.6" x="21.0" y="8.0"><title>2024-02-13 11.4 km</title></rect><rect fill="#444444" height="2.6" width="2.6" x="21.0" y="11.5"><title>2024-02-14</title></rect><rect fill="#ffb800" height="2.6" width="2.6" x="21.0" y="15.0"><title>2024-02-15 14.4 km</title></rect><rect fill="#ffcc00" height="2.6" width="2.6" x="21.0" y="18.5"><title>2024-02-16 11.2 km</title></rect><rect fill="#ffd400" height="2.6" width="2.6" x="21.0" y="22.0"><title>2024-02-17 10.0 km</title></rect><rect fill="#444444" height="2.6" width="2.6" x="21.0" y="25.5"><title>2024-02-18</title></rect><rect fill="#ffcd00" height="2.6" width="2.6" x="24.5" y="4.5"><title>2024-02-19 11.2 km</title></rect><rect fill="#444444" height="2.6" width="2.6" x="24.5" y="8.0"><title>2024-02-20</title></rect><rect fill="#444444" height="2.6" width="2.6" x="24.5" y="11.5"><title>2024-02-21</title></rect><rect fill="#444444" height="2.6" width="2.6" x="24.5" y="15.0"><title>2024-02-22</title></rect><rect fill="#ffba00" height="2.6" width="2.6" x="24.5" y="18.5"><title>2024-02-23 14.1 km</title></rect><rect fill="#444444" height="2.6" width="2.6" x="24.5" y="22.0"><title>2024-02-24</title></rect><rect fill="#ffb800" height="2.6" width="2.6" x="24.5" y="25.5"><title>2024-02-25 14.4 km</title></rect><rect fill="#444444" height="2.6" width="2.6" x="28.0" y="4.5"><title>2024-02-26</title></rect><rect fill="#ffcc00" height="2.6" width="2.6" x="28.0" y="8.0"><title>2024-02-27 11.3 km</title></rect><rect fill="#444444" height="2.6" width="2.6" x="28.0" y="11.5"><title>2024-02-28</title></rect><rect fill="#444444" height="2.6" width="2.6" x="28.0" y="15.0"><title>2024-02-29</title></rect><rect fill="#ffba00" height="2.6" width="2.6" x="28.0" y="18.5"><title>2024-03-01 14.1 km</title></rect><rect fill="#ffc000" height="2.6" width="2.6" x="28.0" y="22.0"><title>2024-03-02 13.2 km</title></rect><rect fill="red" height="2.6" width="2.6" x="28.0" y="25.5"><title>2024-03-03 25.0 km</title></rect><rect fill="#444444" height="2.6" width="2.6" x="31.5" y="4.5"><title>2024-03-04</title></rect><rect fill="#444444" height="2.6" width="2.6" x="31.5" y="8.0"><title>2024-03-05</title></rect><rect fill="#ffba00" height="2.6" width="2.6" x="31.5" y="11.5"><title>2024-03-06 14.1 km</title></rect><rect fill="#ffd400" height="2.6" width="2.6" x="31.5" y="15.0"><title>2024-03-07 10.0 km</title></rect><rect fill="#ffba00" height="2.6" width="2.6" x="31.5" y="18.5"><title>2024-03-08 14.1 km</title></rect><rect fill="#444444" height="2.6" width="2.6" x="31.5" y="22.0"><title>2024-03-09</title></rect><rect fill="#ffba00" height="2.6" width="2.6" x="31.5" y="25.5"><title>2024-03-10 14.1 km</title></rect><rect fill="#444444" height="2.6" width="2.6" x="35.0" y="4.5"><title>2024-03-11</title></rect><rect fill="#ffba00" height="2.6" width="2.6" x="35.0" y="8.0"><title>2024-03-12 14.1 km</title></rect><rect fill="#ffba00" height="2.6" width="2.6" x="35.0" y="11.5"><title>2024-03-13 14.1 km</title></rect><rect fill="#ffba00" height="2.6" width="2.6" x="35.0" y="15.0"><title>2024-03-14 14.1 km</title></rect><rect fill="#4dd2ff" height="2.6" width="2.6" x="35.0" y="18.5"><title>2024-03-15 3.5 km</title></rect><rect fill="#ffba00" height="2.6" width="2.6" x="35.0" y="22.0"><title>2024-03-16 14.1 km</title></rect><rect fill="#ffd300" height="2.6" width="2.6" x="35.0" y="25.5"><title>2024-03-17 10.2 km</title></rect><rect fill="#444444" height="2.6" width="2.6" x="38.5" y="4.5"><title>2024-03-18</title></rect><rect fill="#ffc000" height="2.6" width="2.6" x="38.5" y="8.0"><title>2024-03-19 13.2 km</title></rect><rect fill="#ffcc00" height="2.6" width="2.6" x="38.5" y="11.5"><title>2024-03-20 11.2 km</title></rect><rect fill="#ffba00" height="2.6" width="2.6" x="38.5" y="15.0"><title>2024-03-21 14.1 km</title></rect><rect fill="#ffd400" height="2.6" width="2.6" x="38.5" y="18.5"><title>2024-03-22 10.0 km</title></rect><rect fill="#ffcc00" height="2.6" width="2.6" x="38.5" y="22.0"><title>2024-03-23 11.2 km</title></rect><rect fill="#444444" height="2.6" width="2.6" x="38.5" y="25.5"><title>2024-03-24</title></rect><rect fill="#444444" height="2.6" width="2.6" x="42.0" y="4.5"><title>2024-03-25</title></rect><rect fill="#ffba00" height="2.6" width="2.6" x="42.0" y="8.0"><title>2024-03-26 14.1 km</title></rect><rect fill="#ffba00" height="2.6" width="2.6" x="42.0" y="11.5"><title>2024-03-27 14.1 km</title></rect><rect fill="#444444" height="2.6" width="2.6" x="42.0" y="15.0"><title>2024-03-28</title></rect><rect fill="#ffb800" height="2.6" width="2.6" x="42.0" y="18.5"><title>2024-03-29 14.4 km</title></rect><rect fill="#ffcc00" height="2.6" width="2.6" x="42.0" y="22.0"><title>2024-03-30 11.2 km</title></rect><rect fill="#ffc200" height="2.6" width="2.6" x="42.0" y="25.5"><title>2024-03-31 12.8 km</title></rect><rect fill="#444444" height="2.6" width="2.6" x="45.5" y="4.5"><title>2024-04-01</title></rect><rect fill="#4dd2ff" height="2.6" width="2.6" x="45.5" y="8.0"><title>2024-04-02 5.1 km</title></rect><rect fill="#ffba00" height="2.6" width="2.6" x="45.5" y="11.5"><title>2024-04-03 14.1 km</title></rect><rect fill="#444444" height="2.6" width="2.6" x="45.5" y="15.0"><title>2024-04-04</title></rect><rect fill="#ffb800" height="2.6" width="2.6" x="45.5" y="18.5"><title>2024-04-05 14.3 km</title></rect><rect fill="#444444" height="2.6" width="2.6" x="45.5" y="22.0"><title>2024-04-06</title></rect><rect fill="#ffb800" height="2.6" width="2.6" x="45.5" y="25.5"><title>2024-04-07 14.4 km</title></rect><rect fill="#444444" height="2.6" width="2.6" x="49.0" y="4.5"><title>2024-04-08</title></rect><rect fill="#ffba00" height="2.6" width="2.6" x="49.0" y="8.0"><title>2024-04-09 14.1 km</title></rect><rect fill="#444444" height="2.6" width="2.6" x="49.0" y="11.5"><title>2024-04-10</title></rect><rect fill="#ffb800" height="2.6" width="2.6" x="49.0" y="15.0"><title>2024-04-11 14.4 km</title></rect><rect fill="#ffba00" height="2.6" width="2.6" x="49.0" y="18.5"><title>2024-04-12 14.0 km</title></rect><rect fill="#444444" height="2.6" width="2.6" x="49.0" y="22.0"><title>2024-04-13</title></rect><rect fill="#ffd000" height="2.6" width="2.6" x="49.0" y="25.5"><title>2024-04-14 10.6 km</title></rect><rect fill="#444444" height="2.6" width="2.6" x="52.5" y="4.5"><title>2024-04-15</title></rect><rect fill="#ffd400" height="2.6" width="2.6" x="52.5" y="8.0"><title>2024-04-16 10.1 km</title></rect><rect fill="#444444" height="2.6" width="2.6" x="52.5" y="11.5"><title>2024-04-17</title></rect><rect fill="#ffb800" height="2.6" width="2.6" x="52.5" y="15.0"><title>2024-04-18 14.4 km</title></rect><rect fill="#444444" height="2.6" width="2.6" x="52.5" y="18.5"><title>2024-04-19</title></rect><rect fill="#ffc700" height="2.6" width="2.6" x="52.5" y="22.0"><title>2024-04-20 12.0 km</title></rect><rect fill="#ffba00" height="2.6" width="2.6" x="52.5" y="25.5"><title>2024-04-21 14.0 km</title></rect><rect fill="#444444" height="2.6" width="2.6" x="56.0" y="4.5"><title>2024-04-22</title></rect><rect fill="#444444" height="2.6" width="2.6" x="56.0" y="8.0"><title>2024-04-23</title></rect><rect fill="#ffb800" height="2.6" width="2.6" x="56.0" y="11.5"><title>2024-04-24 14.4 km</title></rect><rect fill="#ffc000" height="2.6" width="2.6" x="56.0" y="15.0"><title>2024-04-25 13.2 km</title></rect><rect fill="#444444" height="2.6" width="2.6" x="56.0" y="18.5"><title>2024-04-26</title></rect><rect fill="#ffa500" height="2.6" width="2.6" x="56.0" y="22.0"><title>2024-04-27 17.2 km</title></rect><rect fill="#444444" height="2.6" width="2.6" x="56.0" y="25.5"><title>2024-04-28</title></rect><rect fill="#ffba00" height="2.6" width="2.6" x="59.5" y="4.5"><title>2024-04-29 14.1 km</title></rect><rect fill="#ffcb00" height="2.6" width="2.6" x="59.5" y="8.0"><title>2024-04-30 11.5 km</title></rect><rect fill="#ffcc00" height="2.6" width="2.6" x="59.5" y="11.5"><title>2024-05-01 11.2 km</title></rect><rect fill="#444444" height="2.6" width="2.6" x="59.5" y="15.0"><title>2024-05-02</title></rect><rect fill="#ffb800" height="2.6" width="2.6" x="59.5" y="18.5"><title>2024-05-03 14.3 km</title></rect><rect fill="#444444" height="2.6" width="2.6" x="59.5" y="22.0"><title>2024-05-04</title></rect><rect fill="#444444" height="2.6" width="2.6" x="59.5" y="25.5"><title>2024-05-05</title></rect><rect fill="#4dd2ff" height="2.6" width="2.6" x="63.0" y="4.5"><title>2024-05-06 3.5 km</title></rect><rect fill="#444444" height="2.6" width="2.6" x="63.0" y="8.0"><title>2024-05-07</title></rect><rect fill="#ffb000" height="2.6" width="2.6" x="63.0" y="11.5"><title>2024-05-08 15.6 km</title></rect><rect fill="#ffd400" height="2.6" width="2.6" x="63.0" y="15.0"><title>2024-05-09 10.0 km</title></rect><rect fill="#ffc100" height="2.6" width="2.6" x="63.0" y="18.5"><title>2024-05-10 13.0 km</title></rect><rect fill="#ffba00" height="2.6" width="2.6" x="63.0" y="22.0"><title>2024-05-11 14.1 km</title></rect><rect fill="#444444" height="2.6" width="2.6" x="63.0" y="25.5"><title>2024-05-12</title></rect><rect fill="#444444" height="2.6" width="2.6" x="66.5" y="4.5"><title>2024-05-13</title></rect><rect fill="#ffc100" height="2.6" width="2.6" x="66.5" y="8.0"><title>2024-05-14 13.0 km</title></rect><rect fill="#ffb800" height="2.6" width="2.6" x="66.5" y="11.5"><title>2024-05-15 14.4 km</title></rect><rect fill="#ffc700" height="2.6" width="2.6" x="66.5" y="15.0"><title>2024-05-16 12.0 km</title></rect><rect fill="#ffcd00" height="2.6" width="2.6" x="66.5" y="18.5"><title>2024-05-17 11.2 km</title></rect><rect fill="#444444" height="2.6" width="2.6" x="66.5" y="22.0"><title>2024-05-18</title></rect><rect fill="red" height="2.6" width="2.6" x="66.5" y="25.5"><title>2024-05-19 21.2 km</title></rect><rect fill="#444444" height="2.6" width="2.6" x="70.0" y="4.5"><title>2024-05-20</title></rect><rect fill="#444444" height="2.6" width="2.6" x="70.0" y="8.0"><title>2024-05-21</title></rect><rect fill="#444444" height="2.6" width="2.6" x="70.0" y="11.5"><title>2024-05-22</title></rect><rect fill="#444444" height="2.6" width="2.6" x="70.0" y="15.0"><title>2024-05-23</title></rect><rect fill="#444444" height="2.6" width="2.6" x="70.0" y="18.5"><title>2024-05-24</title></rect><rect fill="#444444" height="2.6" width="2.6" x="70.0" y="22.0"><title>2024-05-25</title></rect><rect fill="#444444" height="2.6" width="2.6" x="70.0" y="25.5"><title>2024-05-26</title></rect><rect fill="#444444" height="2.6" width="2.6" x="73.5" y="4.5"><title>2024-05-27</title></rect><rect fill="#444444" height="2.6" width="2.6" x="73.5" y="8.0"><title>2024-05-28</title></rect><rect fill="#ffcc00" height="2.6" width="2.6" x="73.5" y="11.5"><title>2024-05-29 11.3 km</title></rect><rect fill="#ffc000" height="2.6" width="2.6" x="73.5" y="15.0"><title>2024-05-30 13.2 km</title></rect><rect fill="#444444" height="2.6" width="2.6" x="73.5" y="18.5"><title>2024-05-31</title></rect><rect fill="#ffcc00" height="2.6" width="2.6" x="73.5" y="22.0"><title>2024-06-01 11.2 km</title></rect><rect fill="#ffb800" height="2.6" width="2.6" x="73.5" y="25.5"><title>2024-06-02 14.4 km</title></rect><rect fill="#ffcc00" height="2.6" width="2.6" x="77.0" y="4.5"><title>2024-06-03 11.3 km</title></rect><rect fill="#444444" height="2.6" width="2.6" x="77.0" y="8.0"><title>2024-06-04</title></rect><rect fill="#ffb800" height="2.6" width="2.6" x="77.0" y="11.5"><title>2024-06-05 14.4 km</title></rect><rect fill="#ffd300" height="2.6" width="2.6" x="77.0" y="15.0"><title>2024-06-06 10.2 km</title></rect><rect fill="#ffc000" height="2.6" width="2.6" x="77.0" y="18.5"><title>2024-06-07 13.1 km</title></rect><rect fill="#444444" height="2.6" width="2.6" x="77.0" y="22.0"><title>2024-06-08</title></rect><rect fill="#ffc600" height="2.6" width="2.6" x="77.0" y="25.5"><title>2024-06-09 12.2 km</title></rect><rect fill="#ffcc00" height="2.6" width="2.6" x="80.5" y="4.5"><title>2024-06-10 11.2 km</title></rect><rect fill="#444444" height="2.6" width="2.6" x="80.5" y="8.0"><title>2024-06-11</title></rect><rect fill="#ffb800" height="2.6" width="2.6" x="80.5" y="11.5"><title>2024-06-12 14.4 km</title></rect><rect fill="#ffc200" height="2.6" width="2.6" x="80.5" y="15.0"><title>2024-06-13 12.8 km</title></rect><rect fill="#4dd2ff" height="2.6" width="2.6" x="80.5" y="18.5"><title>2024-06-14 6.2 km</title></rect><rect fill="#ffd300" height="2.6" width="2.6" x="80.5" y="22.0"><title>2024-06-15 10.2 km</title></rect><rect fill="red" height="2.6" width="2.6" x="80.5" y="25.5"><title>2024-06-16 25.0 km</title></rect><rect fill="#444444" height="2.6" width="2.6" x="84.0" y="4.5"><title>2024-06-17</title></rect><rect fill="#ffc100" height="2.6" width="2.6" x="84.0" y="8.0"><title>2024-06-18 13.0 km</title></rect><rect fill="#444444" height="2.6" width="2.6" x="84.0" y="11.5"><title>2024-06-19</title></rect><rect fill="#444444" height="2.6" width="2.6" x="84.0" y="15.0"><title>2024-06-20</title></rect><rect fill="#ffb800" height="2.6" width="2.6" x="84.0" y="18.5"><title>2024-06-21 14.3 km</title></rect><rect fill="#ffd400" height="2.6" width="2.6" x="84.0" y="22.0"><title>2024-06-22 10.0 km</title></rect><rect fill="red" height="2.6" width="2.6" x="84.0" y="25.5"><title>2024-06-23 21.4 km</title></rect><rect fill="#444444" height="2.6" width="2.6" x="87.5" y="4.5"><title>2024-06-24</title></rect><rect fill="#444444" height="2.6" width="2.6" x="87.5" y="8.0"><title>2024-06-25</title></rect><rect fill="#444444" height="2.6" width="2.6" x="87.5" y="11.5"><title>2024-06-26</title></rect><rect fill="#444444" height="2.6" width="2.6" x="87.5" y="15.0"><title>2024-06-27</title></rect><rect fill="#ffcc00" height="2.6" width="2.6" x="87.5" y="18.5"><title>2024-06-28 11.2 km</title></rect><rect fill="red" height="2.6" width="2.6" x="87.5" y="22.0"><title>2024-06-29 20.6 km</title></rect><rect fill="#ffc600" height="2.6" width="2.6" x="87.5" y="25.5"><title>2024-06-30 12.3 km</title></rect><rect fill="#444444" height="2.6" width="2.6" x="91.0" y="4.5"><title>2024-07-01</title></rect><rect fill="#ffc700" height="2.6" width="2.6" x="91.0" y="8.0"><title>2024-07-02 12.1 km</title></rect><rect fill="#444444" height="2.6" width="2.6" x="91.0" y="11.5"><title>2024-07-03</title></rect><rect fill="#ffce00" height="2.6" width="2.6" x="91.0" y="15.0"><title>2024-07-04 11.1 km</title></rect><rect fill="#ffd400" height="2.6" width="2.6" x="91.0" y="18.5"><title>2024-07-05 10.1 km</title></rect><rect fill="#444444" height="2.6" width="2.6" x="91.0" y="22.0"><title>2024-07-06</title></rect><rect fill="#4dd2ff" height="2.6" width="2.6" x="91.0" y="25.5"><title>2024-07-07 9.3 km</title></rect><rect fill="#444444" height="2.6" width="2.6" x="94.5" y="4.5"><title>2024-07-08</title></rect><rect fill="#ffd400" height="2.6" width="2.6" x="94.5" y="8.0"><title>2024-07-09 10.0 km</title></rect><rect fill="#444444" height="2.6" width="2.6" x="94.5" y="11.5"><title>2024-07-10</title></rect><rect fill="#444444" height="2.6" width="2.6" x="94.5" y="15.0"><title>2024-07-11</title></rect><rect fill="#ffd100" height="2.6" width="2.6" x="94.5" y="18.5"><title>2024-07-12 10.5 km</title></rect><rect fill="#444444" height="2.6" width="2.6" x="94.5" y="22.0"><title>2024-07-13</title></rect><rect fill="#444444" height="2.6" width="2.6" x="94.5" y="25.5"><title>2024-07-14</title></rect><rect fill="#444444" height="2.6" width="2.6" x="98.0" y="4.5"><title>2024-07-15</title></rect><rect fill="#ffd400" height="2.6" width="2.6" x="98.0" y="8.0"><title>2024-07-16 10.0 km</title></rect><rect fill="#ffd400" height="2.6" width="2.6" x="98.0" y="11.5"><title>2024-07-17 10.0 km</title></rect><rect fill="#444444" height="2.6" width="2.6" x="98.0" y="15.0"><title>2024-07-18</title></rect><rect fill="#4dd2ff" height="2.6" width="2.6" x="98.0" y="18.5"><title>2024-07-19 5.0 km</title></rect><rect fill="#444444" height="2.6" width="2.6" x="98.0" y="22.0"><title>2024-07-20</title></rect><rect fill="red" height="2.6" width="2.6" x="98.0" y="25.5"><title>2024-07-21 21.1 km</title></rect><rect fill="#444444" height="2.6" width="2.6" x="101.5" y="4.5"><title>2024-07-22</title></rect><rect fill="#ffd400" height="2.6" width="2.6" x="101.5" y="8.0"><title>2024-07-23 10.0 km</title></rect><rect fill="#ffce00" height="2.6" width="2.6" x="101.5" y="11.5"><title>2024-07-24 11.0 km</title></rect><rect fill="#444444" height="2.6" width="2.6" x="101.5" y="15.0"><title>2024-07-25</title></rect><rect fill="#4dd2ff" height="2.6" width="2.6" x="101.5" y="18.5"><title>2024-07-26 5.0 km</title></rect><rect fill="#ffb600" height="2.6" width="2.6" x="101.5" y="22.0"><title>2024-07-27 14.7 km</title></rect><rect fill="#ffd400" height="2.6" width="2.6" x="101.5" y="25.5"><title>2024-07-28 10.1 km</title></rect><rect fill="#444444" height="2.6" width="2.6" x="105.0" y="4.5"><title>2024-07-29</title></rect><rect fill="#ffd400" height="2.6" width="2.6" x="105.0" y="8.0"><title>2024-07-30 10.0 km</title></rect><rect fill="#ffbc00" height="2.6" width="2.6" x="105.0" y="11.5"><title>2024-07-31 13.8 km</title></rect><rect fill="#444444" height="2.6" width="2.6" x="105.0" y="15.0"><title>2024-08-01</title></rect><rect fill="#ffd400" height="2.6" width="2.6" x="105.0" y="18.5"><title>2024-08-02 10.0 km</title></rect><rect fill="#444444" height="2.6" width="2.6" x="105.0" y="22.0"><title>2024-08-03</title></rect><rect fill="#444444" height="2.6" width="2.6" x="105.0" y="25.5"><title>2024-08-04</title></rect><rect fill="#444444" height="2.6" width="2.6" x="108.5" y="4.5"><title>2024-08-05</title></rect><rect fill="#444444" height="2.6" width="2.6" x="108.5" y="8.0"><title>2024-08-06</title></rect><rect fill="#ffd400" height="2.6" width="2.6" x="108.5" y="11.5"><title>2024-08-07 10.0 km</title></rect><rect fill="#444444" height="2.6" width="2.6" x="108.5" y="15.0"><title>2024-08-08</title></rect><rect fill="#4dd2ff" height="2.6" width="2.6" x="108.5" y="18.5"><title>2024-08-09 8.3 km</title></rect><rect fill="#ffd300" height="2.6" width="2.6" x="108.5" y="22.0"><title>2024-08-10 10.3 km</title></rect><rect fill="#ffd100" height="2.6" width="2.6" x="108.5" y="25.5"><title>2024-08-11 10.5 km</title></rect><rect fill="#444444" height="2.6" width="2.6" x="112.0" y="4.5"><title>2024-08-12</title></rect><rect fill="#ffd400" height="2.6" width="2.6" x="112.0" y="8.0"><title>2024-08-13 10.1 km</title></rect><rect fill="#ffce00" height="2.6" width="2.6" x="112.0" y="11.5"><title>2024-08-14 11.0 km</title></rect><rect fill="#444444" height="2.6" width="2.6" x="112.0" y="15.0"><title>2024-08-15</title></rect><rect fill="#ffc100" height="2.6" width="2.6" x="112.0" y="18.5"><title>2024-08-16 13.0 km</title></rect><rect fill="#ffb900" height="2.6" width="2.6" x="112.0" y="22.0"><title>2024-08-17 14.2 km</title></rect><rect fill="#4dd2ff" height="2.6" width="2.6" x="112.0" y="25.5"><title>2024-08-18 5.0 km</title></rect><rect fill="#444444" height="2.6" width="2.6" x="115.5" y="4.5"><title>2024-08-19</title></rect><rect fill="#ffc500" height="2.6" width="2.6" x="115.5" y="8.0"><title>2024-08-20 12.4 km</title></rect><rect fill="#444444" height="2.6" width="2.6" x="115.5" y="11.5"><title>2024-08-21</title></rect><rect fill="#ffb700" height="2.6" width="2.6" x="115.5" y="15.0"><title>2024-08-22 14.6 km</title></rect><rect fill="#ffd400" height="2.6" width="2.6" x="115.5" y="18.5"><title>2024-08-23 10.0 km</title></rect><rect fill="#ffc100" height="2.6" width="2.6" x="115.5" y="22.0"><title>2024-08-24 13.0 km</title></rect><rect fill="#4dd2ff" height="2.6" width="2.6" x="115.5" y="25.5"><title>2024-08-25 7.7 km</title></rect><rect fill="#444444" height="2.6" width="2.6" x="119.0" y="4.5"><title>2024-08-26</title></rect><rect fill="#ffd400" height="2.6" width="2.6" x="119.0" y="8.0"><title>2024-08-27 10.0 km</title></rect><rect fill="#4dd2ff" height="2.6" width="2.6" x="119.0" y="11.5"><title>2024-08-28 8.2 km</title></rect><rect fill="#444444" height="2.6" width="2.6" x="119.0" y="15.0"><title>2024-08-29</title></rect><rect fill="#ffca00" height="2.6" width="2.6" x="119.0" y="18.5"><title>2024-08-30 11.7 km</title></rect><rect fill="#ffd400" height="2.6" width="2.6" x="119.0" y="22.0"><title>2024-08-31 10.1 km</title></rect><rect fill="red" height="2.6" width="2.6" x="119.0" y="25.5"><title>2024-09-01 21.2 km</title></rect><rect fill="#444444" height="2.6" width="2.6" x="122.5" y="4.5"><title>2024-09-02</title></rect><rect fill="#ffd400" height="2.6" width="2.6" x="122.5" y="8.0"><title>2024-09-03 10.0 km</title></rect><rect fill="#ffb900" height="2.6" width="2.6" x="122.5" y="11.5"><title>2024-09-04 14.3 km</title></rect><rect fill="#444444" height="2.6" width="2.6" x="122.5" y="15.0"><title>2024-09-05</title></rect><rect fill="#ffba00" height="2.6" width="2.6" x="122.5" y="18.5"><title>2024-09-06 14.0 km</title></rect><rect fill="#ffd300" height="2.6" width="2.6" x="122.5" y="22.0"><title>2024-09-07 10.3 km</title></rect><rect fill="red" height="2.6" width="2.6" x="122.5" y="25.5"><title>2024-09-08 21.4 km</title></rect><rect fill="#444444" height="2.6" width="2.6" x="126.0" y="4.5"><title>2024-09-09</title></rect><rect fill="#ffd300" height="2.6" width="2.6" x="126.0" y="8.0"><title>2024-09-10 10.2 km</title></rect><rect fill="#444444" height="2.6" width="2.6" x="126.0" y="11.5"><title>2024-09-11</title></rect><rect fill="#ffb800" height="2.6" width="2.6" x="126.0" y="15.0"><title>2024-09-12 14.4 km</title></rect><rect fill="#ffd200" height="2.6" width="2.6" x="126.0" y="18.5"><title>2024-09-13 10.4 km</title></rect><rect fill="#4dd2ff" height="2.6" width="2.6" x="126.0" y="22.0"><title>2024-09-14 5.0 km</title></rect><rect fill="#ffb800" height="2.6" width="2.6" x="126.0" y="25.5"><title>2024-09-15 14.4 km</title></rect><rect fill="#444444" height="2.6" width="2.6" x="129.5" y="4.5"><title>2024-09-16</title></rect><rect fill="#ffba00" height="2.6" width="2.6" x="129.5" y="8.0"><title>2024-09-17 14.1 km</title></rect><rect fill="#ffd400" height="2.6" width="2.6" x="129.5" y="11.5"><title>2024-09-18 10.0 km</title></rect><rect fill="#ffbd00" height="2.6" width="2.6" x="129.5" y="15.0"><title>2024-09-19 13.6 km</title></rect><rect fill="#444444" height="2.6" width="2.6" x="129.5" y="18.5"><title>2024-09-20</title></rect><rect fill="#4dd2ff" height="2.6" width="2.6" x="129.5" y="22.0"><title>2024-09-21 5.1 km</title></rect><rect fill="red" height="2.6" width="2.6" x="129.5" y="25.5"><title>2024-09-22 21.7 km</title></rect><rect fill="#444444" height="2.6" width="2.6" x="133.0" y="4.5"><title>2024-09-23</title></rect><rect fill="#444444" height="2.6" width="2.6" x="133.0" y="8.0"><title>2024-09-24</title></rect><rect fill="#ffd300" height="2.6" width="2.6" x="133.0" y="11.5"><title>2024-09-25 10.3 km</title></rect><rect fill="#444444" height="2.6" width="2.6" x="133.0" y="15.0"><title>2024-09-26</title></rect><rect fill="#ffd400" height="2.6" width="2.6" x="133.0" y="18.5"><title>2024-09-27 10.0 km</title></rect><rect fill="#444444" height="2.6" width="2.6" x="133.0" y="22.0"><title>2024-09-28</title></rect><rect fill="red" height="2.6" width="2.6" x="133.0" y="25.5"><title>2024-09-29 42.6 km</title></rect><rect fill="#444444" height="2.6" width="2.6" x="136.5" y="4.5"><title>2024-09-30</title></rect><rect fill="#444444" height="2.6" width="2.6" x="136.5" y="8.0"><title>2024-10-01</title></rect><rect fill="#444444" height="2.6" width="2.6" x="136.5" y="11.5"><title>2024-10-02</title></rect><rect fill="#444444" height="2.6" width="2.6" x="136.5" y="15.0"><title>2024-10-03</title></rect><rect fill="#444444" height="2.6" width="2.6" x="136.5" y="18.5"><title>2024-10-04</title></rect><rect fill="#444444" height="2.6" width="2.6" x="136.5" y="22.0"><title>2024-10-05</title></rect><rect fill="#444444" height="2.6" width="2.6" x="136.5" y="25.5"><title>2024-10-06</title></rect><rect fill="#444444" height="2.6" width="2.6" x="140.0" y="4.5"><title>2024-10-07</title></rect><rect fill="#ffd400" height="2.6" width="2.6" x="140.0" y="8.0"><title>2024-10-08 10.1 km</title></rect><rect fill="#444444" height="2.6" width="2.6" x="140.0" y="11.5"><title>2024-10-09</title></rect><rect fill="#444444" height="2.6" width="2.6" x="140.0" y="15.0"><title>2024-10-10</title></rect><rect fill="#444444" height="2.6" width="2.6" x="140.0" y="18.5"><title>2024-10-11</title></rect><rect fill="#ffca00" height="2.6" width="2.6" x="140.0" y="22.0"><title>2024-10-12 11.7 km</title></rect><rect fill="#ffd400" height="2.6" width="2.6" x="140.0" y="25.5"><title>2024-10-13 10.0 km</title></rect><rect fill="#444444" height="2.6" width="2.6" x="143.5" y="4.5"><title>2024-10-14</title></rect><rect fill="#444444" height="2.6" width="2.6" x="143.5" y="8.0"><title>2024-10-15</title></rect><rect fill="#ffb700" height="2.6" width="2.6" x="143.5" y="11.5"><title>2024-10-16 14.5 km</title></rect><rect fill="#ffb800" height="2.6" width="2.6" x="143.5" y="15.0"><title>2024-10-17 14.4 km</title></rect><rect fill="#444444" height="2.6" width="2.6" x="143.5" y="18.5"><title>2024-10-18</title></rect><rect fill="#ffcb00" height="2.6" width="2.6" x="143.5" y="22.0"><title>2024-10-19 11.5 km</title></rect><rect fill="#ffb800" height="2.6" width="2.6" x="143.5" y="25.5"><title>2024-10-20 14.4 km</title></rect><rect fill="#444444" height="2.6" width="2.6" x="147.0" y="4.5"><title>2024-10-21</title></rect><rect fill="#4dd2ff" height="2.6" width="2.6" x="147.0" y="8.0"><title>2024-10-22 6.0 km</title></rect><rect fill="#444444" height="2.6" width="2.6" x="147.0" y="11.5"><title>2024-10-23</title></rect><rect fill="#444444" height="2.6" width="2.6" x="147.0" y="15.0"><title>2024-10-24</title></rect><rect fill="#4dd2ff" height="2.6" width="2.6" x="147.0" y="18.5"><title>2024-10-25 6.0 km</title></rect><rect fill="#444444" height="2.6" width="2.6" x="147.0" y="22.0"><title>2024-10-26</title></rect><rect fill="#444444" height="2.6" width="2.6" x="147.0" y="25.5"><title>2024-10-27</title></rect><rect fill="#ffd000" height="2.6" width="2.6" x="150.5" y="4.5"><title>2024-10-28 10.7 km</title></rect><rect fill="#ffc900" height="2.6" width="2.6" x="150.5" y="8.0"><title>2024-10-29 11.8 km</title></rect><rect fill="#ffb800" height="2.6" width="2.6" x="150.5" y="11.5"><title>2024-10-30 14.4 km</title></rect><rect fill="#444444" height="2.6" width="2.6" x="150.5" y="15.0"><title>2024-10-31</title></rect><rect fill="#444444" height="2.6" width="2.6" x="150.5" y="18.5"><title>2024-11-01</title></rect><rect fill="#ffd100" height="2.6" width="2.6" x="150.5" y="22.0"><title>2024-11-02 10.5 km</title></rect><rect fill="#ffb800" height="2.6" width="2.6" x="150.5" y="25.5"><title>2024-11-03 14.4 km</title></rect><rect fill="#444444" height="2.6" width="2.6" x="154.0" y="4.5"><title>2024-11-04</title></rect><rect fill="#ffc100" height="2.6" width="2.6" x="154.0" y="8.0"><title>2024-11-05 13.0 km</title></rect><rect fill="#ffd400" height="2.6" width="2.6" x="154.0" y="11.5"><title>2024-11-06 10.0 km</title></rect><rect fill="#444444" height="2.6" width="2.6" x="154.0" y="15.0"><title>2024-11-07</title></rect><rect fill="#ffce00" height="2.6" width="2.6" x="154.0" y="18.5"><title>2024-11-08 11.1 km</title></rect><rect fill="red" height="2.6" width="2.6" x="154.0" y="22.0"><title>2024-11-09 27.3 km</title></rect><rect fill="#444444" height="2.6" width="2.6" x="154.0" y="25.5"><title>2024-11-10</title></rect><rect fill="#ffb700" height="2.6" width="2.6" x="157.5" y="4.5"><title>2024-11-11 14.5 km</title></rect><rect fill="#4dd2ff" height="2.6" width="2.6" x="157.5" y="8.0"><title>2024-11-12 5.0 km</title></rect><rect fill="#ffb700" height="2.6" width="2.6" x="157.5" y="11.5"><title>2024-11-13 14.5 km</title></rect><rect fill="#ffb700" height="2.6" width="2.6" x="157.5" y="15.0"><title>2024-11-14 14.6 km</title></rect><rect fill="#444444" height="2.6" width="2.6" x="157.5" y="18.5"><title>2024-11-15</title></rect><rect fill="red" height="2.6" width="2.6" x="157.5" y="22.0"><title>2024-11-16 21.4 km</title></rect><rect fill="#444444" height="2.6" width="2.6" x="157.5" y="25.5"><title>2024-11-17</title></rect><rect fill="#ffb700" height="2.6" width="2.6" x="161.0" y="4.5"><title>2024-11-18 14.5 km</title></rect><rect fill="#ffd400" height="2.6" width="2.6" x="161.0" y="8.0"><title>2024-11-19 10.0 km</title></rect><rect fill="#444444" height="2.6" width="2.6" x="161.0" y="11.5"><title>2024-11-20</title></rect><rect fill="#ffb800" height="2.6" width="2.6" x="161.0" y="15.0"><title>2024-11-21 14.4 km</title></rect><rect fill="#444444" height="2.6" width="2.6" x="161.0" y="18.5"><title>2024-11-22</title></rect><rect fill="#444444" height="2.6" width="2.6" x="161.0" y="22.0"><title>2024-11-23</title></rect><rect fill="red" height="2.6" width="2.6" x="161.0" y="25.5"><title>2024-11-24 21.2 km</title></rect><rect fill="#444444" height="2.6" width="2.6" x="164.5" y="4.5"><title>2024-11-25</title></rect><rect fill="#444444" height="2.6" width="2.6" x="164.5" y="8.0"><title>2024-11-26</title></rect><rect fill="#ffb800" height="2.6" width="2.6" x="164.5" y="11.5"><title>2024-11-27 14.4 km</title></rect><rect fill="#ffb700" height="2.6" width="2.6" x="164.5" y="15.0"><title>2024-11-28 14.5 km</title></rect><rect fill="#ffb700" height="2.6" width="2.6" x="164.5" y="18.5"><title>2024-11-29 14.5 km</title></rect><rect fill="#ffa400" height="2.6" width="2.6" x="164.5" y="22.0"><title>2024-11-30 17.5 km</title></rect><rect fill="#444444" height="2.6" width="2.6" x="164.5" y="25.5"><title>2024-12-01</title></rect><rect fill="#ffb800" height="2.6" width="2.6" x="168.0" y="4.5"><title>2024-12-02 14.4 km</title></rect><rect fill="#ffc100" height="2.6" width="2.6" x="168.0" y="8.0"><title>2024-12-03 13.0 km</title></rect><rect fill="#ffbb00" height="2.6" width="2.6" x="168.0" y="11.5"><title>2024-12-04 13.9 km</title></rect><rect fill="#444444" height="2.6" width="2.6" x="168.0" y="15.0"><title>2024-12-05</title></rect><rect fill="#ffb800" height="2.6" width="2.6" x="168.0" y="18.5"><title>2024-12-06 14.4 km</title></rect><rect fill="#444444" height="2.6" width="2.6" x="168.0" y="22.0"><title>2024-12-07</title></rect><rect fill="red" height="2.6" width="2.6" x="168.0" y="25.5"><title>2024-12-08 20.0 km</title></rect><rect fill="#444444" height="2.6" width="2.6" x="171.5" y="4.5"><title>2024-12-09</title></rect><rect fill="#ffd200" height="2.6" width="2.6" x="171.5" y="8.0"><title>2024-12-10 10.4 km</title></rect><rect fill="#444444" height="2.6" width="2.6" x="171.5" y="11.5"><title>2024-12-11</title></rect><rect fill="#ffb400" height="2.6" width="2.6" x="171.5" y="15.0"><title>2024-12-12 15.0 km</title></rect><rect fill="#444444" height="2.6" width="2.6" x="171.5" y="18.5"><title>2024-12-13</title></rect><rect fill="#444444" height="2.6" width="2.6" x="171.5" y="22.0"><title>2024-12-14</title></rect><rect fill="#444444" height="2.6" width="2.6" x="171.5" y="25.5"><title>2024-12-15</title></rect><rect fill="#444444" height="2.6" width="2.6" x="175.0" y="4.5"><title>2024-12-16</title></rect><rect fill="#444444" height="2.6" width="2.6" x="175.0" y="8.0"><title>2024-12-17</title></rect><rect fill="#ffb400" height="2.6" width="2.6" x="175.0" y="11.5"><title>2024-12-18 15.0 km</title></rect><rect fill="#ffb400" height="2.6" width="2.6" x="175.0" y="15.0"><title>2024-12-19 15.0 km</title></rect><rect fill="#444444" height="2.6" width="2.6" x="175.0" y="18.5"><title>2024-12-20</title></rect><rect fill="#ffb300" height="2.6" width="2.6" x="175.0" y="22.0"><title>2024-12-21 15.2 km</title></rect><rect fill="#ffb400" height="2.6" width="2.6" x="175.0" y="25.5"><title>2024-12-22 15.0 km</title></rect><rect fill="#ffd300" height="2.6" width="2.6" x="178.5" y="4.5"><title>2024-12-23 10.3 km</title></rect><rect fill="#444444" height="2.6" width="2.6" x="178.5" y="8.0"><title>2024-12-24</title></rect><rect fill="#ffb400" height="2.6" width="2.6" x="178.5" y="11.5"><title>2024-12-25 15.0 km</title></rect><rect fill="#444444" height="2.6" width="2.6" x="178.5" y="15.0"><title>2024-12-26</title></rect><rect fill="#ffb400" height="2.6" width="2.6" x="178.5" y="18.5"><title>2024-12-27 15.0 km</title></rect><rect fill="#ffb400" height="2.6" width="2.6" x="178.5" y="22.0"><title>2024-12-28 15.0 km</title></rect><rect fill="#444444" height="2.6" width="2.6" x="178.5" y="25.5"><title>2024-12-29</title></rect><rect fill="#4dd2ff" height="2.6" width="2.6" x="182.0" y="4.5"><title>2024-12-30 5.4 km</title></rect><rect fill="#ffb400" height="2.6" width="2.6" x="182.0" y="8.0"><title>2024-12-31 15.0 km</title></rect></svg>