<?xml version="1.0" encoding="utf-8" ?>
<svg baseProfile="full" height="32mm" version="1.1" viewBox="0,0,190,32" width="190mm" xmlns="http://www.w3.org/2000/svg" xmlns:ev="http://www.w3.org/2001/xml-events" xmlns:xlink="http://www.w3.org/1999/xlink"><defs /><rect fill="none" height="32" width="190" x="0" y="0" /><text fill="#FFFFFF" style="font-size:2.5px; font-family:Arial" x="0.0" y="3.0">Jan</text><text fill="#FFFFFF" style="font-size:2.5px; font-family:Arial" x="15.5" y="3.0">Feb</text><text fill="#FFFFFF" style="font-size:2.5px; font-family:Arial" x="31.0" y="3.0">Mar</text><text fill="#FFFFFF" style="font-size:2.5px; font-family:Arial" x="46.5" y="3.0">Apr</text><text fill="#FFFFFF" style="font-size:2.5px; font-family:Arial" x="62.0" y="3.0">May</text><text fill="#FFFFFF" style="font-size:2.5px; font-family:Arial" x="77.5" y="3.0">Jun</text><text fill="#FFFFFF" style="font-size:2.5px; font-family:Arial" x="93.0" y="3.0">Jul</text><text fill="#FFFFFF" style="font-size:2.5px; font-family:Arial" x="108.5" y="3.0">Aug</text><text fill="#FFFFFF" style="font-size:2.5px; font-family:Arial" x="124.0" y="3.0">Sep</text><text fill="#FFFFFF" style="font-size:2.5px; font-family:Arial" x="139.5" y="3.0">Oct</text><text fill="#FFFFFF" style="font-size:2.5px; font-family:Arial" x="155.0" y="3.0">Nov</text><text fill="#FFFFFF" style="font-size:2.5px; font-family:Arial" x="170.5" y="3.0">Dec</text><rect fill="#444444" height="2.6" width="2.6" x="0.0" y="4.5"><title>2024-12-30</title></rect><rect fill="#444444" height="2.6" width="2.6" x="0.0" y="8.0"><title>2024-12-31</title></rect><rect fill="#ff9900" height="2.6" width="2.6" x="0.0" y="11.5"><title>2025-01-01 15.0 km</title></rect><rect fill="#444444" height="2.6" width="2.6" x="0.0" y="15.0"><title>2025-01-02</title></rect><rect fill="#444444" height="2.6" width="2.6" x="0.0" y="18.5"><title>2025-01-03</title></rect><rect fill="#ff9900" height="2.6" width="2.6" x="0.0" y="22.0"><title>2025-01-04 15.0 km</title></rect><rect fill="red" height="2.6" width="2.6" x="0.0" y="25.5"><title>2025-01-05 21.7 km</title></rect><rect fill="#444444" height="2.6" width="2.6" x="3.5" y="4.5"><title>2025-01-06</title></rect><rect fill="#ff9900" height="2.6" width="2.6" x="3.5" y="8.0"><title>2025-01-07 15.0 km</title></rect><rect fill="#ff9900" height="2.6" width="2.6" x="3.5" y="11.5"><title>2025-01-08 15.0 km</title></rect><rect fill="#ff9900" height="2.6" width="2.6" x="3.5" y="15.0"><title>2025-01-09 15.0 km</title></rect><rect fill="#444444" height="2.6" width="2.6" x="3.5" y="18.5"><title>2025-01-10</title></rect><rect fill="#ffcc00" height="2.6" width="2.6" x="3.5" y="22.0"><title>2025-01-11 10.0 km</title></rect><rect fill="#ff9900" height="2.6" width="2.6" x="3.5" y="25.5"><title>2025-01-12 15.0 km</title></rect><rect fill="#444444" height="2.6" width="2.6" x="7.0" y="4.5"><title>2025-01-13</title></rect><rect fill="#444444" height="2.6" width="2.6" x="7.0" y="8.0"><title>2025-01-14</title></rect><rect fill="#ff9900" height="2.6" width="2.6" x="7.0" y="11.5"><title>2025-01-15 15.0 km</title></rect><rect fill="#444444" height="2.6" width="2.6" x="7.0" y="15.0"><title>2025-01-16</title></rect><rect fill="#ffc900" height="2.6" width="2.6" x="7.0" y="18.5"><title>2025-01-17 10.3 km</title></rect><rect fill="#ff9900" height="2.6" width="2.6" x="7.0" y="22.0"><title>2025-01-18 15.0 km</title></rect><rect fill="red" height="2.6" width="2.6" x="7.0" y="25.5"><title>2025-01-19 30.0 km</title></rect><rect fill="#444444" height="2.6" width="2.6" x="10.5" y="4.5"><title>2025-01-20</title></rect><rect fill="#ff9900" height="2.6" width="2.6" x="10.5" y="8.0"><title>2025-01-21 15.0 km</title></rect><rect fill="#ffbf00" height="2.6" width="2.6" x="10.5" y="11.5"><title>2025-01-22 11.3 km</title></rect><rect fill="#ff9900" height="2.6" width="2.6" x="10.5" y="15.0"><title>2025-01-23 15.0 km</title></rect><rect fill="#444444" height="2.6" width="2.6" x="10.5" y="18.5"><title>2025-01-24</title></rect><rect fill="#ff9900" height="2.6" width="2.6" x="10.5" y="22.0"><title>2025-01-25 15.0 km</title></rect><rect fill="#444444" height="2.6" width="2.6" x="10.5" y="25.5"><title>2025-01-26</title></rect><rect fill="#ffcc00" height="2.6" width="2.6" x="14.0" y="4.5"><title>2025-01-27 10.0 km</title></rect><rect fill="#ffc800" height="2.6" width="2.6" x="14.0" y="8.0"><title>2025-01-28 10.4 km</title></rect><rect fill="red" height="2.6" width="2.6" x="14.0" y="11.5"><title>2025-01-29 20.2 km</title></rect><rect fill="#ffc100" height="2.6" width="2.6" x="14.0" y="15.0"><title>2025-01-30 11.1 km</title></rect><rect fill="#ffbb00" height="2.6" width="2.6" x="14.0" y="18.5"><title>2025-01-31 11.7 km</title></rect><rect fill="#444444" height="2.6" width="2.6" x="14.0" y="22.0"><title>2025-02-01</title></rect><rect fill="#ff9f00" height="2.6" width="2.6" x="14.0" y="25.5"><title>2025-02-02 14.5 km</title></rect><rect fill="#444444" height="2.6" width="2.6" x="17.5" y="4.5"><title>2025-02-03</title></rect><rect fill="#444444" height="2.6" width="2.6" x="17.5" y="8.0"><title>2025-02-04</title></rect><rect fill="#ff9f00" height="2.6" width="2.6" x="17.5" y="11.5"><title>2025-02-05 14.4 km</title></rect><rect fill="#ffad00" height="2.6" width="2.6" x="17.5" y="15.0"><title>2025-02-06 13.0 km</title></rect><rect fill="#ff9f00" height="2.6" width="2.6" x="17.5" y="18.5"><title>2025-02-07 14.5 km</title></rect><rect fill="#444444" height="2.6" width="2.6" x="17.5" y="22.0"><title>2025-02-08</title></rect><rect fill="#ff8b00" height="2.6" width="2.6" x="17.5" y="25.5"><title>2025-02-09 16.4 km</title></rect><rect fill="#444444" height="2.6" width="2.6" x="21.0" y="4.5"><title>2025-02-10</title></rect><rect fill="#ff9900" height="2.6" width="2.6" x="21.0" y="8.0"><title>2025-02-11 15.0 km</title></rect><rect fill="#ffad00" height="2.6" width="2.6" x="21.0" y="11.5"><title>2025-02-12 13.0 km</title></rect><rect fill="#ff9900" height="2.6" width="2.6" x="21.0" y="15.0"><title>2025-02-13 15.0 km</title></rect><rect fill="#ff9e00" height="2.6" width="2.6" x="21.0" y="18.5"><title>2025-02-14 14.5 km</title></rect><rect fill="#444444" height="2.6" width="2.6" x="21.0" y="22.0"><title>2025-02-15</title></rect><rect fill="red" height="2.6" width="2.6" x="21.0" y="25.5"><title>2025-02-16 21.1 km</title></rect><rect fill="#444444" height="2.6" width="2.6" x="24.5" y="4.5"><title>2025-02-17</title></rect><rect fill="#ff9900" height="2.6" width="2.6" x="24.5" y="8.0"><title>2025-02-18 15.0 km</title></rect><rect fill="#ff9900" height="2.6" width="2.6" x="24.5" y="11.5"><title>2025-02-19 15.0 km</title></rect><rect fill="#ffc000" height="2.6" width="2.6" x="24.5" y="15.0"><title>2025-02-20 11.2 km</title></rect><rect fill="#444444" height="2.6" width="2.6" x="24.5" y="18.5"><title>2025-02-21</title></rect><rect fill="#ffa200" height="2.6" width="2.6" x="24.5" y="22.0"><title>2025-02-22 14.1 km</title></rect><rect fill="#ff7800" height="2.6" width="2.6" x="24.5" y="25.5"><title>2025-02-23 18.3 km</title></rect><rect fill="#444444" height="2.6" width="2.6" x="28.0" y="4.5"><title>2025-02-24</title></rect><rect fill="#4dd2ff" height="2.6" width="2.6" x="28.0" y="8.0"><title>2025-02-25 5.0 km</title></rect><rect fill="#ff9900" height="2.6" width="2.6" x="28.0" y="11.5"><title>2025-02-26 15.0 km</title></rect><rect fill="#444444" height="2.6" width="2.6" x="28.0" y="15.0"><title>2025-02-27</title></rect><rect fill="#ffc800" height="2.6" width="2.6" x="28.0" y="18.5"><title>2025-02-28 10.4 km</title></rect><rect fill="#444444" height="2.6" width="2.6" x="28.0" y="22.0"><title>2025-03-01</title></rect><rect fill="#ffa300" height="2.6" width="2.6" x="28.0" y="25.5"><title>2025-03-02 14.0 km</title></rect><rect fill="#444444" height="2.6" width="2.6" x="31.5" y="4.5"><title>2025-03-03</title></rect><rect fill="#444444" height="2.6" width="2.6" x="31.5" y="8.0"><title>2025-03-04</title></rect><rect fill="#ff9900" height="2.6" width="2.6" x="31.5" y="11.5"><title>2025-03-05 15.0 km</title></rect><rect fill="#ff9900" height="2.6" width="2.6" x="31.5" y="15.0"><title>2025-03-06 15.0 km</title></rect><rect fill="#444444" height="2.6" width="2.6" x="31.5" y="18.5"><title>2025-03-07</title></rect><rect fill="#ff9900" height="2.6" width="2.6" x="31.5" y="22.0"><title>2025-03-08 15.0 km</title></rect><rect fill="#ff9900" height="2.6" width="2.6" x="31.5" y="25.5"><title>2025-03-09 15.0 km</title></rect><rect fill="#444444" height="2.6" width="2.6" x="35.0" y="4.5"><title>2025-03-10</title></rect><rect fill="#ffcc00" height="2.6" width="2.6" x="35.0" y="8.0"><title>2025-03-11 10.0 km</title></rect><rect fill="#444444" height="2.6" width="2.6" x="35.0" y="11.5"><title>2025-03-12</title></rect><rect fill="#4dd2ff" height="2.6" width="2.6" x="35.0" y="15.0"><title>2025-03-13 6.3 km</title></rect><rect fill="#444444" height="2.6" width="2.6" x="35.0" y="18.5"><title>2025-03-14</title></rect><rect fill="#444444" height="2.6" width="2.6" x="35.0" y="22.0"><title>2025-03-15</title></rect><rect fill="#444444" height="2.6" width="2.6" x="35.0" y="25.5"><title>2025-03-16</title></rect><rect fill="#444444" height="2.6" width="2.6" x="38.5" y="4.5"><title>2025-03-17</title></rect><rect fill="#444444" height="2.6" width="2.6" x="38.5" y="8.0"><title>2025-03-18</title></rect><rect fill="#444444" height="2.6" width="2.6" x="38.5" y="11.5"><title>2025-03-19</title></rect><rect fill="#ff9900" height="2.6" width="2.6" x="38.5" y="15.0"><title>2025-03-20 15.0 km</title></rect><rect fill="#ffcc00" height="2.6" width="2.6" x="38.5" y="18.5"><title>2025-03-21 10.0 km</title></rect><rect fill="#444444" height="2.6" width="2.6" x="38.5" y="22.0"><title>2025-03-22</title></rect><rect fill="#ff8800" height="2.6" width="2.6" x="38.5" y="25.5"><title>2025-03-23 16.6 km</title></rect><rect fill="#444444" height="2.6" width="2.6" x="42.0" y="4.5"><title>2025-03-24</title></rect><rect fill="#ff9900" height="2.6" width="2.6" x="42.0" y="8.0"><title>2025-03-25 15.0 km</title></rect><rect fill="#ffa300" height="2.6" width="2.6" x="42.0" y="11.5"><title>2025-03-26 14.0 km</title></rect><rect fill="#444444" height="2.6" width="2.6" x="42.0" y="15.0"><title>2025-03-27</title></rect><rect fill="#ffc200" height="2.6" width="2.6" x="42.0" y="18.5"><title>2025-03-28 11.0 km</title></rect><rect fill="#ff9900" height="2.6" width="2.6" x="42.0" y="22.0"><title>2025-03-29 15.0 km</title></rect><rect fill="#444444" height="2.6" width="2.6" x="42.0" y="25.5"><title>2025-03-30</title></rect><rect fill="#ffcc00" height="2.6" width="2.6" x="45.5" y="4.5"><title>2025-03-31 10.0 km</title></rect><rect fill="#444444" height="2.6" width="2.6" x="45.5" y="8.0"><title>2025-04-01</title></rect><rect fill="#ff9900" height="2.6" width="2.6" x="45.5" y="11.5"><title>2025-04-02 15.0 km</title></rect><rect fill="#444444" height="2.6" width="2.6" x="45.5" y="15.0"><title>2025-04-03</title></rect><rect fill="#ff9900" height="2.6" width="2.6" x="45.5" y="18.5"><title>2025-04-04 15.0 km</title></rect><rect fill="#444444" height="2.6" width="2.6" x="45.5" y="22.0"><title>2025-04-05</title></rect><rect fill="#ff9900" height="2.6" width="2.6" x="45.5" y="25.5"><title>2025-04-06 15.0 km</title></rect><rect fill="#444444" height="2.6" width="2.6" x="49.0" y="4.5"><title>2025-04-07</title></rect><rect fill="#ffbf00" height="2.6" width="2.6" x="49.0" y="8.0"><title>2025-04-08 11.3 km</title></rect><rect fill="#ffbf00" height="2.6" width="2.6" x="49.0" y="11.5"><title>2025-04-09 11.3 km</title></rect><rect fill="#444444" height="2.6" width="2.6" x="49.0" y="15.0"><title>2025-04-10</title></rect><rect fill="#ff9f00" height="2.6" width="2.6" x="49.0" y="18.5"><title>2025-04-11 14.5 km</title></rect><rect fill="#444444" height="2.6" width="2.6" x="49.0" y="22.0"><title>2025-04-12</title></rect><rect fill="red" height="2.6" width="2.6" x="49.0" y="25.5"><title>2025-04-13 21.8 km</title></rect><rect fill="#444444" height="2.6" width="2.6" x="52.5" y="4.5"><title>2025-04-14</title></rect><rect fill="#ff9900" height="2.6" width="2.6" x="52.5" y="8.0"><title>2025-04-15 15.0 km</title></rect><rect fill="#ffcc00" height="2.6" width="2.6" x="52.5" y="11.5"><title>2025-04-16 10.0 km</title></rect><rect fill="#ff9900" height="2.6" width="2.6" x="52.5" y="15.0"><title>2025-04-17 15.0 km</title></rect><rect fill="#444444" height="2.6" width="2.6" x="52.5" y="18.5"><title>2025-04-18</title></rect><rect fill="#ffbf00" height="2.6" width="2.6" x="52.5" y="22.0"><title>2025-04-19 11.3 km</title></rect><rect fill="red" height="2.6" width="2.6" x="52.5" y="25.5"><title>2025-04-20 21.7 km</title></rect><rect fill="#444444" height="2.6" width="2.6" x="56.0" y="4.5"><title>2025-04-21</title></rect><rect fill="#ffcc00" height="2.6" width="2.6" x="56.0" y="8.0"><title>2025-04-22 10.0 km</title></rect><rect fill="#444444" height="2.6" width="2.6" x="56.0" y="11.5"><title>2025-04-23</title></rect><rect fill="#ffad00" height="2.6" width="2.6" x="56.0" y="15.0"><title>2025-04-24 13.1 km</title></rect><rect fill="#ffcc00" height="2.6" width="2.6" x="56.0" y="18.5"><title>2025-04-25 10.0 km</title></rect><rect fill="red" height="2.6" width="2.6" x="56.0" y="22.0"><title>2025-04-26 21.6 km</title></rect><rect fill="#444444" height="2.6" width="2.6" x="56.0" y="25.5"><title>2025-04-27</title></rect><rect fill="#ff9900" height="2.6" width="2.6" x="59.5" y="4.5"><title>2025-04-28 15.0 km</title></rect><rect fill="#ff9900" height="2.6" width="2.6" x="59.5" y="8.0"><title>2025-04-29 15.0 km</title></rect><rect fill="#ff9900" height="2.6" width="2.6" x="59.5" y="11.5"><title>2025-04-30 15.0 km</title></rect><rect fill="#444444" height="2.6" width="2.6" x="59.5" y="15.0"><title>2025-05-01</title></rect><rect fill="#ff8f00" height="2.6" width="2.6" x="59.5" y="18.5"><title>2025-05-02 16.0 km</title></rect><rect fill="#ffcc00" height="2.6" width="2.6" x="59.5" y="22.0"><title>2025-05-03 10.0 km</title></rect><rect fill="#ff9900" height="2.6" width="2.6" x="59.5" y="25.5"><title>2025-05-04 15.0 km</title></rect><rect fill="#444444" height="2.6" width="2.6" x="63.0" y="4.5"><title>2025-05-05</title></rect><rect fill="#444444" height="2.6" width="2.6" x="63.0" y="8.0"><title>2025-05-06</title></rect><rect fill="#ff9900" height="2.6" width="2.6" x="63.0" y="11.5"><title>2025-05-07 15.0 km</title></rect><rect fill="#ff9900" height="2.6" width="2.6" x="63.0" y="15.0"><title>2025-05-08 15.0 km</title></rect><rect fill="#444444" height="2.6" width="2.6" x="63.0" y="18.5"><title>2025-05-09</title></rect><rect fill="#ff9500" height="2.6" width="2.6" x="63.0" y="22.0"><title>2025-05-10 15.4 km</title></rect><rect fill="red" height="2.6" width="2.6" x="63.0" y="25.5"><title>2025-05-11 21.8 km</title></rect><rect fill="#444444" height="2.6" width="2.6" x="66.5" y="4.5"><title>2025-05-12</title></rect><rect fill="#ff9900" height="2.6" width="2.6" x="66.5" y="8.0"><title>2025-05-13 15.0 km</title></rect><rect fill="#ff9900" height="2.6" width="2.6" x="66.5" y="11.5"><title>2025-05-14 15.0 km</title></rect><rect fill="#ffbf00" height="2.6" width="2.6" x="66.5" y="15.0"><title>2025-05-15 11.3 km</title></rect><rect fill="#444444" height="2.6" width="2.6" x="66.5" y="18.5"><title>2025-05-16</title></rect><rect fill="#444444" height="2.6" width="2.6" x="66.5" y="22.0"><title>2025-05-17</title></rect><rect fill="#444444" height="2.6" width="2.6" x="66.5" y="25.5"><title>2025-05-18</title></rect><rect fill="#444444" height="2.6" width="2.6" x="70.0" y="4.5"><title>2025-05-19</title></rect><rect fill="#ffc800" height="2.6" width="2.6" x="70.0" y="8.0"><title>2025-05-20 10.4 km</title></rect><rect fill="#444444" height="2.6" width="2.6" x="70.0" y="11.5"><title>2025-05-21</title></rect><rect fill="#444444" height="2.6" width="2.6" x="70.0" y="15.0"><title>2025-05-22</title></rect><rect fill="#444444" height="2.6" width="2.6" x="70.0" y="18.5"><title>2025-05-23</title></rect><rect fill="#ff9900" height="2.6" width="2.6" x="70.0" y="22.0"><title>2025-05-24 15.0 km</title></rect><rect fill="#ff9400" height="2.6" width="2.6" x="70.0" y="25.5"><title>2025-05-25 15.5 km</title></rect><rect fill="#444444" height="2.6" width="2.6" x="73.5" y="4.5"><title>2025-05-26</title></rect><rect fill="#ffc700" height="2.6" width="2.6" x="73.5" y="8.0"><title>2025-05-27 10.5 km</title></rect><rect fill="#ffa800" height="2.6" width="2.6" x="73.5" y="11.5"><title>2025-05-28 13.6 km</title></rect><rect fill="#ffa800" height="2.6" width="2.6" x="73.5" y="15.0"><title>2025-05-29 13.6 km</title></rect><rect fill="#ffcc00" height="2.6" width="2.6" x="73.5" y="18.5"><title>2025-05-30 10.0 km</title></rect><rect fill="red" height="2.6" width="2.6" x="73.5" y="22.0"><title>2025-05-31 22.5 km</title></rect><rect fill="#444444" height="2.6" width="2.6" x="73.5" y="25.5"><title>2025-06-01</title></rect><rect fill="#444444" height="2.6" width="2.6" x="77.0" y="4.5"><title>2025-06-02</title></rect><rect fill="#ffc500" height="2.6" width="2.6" x="77.0" y="8.0"><title>2025-06-03 10.7 km</title></rect><rect fill="#ffa800" height="2.6" width="2.6" x="77.0" y="11.5"><title>2025-06-04 13.6 km</title></rect><rect fill="#444444" height="2.6" width="2.6" x="77.0" y="15.0"><title>2025-06-05</title></rect><rect fill="#ffa700" height="2.6" width="2.6" x="77.0" y="18.5"><title>2025-06-06 13.6 km</title></rect><rect fill="red" height="2.6" width="2.6" x="77.0" y="22.0"><title>2025-06-07 21.1 km</title></rect><rect fill="#444444" height="2.6" width="2.6" x="77.0" y="25.5"><title>2025-06-08</title></rect><rect fill="#444444" height="2.6" width="2.6" x="80.5" y="4.5"><title>2025-06-09</title></rect><rect fill="#ffa800" height="2.6" width="2.6" x="80.5" y="8.0"><title>2025-06-10 13.6 km</title></rect><rect fill="#ffcc00" height="2.6" width="2.6" x="80.5" y="11.5"><title>2025-06-11 10.0 km</title></rect><rect fill="#444444" height="2.6" width="2.6" x="80.5" y="15.0"><title>2025-06-12</title></rect><rect fill="#4dd2ff" height="2.6" width="2.6" x="80.5" y="18.5"><title>2025-06-13 8.1 km</title></rect><rect fill="#ffa800" height="2.6" width="2.6" x="80.5" y="22.0"><title>2025-06-14 13.6 km</title></rect><rect fill="#ffb000" height="2.6" width="2.6" x="80.5" y="25.5"><title>2025-06-15 12.7 km</title></rect><rect fill="#444444" height="2.6" width="2.6" x="84.0" y="4.5"><title>2025-06-16</title></rect><rect fill="#4dd2ff" height="2.6" width="2.6" x="84.0" y="8.0"><title>2025-06-17 9.2 km</title></rect><rect fill="#4dd2ff" height="2.6" width="2.6" x="84.0" y="11.5"><title>2025-06-18 7.3 km</title></rect><rect fill="#ffba00" height="2.6" width="2.6" x="84.0" y="15.0"><title>2025-06-19 11.8 km</title></rect><rect fill="#444444" height="2.6" width="2.6" x="84.0" y="18.5"><title>2025-06-20</title></rect><rect fill="#ff6a00" height="2.6" width="2.6" x="84.0" y="22.0"><title>2025-06-21 19.6 km</title></rect><rect fill="#ffcb00" height="2.6" width="2.6" x="84.0" y="25.5"><title>2025-06-22 10.1 km</title></rect><rect fill="#444444" height="2.6" width="2.6" x="87.5" y="4.5"><title>2025-06-23</title></rect><rect fill="#444444" height="2.6" width="2.6" x="87.5" y="8.0"><title>2025-06-24</title></rect><rect fill="#ffca00" height="2.6" width="2.6" x="87.5" y="11.5"><title>2025-06-25 10.2 km</title></rect><rect fill="#444444" height="2.6" width="2.6" x="87.5" y="15.0"><title>2025-06-26</title></rect><rect fill="#4dd2ff" height="2.6" width="2.6" x="87.5" y="18.5"><title>2025-06-27 10.0 km</title></rect><rect fill="red" height="2.6" width="2.6" x="87.5" y="22.0"><title>2025-06-28 20.8 km</title></rect><rect fill="#4dd2ff" height="2.6" width="2.6" x="87.5" y="25.5"><title>2025-06-29 10.0 km</title></rect><rect fill="#444444" height="2.6" width="2.6" x="91.0" y="4.5"><title>2025-06-30</title></rect><rect fill="#ffcc00" height="2.6" width="2.6" x="91.0" y="8.0"><title>2025-07-01 10.1 km</title></rect><rect fill="#ffcb00" height="2.6" width="2.6" x="91.0" y="11.5"><title>2025-07-02 10.1 km</title></rect><rect fill="#444444" height="2.6" width="2.6" x="91.0" y="15.0"><title>2025-07-03</title></rect><rect fill="#ffc300" height="2.6" width="2.6" x="91.0" y="18.5"><title>2025-07-04 10.9 km</title></rect><rect fill="#444444" height="2.6" width="2.6" x="91.0" y="22.0"><title>2025-07-05</title></rect><rect fill="red" height="2.6" width="2.6" x="91.0" y="25.5"><title>2025-07-06 24.1 km</title></rect><rect fill="#444444" height="2.6" width="2.6" x="94.5" y="4.5"><title>2025-07-07</title></rect><rect fill="#ffca00" height="2.6" width="2.6" x="94.5" y="8.0"><title>2025-07-08 10.2 km</title></rect><rect fill="#ffcc00" height="2.6" width="2.6" x="94.5" y="11.5"><title>2025-07-09 10.0 km</title></rect><rect fill="#444444" height="2.6" width="2.6" x="94.5" y="15.0"><title>2025-07-10</title></rect><rect fill="#ffc800" height="2.6" width="2.6" x="94.5" y="18.5"><title>2025-07-11 10.4 km</title></rect><rect fill="red" height="2.6" width="2.6" x="94.5" y="22.0"><title>2025-07-12 22.3 km</title></rect><rect fill="#4dd2ff" height="2.6" width="2.6" x="94.5" y="25.5"><title>2025-07-13 8.5 km</title></rect><rect fill="#444444" height="2.6" width="2.6" x="98.0" y="4.5"><title>2025-07-14</title></rect><rect fill="#ffc100" height="2.6" width="2.6" x="98.0" y="8.0"><title>2025-07-15 11.1 km</title></rect><rect fill="#444444" height="2.6" width="2.6" x="98.0" y="11.5"><title>2025-07-16</title></rect><rect fill="#4dd2ff" height="2.6" width="2.6" x="98.0" y="15.0"><title>2025-07-17 9.6 km</title></rect><rect fill="#444444" height="2.6" width="2.6" x="98.0" y="18.5"><title>2025-07-18</title></rect><rect fill="#ffc900" height="2.6" width="2.6" x="98.0" y="22.0"><title>2025-07-19 10.3 km</title></rect><rect fill="#ffc700" height="2.6" width="2.6" x="98.0" y="25.5"><title>2025-07-20 10.5 km</title></rect><rect fill="#444444" height="2.6" width="2.6" x="101.5" y="4.5"><title>2025-07-21</title></rect><rect fill="#ffc800" height="2.6" width="2.6" x="101.5" y="8.0"><title>2025-07-22 10.4 km</title></rect><rect fill="#444444" height="2.6" width="2.6" x="101.5" y="11.5"><title>2025-07-23</title></rect><rect fill="#ffc100" height="2.6" width="2.6" x="101.5" y="15.0"><title>2025-07-24 11.1 km</title></rect><rect fill="#444444" height="2.6" width="2.6" x="101.5" y="18.5"><title>2025-07-25</title></rect><rect fill="#ff8f00" height="2.6" width="2.6" x="101.5" y="22.0"><title>2025-07-26 16.0 km</title></rect><rect fill="#ffa600" height="2.6" width="2.6" x="101.5" y="25.5"><title>2025-07-27 13.7 km</title></rect><rect fill="#444444" height="2.6" width="2.6" x="105.0" y="4.5"><title>2025-07-28</title></rect><rect fill="#ffc100" height="2.6" width="2.6" x="105.0" y="8.0"><title>2025-07-29 11.1 km</title></rect><rect fill="#444444" height="2.6" width="2.6" x="105.0" y="11.5"><title>2025-07-30</title></rect><rect fill="#444444" height="2.6" width="2.6" x="105.0" y="15.0"><title>2025-07-31</title></rect><rect fill="#ffa700" height="2.6" width="2.6" x="105.0" y="18.5"><title>2025-08-01 13.7 km</title></rect><rect fill="#ffa400" height="2.6" width="2.6" x="105.0" y="22.0"><title>2025-08-02 13.9 km</title></rect><rect fill="#ffc100" height="2.6" width="2.6" x="105.0" y="25.5"><title>2025-08-03 11.1 km</title></rect><rect fill="#444444" height="2.6" width="2.6" x="108.5" y="4.5"><title>2025-08-04</title></rect><rect fill="#444444" height="2.6" width="2.6" x="108.5" y="8.0"><title>2025-08-05</title></rect><rect fill="#4dd2ff" height="2.6" width="2.6" x="108.5" y="11.5"><title>2025-08-06 8.5 km</title></rect><rect fill="#444444" height="2.6" width="2.6" x="108.5" y="15.0"><title>2025-08-07</title></rect><rect fill="#444444" height="2.6" width="2.6" x="108.5" y="18.5"><title>2025-08-08</title></rect><rect fill="#444444" height="2.6" width="2.6" x="108.5" y="22.0"><title>2025-08-09</title></rect><rect fill="#444444" height="2.6" width="2.6" x="108.5" y="25.5"><title>2025-08-10</title></rect><rect fill="#444444" height="2.6" width="2.6" x="112.0" y="4.5"><title>2025-08-11</title></rect><rect fill="#ffcc00" height="2.6" width="2.6" x="112.0" y="8.0"><title>2025-08-12 10.1 km</title></rect><rect fill="#ffcc00" height="2.6" width="2.6" x="112.0" y="11.5"><title>2025-08-13 10.0 km</title></rect><rect fill="#444444" height="2.6" width="2.6" x="112.0" y="15.0"><title>2025-08-14</title></rect><rect fill="#ffc800" height="2.6" width="2.6" x="112.0" y="18.5"><title>2025-08-15 10.4 km</title></rect><rect fill="#ff9200" height="2.6" width="2.6" x="112.0" y="22.0"><title>2025-08-16 15.7 km</title></rect><rect fill="#ffc800" height="2.6" width="2.6" x="112.0" y="25.5"><title>2025-08-17 10.4 km</title></rect><rect fill="#444444" height="2.6" width="2.6" x="115.5" y="4.5"><title>2025-08-18</title></rect><rect fill="#4dd2ff" height="2.6" width="2.6" x="115.5" y="8.0"><title>2025-08-19 7.8 km</title></rect><rect fill="#ffad00" height="2.6" width="2.6" x="115.5" y="11.5"><title>2025-08-20 13.0 km</title></rect><rect fill="#4dd2ff" height="2.6" width="2.6" x="115.5" y="15.0"><title>2025-08-21 7.8 km</title></rect><rect fill="#444444" height="2.6" width="2.6" x="115.5" y="18.5"><title>2025-08-22</title></rect><rect fill="#ffc900" height="2.6" width="2.6" x="115.5" y="22.0"><title>2025-08-23 10.3 km</title></rect><rect fill="#4dd2ff" height="2.6" width="2.6" x="115.5" y="25.5"><title>2025-08-24 7.4 km</title></rect><rect fill="#444444" height="2.6" width="2.6" x="119.0" y="4.5"><title>2025-08-25</title></rect><rect fill="#ffa700" height="2.6" width="2.6" x="119.0" y="8.0"><title>2025-08-26 13.7 km</title></rect><rect fill="#ffc900" height="2.6" width="2.6" x="119.0" y="11.5"><title>2025-08-27 10.3 km</title></rect><rect fill="#444444" height="2.6" width="2.6" x="119.0" y="15.0"><title>2025-08-28</title></rect><rect fill="#ffcb00" height="2.6" width="2.6" x="119.0" y="18.5"><title>2025-08-29 10.2 km</title></rect><rect fill="#444444" height="2.6" width="2.6" x="119.0" y="22.0"><title>2025-08-30</title></rect><rect fill="#ffa300" height="2.6" width="2.6" x="119.0" y="25.5"><title>2025-08-31 14.0 km</title></rect><rect fill="#444444" height="2.6" width="2.6" x="122.5" y="4.5"><title>2025-09-01</title></rect><rect fill="#4dd2ff" height="2.6" width="2.6" x="122.5" y="8.0"><title>2025-09-02 8.5 km</title></rect><rect fill="#444444" height="2.6" width="2.6" x="122.5" y="11.5"><title>2025-09-03</title></rect><rect fill="#ffca00" height="2.6" width="2.6" x="122.5" y="15.0"><title>2025-09-04 10.2 km</title></rect><rect fill="#ffc600" height="2.6" width="2.6" x="122.5" y="18.5"><title>2025-09-05 10.6 km</title></rect><rect fill="#4dd2ff" height="2.6" width="2.6" x="122.5" y="22.0"><title>2025-09-06 5.1 km</title></rect><rect fill="#ff9700" height="2.6" width="2.6" x="122.5" y="25.5"><title>2025-09-07 15.2 km</title></rect><rect fill="#444444" height="2.6" width="2.6" x="126.0" y="4.5"><title>2025-09-08</title></rect><rect fill="#ffcc00" height="2.6" width="2.6" x="126.0" y="8.0"><title>2025-09-09 10.0 km</title></rect><rect fill="#ffb000" height="2.6" width="2.6" x="126.0" y="11.5"><title>2025-09-10 12.7 km</title></rect><rect fill="#ffc700" height="2.6" width="2.6" x="126.0" y="15.0"><title>2025-09-11 10.5 km</title></rect><rect fill="#444444" height="2.6" width="2.6" x="126.0" y="18.5"><title>2025-09-12</title></rect><rect fill="#ffc800" height="2.6" width="2.6" x="126.0" y="22.0"><title>2025-09-13 10.4 km</title></rect><rect fill="#ffa900" height="2.6" width="2.6" x="126.0" y="25.5"><title>2025-09-14 13.4 km</title></rect><rect fill="#444444" height="2.6" width="2.6" x="129.5" y="4.5"><title>2025-09-15</title></rect><rect fill="#ffcc00" height="2.6" width="2.6" x="129.5" y="8.0"><title>2025-09-16 10.0 km</title></rect><rect fill="#ffcc00" height="2.6" width="2.6" x="129.5" y="11.5"><title>2025-09-17 10.0 km</title></rect><rect fill="#444444" height="2.6" width="2.6" x="129.5" y="15.0"><title>2025-09-18</title></rect><rect fill="#ffac00" height="2.6" width="2.6" x="129.5" y="18.5"><title>2025-09-19 13.1 km</title></rect><rect fill="#ffa600" height="2.6" width="2.6" x="129.5" y="22.0"><title>2025-09-20 13.7 km</title></rect><rect fill="#ffaa00" height="2.6" width="2.6" x="129.5" y="25.5"><title>2025-09-21 13.4 km</title></rect><rect fill="#444444" height="2.6" width="2.6" x="133.0" y="4.5"><title>2025-09-22</title></rect><rect fill="#ffcc00" height="2.6" width="2.6" x="133.0" y="8.0"><title>2025-09-23 10.0 km</title></rect><rect fill="#ffcc00" height="2.6" width="2.6" x="133.0" y="11.5"><title>2025-09-24 10.0 km</title></rect><rect fill="#ffcb00" height="2.6" width="2.6" x="133.0" y="15.0"><title>2025-09-25 10.1 km</title></rect><rect fill="#444444" height="2.6" width="2.6" x="133.0" y="18.5"><title>2025-09-26</title></rect><rect fill="#ffa500" height="2.6" width="2.6" x="133.0" y="22.0"><title>2025-09-27 13.8 km</title></rect><rect fill="#ffc700" height="2.6" width="2.6" x="133.0" y="25.5"><title>2025-09-28 10.5 km</title></rect><rect fill="#444444" height="2.6" width="2.6" x="136.5" y="4.5"><title>2025-09-29</title></rect><rect fill="#ffc900" height="2.6" width="2.6" x="136.5" y="8.0"><title>2025-09-30 10.3 km</title></rect><rect fill="#ff9500" height="2.6" width="2.6" x="136.5" y="11.5"><title>2025-10-01 15.4 km</title></rect><rect fill="#ffc600" height="2.6" width="2.6" x="136.5" y="15.0"><title>2025-10-02 10.6 km</title></rect><rect fill="#444444" height="2.6" width="2.6" x="136.5" y="18.5"><title>2025-10-03</title></rect><rect fill="#ffbd00" height="2.6" width="2.6" x="136.5" y="22.0"><title>2025-10-04 11.4 km</title></rect><rect fill="#ffb300" height="2.6" width="2.6" x="136.5" y="25.5"><title>2025-10-05 12.5 km</title></rect><rect fill="#444444" height="2.6" width="2.6" x="140.0" y="4.5"><title>2025-10-06</title></rect><rect fill="#444444" height="2.6" width="2.6" x="140.0" y="8.0"><title>2025-10-07</title></rect><rect fill="red" height="2.6" width="2.6" x="140.0" y="11.5"><title>2025-10-08 21.7 km</title></rect><rect fill="#ffca00" height="2.6" width="2.6" x="140.0" y="15.0"><title>2025-10-09 10.2 km</title></rect><rect fill="#444444" height="2.6" width="2.6" x="140.0" y="18.5"><title>2025-10-10</title></rect><rect fill="#ffcc00" height="2.6" width="2.6" x="140.0" y="22.0"><title>2025-10-11 10.0 km</title></rect><rect fill="#ff7400" height="2.6" width="2.6" x="140.0" y="25.5"><title>2025-10-12 18.6 km</title></rect><rect fill="#444444" height="2.6" width="2.6" x="143.5" y="4.5"><title>2025-10-13</title></rect><rect fill="#ffcc00" height="2.6" width="2.6" x="143.5" y="8.0"><title>2025-10-14 10.0 km</title></rect><rect fill="#ffcc00" height="2.6" width="2.6" x="143.5" y="11.5"><title>2025-10-15 10.0 km</title></rect><rect fill="#444444" height="2.6" width="2.6" x="143.5" y="15.0"><title>2025-10-16</title></rect><rect fill="#ffcc00" height="2.6" width="2.6" x="143.5" y="18.5"><title>2025-10-17 10.0 km</title></rect><rect fill="#ffc900" height="2.6" width="2.6" x="143.5" y="22.0"><title>2025-10-18 10.3 km</title></rect><rect fill="#ff6b00" height="2.6" width="2.6" x="143.5" y="25.5"><title>2025-10-19 19.5 km</title></rect><rect fill="#444444" height="2.6" width="2.6" x="147.0" y="4.5"><title>2025-10-20</title></rect><rect fill="#ffcc00" height="2.6" width="2.6" x="147.0" y="8.0"><title>2025-10-21 10.0 km</title></rect><rect fill="#444444" height="2.6" width="2.6" x="147.0" y="11.5"><title>2025-10-22</title></rect><rect fill="#444444" height="2.6" width="2.6" x="147.0" y="15.0"><title>2025-10-23</title></rect><rect fill="#ff9900" height="2.6" width="2.6" x="147.0" y="18.5"><title>2025-10-24 15.1 km</title></rect><rect fill="#ffa700" height="2.6" width="2.6" x="147.0" y="22.0"><title>2025-10-25 13.7 km</title></rect><rect fill="red" height="2.6" width="2.6" x="147.0" y="25.5"><title>2025-10-26 20.0 km</title></rect><rect fill="#444444" height="2.6" width="2.6" x="150.5" y="4.5"><title>2025-10-27</title></rect><rect fill="#ffcc00" height="2.6" width="2.6" x="150.5" y="8.0"><title>2025-10-28 10.0 km</title></rect><rect fill="#ffbd00" height="2.6" width="2.6" x="150.5" y="11.5"><title>2025-10-29 11.4 km</title></rect><rect fill="#ffa700" height="2.6" width="2.6" x="150.5" y="15.0"><title>2025-10-30 13.7 km</title></rect><rect fill="#444444" height="2.6" width="2.6" x="150.5" y="18.5"><title>2025-10-31</title></rect><rect fill="#ffa600" height="2.6" width="2.6" x="150.5" y="22.0"><title>2025-11-01 13.7 km</title></rect><rect fill="#ffbb00" height="2.6" width="2.6" x="150.5" y="25.5"><title>2025-11-02 11.7 km</title></rect><rect fill="#444444" height="2.6" width="2.6" x="154.0" y="4.5"><title>2025-11-03</title></rect><rect fill="#ffca00" height="2.6" width="2.6" x="154.0" y="8.0"><title>2025-11-04 10.2 km</title></rect><rect fill="#ffa700" height="2.6" width="2.6" x="154.0" y="11.5"><title>2025-11-05 13.7 km</title></rect><rect fill="#4dd2ff" height="2.6" width="2.6" x="154.0" y="15.0"><title>2025-11-06 5.2 km</title></rect><rect fill="#444444" height="2.6" width="2.6" x="154.0" y="18.5"><title>2025-11-07</title></rect><rect fill="#ff8e00" height="2.6" width="2.6" x="154.0" y="22.0"><title>2025-11-08 16.1 km</title></rect><rect fill="#ff9900" height="2.6" width="2.6" x="154.0" y="25.5"><title>2025-11-09 15.0 km</title></rect><rect fill="#444444" height="2.6" width="2.6" x="157.5" y="4.5"><title>2025-11-10</title></rect><rect fill="#ff6b00" height="2.6" width="2.6" x="157.5" y="8.0"><title>2025-11-11 19.5 km</title></rect><rect fill="#444444" height="2.6" width="2.6" x="157.5" y="11.5"><title>2025-11-12</title></rect><rect fill="#444444" height="2.6" width="2.6" x="157.5" y="15.0"><title>2025-11-13</title></rect><rect fill="#ffc800" height="2.6" width="2.6" x="157.5" y="18.5"><title>2025-11-14 10.4 km</title></rect><rect fill="#ff9f00" height="2.6" width="2.6" x="157.5" y="22.0"><title>2025-11-15 14.4 km</title></rect><rect fill="#ff8e00" height="2.6" width="2.6" x="157.5" y="25.5"><title>2025-11-16 16.1 km</title></rect><rect fill="#444444" height="2.6" width="2.6" x="161.0" y="4.5"><title>2025-11-17</title></rect><rect fill="#ffc800" height="2.6" width="2.6" x="161.0" y="8.0"><title>2025-11-18 10.4 km</title></rect><rect fill="#ffc800" height="2.6" width="2.6" x="161.0" y="11.5"><title>2025-11-19 10.4 km</title></rect><rect fill="#444444" height="2.6" width="2.6" x="161.0" y="15.0"><title>2025-11-20</title></rect><rect fill="#ffc700" height="2.6" width="2.6" x="161.0" y="18.5"><title>2025-11-21 10.5 km</title></rect><rect fill="#444444" height="2.6" width="2.6" x="161.0" y="22.0"><title>2025-11-22</title></rect><rect fill="red" height="2.6" width="2.6" x="161.0" y="25.5"><title>2025-11-23 20.1 km</title></rect><rect fill="#444444" height="2.6" width="2.6" x="164.5" y="4.5"><title>2025-11-24</title></rect><rect fill="#ffcc00" height="2.6" width="2.6" x="164.5" y="8.0"><title>2025-11-25 10.0 km</title></rect><rect fill="#ffb800" height="2.6" width="2.6" x="164.5" y="11.5"><title>2025-11-26 12.0 km</title></rect><rect fill="#444444" height="2.6" width="2.6" x="164.5" y="15.0"><title>2025-11-27</title></rect><rect fill="#ffb400" height="2.6" width="2.6" x="164.5" y="18.5"><title>2025-11-28 12.4 km</title></rect><rect fill="#ff8f00" height="2.6" width="2.6" x="164.5" y="22.0"><title>2025-11-29 16.0 km</title></rect><rect fill="#ff9e00" height="2.6" width="2.6" x="164.5" y="25.5"><title>2025-11-30 14.6 km</title></rect><rect fill="#444444" height="2.6" width="2.6" x="168.0" y="4.5"><title>2025-12-01</title></rect><rect fill="#ffc700" height="2.6" width="2.6" x="168.0" y="8.0"><title>2025-12-02 10.5 km</title></rect><rect fill="#ffcc00" height="2.6" width="2.6" x="168.0" y="11.5"><title>2025-12-03 10.0 km</title></rect><rect fill="#ffbf00" height="2.6" width="2.6" x="168.0" y="15.0"><title>2025-12-04 11.2 km</title></rect><rect fill="#444444" height="2.6" width="2.6" x="168.0" y="18.5"><title>2025-12-05</title></rect><rect fill="#ff9900" height="2.6" width="2.6" x="168.0" y="22.0"><title>2025-12-06 15.0 km</title></rect><rect fill="#ffa600" height="2.6" width="2.6" x="168.0" y="25.5"><title>2025-12-07 13.7 km</title></rect><rect fill="#444444" height="2.6" width="2.6" x="171.5" y="4.5"><title>2025-12-08</title></rect><rect fill="#4dd2ff" height="2.6" width="2.6" x="171.5" y="8.0"><title>2025-12-09 5.0 km</title></rect><rect fill="#444444" height="2.6" width="2.6" x="171.5" y="11.5"><title>2025-12-10</title></rect><rect fill="#444444" height="2.6" width="2.6" x="171.5" y="15.0"><title>2025-12-11</title></rect><rect fill="#444444" height="2.6" width="2.6" x="171.5" y="18.5"><title>2025-12-12</title></rect><rect fill="#444444" height="2.6" width="2.6" x="171.5" y="22.0"><title>2025-12-13</title></rect><rect fill="#444444" height="2.6" width="2.6" x="171.5" y="25.5"><title>2025-12-14</title></rect><rect fill="#444444" height="2.6" width="2.6" x="175.0" y="4.5"><title>2025-12-15</title></rect><rect fill="#444444" height="2.6" width="2.6" x="175.0" y="8.0"><title>2025-12-16</title></rect><rect fill="#444444" height="2.6" width="2.6" x="175.0" y="11.5"><title>2025-12-17</title></rect><rect fill="#444444" height="2.6" width="2.6" x="175.0" y="15.0"><title>2025-12-18</title></rect><rect fill="#444444" height="2.6" width="2.6" x="175.0" y="18.5"><title>2025-12-19</title></rect><rect fill="#444444" height="2.6" width="2.6" x="175.0" y="22.0"><title>2025-12-20</title></rect><rect fill="#4dd2ff" height="2.6" width="2.6" x="175.0" y="25.5"><title>2025-12-21 8.8 km</title></rect><rect fill="#444444" height="2.6" width="2.6" x="178.5" y="4.5"><title>2025-12-22</title></rect><rect fill="#ffcb00" height="2.6" width="2.6" x="178.5" y="8.0"><title>2025-12-23 10.1 km</title></rect><rect fill="#444444" height="2.6" width="2.6" x="178.5" y="11.5"><title>2025-12-24</title></rect><rect fill="#ffcb00" height="2.6" width="2.6" x="178.5" y="15.0"><title>2025-12-25 10.1 km</title></rect><rect fill="#ffcc00" height="2.6" width="2.6" x="178.5" y="18.5"><title>2025-12-26 10.1 km</title></rect><rect fill="#ffa200" height="2.6" width="2.6" x="178.5" y="22.0"><title>2025-12-27 14.1 km</title></rect><rect fill="#ff8f00" height="2.6" width="2.6" x="178.5" y="25.5"><title>2025-12-28 16.0 km</title></rect><rect fill="#444444" height="2.6" width="2.6" x="182.0" y="4.5"><title>2025-12-29</title></rect><rect fill="#444444" height="2.6" width="2.6" x="182.0" y="8.0"><title>2025-12-30</title></rect><rect fill="#ffa000" height="2.6" width="2.6" x="182.0" y="11.5"><title>2025-12-31 14.3 km</title></rect></svg>