<?xml version="1.0" encoding="utf-8" ?>
<svg baseProfile="full" height="200mm" version="1.1" viewBox="0,0,200,200" width="200mm" xmlns="http://www.w3.org/2000/svg" xmlns:ev="http://www.w3.org/2001/xml-events" xmlns:xlink="http://www.w3.org/1999/xlink"><defs /><rect fill="none" height="200" width="200" x="0" y="0" /><polyline fill="none" points="13.568787618249189,18.194306402889197 14.984952708473429,18.072096867283108 15.472484952711966,18.058518022822682 15.89036973338807,18.09925455194025 16.319862424745224,18.221464061673032 16.679707652598154,18.35725226913928 17.469045571808238,18.751037257432472 18.850386930338573,19.375659240264213 19.941530524461996,19.90522766757931 20.254944110056385,20.081749990509707 21.729148753162008,20.77425829456479 22.054170249321032,20.95077942078933 22.59974204644095,21.29024244179891 23.21496130694868,21.751910707753268 24.190025795367546,22.593772088875994 24.30610490113031,22.743134014468524 24.3989681857056,22.906074098544195 24.422184006893076,23.06901397544425 24.45700773858698,24.128118127337075 24.48022355971625,24.440416399098467 24.549871023220476,24.902073320321506 25.002579535648692,26.382079889212037 25.141874462598935,26.721528528345516 25.269561478926335,26.99308679254318 26.83662940672366,29.681482573534595 27.04557179706171,29.96661215291533 27.24290627683513,30.183853311551502 27.335769561468624,30.306051301580737 27.53310404130025,30.686222081174492 28.635855545988306,32.55990445501811 28.96087704214733,32.99437761650188 29.123387790226843,33.15730467249523 29.506448839209042,33.57819860900054 29.947549441072624,34.134862660983345 30.945829750678968,35.24818351508293 31.45657781593036,36.062802406115225 31.87446259672288,37.162529699955485 32.08340498706093,37.610564041664475 32.24591573514044,38.01786663025268 32.57093723129947,38.96823430599761 32.73344797932077,39.53845153069415 32.81470335338963,39.687793718170724 32.90756663796492,39.7420999250171 32.98882201203378,39.7420999250171 33.19776440237183,39.64706404789467 33.87102321576094,39.09042392473202 34.31212381768273,38.53378138532571 34.451418744632974,38.30297767253069 34.64875322440639,38.07217354433669 35.35683576948941,37.162529699955485 35.588993981073145,36.90456982341129 35.82115219254047,36.687340051168576 36.27386070502689,36.388648513457156 37.46947549440665,35.88630208556424 37.608770421298686,35.80484031721426 37.72484952706145,35.70980152205448 37.864144454011694,35.655493607526296 38.34006878756918,35.58760868194804 38.58383490971755,35.51972372044111 38.874032674124464,35.533300715644145 39.70980223559309,35.64191662525991 40.61521926050773,35.80484031721426 40.88220120378537,35.88630208556424 41.93852106621489,36.29361015102768 42.69303525367286,36.687340051168576 43.09931212384254,36.95887720894825 43.424333619943354,37.2304137917381 43.656491831468884,37.3661818675173 43.842218400677666,37.55625693210459 44.097592433332466,37.77348523233377 44.49226139293751,38.03144336096011 45.06104901112849,38.20794072886929 45.81556319858646,38.39801454573171 46.00128976779524,38.42516792520473 46.25666380050825,38.42516792520473 46.44239036971703,38.38443785389245 46.709372312994674,38.30297767253069 47.104041272599716,38.14005715458188 47.4522785898298,37.94998295533878 47.68443680135533,37.80063874399639 48.48538263107184,37.18968334097008 48.74075666378485,37.081068742394564 48.83361994836014,37.053915078315185 49.007738607004285,37.040338244172744 49.12381771276705,36.98603089313838 49.61134995700559,36.56514814255934 50.27300085983006,36.14426401055243 51.37575236457633,35.64191662525991 51.77042132418137,35.533300715644145 52.00257953564869,35.49256972578587 52.74548581254203,35.43826171924593 53.743766122090165,35.39753069919243 54.022355975874234,35.356799666245934 54.27773000858724,35.383953689655755 54.83490971621359,35.383953689655755 55.14832330174977,35.43826171924593 55.322441960452124,35.533300715644145 55.426913155650254,35.64191662525991 55.786758383503184,36.28003323635494 55.93766122095985,36.44295611754933 56.57609630265506,36.8231087019376 56.81986242480343,36.999607733028824 57.12166809971677,37.162529699955485 57.38865004299441,37.25756741843361 57.64402407564921,37.31187465446419 58.038693035254255,37.3254514598666 58.3056749785319,37.27114422956947 58.66552020632662,37.17610652120493 58.93250214960426,37.081068742394564 59.0717970765545,36.98603089313838 59.9307824591524,36.184994793409714 60.186156491807196,35.91345599685155 60.905846947513055,35.20745243468264 61.161220980167855,34.854449195889174 61.346947549434844,34.66437012630922 61.54428202920826,34.43355944874929 61.892519346496556,33.849742350925226 62.0666380051407,33.60535300904303 62.42648323299363,33.21161364520958 62.78632846084656,32.967223087034654 63.58727429062128,32.301935318799224 64.30696474632714,31.853882427560166 64.60877042129869,31.718108515036874 65.10791057610186,31.677376313251443 66.29191745485878,31.33794079508516 66.59372312977212,31.29720847250428 66.81427343079122,31.310785914814915 66.8723129836726,31.33794079508516 66.95356835768325,31.40582797060779 67.0,31.58233445874066 66.97678417887073,32.084697748869075 66.91874462593114,32.600636376431794 66.84909716248512,32.77714121979079 66.79105760960374,32.83145035347843 66.68658641440561,32.899336738235434 66.47764402406756,32.95364582016191 66.00171969039366,33.03510939994885 65.29363714531064,33.21161364520958 64.35339638864389,33.59177580974938 63.84264832333429,33.86331952289038 63.64531384350266,33.99909116384515 63.45958727429388,34.31136539239378 63.16938950988697,34.555753388631274 62.32201203785371,35.383953689655755 62.0666380051407,35.70980152205448 61.95055889937794,35.94060990239086 61.88091143593192,36.02207158449164 61.242476354236715,36.4565330149635 61.05674978502793,36.63303255062783 60.81298366293777,36.90456982341129 60.63886500423541,37.053915078315185 60.40670679276809,37.21683697626577 60.000429922598414,37.39333546538546 59.52450558898272,37.71917819180817 59.106620808306616,37.93640621601662 58.769991401582956,38.04502009016869 58.270851246779785,38.16721058861003 57.88779019773938,38.18078730349953 57.56276870163856,38.16721058861003 57.0984522785875,38.07217354433669 56.78503869305132,38.03144336096011 56.564488392090425,37.97713642963208 56.13499570073327,37.692024662857875 55.67067927774042,37.35260506643681 54.34737747203326,36.59230191010283 54.19647463457659,36.53799436932604 53.430352536495775,36.34791779537045 53.12854686152423,36.33434088641661 52.44368013757048,36.36149470282544 52.04901117796544,36.44295611754933 51.71238177124178,36.53799436932604 51.050730868417304,36.80953184334794 50.563198624236975,37.081068742394564 50.354256233840715,37.21683697626577 50.180137575254776,37.35260506643681 49.947979363729246,37.58341048975126 49.72742906276835,37.84136900068552 49.64617368869949,37.97713642963208 49.59974204644095,38.221517439436866 49.47205503011355,38.38443785389245 49.37919174548006,38.43874461276573 49.03095442819176,38.54735806136159 48.369303525367286,38.846044570818776 48.160361134971026,38.954657674534246 47.83533963887021,39.17188360588625 47.11564918310614,39.36195599399798 46.54686156491516,39.47056866069033 45.74591573514044,39.49772181303706 45.58340498706093,39.47056866069033 45.24677558039548,39.36195599399798 44.60834049870027,39.22619003124419 43.98151332762791,38.88677449552051 43.552020636270754,38.710278061873396 43.30825451418059,38.588088080927264 43.27343078242848,38.54735806136159 43.28503869305132,38.43874461276573 43.26182287186384,38.41159123618854 43.01805674977368,38.2350941485347 42.78589853824815,38.03144336096011 42.51891659502871,37.895675989522715 42.054600171977654,37.610564041664475 41.39294926909497,37.31187465446419 41.207222699944396,37.17610652120493 40.9866723989835,37.067491911075194 40.116079105762765,36.7823781217885 39.315133276046254,36.64660942790215 38.769561478926335,36.60587879171362 38.14273430779576,36.66018630373583 37.8061049010721,36.64660942790215 37.53912295785267,36.70091692272399 37.34178847807925,36.76880125889147 36.76139294926543,37.053915078315185 36.37833190022502,37.3254514598666 36.25064488389762,37.447642643994186 35.85597592429258,37.868522497985396 35.588993981073145,38.2350941485347 35.252364574349485,38.642394753478584 35.08985382632818,38.954657674534246 34.764832330169156,39.402685754801496 34.06835769559257,40.1629722485377 33.6620808254811,40.48880793742137 33.27901977638248,40.69245482257975 32.9307824591524,41.059018400890636 32.4548581255367,41.38485181314172 31.781599312089384,41.72426073720271 31.375322441919707,41.91432934231125 31.236027515027672,41.94148197719187 31.131556319829542,41.94148197719187 31.027085124631412,41.88717670168262 30.852966466045473,41.65637902423623 30.736887360282708,41.547768208780326 30.539552880451083,41.439157301327214 30.435081685252953,41.41200456011575 30.260963026608806,41.439157301327214 29.843078245874494,41.61564997922687 29.773430782428477,41.602073628033395 29.68056749785319,41.547768208780326 29.564488392032217,41.38485181314172 29.425193465140183,41.0454419907619 29.34393809112953,40.651725471398095 29.285898538248148,40.149395743515925 29.2394668959314,40.00005409360165 29.158211521920748,39.85071226977743 29.08856405847473,39.7556764731562 28.183147033501882,38.778161334310425 28.032244196045212,38.560934735956835 27.567927772994153,38.03144336096011 27.15004299225984,37.488373012820375 26.52321582112927,36.90456982341129 26.070507308642846,36.61945567188377 26.024075666442513,36.56514814255934 25.838349097117316,36.21214864141075 25.53654342214577,35.94060990239086 25.188306104915682,35.696224545594305 24.526655202091206,35.30249160215317 24.108770421356894,34.976642734676716 23.389079965592828,34.59648467601801 23.052450558869168,34.365673876251094 22.355975924350787,33.82258800258569 22.135425623389892,33.60535300904303 21.50859845225932,33.11657292791642 21.346087704238016,32.9264912820945 21.19518486672314,32.69567747610563 20.579965606157202,31.894614573277067 20.49871023214655,31.718108515036874 20.463886500394437,31.595911870826967 20.475494410959072,31.487292533784057 20.765692175424192,30.76768710158649 20.928202923445497,30.211008430531365 21.02106620807899,30.061655205121497 21.288048151356634,29.72221540939063 21.84522785898298,29.084066160634393 22.007738607062493,28.866823138436303 22.065778159885667,28.703890630276874 22.054170249321032,28.608846571514732 22.019346517627127,28.540957914985484 21.25322441960452,27.767024689746904 21.09071367152501,27.56335727502301 20.765692175424192,27.074554159640684 20.556749785027932,26.870885644791997 20.243336199433543,26.42281377335894 20.150472914858256,26.354923959253938 20.034393809037283,26.287034109205706 19.732588134123944,26.2327222032618 19.59329320723191,26.24630018188327 19.314703353389632,26.24630018188327 19.128976784122642,26.30061208207917 18.76913155632792,26.31419005349744 17.631556319829542,26.259878159107757 17.202063628530595,26.287034109205706 16.424333620001562,26.42281377335894 16.296646603615955,26.409235813393025 16.250214961299207,26.368501924938755 16.192175408417825,26.2734561348625 16.145743766101077,25.94758431959781 16.05288048152579,24.34536917952937 15.97162510745693,23.462784489660407 15.92519346519839,23.13690552971093 15.797506448754575,22.648085536493454 15.658211521920748,22.376518068180303 15.437661220959853,22.037057923764223 15.275150472880341,21.643283030047314 15.101031814236194,21.412448909308296 14.822441960452124,20.964357958873734 14.578675838303752,20.692786923551466 14.369733448023908,20.38047952170018 14.160791057627648,20.163221749884542 13.975064488360658,19.91880631641834 13.394668959546834,19.416395350781386 13.266981943219434,19.267029548835126 13.174118658644147,19.104084839113057 13.0,18.655985819292255" stroke="#4dd2ff" stroke-linecap="round" stroke-linejoin="round" stroke-width="0.5"><title>2022-12-10 13.2km</title><desc>8229248729</desc></polyline><polyline fill="none" points="107.74302373798855,6.587480674981634 107.69754949286289,6.679339688074833 107.38749782154628,6.819545194044622 107.21386888563575,6.853387837913033 106.05220862381975,6.790537193635828 105.78349717536184,6.814710528593423 105.49824963774881,6.790537193635828 104.67144518095301,6.9694195694319205 104.56809462384263,6.9452463163324865 104.45647602218378,6.432770340637944 104.30765121996228,5.983140457294212 103.84464072414266,3.7929445136905997 103.67514581049909,3.2369177907312405 103.58833134254382,3.019340273887792 103.54699111968512,3.0 102.73258872973383,3.381968892797886 102.58376392751234,3.478669371590513 101.98019667403423,3.710749685345945 101.71975327013934,3.8509643034594774 101.11205199440883,3.962168694510183 101.07071177156467,4.0056833825219655 101.07484579384618,4.054032987260143 101.26087679661578,4.232926079730532 101.19886646237865,4.3586343201495765 101.04590763786109,4.445662899302988 100.6738456322928,4.55686584247087 100.51261876322678,4.576205457127799 100.27697949302092,4.658398728057364 100.16949491364358,4.788940677884966 99.78916486349772,4.793775557747722 99.48324721449171,4.842124328253703 99.2889481671591,4.842124328253703 98.14795801675064,5.064528013455856 98.02807137048512,5.151555247666693 97.86684450141911,5.378792244209762 97.68081349864951,5.818758534984227 97.38316389419197,6.089504915355064 96.68451412821014,6.21037331707339 96.36619441233051,6.220042775392358 96.22563765467203,6.297398368289578 95.98586436219921,6.258720588219148 95.62620442347543,6.273224759574077 94.78699789983511,6.18619966231563 94.19583271321608,6.181364929834672 93.74935830653703,6.273224759574077 93.23260552102874,6.548803140511154 92.9390899388527,6.664835645642597 92.64557435669121,7.0564431746570335 91.96346067982086,7.443212747773941 91.79396576617728,7.612423406342714 91.42190376060898,7.873490050154942 91.2028005795728,7.965346477441926 90.81006846258242,8.023360967927147 90.5661611478281,8.18290043691377 89.93365573835035,8.497143216140103 89.31355239576078,8.898403930605127 88.51982011723157,9.328667528265214 88.1684282230708,9.638068060336082 87.333355721712,10.150508082868328 87.23827320917917,10.26169714027128 87.23000516461616,10.522748646486434 87.33748974400805,11.170536682497186 87.63100532616954,12.103528685551282 87.71781979412481,12.258219819119404 87.99893330944178,12.509591794329026 88.09401582198916,12.683617736394808 88.32965509216592,13.200857596595597 88.48261391668348,13.722925537695119 88.84227385537815,14.723539088838152 88.9208202787704,14.878221354243578 88.97869659075513,14.902390410923545 89.13992345982115,14.83955083696128 89.53265557681152,14.607527046235191 89.95432584978698,14.428674570252042 90.47107863529527,14.13864204035417 92.2197700614488,13.312039232016105 93.31941998898401,12.736792197625618 93.8031005962257,12.528928042833286 94.2082347800606,12.287224348357995 96.21736961009447,11.330065162677784 96.67624608363258,11.07868669882373 97.45757629531727,10.735456178441382 97.78829807804141,10.561422816856066 97.92472081341839,10.41639450916773 98.67297884682193,10.16501101875474 98.7639273370587,10.16017670729343 98.82180364904343,10.198851184555679 98.97062845126493,10.479240165681404 99.26001001114491,11.528266437999264 99.6279379944317,11.441251349813683 99.71888648468303,11.446085525716626 99.87184530918603,12.01168057722316 99.9255875988747,12.06002170987631 100.06614435653319,12.055187598900375 100.72345389969996,11.852154476629948 101.02110350414296,11.615281360463996 100.97149523675034,11.446085525716626 100.91361892478017,11.417080462579179 100.70278378827788,11.450919701124803 100.5250208300713,11.426748819008935 100.04547424511111,11.165702477428567 99.68581430641643,11.07868669882373 99.49564928133623,10.517914372878295 99.26001001114491,10.04415307911404 99.25174196659646,9.932963492316048 99.31375230083358,9.860448398634617 99.52045341505436,9.744424009350041 99.64034006127622,9.628399325425562 100.02480413368903,9.401183465961367 100.70278378827788,9.149794389886665 100.99216534815787,8.985423861500749 101.32702115317807,8.883900592667487 101.60400064619898,8.70502571297402 101.86031002779782,9.246482659753383 102.01740287459688,9.686411704205966 102.27784627849178,11.08352091308916 103.10465073531668,12.683617736394808 103.84464072414266,14.385169808108913 104.03480574922287,15.385768860589451 104.2497749079921,15.878809612750047 104.64250702495337,17.37240060905242 104.82853802772297,18.590438691313466 104.90295042884827,18.812775473368674 105.17992992189829,19.392779380275897 105.87031164331711,21.103748035562603 105.91165186616126,21.36473762571768 105.87444566561317,21.466233175113302 105.65534248454787,21.577394708798238 105.46931148176373,21.809383125957538 105.05177523108432,22.196027872229024 104.87814629515924,22.27335642915932 104.53088842330908,22.32168671082036 104.48128015588736,22.365183920650452 104.50195026729489,22.573003351997613 104.63837300268642,22.679329207447154 105.4858475709043,22.73249204244712 105.73388890795468,22.69866115460536 105.99846633411653,22.616500322743377 106.59376554303162,22.249191269158473 106.68884805556445,22.22502609640651 106.86247699148953,22.292688547946454 107.03610592741461,22.408681089083984 107.49084837867122,23.051467754528858 107.64380720317422,23.090131326007395 107.77196189398819,23.027303005757858 108.54502406109532,21.920543825381174 108.6029003730655,21.88187926493265 108.66904472959868,21.915710757119086 108.63597255133209,21.867380046329345 108.66904472959868,21.765885387398157 109.22300371566962,21.123080648874748 109.4751790750015,20.770259168977645 110.22343710840505,19.431446045771736 110.23997319753107,19.267112491557782 110.16969481871638,19.11727844201596 109.91338543710299,18.890109752785065 109.3594264510466,18.474436462700396 109.32222025048395,18.41643523801031 109.33462231734302,18.324599815077818 110.23170515298261,17.672079655414564 110.47974649001844,17.33373220190333 110.60790118081786,17.21772678416528 110.71951978249126,17.246728166192042 111.1659941891703,17.79291742474379 111.2693447462807,17.8122514382012 111.36856128109503,17.77358340311548 111.52565412787953,17.551241566656245 111.5421902170201,17.37240060905242 111.59179848442727,17.261228850315092 111.66621088553802,17.188725383730343 111.77369546491536,17.145223248582624 111.8729119997297,17.034050937345455 112.76999483536929,15.23592208793707 112.67904634511797,15.501778927820851 112.08788115849893,16.705366000896902 111.82330373233708,17.159723964909062 111.65794284097501,17.285396646948357 111.60420055125724,17.420736071995634 111.58766446214577,17.614077412676124 111.40163345934707,17.831585443476797 111.23213854571804,17.928255347185768 111.17839625601482,17.995924158138223 110.74432391618029,18.764441482300754 110.64924140366202,18.986777418096608 110.3722619106411,19.397612715245486 110.31851962095243,19.542612526885932 110.1820968855609,19.745611490539886 110.15315872959036,19.96794265463177 109.94645761536958,20.315937088696955 109.74802454574092,20.494766531413916 109.64880801091203,20.823424223737675 109.31395220592094,21.355071371170197 108.68558081873925,22.29752157637631 108.3383229468891,22.727659060004953 108.2308383674972,22.824318611885246 108.03653932015004,22.9258109214461 107.9331887630542,23.133627804840216 107.77609591625514,23.29794746259722 107.11878637310292,23.776404279778944 106.74259034525312,23.964885893874452 106.35812627282576,24.109871222233778 106.09354884664936,24.18236371403691 105.92818795528729,24.16786522487382 105.8579095764726,24.090539871685905 105.69254868511052,23.34627666131928 105.31221863496467,23.413937453737162 105.00216696367715,23.510595554944302 104.91121847342583,23.500929754016397 104.83680607231508,23.418770363645308 104.72932149293774,22.978973469904304 104.70038333692355,22.940309804434946 104.60116680213832,22.916144996921503 103.78263038987643,22.964474599189998 102.57962990521628,23.06113365046258 102.00086678545631,23.172291306855186 101.02937154872052,23.433269090313843 100.4092682061164,23.805401501736924 100.10748457937734,23.906891633821942 99.8511751977785,24.022880080374307 99.80156693035678,24.076041353400797 99.91318553204474,24.332181166260852 100.28111351530242,25.332562540879735 100.26044340388034,25.463045454700477 100.12815469079942,25.472710840909713 98.31745293039421,25.15858474333072 98.0818136602029,25.17791564240906 97.75522589977481,25.269737301445275 97.35422573822143,25.496874297510658 96.44060681342671,26.212106831080746 96.0520087187324,26.444071737190825 95.25827644020319,27.00948126705407 94.44800807251886,27.338092141122615 91.70715129822202,28.589691349716304 91.36816147093487,28.83130887470179 91.02503762136621,29.16957126559646 90.41733634559205,29.68662465770467 90.42973841245112,29.783269503270276 90.65297561578336,30.07803502117895 90.97956337624055,30.643399633889203 91.56246051826747,31.3440554844492 91.67407911995542,31.38754411458285 91.74435749878467,31.348887556498084 92.35619279681123,30.70621749287966 92.90188373829005,30.07320281488137 93.41036847923533,29.36286293732701 93.74935830653703,29.06809281097594 94.22890489148267,28.82647653670574 94.44800807251886,28.74432671273462 94.55962667420681,28.734662017854134 94.65057516444358,28.797482498033787 94.80766801125719,28.990775742066035 95.03090521458944,29.33386923863509 94.98956499174528,29.560986053213128 94.72498756556888,30.04420956641843 94.63403907531756,30.10219604497979 94.472812206237,30.05387398462335 94.08421411152813,29.85092077367517 93.51371903633117,29.502998888609 93.43517261293891,29.474005278738332 93.38969836781325,29.488502085976506 92.72412078008347,30.38246298856029 91.86837816728803,31.266742262123444 91.72368738734804,31.493849480870267 91.9221204570058,32.02537260721874 92.18256386088615,33.590913936594006 92.68278055723931,37.22914106578901 92.66211044583179,37.47071297189905 93.0879147410742,40.52407195505293 93.12098691935535,40.57238296030846 93.1953993204661,40.58204515523903 93.93125528702512,40.44194312912441 94.39426578284474,40.40812533444114 94.74152365470945,40.29217842012076 95.09704957112262,40.24869825154019 95.20866817279602,40.258360514792 95.25000839564018,40.29217842012076 95.28308057390677,40.50957864354132 95.25414241792168,40.63518719089916 95.06811141515209,41.06515230140212 94.36946164914116,41.94439422373034 93.18299725363613,43.78011962601522 92.16189374946407,45.02160797770921 91.76502761019219,45.43704014260584 91.46737800573464,45.85246853832723 91.25240884695086,46.3789944613236 90.90515097511525,48.03099062876208 90.91755304197432,48.36428087654349 91.18213046815072,49.86647203490793 91.76089358789613,51.972354824119975 91.89318230099161,52.30561639208099 92.49261553217366,53.305386548672686 92.97216211713385,54.43070559883563 93.3152859667025,55.14065661572022 93.48891490264214,55.406281719038816 93.68321394997474,55.62361020356548 94.27851315890439,56.18865943876153 94.48521427308151,56.488084413820616 94.73325561013189,57.0 94.76219376611698,56.975853166906745 94.3239874040155,56.20314778905595 93.62120361572306,55.5366789334621 93.36489423410967,55.174463532581285 92.41820313106291,53.11702572363356 92.00480090266501,52.436022432575555 91.81050185531785,52.04963308480001 91.2069346018543,49.80368046518561 90.93822315338184,48.19522090907412 90.98369739852205,47.736340708441276 91.25240884695086,46.55289160130269 91.37229549321637,46.137469560209865 91.48804811717127,45.895943385141436 91.76089358789613,45.49017654297131 92.6703784903948,44.46125164469777 93.32355401128007,43.620704285949614 94.40253382740775,41.93473231633834 94.82007007810171,41.44197233599334 95.04330728143395,41.147280009201495 95.24587437334412,40.760795393565786 95.3078847075958,40.35015191399725 95.28308057390677,40.29217842012076 95.2293382842181,40.263191645648476 94.88208041235339,40.3549830351767 94.45214209481492,40.43711201712358 94.1420904234983,40.47576089882932 93.7948325516627,40.58687625193488 93.25327563245082,40.59170734811778 93.19126529818459,40.557889664079994 93.14992507534043,40.48059200674106 92.88948167146009,39.03123676191535 92.83160535947536,38.601252545216994" stroke="red" stroke-linecap="round" stroke-linejoin="round" stroke-width="0.5"><title>2022-11-27 43.0km</title><desc>8173696637</desc></polyline><polyline fill="none" points="141.99223468502169,16.07745826698374 142.45815358063555,16.359049590304494 142.6988783433917,16.54072092109709 143.195858498686,16.949480008166574 143.54529767038184,17.285569353494793 143.615185504721,17.37640408558218 143.64624676443054,17.494489093471202 143.63071613456123,18.184828962555912 143.7161345987697,18.711663545007468 143.96462467644596,19.592741735068557 144.12769628988463,20.00148627532326 145.2924935288611,21.999764875166875 145.37791199309868,22.136009447953256 145.5953408110363,22.335834429868555 145.72735116479453,22.635571029837593 146.03019844691153,23.107881122290564 146.12338222606922,23.316786679752113 146.5970664365741,24.03432798020367 147.194995685888,24.75186327816482 147.52890422774362,25.060674090491375 148.04918032782734,25.623796827385377 148.26660914579406,25.968934742108104 148.4141501293925,26.26865864668798 148.74029335632804,27.30406044121628 148.9965487489244,27.87625080828002 149.14408973249374,28.530177983047906 149.22174288175302,28.65732991038385 149.3071613459906,28.702741267319652 149.4081104400102,28.684576727428066 149.4935289042187,28.639165360866173 149.92838654012303,28.303120501179365 150.409836065548,27.67643873282941 150.86798964621266,27.04975238635234 151.25625539256725,26.64104143295117 151.57463330455357,26.423061461595353 152.4055220017035,26.105173010379076 152.5918895599607,25.950769623319502 152.65401207937975,25.923521937911573 153.11993097496452,25.887191677284136 153.26747195856296,25.950769623319502 154.12165660047322,26.050677729042945 154.5021570319077,26.123338096484076 154.696289905085,26.186915867496282 155.37963761860738,26.450308988278266 156.45901639340445,27.022505050044856 156.56773080240237,27.095164594320522 156.85504745470826,27.385802155891724 157.15789473682526,27.58561490833381 157.6937014667783,27.74001535277057 158.1130284728133,27.821756652061595 158.39257981017,27.803591925592627 158.8041415012849,27.64919159559213 159.28559102673898,27.376719747007883 159.73597929245443,27.040669941881788 160.12424503880902,26.913515618274687 160.55910267471336,26.532051516485808 160.95513373595895,26.286823698152148 161.6928386540094,25.959852183215844 162.05004314062535,25.869026541178755 163.05176876616315,25.769118223899568 164.03796376183163,25.769118223899568 164.24762726487825,25.823613684122392 164.4029335634259,25.932604500689195 164.62812769625452,26.323153789584467 164.73684210522333,26.441226480339537 165.17169974112767,26.704618820273026 165.32700603967533,26.877185776873375 165.74633304571034,27.067917272426712 166.04141501293634,27.086082154644828 166.3054357204528,27.04975238635234 166.57722174286027,26.977092803645064 166.6937014667492,26.93168053316913 166.85677308024606,26.804526047984837 167.33045729078003,26.39581392618129 168.13028472824953,25.57838384048955 168.27006039686967,25.39673165246495 168.46419327004696,25.187831160663336 168.75927523727296,24.724615211918717 169.12424503883813,24.24323128125252 169.27955133738578,24.143321070332604 169.38826574629638,24.03432798020367 169.86971527177957,23.671016679545573 170.45211389128235,23.353118029110192 170.56082830028026,23.32586951852136 170.8015530629782,23.316786679752113 171.11216566007352,23.225958239017928 171.75668679896626,23.080632533790777 172.22260569458012,23.06246680332697 172.38567730798968,23.144212560117012 173.33304572905763,23.45302916046785 173.63589301123284,23.625602658757998 173.7911993097514,23.680099480807257 174.07075064710807,23.716430676293385 174.28041415012558,23.789093021056033 174.2959447799367,23.843589739240997 174.24935289041605,23.943500299290463 174.02415875752922,24.842690103054338 174.0940465918684,24.897186151858477 174.4124245038547,24.969847496395232 174.62985332182143,25.11517000079766 174.6919758412405,25.342235921038082 174.76186367557966,25.55113603679638 174.93270060396753,25.832696257442876 174.73080241587013,26.541134014834824 174.71527178602992,26.750031210918678 174.55996548748226,27.294978023681324 174.43572044861503,28.04881540797942 174.3891285591235,28.65732991038385 174.3891285591235,29.165935735167295 174.42795513372403,29.883428110711975 174.47454702330288,30.228548888168007 174.6919758412405,31.064098705144715 174.9094046591781,31.681673774561204 175.1967213114549,32.3174081731122 175.66264020706876,33.207428417299525 175.94995685934555,33.65243507725245 176.08196721310378,33.96121385230799 176.1984469370218,34.124684518625145 176.47023295945837,34.39713493704767 176.75754961173516,34.76040081590327 177.34771354615805,35.36886771747959 178.6056945642631,36.52221851113427 178.7920621225203,36.77649849020963 179.0017256255087,36.967207980007515 179.14926660916535,37.20332390396652 179.3045729076548,37.29413754786219 180.15099223464495,37.92074907143251 180.3917169974302,38.220431226087385 181.0983606557711,38.9106043290376 181.23813632442034,39.119471410813276 181.43226919753943,39.2012018696405 181.72735116482363,39.43731164679775 182.0069025021512,39.618934110258124 182.56600517686456,40.14563708062633 183.32700603970443,40.944766448883456 184.33649698013323,42.23425496548589 184.93442622947623,43.06968788738595 185.13632441760274,43.26946412038524 185.36151855046046,43.44199776559981 185.57118205347797,43.76890266851842 185.81967213115422,43.995919229637366 185.96721311478177,44.34098325255036 186.24676445210935,44.64064298909216 186.3943054357078,45.00386550955591 186.66609145814436,45.34892548026255 186.7903364969825,45.684903592496994 186.94564279550104,45.893754188633466 187.0,46.02088038963848 186.95340811042115,45.920995533240784 186.72821397756343,45.57593786236248 186.6039689387253,45.276281391168595 186.37100949091837,44.95846277853707 186.23123382226913,44.60432065250643 186.14581535806064,44.48627295243932 185.98274374462198,44.34098325255036 185.73425366694573,43.91419333682279 185.54788610871765,43.705337923791376 185.33822260570014,43.39659420836688 185.1052631578932,43.22406047192635 184.8955996548757,43.0152033794875 184.18119068161468,42.07079974696535 183.76186367555056,41.580432223498065 183.16393442620756,40.8176327289475 182.54270923207514,40.227366562168754 181.96031061257236,39.637096335500246 181.4089732528082,39.2193641832564 181.16824849008117,39.08314673744462 181.02847282137373,38.883360759144125 180.48490077650058,38.284000033469056 180.205349439173,37.92074907143251 179.87920621223748,37.73912301378732 179.61518550475012,37.503008564141055 179.08714408971719,37.13067291962943 178.97842968077748,36.97628937372065 178.7144089732319,36.740172825040645 178.55910267471336,36.47681129272678 177.4098360655771,35.46876485616667 177.2933563416591,35.3325414564315 176.92838654012303,34.978359604974685 176.05090595339425,33.93396871096047 175.9033649697667,33.6251898378905 175.53062985331053,32.962219679611735 174.97929249351728,31.772493262753414 174.76962899049977,31.218492889252957 174.57549611732247,30.51009375727881 174.4978429680923,30.074152922497888 174.3968938740145,29.056949026562506 174.38136324417428,28.32128512181953 174.45901639343356,27.685521109990077 174.61432269198122,26.877185776873375 174.8938740293379,26.05976027833094 174.94046591891674,25.841778829832037 174.9094046591781,25.74187048078602 174.7929249352892,25.623796827385377 174.72303710095002,25.49664040346397 174.65314926661085,25.196913801330084 174.6065573770611,25.106087351494352 174.44348576356424,25.024343464414414 174.15616911128745,24.92443416328024 174.03192407244933,24.860855456528952 174.01639344260911,24.80635938465275 174.03968938739854,24.661036357058038 174.1872303710261,24.16148657186568 174.23382226057583,23.898086422806955 174.2027610008372,23.843589739240997 174.008628127689,23.716430676293385 173.8999137187202,23.680099480807257 173.410698878346,23.571105802067905 172.88265746331308,23.38944936306507 172.15271786024095,23.189626835817762 171.53149266610853,23.189626835817762 171.32182916303282,23.207792539324146 171.14322691975394,23.244123934848176 170.77049180326867,23.38944936306507 170.5064710957522,23.434863508875424 169.83088869714993,23.81634138445952 169.42709232095513,24.143321070332604 169.07765314928838,24.47029950968863 168.2079378774797,25.55113603679638 167.7031924072653,26.023430075387296 167.43917169969063,26.304988745810988 167.02761000860482,26.67737137433869 166.6082830025698,26.968010351462 166.44521138913115,27.031587496458087 166.1889559965348,27.086082154644828 165.8938740293379,27.095164594320522 165.66867989648017,27.031587496458087 165.23382226054673,26.82269098598772 164.8067299395625,26.568381504032004 164.58153580673388,26.38673141248728 164.44176013802644,26.087007920454198 164.36410698876716,25.968934742108104 164.28645383950789,25.90535680953326 164.16220880069886,25.841778829832037 164.03019844694063,25.823613684122392 162.87316652285517,25.832696257442876 162.5159620362101,25.887191677284136 162.05004314062535,25.90535680953326 161.6074201898009,26.041595178772695 161.23468507331563,26.214163469223422 160.73770491802134,26.49572151358734 160.18636755819898,26.85902085043199 159.98446937013068,26.968010351462 159.64279551335494,27.204153795282764 158.85849870578386,27.66735635470104 158.61777394302771,27.76726246119506 158.36151855046046,27.83992137460882 158.02761000863393,27.867168451310135 157.53839516823064,27.76726246119506 157.11906816219562,27.612862065783702 156.81622088007862,27.440296589084028 156.22605694565573,26.968010351462 155.8067299395625,26.686453857269953 155.34857635892695,26.459391495263844 154.62640207077493,26.16875079487363 153.58584987054928,25.932604500689195 153.08110440033488,25.914439374209906 152.76272648834856,25.941687062499113 152.56082830025116,26.014347522243042 152.3977566867834,26.132420638081385 151.44262295082444,26.532051516485808 151.24072476266883,26.65012391973869 150.85245901637245,27.058834829855186 149.9982743744331,28.19413269640063 149.7963761863357,28.40302586722828 149.7031924072362,28.457519654213684 149.64106988778803,28.466601948697644 149.54788610868854,28.412108167460246 149.39257981017,28.103309419988364 149.13632441754453,27.549285351597064 148.7092320966185,26.37764889781829 148.2899050905835,25.669209790234163 148.11906816219562,25.451227349272813 147.84728213972994,25.215079079753195 147.2182916306774,24.48846494199097 146.6902502156736,23.83450695526699 146.33304572908673,23.26228962685127 146.21656600516872,23.00796958886349 145.8904227782332,22.490244324304513 145.78170836926438,22.235921997082187 145.38567730798968,21.563780787902942 145.18377911989228,21.145960624584404 144.98188093179488,20.837135717403726 144.73339085420594,20.382979422007338 144.37618636753177,19.82890548481373 144.22864538390422,19.44740987350815 144.0112165659666,18.993246218771674 143.92579810178722,18.711663545007468 143.86367558239726,18.29382948653074 143.8869715271867,17.648907704569865 143.86367558239726,17.476322179762064 143.4055220016744,17.031231591776304 142.5901639343938,16.386300314450637 142.3106125970371,16.213712248572847 141.8058671268227,15.941204068883962 141.16911130282097,15.632360418378084 140.64883520273725,15.423436141696584 139.74029335632804,15.023753498389851 138.9016393442289,14.542315113649238 138.26488352028537,14.269801622365776 137.58930112162489,14.11537692615093 137.2165660051396,13.979119610361522 136.71958584984532,14.042706384687335 136.37791199306957,14.06087402583944 135.24417601380264,14.287969215372868 135.02674719583592,14.387890908234112 134.1182053493976,14.705822792726394 133.5979292493139,14.942000000941334 133.0,15.287180904422712" stroke="#4dd2ff" stroke-linecap="round" stroke-linejoin="round" stroke-width="0.5"><title>2022-11-20 20.0km</title><desc>8141878784</desc></polyline><polyline fill="none" points="13.0,84.67887733828684 13.076465590507723,84.94722235309018 13.1682242990355,85.1797876877099 13.321155480050948,85.41235270207108 13.51996601530118,85.68069655141153 14.11639762116829,86.18160392934806 14.483432455395814,86.62884140416281 14.865760407759808,87.20130364366923 15.14103653357597,87.72009587215143 15.64570943074068,88.45355802755512 15.966864910791628,89.00812485952338 16.272727272706106,89.47324402420782 16.471537808014546,89.84891626056924 16.639762107108254,90.34981127582432 16.71622769755777,90.6360363317799 16.762107051850762,91.24426296520687 16.85386576037854,92.99737453569833 16.915038232749794,93.58770392823499 16.976210705179255,93.94547831350064 17.037383177666925,94.14225390237698 17.343245539523195,94.73257929345709 17.41971112997271,94.78624513577961 17.511469838558696,94.80413374607451 17.847918436746113,94.80413374607451 20.09600679698633,94.21380860508361 20.75361087510828,94.12436522197095 21.45709430758143,94.08858785538177 21.900594732374884,94.14225390237698 22.129991503839847,94.23169727604545 22.971112999133766,94.7683565235493 23.169923534442205,94.92935396527173 23.41461342398543,95.28712550863565 23.582837722962722,95.64489629415039 23.75106202205643,96.07422023644904 23.873406966915354,96.28888179840578 24.041631265950855,96.5393199424725 24.622769753623288,97.25485545102856 24.867459643166512,97.59473375571542 24.95921835169429,97.80939338525059 24.928632115537766,97.97038792843523 24.790994052716997,98.14927057414025 24.240441801201086,98.77535834234732 23.5522514868062,99.6161011234799 23.307561597262975,99.99175080082205 23.169923534442205,100.45683972003462 22.955819881055504,100.92192735872231 22.90994052682072,101.1008068787778 22.84876805433305,101.63744430242514 22.894647408626042,101.86998665657302 22.986406117270235,102.01308948460792 23.23109600675525,102.35295821534237 23.812234494485892,102.94325491195195 24.46983857266605,103.53354954576935 24.97451146983076,103.92707815571339 25.586236193659715,104.44581901357742 25.968564146198332,104.82145795070392 26.473237043304835,105.10765848505253 27.543755310121924,105.82315769951674 29.28717077319743,107.11104864899244 29.94477485131938,107.61189247776929 30.11299915035488,107.8086521471705 30.32710280379979,108.25583236159582 30.571792693284806,108.5599142312858 31.045879354292993,108.89976979093626 31.550552251457702,109.40060831684968 33.04927782493178,111.24296583204705 33.217502124083694,111.38606072057155 33.47748513170518,111.51126864859543 33.56924384023296,111.5291554878495 33.706881903111935,111.49338180743507 33.99745114700636,111.35028700981638 34.42565845372155,111.08198393761995 34.51741716230754,111.06409705095575 34.59388275281526,111.08198393761995 34.70093457947951,111.15353146518464 35.31265930336667,111.70802377657674 36.18436703487532,112.28040102786326 36.4443500424386,112.36983479818446 36.887850467290264,112.45926852122648 37.71367884450592,112.67390926329244 37.86661002552137,112.67390926329244 38.218351741787046,112.60236237954814 39.8088360237889,111.940552268803 40.3135089208954,111.6364764838072 40.649957519141026,111.2250789624668 41.20050977059873,110.58115039614495 42.362786745943595,109.06075376475928 42.745114698424004,108.63146282699017 43.03568394220201,108.36315543692035 43.67799490230391,107.93386272650969 45.375531011028215,107.25414703731076 45.69668649107916,106.93217549311521 46.18606627016561,106.86062617777498 46.629566695017274,106.86062617777498 46.76720475789625,106.8785135094804 46.966015293088276,106.98583745978249 48.08241291419836,107.0573867221392 49.41291418863693,107.28992161543283 49.627017841965426,107.36147074897599 50.26932880200911,107.62977972991939 51.09515717922477,107.91597550662118 52.119796091807075,108.43470411594899 53.37383177567972,109.23962466689409 53.863211554824375,109.68680109357229 54.61257434153231,110.18763728631893 55.239592183497734,110.40228091440804 56.32540356833488,110.63481120376673 56.57009345799452,110.65269813587656 57.05947323702276,110.61692426976515 57.4265080713667,110.50960262618901 57.90059473231668,110.31284610250441 58.267629566718824,110.09820236082305 58.49702633806737,110.00876738790248 59.01699235342676,109.68680109357229 59.75106202205643,109.13230214832583 60.42395921831485,108.88188267328951 60.683942225936335,108.73878566370695 61.265080713666975,108.20217079833674 61.69328802038217,107.89808828472451 62.33559898036765,107.54034345030959 62.79439252335578,107.32569618603156 63.55904842814198,107.00372477824567 63.88020390825113,106.91428816714324 64.38487680535764,106.80696417132276 65.97536108753411,106.6817527567473 66.51062022085534,106.66386540426174 66.7858963466133,106.6817527567473 66.93882752762875,106.77118949095893 67.0,106.91428816714324 66.89294817333575,107.91597550662118 66.84706881904276,107.96963716068421 66.77060322859325,107.96963716068421 66.28122344944859,107.91597550662118 65.73067119793268,107.93386272650969 64.72132540354505,108.02329879779427 64.24723874253687,108.13062202083529 63.55904842814198,108.36315543692035 62.488530161441304,108.88188267328951 61.968564146140125,109.2575117466622 61.570943075581454,109.61525294487365 61.18861512321746,110.02665438629629 61.081563296495005,110.27707216450654 61.081563296495005,110.52748957152653 61.05097706033848,110.6705850660801 60.913338997459505,110.77790660739993 60.07221750204917,111.08198393761995 59.276975360990036,111.42183442373062 58.75700934586348,111.69013695621106 58.29821580287535,111.76168422626506 57.28887000848772,112.01209943274444 57.01359388267156,112.04787300339376 55.958368734049145,111.97632585458632 54.536108751024585,111.45760811939545 53.450297366129234,110.90311498612573 52.762107051792555,110.4559417788405 52.51741716224933,110.34862003296439 52.18096856417833,110.09820236082305 51.003398470638786,109.41849537960661 50.71282922686078,109.29328590052319 50.39167374675162,109.18596341613738 49.79524214100093,108.89976979093626 49.076465590449516,108.61357568092353 48.15887850464787,108.39892978024727 47.24129141890444,108.27371954555565 46.81308411213104,108.25583236159582 45.574341546336655,108.34526826243382 45.16142735769972,108.47047844409826 44.7026338147698,108.64934997119417 43.98385726416018,109.07864086347399 43.63211554795271,109.34694711722841 43.03568394220201,109.99088038767513 42.28632115543587,110.97466258946224 41.52166525059147,112.06575978589535 41.185216652578674,112.44138178040157 40.87935429054778,112.72756940616819 39.94647408666788,113.42514971311903 39.31945624464424,114.08695400851138 38.84536958363606,114.3552523087128 38.20305862359237,114.87396114766307 37.988954970263876,114.98128001892474 37.31605777394725,115.23169045352552 36.99490229395451,115.32112266171316 36.872557349212,115.28534978411335 36.780798640684225,115.23169045352552 36.45964316057507,114.83818817540305 36.30671197955962,114.71298271288106 36.16907391673885,114.64143669263285 36.016142735723406,114.6235501828196 35.87850467284443,114.64143669263285 35.3432455395814,114.83818817540305 35.098555649921764,114.83818817540305 34.960917587042786,114.76664220816747 34.89974511467153,114.71298271288106 34.777400169929024,114.4625715095026 34.59388275281526,113.81865528227354 34.44095157174161,112.90643642614305 34.39507221750682,112.76334282531752 34.288020390842576,112.54870219690201 34.1503823279636,112.3877215465618 33.32455395074794,111.56492916075513 32.865760407818016,110.97466258946224 31.53525913337944,109.34694711722841 30.923534409492277,108.79244705649035 30.265930331370328,108.38104260954424 29.91418861510465,107.84442660785862 29.59303313511191,107.55823070999759 28.461342395923566,106.80696417132276 27.727272727235686,106.23456837562844 26.503823279519565,105.53695837738633 26.25913338997634,105.30442107110866 25.754460492753424,104.91089566976007 25.280373831803445,104.39215624009375 24.729821580287535,103.85552756753168 23.91928632115014,103.14002001905465 23.42990654206369,102.58549958450021 23.07816482585622,102.12041652608605 22.90994052682072,101.7626594559697 22.894647408626042,101.45856535060739 23.001699235406704,100.85037549767003 23.24638912489172,100.29584754676034 23.353440951614175,99.92019854568935 23.475785896298476,99.70554159865424 24.790994052716997,98.16715882829158 24.928632115537766,97.95249965341645 24.97451146983076,97.82728167541791 24.97451146983076,97.75572850345634 24.913338997459505,97.59473375571542 24.668649107858073,97.29063214686175 24.332200509728864,96.98652999053593 23.65930331358686,96.2531048902747 23.353440951614175,95.87744689834653 23.016992353484966,95.34079117479268 22.818181818176527,95.05457409164228 22.481733220047317,94.7683565235493 22.114698385703377,94.57158166410227 21.96176720474614,94.51791575357493 21.380628717073705,94.41058388137026 21.242990654194728,94.41058388137026 20.463041631272063,94.58947029718547 20.0654205607716,94.64313618498272 18.322005097696092,94.7504679094418 17.57264231092995,94.87568816842395 17.435004248050973,94.8577995657106 17.358538657601457,94.80413374607451 17.25148683093721,94.60735892833327 17.11384876811644,93.67714759560477 17.067969413823448,93.12259609437024" stroke="#4dd2ff" stroke-linecap="round" stroke-linejoin="round" stroke-width="0.5"><title>2022-11-19 10.4km</title><desc>8136826809</desc></polyline><polyline fill="none" points="73.0,89.26285307207581 73.23161764710676,89.51441929114662 73.67003676469903,89.7659848176263 74.03400735295145,90.05625187210535 74.24080882355338,90.16268289436994 74.34834558822331,90.25943826157163 74.52205882355338,90.49165072484175 74.80330882355338,90.75288904061017 75.04319852939807,91.09153019015503 75.68841911762138,91.79783483484789 76.12683823530097,92.3686798048293 77.30974264707766,93.52970941914828 77.6819852941262,94.01346740470035 77.85569852945628,94.17794453638635 78.25275735295145,94.57462345958629 78.83180147060193,95.06805093653384 79.27849264704855,95.58082568760437 80.171875,96.84823772765958 80.70128676472814,97.49644930554496 81.04044117647572,98.14465628583275 81.34650735292234,98.56066729878512 81.9007352941262,99.18951756088791 82.06617647060193,99.44105645421223 82.48805147060193,99.857061566232 83.14154411765048,100.43753065121564 83.98529411767959,101.72422398006165 84.09283088237862,102.03380162656686 84.78768382355338,103.60102237181854 85.08547794120386,104.539407117074 85.31709558825241,104.81995326316246 85.72242647057283,105.21658600052615 86.00367647060193,105.61321701694396 86.13602941177669,105.83571658968867 86.4007352941262,106.42582152946852 86.5000000000291,106.72570946523774 86.67371323530097,106.8901637220115 86.91360294120386,107.19005013454444 87.625,108.1864398601756 87.71599264707766,108.4089331700161 87.74080882355338,108.80555033588462 87.9476102940971,109.6471469153912 87.9476102940971,110.07277901720954 88.0055147059029,110.32428796414752 88.03033088237862,110.62416311195557 88.03033088237862,111.24325707994285 88.0882352941262,111.50443609034846 88.1461397059029,112.00744541563472 88.2867647059029,112.36535421203007 88.57628676472814,112.9457438767131 88.74172794120386,113.47776449954836 88.80790441177669,113.78730234655086 88.9898897059029,114.34833702329342 89.21323529415531,115.19955547647987 89.32904411767959,115.52843321109685 89.57720588234952,116.03142039968952 89.7757352941262,116.56342306910665 89.89981617650483,117.09542264338961 90.06525735298055,117.55971065170161 90.396139705932,118.33351876048982 90.70220588237862,118.80747299362702 91.01654411765048,119.52323595505732 91.21507352942717,119.86177053944994 91.29779411767959,119.92947730590822 91.40533088237862,119.95849447621731 91.67003676469903,119.93914969704929 92.42279411767959,119.70701202777855 92.6875000000291,119.57159811526799 93.29136029415531,119.18470011746103 93.8125000000291,119.010595484433 94.91268382355338,118.72042035944469 95.42555147060193,118.63336764238193 96.94761029415531,118.31417363756918 97.5680147059029,118.23679310496664 98.60202205885435,118.05301407764637 99.17279411767959,117.97563332405116 99.32169117647572,117.9853059218367 99.48713235295145,118.06268666724645 99.70220588237862,118.10137701537315 100.50459558825241,118.13039476575068 100.86029411765048,118.1110495998364 101.53033088237862,117.94661552459002 103.03584558825241,117.42429355945933 104.19393382352428,116.89229589846946 105.55055147060193,116.39898621087195 106.31985294117476,116.14749397338164 106.98161764707766,115.85730976291234 107.2711397059029,115.69287163489207 108.18933823530097,115.35432161659992 109.21507352942717,114.91904117982631 109.5211397058738,114.83198484378954 109.95128676469903,114.82231191245955 111.10110294120386,114.67721781957516 111.32444852942717,114.63852602257975 111.54779411765048,114.56114237950533 112.06893382355338,114.27095313462632 112.54871323530097,113.94207087704854 113.59099264707766,113.05214824890572 114.23621323530097,112.55881784293888 114.55882352945628,112.36535421203007 115.046875,112.20090980387613 115.33639705885435,112.14287053037697 115.54319852942717,112.1718901717395 115.76654411767959,112.15254374519282 116.85845588234952,112.00744541563472 118.96783088237862,111.87202010029432 119.6875,111.96875248887955 120.30790441177669,112.0267918728714 120.67187500005821,112.1138508798249 121.54871323533007,112.43306652940373 122.54963235298055,112.84901252175769 123.03768382358248,112.95541700656759 123.89797794120386,112.8006468059175 124.17922794120386,112.70391529746848 124.50183823530097,112.53947149826126 124.79963235300966,112.33633463205479 125.18841911767959,112.1138508798249 125.62683823533007,111.93005954572436 125.96599264707766,111.74626784213615 126.28033088240772,111.61084213994764 126.536764705932,111.5528024918749 126.93382352942717,111.1561972440104 127.0,110.96273064511479 126.99172794120386,110.85632384122437 126.76011029415531,110.5661228375393 126.68566176472814,110.29526773632824 126.61121323533007,110.13081960483396 126.42922794117476,109.85996321401763 125.39522058828152,108.58305799131631 124.20404411767959,107.40287215307035 123.53400735295145,106.90951126220898 123.3023897059029,106.76440461108723 123.1617647059029,106.55158110618504 122.66544117650483,106.06788947957102 122.23529411765048,105.52615181927831 122.09466911767959,105.41006476011535 121.73897058828152,105.21658600052615 121.27573529415531,104.81027927243849 121.03584558828152,104.6651692890373 120.9117647059029,104.45234089667065 120.69669117650483,104.23951200873125 120.51470588237862,103.9783122417939 119.62132352942717,103.214056784891 119.29871323533007,102.91415732823225 118.74448529415531,102.37240097680478 117.95036764707766,101.47269137022522 117.8593750000291,101.32757608814427 117.73529411765048,100.96962407391402 117.42922794120386,100.45687955721951 116.68474264710676,98.96700180895277 116.4117647058738,98.19302975670871 116.18841911767959,97.28360421981779 116.09742647060193,96.64506598823209 116.03952205885435,95.90009907911008 116.09742647060193,95.01967581149074 116.13878676472814,94.72942452347343 116.29595588234952,93.98444199778169 116.63511029415531,92.6395880343407 116.61856617644662,92.54283518741431 116.40349264710676,92.20419941649743 116.33731617647572,91.92361454133061 116.25459558825241,91.82686093631492 116.0312500000291,91.739782604207 115.72518382355338,91.71075647504767 115.6507352941262,91.739782604207 115.48529411767959,91.8558870285633 115.35294117647572,91.90426382851001 115.26194852942717,91.8945884705754 115.17922794120386,91.82686093631492 114.89797794117476,91.48822251197998 114.6663602941262,91.33341595715319 114.27757352945628,91.13990739478322 113.65716911765048,90.9173720414401 113.43382352945628,90.90769657897908 113.23529411767959,90.9560738809596 112.46599264707766,91.04315295993001 111.79595588237862,91.26568800694076 111.26654411767959,91.54627490243729 111.05147058825241,91.68173033669882 110.90257352942717,91.8075102030125 110.23253676469903,92.60088690785778 109.91819852945628,92.94919645596383 109.61213235298055,93.22010296439112 109.19852941177669,93.62646122114529 108.90900735295145,93.86834027794976 108.61121323530097,94.03281767082808 108.07352941177669,94.4004719492732 107.78400735295145,94.51657299302315 107.48621323533007,94.57462345958629 107.08915441177669,94.58429853376583 106.66727941177669,94.51657299302315 106.3694852941262,94.50689791166951 106.17095588237862,94.41982213344454 105.98897058822331,94.30372096676729 105.5257352941262,93.95541658165166 105.00459558825241,93.64581156925124 104.62408088237862,93.45230790380447 104.01194852942717,93.29750467643316 103.35018382352428,93.30717988582182 103.01930147060193,93.36523112068971 102.42371323530097,93.58776051264431 102.0266544118058,93.77158873203734 101.81158088237862,93.89736572172114 101.32352941177669,94.36177156856138 101.24908088237862,94.49722282930452 101.21599264710676,94.71007440485118 101.13327205882524,94.77779980220657 100.75275735295145,94.91325044627592 100.00827205885435,95.24220117463847 99.859375,95.24220117463847 99.4788602940971,95.34862615678139 98.95772058825241,95.43570104998071 98.38694852945628,95.39700110770355 97.75827205882524,95.22285116460262 97.1461397059029,94.94227555818361 96.31066176472814,94.4585224896 95.62408088237862,94.0424928023931 95.42555147060193,93.97476686011214 95.06158088237862,93.80061420657876 94.5156250000291,93.60711086894298 93.90349264704855,93.5103590464496 93.671875,93.52003423331917 93.63878676472814,93.60711086894298 93.69669117650483,93.94574144090438 93.86213235295145,94.24567032810592 93.69669117650483,93.77158873203734 93.46507352942717,93.44263270976808 93.30790441177669,93.38458152410749 92.99356617653393,93.41360712155438 92.81158088234952,93.45230790380447 92.43106617647572,93.62646122114529 91.76930147060193,94.02314253828081 91.43841911767959,94.4004719492732 90.82628676469903,95.2325261701335 90.41268382355338,95.74529999829974 90.13970588240772,96.00652329510194 89.59375,96.41286916149693 89.40349264707766,96.64506598823209 89.00643382352428,96.88693705540209 88.47702205882524,97.15783189067588 88.24540441177669,97.25457985151297 88.12132352942717,97.27392943139421 88.02205882352428,97.2255554740259 87.8069852941262,96.97401048288157 87.67463235295145,96.9062867131288 87.49264705885435,96.89661188478203 87.1617647059029,96.98368530302105 87.01286764707766,96.92563636675186 86.93841911765048,96.81921322112612 86.84742647060193,96.53864251587947 86.75643382355338,95.92912387759134 86.6819852941262,95.76464989772649 86.16084558822331,95.22285116460262 85.53216911765048,94.49722282930452 85.15992647057283,94.0424928023931 84.7132352941262,93.68451225317403 84.50643382355338,93.568410152242 84.33272058825241,93.25880382858304 84.14246323530097,93.09432504250435 83.70404411765048,92.85244393689209 83.48897058825241,92.69763969328051 83.15808823530097,92.40738102965406 82.93474264707766,92.26225135207642 82.25643382355338,91.70108109663124 81.99172794117476,91.52692410971213 81.1148897058738,90.73353807989042 80.61029411767959,90.16268289436994 80.52757352939807,89.93046959503408 80.51930147060193,89.73695806144678 80.60202205882524,89.38863626819511 80.75091911765048,88.9532321592269 81.4375000000291,88.1501480264269 81.61121323530097,87.90825383206538 81.63602941177669,87.80182018361666 81.58639705885435,87.6760348028838 80.9742647058738,87.06645704316907 80.43658088234952,86.263356325333 80.09742647057283,86.04080909409095 79.69209558825241,85.97307722046389 79.03033088237862,86.07951299934939 78.21966911765048,86.09886494582315 77.61580882352428,86.17627269071818 77.54963235295145,86.17627269071818 77.49172794114565,86.12789285784675 77.41727941177669,85.76988129827078 77.35110294120386,84.74421879287547 77.27665441177669,84.11526910809334 77.06158088234952,83.38955255257315 76.39981617647572,82.3058050964537 75.98621323527186,81.73489724814135 75.44025735295145,81.21236829351255 75.31617647057283,81.02851480232493 75.23345588237862,80.79627828447701 75.24172794117476,80.59307084704778 75.32444852942717,80.49630524174427 75.65533088237862,80.38986295754876 75.9117647059029,80.3608332221338 76.50735294120386,80.23503759543382 76.98713235292234,80.24471418826579 77.3593750000291,80.30277372363344 77.73161764707766,80.41889268372324 79.07169117647572,81.0478678188083 79.11305147057283,81.03819131108321 78.54227941174759,80.73821906275407 78.17003676469903,80.64145361127885 77.53308823530097,80.35115664160548 76.98713235292234,80.15762481599086 76.515625,80.04150552378997 76.12683823530097,80.05118213711103 75.42371323530097,80.15762481599086 75.10110294117476,80.17697801697796 74.9687499999709,80.22536100159778" stroke="#ffb100" stroke-linecap="round" stroke-linejoin="round" stroke-width="0.5"><title>2022-11-12 20.1km</title><desc>8103893878</desc></polyline><polyline fill="none" points="133.0,84.98608820814115 133.24566391814733,85.2734610013722 133.614159795281,85.54287255261443 133.81376172869932,85.72248001558182 134.48933750356082,86.47682928257564 134.73500142164994,86.88992388748738 135.1649132783059,87.53650472701702 135.59482513502007,88.25492499017855 135.97867500712164,88.91946102354268 136.17827694053994,89.35051003099943 136.4085868637776,89.96116091578733 136.6235427921638,90.84121273417259 136.63889678701526,91.09265527194657 136.60818879725412,91.54165887626004 136.73102075635688,93.19398190219363 136.8231447256985,93.48134078497242 137.00739266420715,93.7686991806986 137.191640602774,94.27157520155015 137.26841057714773,94.37933415485895 137.3912425362505,94.45117341903097 137.4987205004436,94.46913323029003 137.71367642877158,94.46913323029003 137.94398635200923,94.43321360582195 138.65027011651546,94.27157520155015 139.64827978389803,93.96625779532769 140.55416548193898,93.73277940787375 141.33721922093537,93.67889973431011 141.70571509812726,93.75073929521022 142.10491896502208,93.94829793075041 142.56553881143918,94.30749486025888 142.7651407449157,94.48709303968644 142.9800966733019,94.77444973107777 143.60961046349257,95.8520329871535 144.39266420248896,96.80389250097505 144.7304520898615,97.25288098320016 144.79186806938378,97.4145165457885 144.79186806938378,97.48635452415328 144.76116007962264,97.57615195437393 144.3619562126696,98.11493553682521 143.5481944839703,99.01290437036369 143.30253056582296,99.31821269066131 143.19505260162987,99.51576484026737 142.84191071934765,100.39576707477681 142.61160079611,100.84474604745628 142.58089280634886,100.98841906769667 142.61160079611,101.34760108575574 142.64230878581293,101.47331461236172 142.78049473976716,101.70678234311345 143.05686664767563,102.03004482432152 143.73244242247893,102.74840368769947 144.19306226895424,103.14349976554513 144.9914700028603,103.77205981074076 145.37531987490365,104.0234831765847 145.7591697468888,104.41857628403523 146.72647142451024,105.01121421960124 147.89337503554998,105.83731212909333 149.1216946261702,106.84299110995198 149.85868638043758,107.36378681004862 149.98151833942393,107.54337116338138 150.1504122831975,108.02824796774075 150.2578902473906,108.1719149028504 150.81063406314934,108.54904002844705 151.07165197614813,108.76453972379386 151.42479385837214,109.12370527414896 152.23855558718788,110.0934484613972 152.6838214386953,110.4526111977757 153.2519192493637,111.06318610432209 153.42081319302088,111.18889242986916 153.54364515206544,111.17093438909797 153.6664771112264,111.13501830176392 154.26528291159775,110.7578989258036 154.403468865552,110.7399408393394 154.4955928348354,110.79381509296945 155.017628660833,111.2427665409341 155.87745237414492,111.85333860319224 156.13847028714372,112.0329182032001 156.460904179723,112.17658174633107 157.67386977537535,112.4459505618579 157.98094967298675,112.42799265409121 158.4722775092814,112.28432932386931 159.59311913559213,111.78150670992909 159.8694910435006,111.61988483888854 160.11515496158972,111.44030480152287 160.62183679273585,110.79381509296945 161.266704577778,110.0934484613972 161.6812624395243,109.59061935267528 162.4029001990566,108.58495666335511 162.75604208133882,108.20783161754662 163.04776798404055,107.97437283566978 163.56980381009635,107.6331632687652 163.86152971285628,107.47153744485695 165.2894512368366,106.89686660136795 165.67330110887997,106.60953044946655 166.01108899631072,106.50177926698234 166.54847881721798,106.42994510730205 166.901620699442,106.42994510730205 168.20671026437776,106.64544749508786 169.31219789589522,106.91482509468915 169.92635769123444,107.18420226650778 171.01649132784223,107.57928801125672 172.09127096959855,108.10008145043685 172.8436167188338,108.58495666335511 173.33494455501204,108.87228946873802 173.47313050896628,108.9979974180169 173.70344043220393,109.28532952370006 173.90304236562224,109.4649118425441 174.1333522889181,109.62653576704906 174.57861814048374,109.87795045443636 175.05459198181052,110.03957398529747 175.66875177709153,110.18323921674164 176.54392948537134,110.30894619450555 176.7742394086672,110.30894619450555 177.21950526017463,110.23711364716291 178.04862098378362,109.91386680796859 178.55530281492975,109.59061935267528 179.32300255901646,109.0339139578573 180.10605629807105,108.56699834683968 180.56667614442995,108.35149840055965 181.24225191923324,107.79478893867054 181.56468581175432,107.57928801125672 181.9331816890044,107.4176621359511 182.8237133921357,106.95074207565631 183.5299971566419,106.66340601500997 183.898493033892,106.55565486676642 184.3130508956965,106.46586219094752 185.7102644299157,106.32219381073082 186.57008814334404,106.26831813680474 186.81575206137495,106.32219381073082 186.9539380153874,106.42994510730205 187.0,106.59157192379644 186.98464600514853,107.14828533498803 186.9385840204195,107.54337116338138 186.92323002562625,107.59724643231311 186.83110605634283,107.65112168411724 186.20159226609394,107.57928801125672 184.95791868073866,107.6331632687652 184.43588285462465,107.75887213643 183.39181120268768,108.13599818042712 182.62411145865917,108.51312338594289 181.90247369918507,109.05187222491077 181.3190218936652,109.60857756079349 181.07335797557607,110.03957398529747 180.98123400635086,110.23711364716291 180.93517202162184,110.30894619450555 180.7969860677258,110.38077871130372 180.21353426214773,110.63219228081289 179.58402047207346,110.97339581472625 178.6781347739743,111.29664063479868 177.71083309635287,111.49417883271235 176.7128234290867,111.60192684372305 176.32897355704335,111.58396884662216 175.85299971571658,111.51213683928654 174.88569803815335,111.27868260545074 174.48649417120032,111.13501830176392 173.59596246806905,110.72198275098344 172.39835086726816,109.9497831538174 171.89166903606383,109.680410374247 171.4464031844982,109.37512070692901 170.9857833380811,109.10574701466248 170.40233153256122,108.85433118263609 169.88029570656363,108.60291497792059 169.2814899061923,108.36945673984883 168.52914415695705,108.13599818042712 167.60790446400642,107.95641445454385 166.3335228888318,107.86662252029055 166.05715098092332,107.88458091094799 165.58117713959655,107.95641445454385 165.10520329821156,108.10008145043685 164.73670742107788,108.27966502426716 163.9075916974689,108.76453972379386 163.46232584590325,109.10574701466248 162.9709980096668,109.64449397132557 162.12652829120634,110.72198275098344 161.48166050610598,111.65580082355882 161.1131646289723,112.10474999001599 160.77537674154155,112.4459505618579 159.94626101793256,113.05651829317503 159.36280921241269,113.68504160329758 159.16320727893617,113.8466615066136 157.76599374465877,114.65475871341187 157.2286039237515,114.90616594815219 156.9215240261983,115.01391179185885 156.78333807230229,114.99595415603835 156.69121410296066,114.94208123699354 156.36878021043958,114.52905495632149 156.24594825139502,114.42130880465265 156.03099232300883,114.31356258457527 155.81603639468085,114.29560487455456 155.5857264714432,114.34947799888323 155.1711686096387,114.52905495632149 155.04833665053593,114.5470126416476 154.94085868640104,114.51109726916184 154.80267273250502,114.42130880465265 154.61842479387997,114.02623899639002 154.43417685525492,113.3797591435432 154.32669889112003,112.58961375514627 154.24992891668808,112.3920768329408 154.12709695764352,112.1945396807132 152.88342337217182,110.8476893294137 151.40943986352067,109.0339139578573 151.10235996585106,108.7286231268663 150.6724481091951,108.38741507727536 150.4728461757186,108.26170667546103 150.11970429349458,108.11803981642879 150.01222632924328,108.02824796774075 149.92010235995986,107.88458091094799 149.73585442139301,107.4894958773366 149.45948251354275,107.22011919041688 149.24452658515656,107.07645144910202 148.21580892801285,106.57361339619092 147.27921524026897,105.81935352171422 146.7418254194199,105.51405690461979 145.97412567521678,104.72387487310334 145.5595678134705,104.3826587668882 145.32925789023284,104.13123593351338 144.30054023320554,103.26921196092735 143.83992038667202,102.83819833167945 143.0261586579727,101.90433171040786 142.82655672449619,101.63494615250966 142.70372476539342,101.29372383157897 142.68837077054195,101.11413286054449 142.7190787603031,100.84474604745628 142.79584873473505,100.48556296440074 143.1336366221658,99.56964265936404 143.27182257606182,99.35413128045911 143.68638043792453,98.88718901992252 144.6843901051907,97.61207091307733 144.7304520898615,97.540232987958 144.74580608471297,97.3965570464643 144.71509809495183,97.27084049778932 144.63832812057808,97.14512385585112 144.3158942279988,96.78593293695303 143.82456639182055,96.33694321841176 143.4867785043898,95.92387162745581 142.99545066821156,95.11568516973057 142.64230878581293,94.61281165211403 142.28916690358892,94.28953503181401 141.95137901615817,94.10993664317357 141.59823713387595,94.02013737751986 141.2604492465034,94.00217751871969 139.86323571222601,94.25361536935088 139.46403184527298,94.27157520155015" stroke="#4dd2ff" stroke-linecap="round" stroke-linejoin="round" stroke-width="0.5"><title>2022-11-06 10.0km</title><desc>8074389331</desc></polyline><polyline fill="none" points="13.0,153.3433165516326 13.388372789951973,153.36224636418046 13.954749775351956,153.43796559436305 14.424033563118428,153.5515443795448 15.492058735457249,153.8922803019086 19.375786634685937,155.82310492281977 21.447108181018848,156.8074388574314 22.77404854662018,157.50782700939453 23.14623913698597,157.71604998465045 23.922984716889914,158.246071008718 24.456997303001117,158.66251499624923 25.05573868745705,159.17360401824408 25.654480071912985,159.7604081298632 25.78393766854424,159.9307702529186 25.84866646694718,160.10113221367646 25.881030866119545,160.2525649313029 25.864848666475154,160.78257843243773 25.864848666475154,161.6154536154936 25.978124063520227,162.5997556457587 26.57686544803437,164.60620068816934 26.868145040527452,165.36334390673437 28.43781839980511,168.1647459264932 28.971830985916313,169.05437116554822 29.246928378765006,169.58435856486904 29.344021576282103,169.7168551691866 29.37638597545447,169.88720780178846 29.58675456995843,170.07648831429833 29.732394366175868,170.32255268085282 30.153131555300206,170.79575243366708 30.735690740228165,171.7989317664469 30.91369493555976,172.23427198927675 30.897512736031786,172.32891102781286 30.80041953851469,172.4614055976126 30.12076715612784,173.16173240641365 29.344021576282103,174.0891880113195 28.8100089901709,174.9977112848428 28.74528019182617,175.130203876397 28.69673359306762,175.48982612995314 28.74528019182617,175.83052022900665 28.890919988043606,176.05764926767733 29.42493257415481,176.60654325295764 29.48966137249954,176.79581665016303 29.457296973327175,176.89045327359054 29.27929277793737,177.1365082600969 29.1660173808923,177.38256290793652 29.02037758467486,177.60968997450254 29.00419538508868,177.74218063011358 29.036559784202836,177.81788953205978 29.27929277793737,178.13965200763778 29.813305364106782,178.48034105640545 30.088402757013682,178.66961246957362 30.687144141469616,179.33206083759433 31.269703326339368,180.22163049866504 32.03026670665713,181.30046436069824 33.0497452802374,182.4549986502534 33.56757566682063,182.90923960553482 34.39286784536671,183.5338190344628 35.29907102190191,183.91235095971206 35.55798621516442,183.96913067932473 35.89781240635784,184.00698381576512 36.62601138744503,183.93127753489534 36.98201977822464,183.81771805349854 38.389871141756885,183.1931396164291 38.600239736319054,183.06065300076443 38.89151932875393,182.776752779464 39.37698531616479,182.09539040879463 40.169913095538504,181.18690320817404 40.995205274201,180.08914168075717 41.399760263739154,179.65382058767136 41.73958645493258,179.3131337754021 42.22505244234344,178.9913734120928 42.54869643395068,178.82102945583756 44.086005394055974,178.19643356084998 44.49056038359413,177.9503800333041 44.943661971832626,177.78003508508846 45.21875936468132,177.7043261671206 45.55858555587474,177.68539893259003 45.84986514830962,177.81788953205978 46.99880131857935,177.9503800333041 48.37428828282282,178.19643356084998 48.73029667366063,178.2910694427992 50.18669463583501,178.8021023395413 50.9148936169222,179.16171720597777 51.72400359605672,179.65382058767136 52.1932873838814,180.01343374070711 52.662571171764284,180.31626530845824 52.970032963727135,180.60016943732626 53.24513035657583,180.80836551192624 53.90860053937649,181.22475693367596 54.604435121349525,181.47080595430452 55.85046448907815,181.75470824964577 56.238837278971914,181.75470824964577 56.70812106679659,181.6411473856133 57.565777644573245,181.3383180622186 58.002697033283766,181.0733419834287 59.18399760260945,180.20270353066735 59.73419238830684,179.91879877059546 60.28438717412064,179.71060165995732 61.0287683547358,179.14279012577026 61.46568774350453,178.85888368237647 63.002996703609824,178.12072481920768 63.82828888227232,177.8368167525623 64.39466586749768,177.7232533996139 66.0937968234648,177.62861721706577 66.85436020372435,177.60968997450254 66.96763560082763,177.6664716960513 67.0,177.7611078586051 66.9190890021273,178.8021023395413 66.87054240331054,178.83995657015475 66.1747078213375,178.8021023395413 64.97722505236743,178.87781079261913 64.42703026667004,178.97244631387002 63.55319148930721,179.25635257690737 62.4851663170266,179.76738271418435 61.837878333753906,180.1837765607197 61.41714114474598,180.56231557951833 60.51093796821078,181.62222056792234 60.090200779086445,181.8114886545227 59.37818399758544,182.19002422668564 58.39106982317753,182.776752779464 58.11597243032884,182.8713862366567 56.59484566975152,183.1931396164291 55.70482469286071,183.21206626782077 55.55918489664327,183.26884620990313 55.31645190285053,183.60952548364003 55.23554090491962,183.62845209089573 54.29697332927026,183.4202593005757 52.41983817802975,182.68211927213997 51.88582559180213,182.41714518520166 51.74018579558469,182.30358474199602 51.69163919694256,182.22787773980235 51.69163919694256,182.1521707055217 51.78873239440145,181.8682690414862 51.78873239440145,181.67900101492705 51.69163919694256,181.47080595430452 51.5621816002531,181.3383180622186 50.78543602034915,180.84621931756556 50.39706323045539,180.67587712881505 49.846868444758,180.29733835045772 49.03775846568169,179.89987177055445 47.62990710220765,179.44562316843076 46.578064129455015,179.23742550675524 45.89841174706817,179.19957136036828 44.52292478270829,179.23742550675524 43.72999700327637,179.48347726275097 43.17980221752077,179.71060165995732 42.613425232237205,180.0512877147412 42.354510038974695,180.24055746465456 41.69103985611582,180.9597806865786 41.36739586450858,181.4518791185983 40.768654480110854,182.24680449339212 40.2670062930556,183.02279966401693 39.70062930783024,183.70415849993879 39.39316751569277,183.9880572485854 39.03715912497137,184.29088208344183 38.58405753673287,184.59370640528505 38.16332034760853,184.83975078914955 37.807311956828926,185.3507649659441 37.273299370659515,185.7103666592302 36.205274198320694,186.31600998128124 35.55798621516442,186.5999045822391 35.29907102190191,186.6566834483674 35.153431225626264,186.61883087293245 35.08870242739795,186.56205199481337 34.73269403656013,186.14567300437193 34.58705424028449,186.0321149295487 34.39286784536671,185.9374831454188 34.15013485169038,185.89963041778537 33.59994006593479,186.01318857677688 33.27629607432755,185.9942622219096 33.13065627811011,185.9374831454188 33.001198681478854,185.84285131123033 32.87174108478939,185.57788190903375 32.75846568774432,185.23720638625673 32.580461492354516,184.12054317694856 32.40245729702292,183.74201169253502 32.208270902046934,183.49596579786157 31.44770752172917,182.75782608205918 31.30206772556994,182.49285210728704 31.059334731835406,182.24680449339212 29.39256817504065,180.24055746465456 29.149835181364324,179.99450675073604 28.85855558892945,179.76738271418435 28.615822595194913,179.61596652951266 28.292178603587672,179.46455021659494 28.178903206484392,179.38884201203473 28.065627809381112,179.25635257690737 27.790530416590627,178.82102945583756 27.418339826224837,178.461413904035 26.26940365601331,177.7611078586051 25.541204674867913,177.17436284336145 24.343721905956045,176.47405175567837 23.356607731548138,175.73588304438454 22.741684147447813,175.01663880390697 21.46329038060503,173.84312883004895 20.83218459697673,173.14280469092773 20.557087204186246,172.7642499597714 20.379083008738235,172.36676662921673 20.33053640992148,172.12070507682802 20.314354210393503,171.780003906606 20.39526520826621,171.42037418915424 20.654180401645135,170.9282481399714 20.896913395263255,170.28469664651493 21.819298771442845,169.31936506167403 22.466586754657328,168.54331039924 22.547497752530035,168.39188470633235 22.596044351230375,168.1647459264932 22.56367995205801,168.03224817157025 22.498951153771486,167.9376068579877 22.09439616423333,167.48332785491948 21.786934372212272,167.0669044211536 21.36619718314614,166.63155161203758 20.39526520826621,165.49584364022303 20.039256817486603,165.1362012779864 19.56997302972013,164.77655819201027 19.133053641126025,164.60620068816934 18.890320647333283,164.5683434430248 17.38537608628394,164.79548679351865 16.527719508565497,164.81441539304797" stroke="#4dd2ff" stroke-linecap="round" stroke-linejoin="round" stroke-width="0.5"><title>2022-10-29 10.0km</title><desc>8034100539</desc></polyline><polyline fill="none" points="73.0,153.45733726755134 73.53035714296857,153.45733726755134 74.41428571427241,153.5137379560765 74.94464285724098,153.66413970454596 75.52321428572759,153.8897420882131 76.95357142860303,154.64174796261068 79.78214285714785,155.9577505752968 81.30892857146682,156.7285475738754 82.36964285717113,157.17974426358705 82.99642857146682,157.5557406288135 83.65535714291036,158.00693521556968 85.0214285714901,159.04091848409735 85.82500000001164,159.75530340544356 86.06607142859139,160.13129431434209 86.11428571434226,160.39448747664574 86.1464285714319,161.6352499849454 86.2107142857858,162.406022326948 86.27499999996508,162.8008068644267 86.46785714285215,163.5715741449094 86.72500000003492,164.45513251962257 86.9982142856461,165.22589261630492 87.2714285714319,165.82745914677798 87.52857142861467,166.2974315801839 88.29999999998836,167.48175659333356 88.68571428576251,168.27130221217521 89.00714285718277,168.79766400709923 89.20000000001164,169.2112328937801 89.730357142922,170.00077082013013 90.27678571431898,170.56472433180897 90.45357142860303,170.80910363045405 90.72678571427241,171.27906287457154 91.22500000003492,172.3317670664983 91.53035714285215,172.74532771960367 91.88392857147846,173.38446501581348 92.15714285714785,173.68523471188382 92.88035714288708,174.2679745478672 92.97678571433062,174.39956069778418 93.34642857144354,175.05748998401396 93.61964285717113,175.45224638527725 93.98928571434226,175.88459762719867 94.42321428580908,176.27935218934726 94.74464285711292,176.59891476333723 95.40357142855646,177.4448129181401 95.59642857144354,177.7643733943696 95.93392857152503,178.3658974361897 96.01428571436554,178.74184892735502 96.25535714288708,179.36216714727925 96.56071428576251,180.24564693098364 97.12321428570431,181.71183772080985 97.44464285712456,182.95245123968925 97.6053571428638,183.2907988767547 97.76607142860303,183.44117539729632 97.89464285719441,183.44117539729632 98.11964285717113,183.34719008687534 98.69821428577416,182.9712483475596 98.9553571427823,182.74568292191543 100.17678571434226,181.26070338280988 101.20535714289872,179.9072934907599 101.62321428570431,179.4373570872558 101.88035714282887,179.21178717177827 102.53928571433062,178.79824158236443 103.26250000001164,178.47868296707748 104.19464285712456,178.12152853998123 104.41964285710128,177.97114751357003 104.58035714289872,177.80196870669897 104.78928571427241,177.74557573519996 105.60892857145518,177.6703850787162 106.042857142922,177.80196870669897 107.28035714291036,177.91475459586945 108.85535714280559,178.2155166167795 109.59464285720605,178.51627812821243 110.30178571434226,178.76064648106694 111.21785714291036,179.24938217762974 111.94107142859139,179.66292671617703 112.76071428571595,179.96368577555404 112.95357142860303,180.13286252255784 113.4357142856461,180.67798649960605 113.83750000002328,181.0351357839827 114.04642857139697,181.16671691814554 114.67321428575087,181.37348707478668 115.91071428573923,181.63664874414098 116.21607142855646,181.67424323644082 116.71428571431898,181.59905424376484 117.05178571428405,181.4862706951244 117.51785714289872,181.2795006697852 118.5625,180.65918914898066 119.39821428566938,180.05767287711205 119.91249999997672,179.77571142319357 120.26607142860303,179.62533179794264 120.4589285714319,179.4749520453188 121.31071428576251,178.87343176118156 121.98571428575087,178.45988538359234 122.96607142861467,177.98994514886 123.56071428570431,177.7643733943696 124.21964285714785,177.5951943903201 125.40892857144354,177.4260152251809 126.46964285714785,177.38841983322345 126.80714285711292,177.4260152251809 126.95178571424913,177.50120598518697 127.0,177.6703850787162 126.96785714285215,178.53507570571674 126.93571428576251,178.7042538140231 126.90357142855646,178.76064648106694 126.855357142922,178.77944403269794 125.84285714285215,178.7042538140231 124.75,178.77944403269794 124.57321428565774,178.8170391300373 124.01071428577416,179.02381202332617 123.46428571420256,179.19298966585484 122.7089285714319,179.5501419375505 122.355357142922,179.77571142319357 121.9375,180.07647029144573 121.48750000004657,180.45241816034832 120.97321428573923,180.9975411562482 120.92499999998836,181.12912231827795 120.89285714289872,181.41108162290766 120.74821428576251,181.63664874414098 120.61964285717113,181.7682294325059 119.8964285714319,182.01259330932226 119.2535714286496,182.36973990898696 118.36964285717113,182.68929152069904 117.24464285711292,182.9712483475596 116.79464285715949,183.06523385700712 115.63749999995343,183.1592193167453 115.50892857142026,183.27200180268846 115.3964285714319,183.49756655973033 115.3321428571362,183.59155179050867 115.23571428569267,183.62914586898114 115.09107142855646,183.64794290516875 114.81785714282887,183.59155179050867 113.75714285718277,183.17801640270045 112.90535714285215,182.9148570180405 112.34285714285215,182.67049438299728 111.87678571429569,182.38853707851376 111.78035714285215,182.313348388343 111.71607142855646,182.1817681039538 111.84464285714785,181.82462112618668 111.82857142866123,181.59905424376484 111.78035714285215,181.42987889393407 111.61964285717113,181.26070338280988 111.37857142853318,181.11032501541195 111.07321428571595,181.0351357839827 110.81607142859139,180.771973223018 109.38571428577416,179.96368577555404 109.0,179.79450886735867 108.14821428572759,179.4749520453188 106.73392857145518,179.1553946481581 105.94642857147846,179.09900210656633 105.67321428575087,179.11779962241417 105.15892857144354,179.23058467567898 104.99821428570431,179.23058467567898 104.67678571428405,179.19298966585484 104.53214285720605,179.21178717177827 103.98571428575087,179.39976212130568 103.2303571428638,179.77571142319357 102.6678571428638,180.13286252255784 102.39464285719441,180.3584312677849 102.02499999996508,180.7155811949633 101.75178571429569,181.05393309482315 101.22142857144354,181.78702666572644 100.64285714284051,182.4825228964619 100.01607142860303,183.40358127914078 99.46964285720605,183.9486952140287 98.31250000005821,184.7757614365837 97.87857142859139,185.28327743845875 96.19107142853318,186.260711577037 95.82142857147846,186.44867906365835 95.46785714285215,186.54266273244866 95.33928571431898,186.5050692708901 95.27500000002328,186.44867906365835 94.88928571424913,185.94116639292042 94.71250000002328,185.82838560245 94.55178571428405,185.7531983689696 94.40714285720605,185.7531983689696 94.15000000002328,185.80958879704122 93.57142857142026,186.07274389134545 93.47499999997672,186.05394711179542 93.34642857144354,185.9787599738338 93.23392857139697,185.80958879704122 93.05714285717113,185.3772617241193 92.91250000003492,184.75696451979456 92.84821428573923,184.06147719852743 92.76785714295693,183.8171161415812 92.65535714285215,183.61034883075627 92.43035714287544,183.32839301878994 91.59464285714785,182.4825228964619 91.0642857143539,181.82462112618668 89.77857142855646,180.30203910834098 89.00714285718277,179.5689394055953 88.50892857136205,179.23058467567898 88.3964285714319,179.09900210656633 88.17142857145518,178.7230513716786 87.75357142859139,178.2719094389904 86.54821428569267,177.68918274581665" stroke="#4dd2ff" stroke-linecap="round" stroke-linejoin="round" stroke-width="0.5"><title>2022-10-22 10.0km</title><desc>7998866966</desc></polyline></svg>