<?xml version="1.0" encoding="utf-8" ?>
<svg baseProfile="full" height="200mm" version="1.1" viewBox="0,0,200,200" width="200mm" xmlns="http://www.w3.org/2000/svg" xmlns:ev="http://www.w3.org/2001/xml-events" xmlns:xlink="http://www.w3.org/1999/xlink"><defs /><rect fill="none" height="200" width="200" x="0" y="0" /><polyline fill="none" points="179.1901592584327,109.97087744838791 179.42120275716297,110.3462946927757 179.1901592584327,110.9302765847242 179.1516520085279,111.34740614370094 179.382695507491,112.13995147068636 180.4994057524018,113.68332607144839 180.80746375094168,113.80846437069704 180.73044925136492,113.7250388408138 180.65343475155532,113.80846437069704 180.84597100061364,114.6844317012874 180.65343475155532,116.39464977927855 181.0,119.10596067854203 180.88447825051844,120.73274107003817 180.65343475155532,121.02472680617939 179.30568100791425,121.60869783267844 176.10957927256823,122.73492599150632 174.53078202996403,123.40231941328966 172.60541953891516,124.36169609738863 168.10007130983286,125.98846159275854 166.36724506760947,126.90612214585417 162.6320418349933,127.40666364732897 161.2842880913522,127.86549297353486 158.85833135270514,129.03342051265645 158.43475160445087,128.94999719582847 158.28072260529734,128.78315052582184 158.3577371048741,128.74143885067315 158.24221535539255,128.57459212001413 157.89565010694787,128.40774534083903 155.970287615899,128.94999719582847 154.39149037306197,129.2836903904099 153.42880912753753,129.11684381737723 152.31209888262674,129.07513216658845 151.23389588785358,128.6163038071827 148.69241739949211,128.36603363847826 147.383170905523,127.94891644801828 146.95959115750156,127.65693423440098 145.99690991220996,126.53071573327179 145.3422866652254,126.19702093824162 144.7261706679128,126.07188534000306 141.5685761824716,126.36386835991289 141.2605181839317,126.53071573327179 140.7214166864287,127.07296936144121 140.5673876872752,128.24089851320605 140.25932968850248,128.9082855329034 139.527691942174,129.4505369149847 139.25814119307324,129.5756717766053 139.02709769434296,129.4922485386196 139.14261944359168,129.11684381737723 139.02709769434296,128.9082855329034 137.91038744943216,128.282610224589 136.7166627049446,127.78206948694424 135.79248870932497,127.90720471230452 134.67577846441418,128.40774534083903 134.13667696691118,128.53288042976055 132.55787972407416,128.32432193303248 132.2883289756719,128.157475081156 132.09579272661358,127.86549297353486 131.86474922741763,126.48900389447226 131.59519847878255,126.23873279817053 131.21012598043308,125.61305457993876 130.47848823387176,125.1125115143368 130.09341573575512,124.69539195953985 129.862372236792,124.0280000413477 130.13192298542708,122.77663810312515 129.862372236792,122.10924395383336 129.63132873782888,121.9423952952784 128.47611124324612,121.52527343662223 127.93700974574313,121.14986350463005 126.8588067505043,119.64822132137488 126.24269075365737,119.02253591883346 125.97314000478946,118.23000009628595 126.05015450436622,117.39575067980331 125.97314000478946,115.39354713258217 126.24269075365737,114.93470783598605 127.08985024946742,114.3090172946977 127.35940099833533,113.9753153938509 127.4364154979121,112.9324957029894 127.3979082480073,110.55485972241149 127.62895174697042,110.13772958738264 128.09103874489665,109.63717302508303 128.93819824093953,107.55151598263183 128.43760399334133,105.8829848910973 128.55312574282289,104.84015049535083 129.09222724032588,103.88074117756332 131.1716187307611,100.9607899056864 130.97908248146996,100.50193906918867 130.9020679818932,99.95966033489094 131.4411694793962,98.66653205433977 131.479676729301,97.16483103917562 131.82624197774567,95.91341052434291 131.7492274781689,95.03741454018746 132.5193724744022,93.70256094503566 132.59638697421178,93.32713281185715 132.5193724744022,92.36770424444694 133.05847397213802,91.78370346158044 133.40503922034986,89.28083623049315 133.63608271931298,88.36311551035033 133.71309721888974,87.82082530387561 133.5590682195034,87.23681989283068 133.09698122180998,86.69452862194157 132.05728547670878,86.40252541747759 131.479676729301,84.4836435202742 131.28714048024267,84.40021372697083 130.59400998335332,84.35849882577895 129.70834323740564,85.10936658325954 127.78298074635677,86.1939516091079 127.01283574989066,84.85907743990538 126.3967197528109,82.64818526551244 126.05015450436622,81.98074444424128 125.78060375573114,81.77216902835062 125.43403850728646,81.73045393603388 124.7409080103971,82.02245951830992 124.20180651289411,82.10588965736679 123.85524126468226,81.89731428699451 123.12360351788811,81.14644232575665 122.77703826967627,81.14644232575665 122.27644402184524,81.56359353664448 121.77584977424704,82.39789504843066 121.39077727589756,83.56591512690648 121.00570477778092,84.44192862513592 120.04302353202365,85.60994454225875 119.27287853579037,86.1939516091079 118.96482053725049,86.61109915006091 118.73377703828737,87.19510519792675 118.65676253871061,88.15454241458792 118.27169004036114,88.78026147413766 117.8481102923397,88.8636906305619 117.3475160447415,88.78026147413766 116.65438554785214,88.44654472731054 116.2693130497355,88.11282778638997 115.26812455430627,86.65281388751464 115.49916805326939,84.94250716647366 114.92155930586159,83.19048036102322 114.84454480628483,82.5230401706358 114.96006655576639,80.85443629766814 115.22961730440147,80.02013254139456 115.15260280482471,79.47783444912056 114.88305205618963,79.22754284908297 114.07439980981871,79.01896643228247 113.15022581419908,79.10239700815873 112.38008081773296,78.8103899396956 112.07202281919308,78.22637535684044 111.91799381980672,77.30863695422886 111.49441407178529,76.64118992112344 110.724269075552,75.89031108067138 110.33919657720253,75.84859556067386 110.06964582856745,76.1406041366281 109.76158782979473,77.14177526877029 109.68457333021797,78.47666739378474 109.56905158073641,79.47783444912056 109.3380080817733,80.43728457117686 109.45352983125485,81.68873884077766 109.02995008323342,82.48132513297605 108.64487758488394,82.81504534941632 107.87473258841783,83.10705037959269 107.45115284039639,83.39905526119401 106.44996434519999,85.15108142985264 105.60280484915711,85.94366293898202 105.02519610174932,86.11052206446766 103.7159496077802,85.73508896376006 103.25386260985397,85.81851856294088 103.02281911089085,85.98537772498094 102.90729736164212,86.31909590327996 102.98431186121888,87.27853458482423 102.40670311381109,88.78026147413766 102.13715236517601,89.11397802692954 101.36700736870989,89.44769438559888 101.02044212026522,89.94826855964493 100.67387687205337,91.11627326748567 100.67387687205337,91.70027472972288 99.36463037808426,94.07798883254873 99.44164487766102,94.03627463488374 99.2106013786979,93.95284623064799 98.51747088180855,94.28655977500603 97.47777513670735,93.82770360150607 96.2840503922198,93.57741826126585 94.51271690032445,92.40941856338759 92.66436890908517,90.99113001962542 92.3178036606405,89.94826855964493 90.97004991676658,88.57168853015173 90.46945566916838,87.82082530387561 89.04468742571771,86.23566637685872 88.39006417873316,85.23451111390023 87.77394818142056,85.02593688093475 86.84977418603376,85.23451111390023 86.54171618726104,85.23451111390023 84.92441169475205,84.52535841229837 84.38531019748189,83.94134964700788 83.7691942001693,81.39673308870988 84.69336819578893,80.02013254139456 84.7703826953657,79.7281259400479 84.69336819578893,79.35268866276601 84.38531019748189,78.76867463198141 83.7306869502645,77.93436784256482 83.46113620162942,77.7675063390925 83.2300927026663,77.64236017959774 83.07606370327994,77.684075569181 82.45994770620018,78.35152138897683 82.22890420723706,78.2680907039612 82.03636795817874,78.0595139383804 81.6898027099669,77.058344407822 81.99786070827395,76.39089708347456 82.07487520785071,75.84859556067386 81.6127882101573,75.01428452457185 81.22771571204066,72.84507015236886 81.80532445921563,71.71874407026917 82.53696220577694,70.05010877241148 82.57546945568174,69.59123321456718 82.45994770620018,69.13235728960717 82.76800570474006,68.13117217944819 82.34442595671862,66.00364801846445 82.57546945568174,64.83559218264418 82.84502020431682,64.46014515892603 82.6909912051633,63.792683176492574 82.84502020431682,63.292086180037586 82.76800570474006,62.95835460640956 82.30591870681383,62.41604038499645 82.03636795817874,62.290890876494814 80.84264321369119,62.290890876494814 79.91846921807155,62.04059177759336 79.49488947005011,61.41484355245484 79.30235322075896,60.74737802654272 78.57071547419764,60.28849502693629 78.30116472532973,60.28849502693629 77.95459947711788,60.53879489045357 77.03042548126541,63.33380261302227 76.72236748272553,63.750966776773566 75.99072973616421,65.33618783208658 75.41312098875642,66.2539453881036 74.6814832421951,69.46608527147328 74.91252674115822,70.34212029984337 74.95103399083018,70.92614290889469 74.56596149271354,71.51016492335475 73.33372949855402,74.17997227521846 73.1411932494957,74.47198170053889 72.37104825302958,75.13943125738297 72.17851200373843,76.76633629901335 72.25552650354803,76.724620842695 72.25552650354803,76.5994744557247 71.94746850477532,77.97608321087318 70.94628000957891,79.64469545526663 70.94628000957891,79.56126495829085 69.79106251476333,79.81155641275109 68.82838126923889,80.39556938191527 68.13525077234954,80.60414529815898 65.94033753266558,82.48132513297605 65.40123603516258,83.98306457858416 65.01616353704594,84.4836435202742 64.70810553850606,84.65050307044294 63.86094604223035,85.81851856294088 63.55288804369047,86.02709250780754 62.85975754680112,86.31909590327996 62.32065604929812,86.44424017009442 61.666032802313566,86.44424017009442 61.473496553488076,86.5693844096968 60.972902305657044,88.40483012035838 61.04991680546664,89.28083623049315 61.24245305452496,89.82312505712616 61.473496553488076,89.94826855964493 61.70454005245119,89.98998305446003 62.05110530089587,89.86483956099255 62.513192298356444,89.53112344496185 62.78274304722436,89.57283797007403 65.28571428568102,91.86713218127261 66.1713810316287,92.57627580873668 66.59496077965014,93.24370430447743 66.74898977903649,93.82770360150607 66.78749702870846,94.99570041231345 66.7104825291317,95.66312609397573 66.32541003101505,96.5808351385931 66.32541003101505,97.4151148146193 64.40004753973335,101.71163593744859 64.32303304015659,102.00363135119551 64.47706203954294,102.37905380770098 67.09555502748117,105.17385770822875 68.55883052037098,105.4658513602335 68.86688851914369,105.6327048089006 69.32897551683709,106.00812489129021 69.71404801518656,106.2166914975387 70.06061326363124,106.30011811875738 71.33135250769556,107.13438366455375 70.36867126217112,107.13438366455375 68.21226527215913,107.50980276442715 65.24720703577623,107.42637631905382 63.86094604223035,106.2166914975387 63.745424292748794,105.92469822740532 63.66840979317203,105.38242461762275 63.206322795245796,104.84015049535083 62.85975754680112,104.7567236618197 62.01259805075824,105.00700412606238 61.74304730212316,104.92357731677475 61.1269313050434,104.54815652495017 60.857380556175485,103.92245465947781 61.0884240551386,103.25503858429147 61.04991680546664,103.00475735601503 60.89588780608028,102.87961670089862 60.08723555970937,102.6710488818062 58.04635131917894,102.96304380736547 57.69978607096709,102.87961670089862 57.23769907304086,102.4624809868692 56.5830758260563,101.41964037518483 55.69740908034146,100.46022533858195 55.27382933185436,100.41851160497754 54.88875683397055,100.54365279679769 52.847872593207285,100.2516566402046 52.00071309716441,100.37679786822991 51.57713334914297,100.50193906918867 50.80698835267685,100.91907620834536 50.075350606115535,101.08593097922858 49.767292607575655,101.33621304432745 49.72878535767086,101.58649500037427 50.383408604655415,102.42076739878394 50.72997385310009,103.25503858429147 50.999524601735175,103.3801791574806 51.500118849566206,103.42189267592039 51.88519134768285,103.6304602221062 52.732350843725726,104.71501024044119 53.463988590519875,105.84127155173337 54.1571190871764,106.17497818230186 54.42666983604431,106.38354472795618 54.503684335621074,106.55039790988667 54.46517708594911,106.80067759181838 54.11861183750443,107.1760969099123 53.04040884249844,107.67665561891044 52.039220347069204,109.92916440608678 51.07653910154477,110.76342467626091 50.72997385310009,111.34740614370094 49.99833610653877,111.68110957270255 49.72878535767086,111.72282248767442 49.26669835974462,111.51425788243068 48.26550986431539,111.30569320148788 47.03327787015587,110.8468506365607 46.53268362255767,110.3462946927757 45.570002377033234,110.17944261452067 45.30045162816532,110.59657271925244 45.30045162816532,111.13884140216396 46.30164012359455,113.2661982102145 45.49298787722364,115.89409867417999 45.41597337764688,116.68663772230502 44.64582838118076,117.52088816955802 44.0682196340058,117.89630047525861 42.64345139055513,119.35623488505371 41.757784644607455,120.02363223547582 41.56524839554913,120.35733061976498 41.026146898046136,120.89959008031292 40.949132398469374,121.23328795525595 40.79510339908302,121.52527343662223 30.244116947986186,122.73492599150632 30.128595198504627,122.90177441970445 29.820537199731916,123.02691070901346 28.472783456090838,122.73492599150632 26.971000713063404,122.60978963857633 24.54504397441633,121.9841074644064 24.005942476680502,121.73383440388716 23.158782980637625,121.14986350463005 22.465652483748272,120.27390604186803 21.811029236996546,119.73164599016309 20.501782743027434,119.27281016172492 20.11671024467796,119.14767305389978 19.962681245524436,119.23109779544757 19.693130496656522,119.43965959636262 19.42357974802144,119.77335832008976 19.231043498963118,120.35733061976498 19.231043498963118,122.02581963059492 19.0,122.90177441970445 19.30805799853988,125.02908762759762 19.19253624905832,126.19702093824162 19.577608747174963,126.8226985198271 19.770144996466115,127.74035773912328 19.693130496656522,128.78315052582184 19.847159496042877,130.20134567539208 19.693130496656522,130.74359583601472 19.80865224613808,131.61953732109396 19.770144996466115,132.07836327975383 20.11671024467796,133.49655028799316 19.962681245524436,135.12328989457455 20.193724744487554,135.4152683103748 21.233420489588752,135.54040187169448 24.468029474606737,136.83344707463402 24.23698597564362,138.46017722500255 24.468029474606737,138.37675527815009 24.468029474606737,139.25268511546892 24.159971476066858,139.71150497309281 24.0444497265853,139.33610693505034" stroke="#4DD2FF" stroke-linecap="round" stroke-linejoin="round" stroke-width="0.5"><title>2022-10-29 11.5km</title><desc>10515808524</desc></polyline></svg>