<?xml version="1.0" encoding="utf-8" ?>
<svg baseProfile="full" height="200mm" version="1.1" viewBox="0,0,200,200" width="200mm" xmlns="http://www.w3.org/2000/svg" xmlns:ev="http://www.w3.org/2001/xml-events" xmlns:xlink="http://www.w3.org/1999/xlink"><defs /><rect fill="none" height="200" width="200" x="0" y="0" /><polyline fill="none" points="63.047980417497456,33.73084901738912 61.580843890085816,32.34012038912624 61.39745182450861,27.969254376832396 58.09639463853091,22.605000167619437 50.5773199358955,7.704238762613386 47.45965481642634,4.128043931210414 45.44234209135175,4.326721544843167 36.45613086223602,11.08175180456601 32.97168161068112,12.27381423395127 25.635998975485563,17.439412084408104 21.784765590913594,19.02882484276779 18.667100470513105,22.406323883216828 22.885117986239493,33.73084901738912 25.085822777822614,43.26725482544862 27.65331169962883,49.62484020413831 30.95436888653785,53.79699756857008 30.58758475445211,54.98904135939665 31.687937148846686,59.161190532147884 33.338465741835535,62.73731332295574 34.62221020460129,63.33333333325572 37.00630705989897,62.141293183434755 41.5911087077111,57.37312738108449 44.8921658936888,52.80362734524533 49.110183409415185,49.22749155131169 55.71229778137058,47.042072928277776 62.681196285411716,47.24074742081575 67.63278206437826,45.055327208479866 68.73313445970416,44.061953806784004 68.91652652528137,42.2738807736896 65.43207727372646,40.08845658809878 63.781548680737615,37.10832988191396 63.781548680737615,35.32025229698047 62.3144121542573,33.73084901738912 60.297099428251386,28.565281972289085 57.91300257202238,24.989114449825138 57.36282637435943,21.810294944094494 55.34551364928484,19.02882484276779 54.061769189313054,14.459260670933872 51.6776723312214,12.27381423395127 50.5773199358955,7.9029161161743104 46.909478617832065,4.128043931210414 45.62573415786028,4.128043931210414 37.92326738964766,9.492334422655404 25.452606909908354,16.843382061691955 21.601373525336385,18.631471739849076 19.03388460353017,20.41956024733372 18.300316339358687,22.008971271803603 19.400668734684587,27.969254376832396 21.417981459759176,30.949391052825376 22.151549723930657,35.32025229698047 27.65331169962883,51.01556003349833 31.5045450842008,59.75721132266335 34.25542607251555,63.134660011390224 36.45613086223602,62.339966577710584 38.10665945522487,60.15455844393 41.5911087077111,57.770474849268794 42.50806903745979,53.995671569602564 46.17591035552323,50.41953733609989 51.310888200066984,48.830142840510234 53.511592991650105,47.24074742081575 57.54621844086796,47.83677081181668 60.48049149475992,49.22749155131169 62.681196285411716,49.02881720312871 65.43207727372646,45.65135107631795 68.36635032761842,44.061953806784004 67.999566196464,44.459303211187944 65.61546933930367,39.49243150651455 62.86458835192025,36.5123041504994 60.663883560337126,32.34012038912624 57.72961050644517,24.989114449825138 57.36282637435943,22.803676436888054 58.09639463853091,21.611618602415547 55.34551364928484,18.432795166503638 54.42855332046747,14.657937532756478 51.6776723312214,12.27381423395127 50.760712002404034,7.9029161161743104 47.092870684340596,4.525399144040421 44.52538176253438,4.326721544843167 36.82291499432176,9.492334422655404 24.719038645736873,16.446028640959412 20.317629064433277,18.631471739849076 18.11692427378148,21.015589489834383 19.400668734684587,24.194409919902682 19.584060800261796,27.969254376832396 22.334941788576543,32.34012038912624 22.151549723930657,35.5189276416786 23.985470381565392,38.69773119594902 24.719038645736873,43.86327908351086 33.705249873921275,62.141293183434755 35.722562598995864,62.73731332295574 37.189699126407504,62.141293183434755 40.67414837796241,57.571801122510806 41.40771664213389,54.98904135939665 43.42502936720848,51.412908426020294 49.29357547592372,48.03544524637982 50.94410406798124,46.44604936428368 56.26247397903353,46.44604936428368 59.93031529709697,47.6380963625852 63.598156615160406,45.452676467830315 64.88190107606351,45.25400184560567 66.34903760347515,43.46592959226109 67.44938999880105,43.46592959226109 67.63278206437826,42.86990524828434 66.34903760347515,40.88315649447031 66.53242966998369,39.691106548532844 64.33172487840056,37.50568029657006 63.598156615160406,34.724226175341755 60.663883560337126,30.552039684029296 48.37661514617503,4.724076728569344 46.909478617832065,3.5320110043976456 45.62573415786028,3.730688661104068 34.072034006007016,9.29365718504414 31.13776095211506,11.677783084101975 28.02009583171457,13.267199194757268 23.802078316919506,16.843382061691955 20.684413196519017,18.035441977204755 18.667100470513105,20.61823667632416 18.11692427378148,22.406323883216828 21.784765590913594,32.53879595105536 22.151549723930657,35.717602972639725 24.902430711314082,43.26725482544862 30.4041926888749,53.200975478161126 31.687937148846686,58.76384326629341 33.521857808344066,62.141293183434755 36.089346731081605,62.339966577710584 38.47344358731061,60.750579016981646 40.4907563123852,57.96914856135845 41.5911087077111,54.19434555689804 45.25895002577454,50.02218879875727 51.86106439772993,47.24074742081575 55.89568984694779,46.84339842107147 61.580843890085816,47.24074742081575 66.16564553789794,45.850025669904426 68.18295826204121,43.664604345103726 67.63278206437826,41.28050636081025 63.964940747246146,39.29375645075925 63.231372483074665,36.909654652467 63.047980417497456,33.134822549531236 59.93031529709697,29.359985230257735 56.99604224320501,23.39970515924506 49.29357547592372,5.320109395543113 47.643046882003546,3.5320110043976456 46.17591035552323,3.5320110043976456 44.52538176253438,4.326721544843167 26.736351370811462,15.849998401943594 21.968157657422125,18.035441977204755 17.93353220820427,21.810294944094494 19.767452865839005,28.962633630027995 21.968157657422125,32.53879595105536 22.334941788576543,36.710979408351704 26.736351370811462,48.63146846392192 28.38687996380031,51.61158260097727 30.4041926888749,53.59832355286926 32.97168161068112,60.94925251300447 34.62221020460129,62.339966577710584 36.45613086223602,61.942619774257764 39.94058011472225,58.36649594269693 42.50806903745979,52.80362734524533 45.62573415786028,49.4261658845935 51.86106439772993,47.042072928277776 55.89568984694779,46.644723899895325 59.93031529709697,47.439421898685396 61.580843890085816,47.24074742081575 65.98225347138941,45.055327208479866 68.18295826204121,43.26725482544862 68.36635032761842,42.4725556129124 64.69850900955498,39.29375645075925 62.3144121542573,36.710979408351704 52.961416793987155,12.869845253648236 49.29357547592372,6.114819415612146 47.092870684340596,3.929366303840652 45.44234209135175,4.326721544843167 41.40771664213389,7.108206615783274 36.82291499432176,8.697625385131687 33.705249873921275,11.47910600551404 29.67062442470342,13.267199194757268 17.750140141695738,21.810294944094494 19.584060800261796,25.783818748546764 19.584060800261796,28.167930256342515 21.968157657422125,32.73747149808332 22.334941788576543,36.710979408351704 26.186175173148513,46.04870024882257 26.736351370811462,49.62484020413831 31.687937148846686,60.35323198279366 34.25542607251555,62.339966577710584 37.55648325756192,61.545272913295776 40.30736424680799,57.96914856135845 42.691461103037,52.604953257134184 46.359302420169115,49.4261658845935 51.310888200066984,47.24074742081575 56.26247397903353,46.644723899895325 59.380139098502696,47.6380963625852 61.03066769242287,47.6380963625852 64.69850900955498,46.04870024882257 67.63278206437826,43.26725482544862 67.44938999880105,41.47918127197772 64.14833281189203,38.300380954518914 62.86458835192025,33.333498053019866 59.56353116501123,29.359985230257735 54.97872951813042,17.04205875052139 48.92679134383798,5.121431853855029 47.45965481642634,3.333333333255723 45.44234209135175,3.730688661104068 41.04093251004815,7.108206615783274 36.639522928744555,8.697625385131687 34.25542607251555,11.08175180456601 30.77097682002932,12.472491255495697 28.02009583171457,14.856614380143583 21.968157657422125,17.83676536125131 17.93353220820427,21.810294944094494 19.767452865839005,28.167930256342515 21.784765590913594,31.54541799798608 22.334941788576543,37.10832988191396 26.55295930430293,46.44604936428368 28.38687996380031,52.80362734524533 30.4041926888749,55.783736931625754 32.238113346509635,60.55190550722182 34.072034006007016,62.141293183434755 36.82291499432176,61.545272913295776 39.573795983567834,58.962516906438395 42.87485316861421,52.40627915482037 45.80912622343749,49.823514508781955 52.41124059539288,47.24074742081575 56.62925811111927,47.042072928277776 61.580843890085816,47.24074742081575 67.44938999880105,43.46592959226109 67.26599793229252,42.4725556129124 62.681196285411716,36.710979408351704 60.297099428251386,31.94276922265999 59.380139098502696,27.770578482421115 56.07908191345632,20.220883804606274 54.061769189313054,17.24073542491533 53.14480885863304,13.664553077891469 49.110183409415185,5.71746443444863 47.092870684340596,3.730688661104068 45.80912622343749,3.929366303840652 41.04093251004815,7.306884012650698 37.37309119198471,8.896302666282281 34.072034006007016,11.47910600551404 30.77097682002932,12.671168261906132 26.186175173148513,16.446028640959412 22.885117986239493,17.439412084408104 17.750140141695738,21.611618602415547 19.950844932347536,28.763957808259875 21.784765590913594,32.53879595105536 22.518333855085075,36.909654652467 32.238113346509635,61.942619774257764 35.17238640226424,62.73731332295574 39.573795983567834,60.55190550722182 43.7918134983629,52.008930906653404 48.009831014089286,48.830142840510234 54.061769189313054,46.84339842107147 59.56353116501123,47.83677081181668 61.39745182450861,47.439421898685396 66.16564553789794,45.25400184560567 67.81617412995547,43.46592959226109 66.8992138011381,40.28713158657774 62.3144121542573,35.717602972639725 59.74692323151976,27.571902574272826 56.99604224320501,23.20102893328294 52.227848529815674,11.280428912490606 48.19322308059782,4.922754298662767 46.359302420169115,3.730688661104068 44.8921658936888,3.730688661104068 42.50806903745979,6.114819415612146 37.739875324070454,8.498948089778423 34.805602269247174,11.08175180456601 29.48723235912621,13.465876143425703 26.55295930430293,16.446028640959412 20.501021130010486,18.830148298526183 18.11692427378148,21.41294224583544 20.317629064433277,28.962633630027995 21.968157657422125,31.94276922265999 24.352254513651133,43.46592959226109 26.186175173148513,46.04870024882257 32.42150541301817,60.55190550722182 34.25542607251555,61.942619774257764 36.82291499432176,61.147925994126126 39.390403917990625,58.36649594269693 42.32467697095126,52.20760503807105 48.74339927826077,48.03544524637982 54.79533745162189,46.44604936428368 61.580843890085816,47.24074742081575 66.16564553789794,45.65135107631795 67.63278206437826,43.86327908351086 67.08260586764663,41.47918127197772 59.93031529709697,31.148066716035828 58.64657083619386,26.37984682014212 53.87837712280452,14.856614380143583 50.760712002404034,10.088366049341857 49.29357547592372,5.916141932597384 47.643046882003546,4.128043931210414 45.62573415786028,4.128043931210414 41.77450077328831,7.306884012650698 38.2900515217334,8.498948089778423 34.62221020460129,11.47910600551404 29.85401649121195,13.068522231420502 19.217276668176055,20.022207347210497 17.93353220820427,21.810294944094494 19.217276668176055,24.59176221396774 19.767452865839005,28.565281972289085 21.784765590913594,32.14144481299445 22.334941788576543,36.5123041504994 25.085822777822614,44.061953806784004 27.286527568474412,50.02218879875727 30.4041926888749,54.98904135939665 32.604897478595376,61.147925994126126 34.438818138092756,62.339966577710584 37.189699126407504,60.94925251300447 42.50806903745979,52.40627915482037 45.9925182890147,49.22749155131169 53.32820092514157,46.44604936428368 55.89568984694779,46.44604936428368 60.48049149475992,47.6380963625852 65.43207727372646,46.644723899895325 67.26599793229252,45.65135107631795 67.81617412995547,43.86327908351086 66.8992138011381,40.68448153953068 63.047980417497456,36.909654652467 60.297099428251386,32.14144481299445 59.19674703385681,27.17455071443692 57.36282637435943,24.194409919902682" stroke="#4dd2ff" stroke-linecap="round" stroke-linejoin="round" stroke-width="0.5"><title>2024-12-24 10.0km</title><desc>13184779686</desc></polyline><polyline fill="none" points="175.86659474670887,37.733493441483006 175.49736536107957,34.73349660541862 173.6512184292078,31.33349623531103 172.17430088482797,25.133484738413244 166.63586009293795,12.53341830521822 162.75895153731108,5.533356453059241 161.09741929918528,3.9333398130256683 158.69742828980088,4.333344060461968 148.54362016916275,11.53341056080535 143.9282528422773,13.533425687346607 138.5744267432019,17.33345042075962 132.66675656381994,20.333466238109395 131.55906840600073,22.133474157424644 133.95905941538513,29.33349405392073 136.1744357328862,32.53349684597924 136.9128945050761,37.933493114076555 141.71287652570754,50.53344317362644 143.37440876290202,57.93338693655096 146.51285854540765,62.333344059763476 148.3590054763481,62.333344059763476 154.45129034854472,58.33338332967833 155.18974912073463,55.13341055740602 156.48205197229981,53.33342423615977 158.69742828980088,50.93344064289704 163.31279561668634,48.13345713703893 168.11277763731778,46.933463332708925 174.5742918951437,47.93345820577815 178.45120044983923,46.333466234616935 181.0358061529696,44.53347415430471 181.0358061529696,42.333482234040275 178.2665857579559,40.533487536013126 175.49736536107957,37.533493754221126 173.09737435076386,33.73349693301134 172.72814496420324,29.133493755711243 169.95892456825823,20.333466238109395 164.60509846825153,10.533402451314032 162.38972215168178,4.933350322302431 160.91280460730195,3.733337667537853 158.69742828980088,4.133341944310814 156.11282258667052,6.533366379793733 146.88208793196827,12.733419810887426 142.08210591133684,14.13342994172126 135.06674757413566,18.33345605665818 131.55906840600073,21.933473335346207 133.58983002975583,25.133484738413244 133.77444472257048,28.333492417819798 135.62059165351093,32.13349670055322 136.35905042570084,37.13349433615804 140.605188366957,46.533465281827375 141.71287652570754,51.133439355762675 141.34364713914692,53.9334198073484 143.18979407008737,58.533381504239514 146.14362915977836,62.333344059763476 148.54362016916275,62.333344059763476 154.0820609619841,57.73338871868327 156.48205197229981,53.33342423615977 162.38972215168178,48.93345271493308 167.5589335579425,46.933463332708925 171.06661272700876,46.933463332708925 175.86659474670887,47.533460300182924 179.9281179951504,46.133467172738165 182.14349431172013,43.5334780451376 181.77426492609084,42.333482234040275 179.55888860858977,41.133485899772495 177.71274167764932,39.133490844862536 174.38967720232904,33.533496954711154 173.09737435076386,27.73349126125686 169.5896951816976,18.533457140205428 166.45124539919198,14.533432704862207 162.38972215168178,5.533356453059241 160.1743458341807,3.5333355080801994 159.4358870619908,3.5333355080801994 156.29743727855384,6.3333644235972315 150.57438179291785,9.133390488103032 146.328243852593,12.53341830521822 134.5129034947604,19.133460303535685 131.55906840600073,21.933473335346207 133.95905941538513,29.733494606334716 135.62059165351093,32.53349684597924 136.1744357328862,37.733493441483006 140.605188366957,47.133462336612865 142.6359499907121,55.13341055740602 147.06670262478292,61.73335032095201 150.0205377144739,61.5333523794543 151.49745525885373,60.33336442220025 158.88204298261553,50.93344064289704 166.45124539919198,47.333461325382814 171.6204568054527,47.133462336612865 174.38967720232904,47.93345820577815 180.297347381711,45.3334707794711 181.58965023234487,43.73347729630768 181.40503554046154,42.53348157228902 179.18965922296047,40.533487536013126 176.05120944045484,33.93349689617753 172.5435302713886,28.533492773771286 171.43584211356938,24.533482883824036 161.8358780723065,4.333344060461968 159.80511644855142,3.733337667537853 155.00513442791998,7.33337405952625 150.38976710103452,9.133390488103032 148.54362016916275,10.933405738789588 142.6359499907121,13.933428537799045 138.2051973566413,17.73345271870494 135.43597696069628,18.933459263993427 131.55906840600073,22.133474157424644 131.37445371225476,22.73347653541714 133.58983002975583,29.33349405392073 135.80520634632558,32.3334967806004 136.1744357328862,36.33349532564171 140.605188366957,47.133462336612865 141.8974912185222,53.73342129844241 144.11286753509194,58.7333796643652 146.51285854540765,62.13334616180509 150.38976710103452,62.53334194375202 152.97437280323356,60.13336637848988 157.03589605167508,52.933427116367966 163.49741031043231,47.533460300182924 169.2204657960683,47.133462336612865 172.9127596579492,47.93345820577815 175.12813597545028,47.7334592603147 179.9281179951504,45.133471645182 181.22042084671557,43.5334780451376 181.40503554046154,42.333482234040275 176.78966821264476,37.733493441483006 172.9127596579492,28.933493443066254 170.14353926107287,19.73346333648078 165.8974013198167,13.333424239885062 162.94356623105705,6.13336245296523 160.54357521981,3.733337667537853 159.4358870619908,3.733337667537853 155.55897850729525,6.933370248880237 150.57438179291785,9.533393979538232 146.51285854540765,12.333416785812005 142.2667206041515,14.13342994172126 137.46673858445138,17.73345271870494 134.5129034947604,18.533457140205428 131.00522432662547,22.33347496460192 132.85137125756592,25.333485327428207 133.40521533694118,29.133493755711243 135.2513622669503,32.53349684597924 135.98982104007155,37.333494052058086 140.2359589803964,46.133467172738165 142.82056468352675,55.13341055740602 146.88208793196827,61.93334824847989 148.3590054763481,62.93333766749129 149.46669363509864,62.333344059763476 153.52821688354015,58.533381504239514 155.92820789292455,53.533422774868086 159.62050175480545,50.733441915595904 168.11277763731778,47.333461325382814 173.6512184292078,47.93345820577815 176.2358241332695,47.333461325382814 180.48196207452565,45.3334707794711 181.40503554046154,44.53347415430471 181.40503554046154,43.5334780451376 175.86659474670887,37.333494052058086 175.3127506673336,33.33349696150981 173.09737435076386,29.733494606334716 172.17430088482797,25.933487007161602 166.45124539919198,15.133436741074547 162.94356623105705,5.933360467432067 161.09741929918528,3.733337667537853 159.25127236917615,3.333333333255723 157.03589605167508,4.333344060461968 147.06670262478292,12.333416785812005 134.69751818850636,18.733458209317178 131.00522432662547,21.933473335346207 131.00522432662547,23.13347804779187 132.4821418710053,25.133484738413244 133.77444472257048,30.13349510077387 135.43597696069628,32.93349693343043 135.98982104007155,37.533493754221126 140.05134428758174,46.133467172738165 142.6359499907121,54.333416782319546 146.6974732382223,62.13334616180509 149.83592302072793,62.53334194375202 150.94361117947847,62.13334616180509 152.97437280323356,59.933368319645524 157.77435482479632,50.93344064289704 165.8974013198167,47.93345820577815 174.9435212817043,48.13345713703893 181.58965023234487,44.93347249622457 181.58965023234487,42.733480896335095 178.08197106420994,37.733493441483006 177.34351229202002,33.73349693301134 174.38967720232904,29.33349405392073 171.2512274198234,19.73346333648078 167.5589335579425,15.733440646436065 164.2358690816909,6.733368321321905 161.28203399293125,4.333344060461968 148.91284955572337,10.333400786388665 145.5897850804031,13.333424239885062 142.45133529789746,14.933435410493985 139.31288551539183,17.53345157718286 134.882132881321,19.133460303535685 131.55906840600073,22.533475757110864 135.43597696069628,32.53349684597924 136.72827981226146,37.733493441483006 138.5744267432019,40.93348645954393 139.31288551539183,44.53347415430471 141.34364713914692,48.93345271493308 143.37440876290202,56.733397408621386 146.328243852593,62.333344059763476 147.80516139697284,62.93333766749129 150.20515240728855,62.73333981237374 154.26667565479875,58.13338514044881 156.66666666604578,53.533422774868086 159.80511644855142,50.53344317362644 165.71278662700206,47.7334592603147 175.49736536107957,48.13345713703893 180.297347381711,46.333466234616935 181.95887961890548,44.733473332133144 181.95887961890548,42.93348020501435 180.11273268796504,41.73348413244821 179.55888860858977,39.33349041570909 177.52812698483467,37.13349433615804 176.9742829054594,32.73349689668976 174.2050625095144,28.933493443066254 167.74354825168848,16.333444420946762 164.60509846825153,6.13336245296523 161.28203399293125,4.333344060461968 158.32819890324026,5.333354423753917 155.55897850729525,7.133372161304578 150.57438179291785,9.333392241038382 146.88208793196827,12.333416785812005 143.00517937727273,14.13342994172126 135.06674757413566,19.133460303535685 131.92829779163003,22.533475757110864 132.112912485376,24.333482237067074 135.06674757413566,34.133496845606714 138.75904143601656,42.13348288158886 142.45133529789746,53.9334198073484 147.25131731759757,62.73333981237374 148.3590054763481,63.33333333325572 150.38976710103452,62.93333766749129 154.45129034854472,58.533381504239514 157.03589605167508,52.933427116367966 159.4358870619908,50.93344064289704 163.49741031043231,48.53345495485701 167.1897041723132,47.333461325382814 174.75890658888966,48.13345713703893 181.95887961890548,44.53347415430471 182.14349431172013,42.93348020501435 177.34351229202002,38.133492772467434 176.78966821264476,33.33349696150981 174.38967720232904,29.933494860772043 170.14353926107287,18.733458209317178 166.8204747857526,12.53341830521822 164.60509846825153,9.533393979538232 163.31279561668634,6.3333644235972315 161.4666486857459,4.333344060461968 157.40512543730438,5.333354423753917 146.328243852593,13.133422777988017 140.605188366957,15.533439359394833 134.1436741091311,19.533462340245023 131.74368309881538,22.33347496460192 131.74368309881538,23.733480207854882 133.58983002975583,28.933493443066254 135.62059165351093,32.73349689668976 136.1744357328862,37.13349433615804 140.42057367414236,47.333461325382814 141.8974912185222,52.13343270146288 144.2974822288379,55.533407357521355 147.6205467041582,63.33333333325572 149.46669363509864,63.1333355079405 151.12822587229311,62.333344059763476 154.63590504135936,58.13338514044881 157.95896951667964,52.13343270146288 164.97432785481215,47.7334592603147 169.03585110232234,47.333461325382814 174.9435212817043,48.33345605316572 177.34351229202002,47.533460300182924 180.48196207452565,45.53346990002319 182.14349431172013,43.933476532343775 182.3281090054661,42.733480896335095 181.22042084671557,41.133485899772495 181.58965023234487,38.53349204477854 180.48196207452565,33.533496954711154 179.0050445292145,31.533496373100206 175.12813597545028,29.133493755711243 164.78971316106617,9.533393979538232 163.68202500231564,6.13336245296523 161.4666486857459,4.333344060461968 159.25127236917615,4.933350322302431 156.29743727855384,7.33337405952625 150.57438179291785,9.333392241038382 146.6974732382223,12.733419810887426 143.18979407008737,14.333431330509484 132.85137125756592,21.533471648348495 131.74368309881538,23.53347950289026 135.62059165351093,33.133496954804286 135.98982104007155,36.93349460558966 137.835967971012,40.13348855427466 141.34364713914692,50.33344441722147 147.43593201041222,63.33333333325572 149.46669363509864,63.1333355079405 151.12822587229311,62.333344059763476 155.55897850729525,55.33340896433219 158.88204298261553,51.533436737721786 165.8974013198167,47.7334592603147 176.9742829054594,47.7334592603147 181.22042084671557,44.733473332133144 182.14349431172013,43.5334780451376 181.95887961890548,42.13348288158886 179.0050445292145,37.933493114076555 177.8973563713953,33.93349689617753 173.83583312295377,28.733493115752935 163.31279561668634,6.733368321321905 161.09741929918528,4.533346162177622 159.80511644855142,4.533346162177622" stroke="#4dd2ff" stroke-linecap="round" stroke-linejoin="round" stroke-width="0.5"><title>2024-12-21 10.0km</title><desc>13161657876</desc></polyline><polyline fill="none" points="55.20174136199057,121.4286219093483 63.99315471574664,117.61911513539962 66.33753161132336,114.44452361762524 66.92362583614886,109.68263201252557 65.165343163535,105.87311499007046 58.718306703493,99.20645220135339 49.6338462382555,78.25401716749184 42.01462133042514,74.44447272107936 37.91196176595986,70.31746248714626 33.5162550881505,71.26984981051646 29.41359552182257,76.34924535965547 22.380464838817716,81.42863499955274 21.79437061585486,85.87309608631767 27.94835996441543,95.71438667783514 32.930160865187645,109.04771274002269 42.600715555250645,125.55558383115567 44.35899822600186,127.1428758399561 47.87556356750429,127.4603341720067 55.20174136199057,121.4286219093483 63.70010760426521,117.93657415965572 66.04448449984193,115.07944210595451 66.63057872280478,110.00009161490016 64.87229605205357,105.87311499007046 58.42525959201157,98.57153140520677 50.80603468418121,79.5238645770587 42.01462133042514,74.44447272107936 38.498055988922715,70.63492495124228 36.153679093346,70.0 32.63711375370622,70.95238739275374 28.827501298859715,76.66670738509856 21.79437061585486,81.74609665526077 21.79437061585486,84.6032505237963 27.36226573958993,94.44454397750087 32.63711375370622,108.41279337438755 43.77290400117636,127.1428758399561 46.99642223119736,127.7777924805414 54.32260002754629,122.06353938230313 64.28620182909071,116.98419701610692 66.92362583614886,112.5397675987333 66.04448449984193,107.14295436674729 57.54611825756729,97.30168953514658 51.68517602048814,81.11117331986316 49.34079912677407,77.93655525683425 42.30766844190657,73.80954832374118 38.498055988922715,70.31746248714626 32.63711375370622,71.58731220546179 29.41359552182257,76.34924535965547 22.67351195216179,81.11117331986316 21.79437061585486,85.23817335022613 29.999689746648073,102.06359464279376 42.89376266673207,125.55558383115567 44.945092448964715,127.1428758399561 47.58251645602286,127.1428758399561 56.0808826982975,121.1111631388776 63.407060492783785,118.25403316225857 66.04448449984193,114.76198287308216 66.92362583614886,109.68263201252557 57.54611825756729,97.30168953514658 49.34079912677407,77.93655525683425 38.20500887744129,70.63492495124228 33.22320797666907,71.26984981051646 29.41359552182257,76.34924535965547 22.67351195216179,81.11117331986316 21.50132350437343,84.92071194876917 27.36226573958993,94.44454397750087 29.706642633304,103.01597504131496 39.08415021188557,117.61911513539962 42.30766844190657,125.87304227938876 44.65204533748329,127.4603341720067 47.58251645602286,127.4603341720067 54.90869425050914,121.4286219093483 62.82096626982093,118.57149214087985 65.45839027501643,116.03181966440752 66.92362583614886,110.31755119352601 65.165343163535,106.19057486834936 57.839165369048715,98.57153140520677 54.02955291420221,91.26993560953997 49.34079912677407,78.5714790544007 41.721574218943715,74.44447272107936 37.91196176595986,70.63492495124228 32.34406664036214,71.58731220546179 29.41359552182257,76.34924535965547 21.50132350437343,82.38101989869028 21.208276392892003,86.19055741885677 26.776171516627073,95.71438667783514 42.01462133042514,127.7777924805414 46.11728089489043,127.1428758399561 52.8573644682765,122.38099808385596 63.99315471574664,117.61911513539962 66.63057872280478,113.17468636413105 66.33753161132336,108.41279337438755 58.42525959201157,99.84137290576473 49.92689334973693,79.8413263715338 47.289469342678785,76.66670738509856 41.721574218943715,74.76193488528952 37.91196176595986,70.63492495124228 32.63711375370622,71.26984981051646 28.534454187378287,77.3016313672997 22.67351195216179,80.79371161735617 21.208276392892003,86.8254800166469 27.0692186281085,95.07946537388489 31.757972417399287,107.77787391701713 41.721574218943715,126.82541748462245 43.47985688969493,127.7777924805414 47.58251645602286,127.1428758399561 53.736505802720785,122.06353938230313 63.11401338130236,117.93657415965572 66.33753161132336,114.12706433888525 65.7514373883605,108.41279337438755 58.13221248053014,99.84137290576473 50.21994046121836,79.8413263715338 42.30766844190657,75.3968591443263 38.498055988922715,71.58731220546179 34.688443534076214,71.26984981051646 32.930160865187645,72.53969925199635 29.120548410341144,76.66670738509856 21.79437061585486,82.06355828884989 20.6221821680665,88.41278610401787 27.0692186281085,97.30168953514658 42.01462133042514,127.4603341720067 46.99642223119736,127.4603341720067 52.8573644682765,122.38099808385596 63.70010760426521,117.93657415965572 66.33753161132336,112.85722699249163 65.45839027501643,108.09533365746029 57.54611825756729,98.57153140520677 53.736505802720785,90.95247464627028 50.80603468418121,80.15878814319149 43.1868097782135,75.3968591443263 39.08415021188557,71.26984981051646 33.80930219963193,71.26984981051646 28.24140707589686,78.25401716749184 22.380464838817716,81.11117331986316 20.6221821680665,87.77786373835988 25.89703018218279,94.44454397750087 31.17187819443643,107.46041415329091 41.721574218943715,127.1428758399561 45.824233783409,127.7777924805414 51.39212890714407,123.96829124656506 62.5279191583395,119.20641002827324 66.04448449984193,114.44452361762524 65.7514373883605,109.36517238803208 57.839165369048715,100.15883322339505 53.44345869123936,91.26993560953997 49.34079912677407,79.20640275883488 43.1868097782135,76.66670738509856 37.61891465447843,71.26984981051646 31.757972417399287,73.17462383420207 28.534454187378287,77.3016313672997 21.79437061585486,82.38101989869028 20.32913505844772,87.77786373835988 27.0692186281085,96.66676846146584 31.46492530591786,109.68263201252557 40.54938577115536,127.7777924805414 45.824233783409,127.7777924805414 51.09908179752529,123.96829124656506 62.23487204499543,119.52386893820949 65.45839027501643,115.7143605016172 65.7514373883605,109.36517238803208 57.25307114422321,99.523912565317 50.21994046121836,80.79371161735617 42.01462133042514,75.71432123961858 38.79110310040414,71.58731220546179 36.7397733181715,70.95238739275374 33.22320797666907,72.53969925199635 28.534454187378287,78.25401716749184 22.67351195216179,81.74609665526077 20.6221821680665,87.1429412800353 24.724841732531786,92.22231836221181 29.706642633304,106.50803472404368 39.9632915481925,127.4603341720067 44.945092448964715,128.4127090307884 53.15041157975793,122.69845676305704 61.35573071055114,120.1587866875343 64.87229605205357,116.03181966440752 66.04448449984193,111.26992979180068 64.57924894057214,107.77787391701713 56.66697692126036,98.88899181433953 49.34079912677407,79.5238645770587 42.89376266673207,76.98416938772425 37.32586754113436,71.58731220546179 34.98149064742029,71.26984981051646 31.757972417399287,72.85716155497357 28.24140707589686,78.25401716749184 21.50132350437343,82.6984814859461 20.036087945103645,86.50801872927696 26.483124405145645,96.34930789051577 30.292736859992146,107.46041415329091 39.9632915481925,127.4603341720067 41.721574218943715,128.4127090307884 45.824233783409,128.09525076742284 51.68517602048814,123.96829124656506 63.11401338130236,119.52386893820949 66.33753161132336,114.44452361762524 66.33753161132336,110.95247028209269 56.66697692126036,98.25407097232528 51.97822313196957,83.33340459060855 49.6338462382555,80.47624989249744 41.721574218943715,75.71432123961858 37.61891465447843,71.90477457805537 32.63711375370622,72.85716155497357 27.655312852934003,79.20640275883488 22.966559061780572,81.74609665526077 19.743040831759572,88.41278610401787 26.483124405145645,97.61915003717877 28.827501298859715,106.82549455715343 39.377197325229645,127.4603341720067 44.945092448964715,128.4127090307884 51.39212890714407,123.96829124656506 62.82096626982093,119.84132782486267 65.165343163535,116.66673792223446 66.04448449984193,110.95247028209269 57.25307114422321,99.523912565317 49.92689334973693,81.42863499955274 41.721574218943715,76.34924535965547 37.61891465447843,71.90477457805537 34.98149064742029,71.58731220546179 32.930160865187645,72.53969925199635 27.94835996441543,78.88894091825932 22.67351195216179,82.38101989869028 20.6221821680665,86.50801872927696 26.190077293664217,95.71438667783514 29.41359552182257,107.77787391701713 39.9632915481925,127.7777924805414 42.89376266673207,129.0476254876703 46.11728089489043,128.4127090307884 53.15041157975793,123.65083266049623 62.23487204499543,120.1587866875343 65.45839027501643,115.39690131507814 65.7514373883605,111.26992979180068 56.0808826982975,96.98422901029699 51.09908179752529,82.6984814859461 41.721574218943715,76.03178331069648 37.91196176595986,72.22223692620173 32.930160865187645,71.90477457805537 28.24140707589686,78.5714790544007 22.67351195216179,81.74609665526077 19.743040831759572,87.46040252083912 25.310935959219933,95.07946537388489 29.999689746648073,108.09533365746029 39.67024443484843,128.09525076742284 45.53118667192757,128.4127090307884 53.44345869123936,123.33337405021302 61.64877782203257,120.1587866875343 64.87229605205357,116.34927880507894 65.7514373883605,110.95247028209269 57.25307114422321,100.15883322339505 49.92689334973693,81.11117331986316 41.721574218943715,76.34924535965547 37.03282042965293,71.58731220546179 32.34406664036214,72.53969925199635 28.24140707589686,78.25401716749184 20.915229281410575,83.65086610871367 20.6221821680665,86.19055741885677 26.483124405145645,95.71438667783514 29.706642633304,108.41279337438755 38.79110310040414,128.09525076742284 44.65204533748329,128.7301672701724 54.02955291420221,123.01591541827656 61.64877782203257,120.1587866875343 64.87229605205357,116.03181966440752 65.45839027501643,110.95247028209269 56.960024032741785,98.88899181433953 50.512987572699785,81.42863499955274 40.54938577115536,75.3968591443263 37.03282042965293,71.58731220546179 32.930160865187645,72.22223692620173 28.24140707589686,78.5714790544007 23.259606175124645,81.42863499955274 20.32913505844772,87.46040252083912 25.603983068838716,94.44454397750087 27.0692186281085,104.28581524896435 38.498055988922715,128.4127090307884 41.135479994118214,129.68254185188562 44.65204533748329,129.0476254876703 51.97822313196957,124.28574980935082 61.64877782203257,120.1587866875343 64.57924894057214,117.3016560873948 65.45839027501643,112.22230818169191 63.99315471574664,108.41279337438755 56.37392980977893,98.88899181433953 53.15041157975793,91.5873965495266 49.04775201343,80.15878814319149 42.600715555250645,76.98416938772425 37.03282042965293,71.90477457805537 33.5162550881505,72.53969925199635 28.24140707589686,79.20640275883488 22.966559061780572,82.06355828884989 20.32913505844772,85.87309608631767 25.89703018218279,96.03184729628265 29.41359552182257,110.31755119352601 35.27453776076436,120.47624552808702 37.32586754113436,128.09525076742284 40.842432882636786,130.0 43.47985688969493,129.36508368165232 52.8573644682765,123.65083266049623 62.23487204499543,119.84132782486267 65.45839027501643,115.07944210595451 65.45839027501643,111.58738927775994 64.57924894057214,108.73025306873024 56.0808826982975,97.9366105159279 50.512987572699785,81.42863499955274 42.01462133042514,76.66670738509856 37.03282042965293,72.22223692620173 34.98149064742029,71.58731220546179 32.051019528880715,73.17462383420207" stroke="#4dd2ff" stroke-linecap="round" stroke-linejoin="round" stroke-width="0.5"><title>2024-12-14 10.0km</title><desc>13111713017</desc></polyline><polyline fill="none" points="126.66666666662786,84.93194199062418 126.74763832660392,85.13655972349807 126.90958164643962,84.90271087738802 127.04453441302758,85.07809752473258 127.17948717949912,84.99040421060636 127.47638326592278,85.13655972349807 127.44939271255862,85.34117735247128 127.42240215931088,85.19502191382344 127.96221322542988,85.07809752473258 128.36707152496092,85.37040843389696 129.01484480442014,84.87347976211458 129.14979757089168,84.63963076320942 129.60863697703462,84.63963076320942 129.85155195684638,84.49347506993217 129.93252361682244,84.75655527960043 130.09446693665814,84.6688618954795 130.49932523618918,85.8088743998087 131.09311740892008,86.36426393815782 131.06612685555592,86.77349784475518 131.28205128211994,86.94888367748354 132.03778677468654,87.06580752349691 133.22537112014834,87.5627334904566 133.0904183536768,87.62119532865472 133.84615384612698,87.65042624453781 134.14304993255064,87.94273528680787 135.00674763834104,88.26427498835255 136.08636977057904,89.49196966949967 136.03238866396714,89.69658508585417 136.4372469636146,90.25196926345234 136.95006747648586,90.45658429380273 137.4089068826288,90.2811999884434 137.70580296905246,90.42735358155915 137.8947368421359,90.95350607752334 138.48852901498321,91.07042876104242 138.73144399456214,91.27504337555729 139.16329284757376,91.27504337555729 139.32523616740946,91.0119674235466 139.2442645074334,91.24581272277283 139.2442645074334,91.09965942663257 139.48717948724516,91.12889009009814 139.6761133603286,91.42119660807657 140.2699055330595,91.62581104438868 140.94466936576646,92.26888431055704 141.8353576248046,92.64888166708988 142.40215924428776,93.20426177416812 143.15789473685436,93.08733970997855 143.42780026991386,93.40887530479813 144.7503373818472,93.8181020541524 144.96626180841122,94.22732838784577 144.7503373818472,94.54886307267589 144.99325236165896,94.89962789064157 145.74898785422556,94.98731904741726 146.18083670712076,94.753475920239 146.58569500676822,93.37964480675873 147.20647773286328,92.79503440111876 148.01619433204178,92.67811221818556 148.77192982460838,92.85349547982332 149.50067476381082,92.23965372983366 149.93252361670602,92.15196197491605 150.87719298247248,91.0119674235466 152.22672064776998,90.13504634235869 153.7921727396315,88.58581443314324 154.03508771932684,88.49812188281794 154.03508771932684,88.61504527911893 154.22402159241028,88.26427498835255 154.25101214577444,88.38119845252368 154.46693657222204,88.2935058575822 154.30499325238634,88.41042931331322 154.25101214577444,88.2935058575822 155.51956815109588,88.87812279665377 156.05937921721488,89.8719696457556 156.1673414305551,92.44426775045577 156.7071524966741,94.16886750853155 155.95141700399108,94.95808866393054 155.65452091768384,94.98731904741726 155.57354925770778,95.22116203882615 155.7894736842718,95.27962276546168 155.51956815109588,95.48423524189275 155.16869095817674,95.51346558713703 155.03373819158878,95.71807794482447 154.89878542500082,95.42577454494312 154.97975708497688,95.57192627139739 154.38596491224598,95.86422956522438 154.22402159241028,96.41960523911985 154.97975708497688,97.55958448676392 154.89878542500082,98.2903387179831 155.43859649123624,98.84571104709175 155.84345479076728,98.90417124773376 156.03238866408356,101.35949201366748 156.1673414305551,101.885630230885 156.51821862335782,101.885630230885 156.1673414305551,101.5641014019784 156.41025641025044,102.44099760355311 156.35627530363854,102.762525732629 156.08636977057904,102.87944498861907 156.22132253705058,103.28866211744025 155.60053981095552,103.52250029009883 156.57219973008614,103.99017622836982 157.11201079620514,103.84402755604242 157.4628879892407,103.20097276769229 157.70580296893604,102.99636421070318 158.08367071521934,102.79175554972608 158.24561403505504,102.11946921798517 158.48852901475038,102.236388660589 158.62348178133834,102.49945728250896 158.05668016185518,103.28866211744025 157.86774628888816,104.2824734140886 157.86774628888816,105.33474152666167 159.19028340093791,107.76079364694306 159.4062078272691,107.90694089850876 159.43319838051684,107.7023347314971 159.86504723352846,107.84848200419219 159.7300944669405,108.08231753035216 159.8920377867762,108.11154696161975 159.67611336021218,107.96539978426881 159.67611336021218,108.17000581769389 159.8920377867762,108.02385866158875 159.56815114698838,108.02385866158875 159.86504723352846,108.0530880970473 159.91902834002394,107.99462922400562 159.8380566801643,107.99462922400562 159.7840755735524,108.14077639067546 159.86504723352846,108.02385866158875 159.6221322537167,108.08231753035216 159.70310391357634,107.99462922400562 159.91902834002394,107.99462922400562 159.75708502018824,108.17000581769389 159.8920377867762,108.08231753035216 159.70310391357634,108.17000581769389 159.64912280708086,107.99462922400562 159.70310391357634,108.17000581769389 159.9460188933881,108.08231753035216 159.97300944675226,107.6731052705436 160.29689608630724,107.90694089850876 161.67341430485249,108.25769408594351 161.97031039139256,108.08231753035216 161.97031039139256,107.90694089850876 161.97031039139256,108.14077639067546 161.8893387314165,107.90694089850876 162.07827260461636,107.93617034243653 161.9433198380284,108.02385866158875 162.67206477723084,107.61464634237927 163.37381916318554,107.7023347314971 164.2105263157282,108.14077639067546 164.72334682871588,108.0530880970473 164.66936572187115,108.28692350446363 165.26315789471846,108.5207587761106 165.1282051281305,108.3746117472183 165.2361673413543,108.5207587761106 165.26315789471846,108.3746117472183 165.37112010794226,108.3746117472183 164.9122807016829,108.31615292083006 165.39811066130642,108.43307056513731 165.42510121467058,108.14077639067546 165.2361673413543,108.34538233513013 165.56005398114212,108.5499881755677 165.53306342777796,108.3746117472183 165.26315789471846,108.3746117472183 165.50607287453022,108.4038411572401 165.58704453438986,108.0530880970473 166.12685560050886,108.11154696161975 165.9919028339209,108.0530880970473 166.04588394064922,108.22846466529882 166.82860998646356,108.11154696161975 168.42105263157282,108.72536452749046 169.04183535755146,108.7545939120755 169.52766531705856,108.17000581769389 169.31174089061096,108.34538233513013 169.50067476381082,108.4038411572401 169.41970310395118,108.7545939120755 169.25775978411548,108.31615292083006 169.23076923075132,108.78382329456508 169.2847503372468,108.31615292083006 169.52766531705856,108.4038411572401 169.2847503372468,108.17000581769389 168.87989203771576,108.22846466529882 168.39406207820866,108.02385866158875 168.25910931173712,108.17000581769389 167.42240215919446,107.58541687505203 167.50337381917052,107.8192525539198 167.26045883947518,107.99462922400562 167.42240215919446,107.43926950689638 167.20647773263045,108.17000581769389 167.3414304992184,107.49772846058477 167.3414304992184,107.76079364694306 167.0715249661589,107.61464634237927 166.07287449389696,106.73776140162954 165.77597840758972,107.26389259507414 165.96491228067316,106.79622045703582 165.77597840758972,106.62084326535114 165.47908232116606,106.59161372596282 165.37112010794226,106.35777733463328 165.26315789471846,106.50392509507947 164.8043184884591,106.00702249311144 163.94062078278512,105.83164495782694 163.6167341429973,105.51011927827494 163.1309041834902,105.5393488961563 162.4291497975355,105.01321545056999 162.18623481784016,104.37016252847388 161.97031039139256,104.45785162367974 162.24021592445206,104.51631100990926 162.24021592445206,104.39939222898101 162.159244264476,104.57477038775687 162.159244264476,104.45785162367974 161.9973009446403,104.5455406998808 162.1052631578641,104.42862192739267 162.5371120107593,104.34093282575486 162.78002699057106,104.83783748265705 163.53576248313766,104.98398579453351 163.96761133603286,105.4516600362549 163.9946018892806,105.04244510442368 166.39676113356836,104.8086078139313 166.4237516868161,104.95475613643066 166.5317139000399,104.75014847007697 167.69230769225396,105.3639711572614 167.8272604587255,105.13013405335369 167.6113360322779,105.21782298322069 167.88124156545382,105.01321545056999 168.34008097171318,105.071674756211 168.09716599190142,104.86706714931643 168.50202429143246,104.48708131790045 169.14979757077526,104.39939222898101 170.41835357632954,104.57477038775687 170.85020242910832,103.93171676574275 170.93117408908438,104.1070951280999 170.82321187586058,103.90248703132966 171.39001349522732,103.49327052599983 171.30904183536768,103.17174298019381 171.84885290148668,102.90867479730514 172.46963562746532,103.11328339882311 173.03643724694848,103.99017622836982 173.65721997292712,104.39939222898101 174.33198380563408,104.57477038775687 175.27665317140054,104.48708131790045 175.70850202429574,104.72091879503569 176.57219973008614,104.8086078139313 176.76113360316958,104.69168911778252 176.81511470978148,104.83783748265705 176.78812415653374,104.57477038775687 176.81511470978148,104.77937814311008 176.73414304992184,104.66245943849208 177.65182186244056,104.51631100990926 178.19163292844314,104.01940595646738 179.6221322537167,103.52250029009883 180.40485829953104,103.63941932556918 180.4318488528952,103.28866211744025 180.51282051275484,103.40558122075163 180.24291497969534,103.3471216733451 180.37786774616688,103.28866211744025 180.24291497969534,103.40558122075163 180.45883940614294,103.43481099122437 180.1619433198357,103.69787883060053 180.4318488528952,103.69787883060053 180.56680161948316,103.46404075968894 181.079622132238,104.34093282575486 181.079622132238,104.77937814311008 181.26855600532144,105.01321545056999 181.43049932515714,104.86706714931643 181.67341430485249,105.5393488961563 183.31983805669006,105.6562673462613 183.8326585694449,106.35777733463328 185.31713900133036,106.91313854249893 185.47908232116606,107.55618740568752 185.6680161941331,107.35158106053132 185.85695006744936,107.6731052705436 186.45074224006385,107.76079364694306 186.5317139000399,107.35158106053132 186.18083670712076,107.00082708423724 186.09986504726112,107.08851560694166 185.10121457488276,105.276282259234 184.07557354914024,104.57477038775687 183.18488529021852,103.3471216733451 182.78002699057106,103.40558122075163 182.2132253709715,102.93790460383752 181.86234817816876,102.236388660589 180.89068825903814,101.4471817642625 179.70310391357634,101.50564158739871 179.27125506068114,101.38872193268617 178.4345479082549,101.41795184952207 177.27395411604084,101.5641014019784 176.8690958165098,101.27180224398035 176.84210526314564,101.03796276490903 176.49122807011008,101.15488252142677 176.6531713900622,101.09642264741706 176.59919028333388,100.83335310936673 176.19433198391926,100.5995133756951 175.51956815097947,99.5180028421164 174.84480431838892,98.87494114850415 174.17004048579838,98.58264003929798 172.87449392711278,98.14418797777034 170.66126855602488,98.23187842825428 170.22941970301326,97.61804487404879 170.39136302296538,97.12113131181104 170.79622132261284,96.94574990816182 173.41430499323178,97.53035428997828 173.84615384612698,97.41343348141527 173.98110661259852,97.55958448676392 174.52091767871752,97.64727506451891 175.00674763834104,97.5888146814541 177.4089068826288,98.728790620371 177.65182186244056,99.25493227332481 178.27260458830278,99.37185254742508 179.81106612680014,98.52417979197344 179.99999999988358,98.5534099166689 179.5681511471048,98.4949496651534 180.02699055336416,98.34879899918451 179.97300944663584,98.58264003929798 180.0539811066119,98.319568859617 179.6221322537167,98.52417979197344 179.19028340070508,99.05032171218772 178.4345479082549,99.25493227332481 178.38056680152658,99.07955179875717 178.35357624827884,99.2841623450804 177.32793522265274,98.87494114850415 176.84210526314564,98.37802913656924 176.54520917672198,98.4072592719458 176.27530364366248,98.14418797777034 174.65587044530548,97.55958448676392 172.60458839393687,97.41343348141527 170.71524966263678,97.06267085234867 170.31039136298932,97.26728242312674 170.14844804315362,97.79342598491348 170.47233468282502,98.26110857416643 173.09041835356038,98.23187842825428 173.63022941967938,98.34879899918451 173.63022941967938,98.61187015974429 173.76518218615092,98.46571953617968 173.84615384612698,98.61187015974429 173.87314439949114,98.43648940508137 173.84615384612698,98.7580207302235 174.22402159241028,98.58264003929798 174.00809716596268,98.7580207302235 174.87179487175308,99.19647212364362 174.89878542511724,99.40108261056594 175.43859649111982,99.78107323916629 175.76248313079122,100.51182344064 177.00404858298134,101.65179110804456 177.86774628877174,101.47641167687834 178.62348178133834,101.68102100587566 178.8663967611501,101.4471817642625 179.91902834002394,101.27180224398035 180.6477732793428,101.5641014019784 181.59244264499284,102.2656185158994 182.3211875843117,103.17174298019381 183.0229419702664,103.52250029009883 183.80566801619716,104.51631100990926 184.29149797558784,104.72091879503569 184.80431848857552,105.83164495782694 185.04723346827086,105.89010414472432 186.0458839405328,107.49772846058477 186.28879892022815,107.73156419023871 186.66666666662786,107.7023347314971 186.1538461537566,107.76079364694306 185.8299595140852,107.61464634237927 185.6680161941331,107.38081054476788 185.4520917678019,107.46849898478831 185.39811066119,107.26389259507414 185.3441295545781,107.41004002693808 185.37112010782585,107.23466310239746 185.37112010782585,108.22846466529882 184.858299595071,108.46229997090995 184.64237516873982,108.92997017494054 183.5627530363854,109.30995181607432 183.0769230768783,109.89453825648525 182.5910931173712,111.23908385061077 182.159244264476,111.5313757773547 181.7273954115808,111.47291740891524 181.619433198357,111.03447937572491 181.4574898785213,111.00525015653693 180.9716599190142,111.06370859275921 181.10661268560216,111.18062543985434 181.13360323873349,111.06370859275921 181.0256410256261,111.06370859275921 180.7017543859547,111.29754225292709 180.18893387319986,111.41445903206477 180.18893387319986,111.26831305280211 179.48717948724516,111.56060495832935 179.21727395406924,111.26831305280211 179.00134952762164,111.76520916601294 178.13765182171483,111.73597999988124 177.57085020234808,112.3205629203876 177.35492577590048,113.13897758416715 176.76113360316958,113.57741332743899 176.92307692300528,113.78201651101699 177.86774628877174,114.39582543834695 178.29959514166694,115.30192262219498 178.78542510117404,115.18500697103445 179.08232118748128,115.50652493006783" stroke="#4dd2ff" stroke-linecap="round" stroke-linejoin="round" stroke-width="0.5"><title>2024-12-01 10.1km</title><desc>13020389187</desc></polyline><polyline fill="none" points="17.425949103024323,143.04803047215682 17.601168126799166,143.69853863905882 17.851481017947663,144.28128361653944 18.164372131810524,144.80981818806322 19.71631205669837,146.73421349108685 19.991656236932613,147.23563718335936 20.317062995396554,147.92678655502095 20.56737588654505,148.67214085733576 20.73007926577702,149.48525125304877 20.80517313303426,150.23059934306366 20.80517313303426,150.81332396224025 20.667501042946242,151.81614812508633 19.753858990385197,155.08206521747343 19.278264497290365,157.1418674155866 19.203170629916713,157.6839168552251 19.15310805174522,158.72735760388605 19.165623696288094,159.86564996359812 19.24071756360354,160.0282625923719 19.24071756360354,160.44834456230456 19.15310805174522,161.13944510526198 19.10304547351552,161.2885056719242 19.015435961598996,161.30205662667868 19.065498539828695,161.32915853314626 19.052982895227615,161.45111706374155 18.82770129328128,161.7763394232461 18.414685022900812,162.84685902946512 18.026700041722506,163.67345858448243 17.138089278247207,165.35374806066102 16.68752607423812,166.2751907208294 15.686274509760551,168.06386057638156 15.198164372122847,168.80913463587058 14.73508552351268,169.6628085472039 14.234459741332103,170.84168516437057 14.059240717557259,172.18315641813388 14.071756362100132,172.96906440223393 13.821443471009843,177.7928411050816 13.608677513548173,181.18025043190573 13.496036712545902,181.9119227952615 13.345848977856804,185.3399052223249 13.38339591154363,186.09865964578057 13.33333333331393,186.84386188960343 13.370880267000757,187.0877456160233 13.5961618690053,187.58906116701837 14.021693783870433,188.06327734452498 14.347100542334374,188.26651248142298 14.63496036711149,188.3749044642609 15.085523571062367,188.46974739774305 15.310805173125118,188.46974739774305 15.598664997902233,188.3749044642609 15.786399666278157,188.25296347917174 15.94910304545192,188.09037537554104 16.249478514830116,187.65680640876235 16.487275761319324,187.50776684453012 16.862745098012965,187.45357060994138 17.801418439717963,187.5619630634319 18.740091781364754,187.75164970602782 19.35335836460581,187.96843420511868 19.791405924072023,188.19876746031514 20.86775135580683,188.88976552558597 21.49353358364897,189.2013912695984 21.793909052968957,189.24203806754667 22.0692532332032,189.01170609591645 22.094284522288945,188.94396134444105 22.044221944059245,188.94396134444105 21.9691280767438,189.02525504324876 22.106800166831817,188.9168634369853 22.28201919066487,188.83556969108758 22.569879015383776,188.84911865118193 23.045473508536816,188.95751029670646 23.295786399627104,189.17429339942464 23.471005423401948,189.43172300788865 23.5961618690053,189.48591866984498 24.409678765106946,189.29623378442193 25.811430955363903,188.79492280491104 25.924071756307967,188.79492280491104 25.661243220674805,188.9033144818095 25.648727576073725,188.95751029670646 25.74885273259133,188.95751029670646 26.26199415931478,188.7678248758748 26.987901543616317,188.59168824163498 28.014184397121426,188.46974739774305 31.618690029194113,188.4426494216459 32.031706299458165,188.46974739774305 32.256987901520915,188.52394333815027 32.53233208169695,188.67298209341243 33.19566124322591,189.21494020323735 33.47100542340195,189.36397840842255 33.75886524817906,189.47236975580745 34.14685022941558,189.49946758289298 34.44722569879377,189.47236975580745 34.79766374634346,189.3233316369442 35.04797663743375,189.1607444628753 35.67375886521768,188.59168824163498 35.93658740090905,188.4426494216459 36.14935335837072,188.3749044642609 38.71506049227901,188.32070848070725 41.64372131827986,188.33425747806905 42.11931581137469,188.38845345769369 42.419691280752886,188.49684536991117 42.89528577384772,188.82202073001827 43.75886524823727,189.56721213331912 44.559866499737836,189.9872277990944 45.335836462152656,190.2040097094723 46.22444722568616,190.2446562897385 46.95035460987128,190.1362653894612 47.57613683771342,189.93303228223522 48.15185648726765,189.63495665929804 48.264497288211714,189.49946758289298 48.53984146844596,189.30978271116328 49.81643721315777,188.57813926287054 50.304547350795474,188.3749044642609 50.80517313303426,188.23941447593097 51.35586149350274,188.1852184531599 53.721318314550444,188.0497283275472 56.08677513553994,187.76519874457153 56.58740091777872,187.86004198693263 57.21318314556265,188.1581204358663 57.50104297033977,188.26651248142298 57.87651230703341,188.30715948235593 58.18940342089627,188.25296347917174 58.40216937835794,188.1852184531599 58.740091781364754,187.9955322498281 59.00292031705612,187.72455162598635 59.34084272006294,187.2638836652768 59.39090529823443,187.236785514644 59.265748852689285,187.49421778733085 59.6537338339258,187.07419652843964 59.85398414678639,186.93870559876086 61.39340842713136,186.41029003591393 63.13308302045334,185.7192828184925 63.5961618690053,185.58379090813105 63.84647476009559,185.58379090813105 64.084272006643,185.63798768405104 65.41093032958452,186.17995458017685 67.47601168125402,186.9116074010526 67.71380892774323,186.96580379252555 67.93909052980598,186.95225469612342 68.2269503545831,186.84386188960343 69.34084272000473,186.2477003318636 73.09553608670831,184.13402132850024 73.25823946599849,183.93078170501394 73.33333333331393,183.68689386558253 73.32081768871285,183.45655505875766 73.22069253231166,183.21266660136462 73.2957863996271,183.5378511405579 73.28327075508423,183.78173917422828 73.15811430948088,184.02562689011393 72.9078014184488,184.24241570415325 72.05673758860212,184.70309110029484 71.93158114305697,184.81148514640518 67.45098039211007,186.88450919940078 64.00917813926935,185.59734010358807 63.72131831449224,185.5295941165241 63.496036712487694,185.5295941165241 61.68126825190848,186.2477003318636 59.76637463492807,186.93870559876086 59.51606174383778,187.1283928728517 58.87776387151098,187.96843420511868 58.639966624905355,188.1581204358663 58.277012932812795,188.33425747806905 57.7763871505158,188.41555144164886 57.45098039211007,188.38845345769369 57.175636211934034,188.30715948235593 56.42469753860496,187.91423810389824 56.024196912767366,187.81939488898206 53.4459741343162,188.13102241464367 52.79516061738832,188.1852184531599 51.305798915273044,188.23941447593097 50.81768877763534,188.2800614827429 50.16687526070746,188.4561984102038 49.165623696229886,188.94396134444105 48.802670004137326,189.07945082287188 48.46474760118872,189.2826848566474 47.901543596119154,189.72979895444587 47.57613683771342,189.9059345179412 47.025448477244936,190.1091676545475 46.51230705040507,190.19046084744332 46.01168126822449,190.231107430649 45.59866499790223,190.21755857056996 45.09803921566345,190.1498142554192 44.69753858988406,190.02787442640692 44.17188151850132,189.82464120154327 43.671255736320745,189.52656540602038 43.27075511048315,189.22848913590133 42.682519816444255,188.70008003615658 42.49478514806833,188.57813926287054 42.08176887774607,188.40200245015149 41.63120567367878,188.32070848070725 36.68752607423812,188.3749044642609 36.12432206928497,188.40200245015149 35.88652482262114,188.4561984102038 35.67375886521768,188.55104130250402 34.99791405920405,189.10654870678263 34.73508552351268,189.29623378442193 34.43471005419269,189.4046251710388 34.034209428413305,189.4588208408386 33.708802669949364,189.4181740899512 33.40842720068758,189.3233316369442 33.14559866493801,189.14719552533643 32.55736337089911,188.67298209341243 32.23195661243517,188.49684536991117 31.956612432200927,188.41555144164886 31.568627450906206,188.38845345769369 28.08927826449508,188.46974739774305 27.15060492279008,188.57813926287054 26.26199415931478,188.78137384090223 24.47225698787952,189.43172300788865 23.521068001631647,189.6485055615194 23.458489778917283,189.68915226239187 23.43345848971512,189.7704456376523 23.43345848971512,189.78399453008024 23.521068001631647,189.78399453008024 24.347100542334374,189.4588208408386 24.647476011654362,189.39107625116594 26.337088026688434,188.79492280491104 27.188151856476907,188.61878619613708 28.001668752578553,188.5103943545255 31.581143095507286,188.46974739774305 32.06925323314499,188.49684536991117 32.29453483520774,188.56459028316021 32.569879015383776,188.68653106529382 33.245723821397405,189.22848913590133 33.508552357088774,189.3775273302599 33.80892782640876,189.47236975580745 34.10930329572875,189.51301649492234 34.509803921566345,189.4588208408386 34.79766374634346,189.35042948556656 35.06049228197662,189.17429339942464 35.68627450976055,188.61878619613708 35.94910304545192,188.46974739774305 36.22444722568616,188.40200245015149 41.518564872734714,188.38845345769369 42.05673758860212,188.42910043214215 42.419691280752886,188.57813926287054 42.87025448476197,188.88976552558597 43.59616186894709,189.51301649492234 44.07175636210013,189.82464120154327 44.37213183147833,189.97367892132024 45.09803921566345,190.2040097094723 45.67375886521768,190.2717540050362 46.24947851477191,190.28530286117166 46.82519816438435,190.2040097094723 47.21318314556265,190.09561878566456 48.31455986649962,189.58076104048814 47.47601168125402,189.9872277990944 46.92532332078554,190.1769119844248 46.08677513553994,190.28530286117166 45.29828952852404,190.21755857056996 44.67250730074011,190.06852104491554 44.084272006643005,189.81109231204027 43.48352106800303,189.43172300788865 42.6574885273003,188.70008003615658 42.18189403420547,188.41555144164886 41.90654985397123,188.33425747806905 41.468502294505015,188.32070848070725 37.16312056733295,188.33425747806905 36.06174384645419,188.3749044642609 35.861493533535395,188.4426494216459 35.548602419672534,188.64588414673926 35.04797663743375,189.10654870678263 34.86024196911603,189.24203806754667 34.52231956610922,189.3775273302599 34.07175636210013,189.4452719248511 33.771380892721936,189.4181740899512 33.420942845230456,189.29623378442193 33.15811430953909,189.1200976472901 32.7576136837597,188.7678248758748 32.457238214381505,188.55104130250402 32.269503546121996,188.4561984102038 31.994159365887754,188.3749044642609 31.093032957869582,188.3478064744413 28.126825198181905,188.36135546985315 27.325823946564924,188.46974739774305 26.499791405920405,188.64588414673926 24.309553608647548,189.4046251710388 23.633708802692126,189.52656540602038 23.558614935318474,189.55366322520422 23.546099290717393,189.60785885184305 23.571130579861347,189.52656540602038 23.508552357088774,189.2555869982607 23.245723821455613,188.94396134444105 23.05798915307969,188.78137384090223 22.58239465992665,188.75427590990148 21.418439716333523,189.1878423350281 21.33083020435879,189.1607444628753 20.93032957863761,188.9710592479678 19.66624947852688,188.1716694450006 19.428452231979463,187.98198322797543 18.852732582425233,187.69745354205952 18.327075511042494,187.53486495593097 17.075511055474635,187.39937435963657 16.73758865246782,187.37227622861974 16.549853984091897,187.39937435963657 16.42469753860496,187.46711967005103 16.26199415931478,187.58906116701837 15.974134334595874,188.0090812707349 15.786399666278157,188.2123164664954 15.598664997902233,188.30715948235593 15.385899040440563,188.3749044642609 15.073007926577702,188.36135546985315 14.772632457199506,188.30715948235593 14.409678765048739,188.1581204358663 14.109303295786958,187.98198322797543 13.821443471009843,187.69745354205952 13.646224447235,187.48066872917116 13.420942845230456,186.95225469612342 13.38339591154363,186.62707608827623 13.458489778859075,185.80057791761647 13.370880267000757,185.0011745760712 13.558614935318474,181.817076539126 13.658740091777872,180.70601681685366 13.871506049239542,176.97985374359996 14.096787651185878,171.7902011882543 14.15936587395845,171.61404857595335 14.146850229473785,171.64114898863772 14.272006674960721,170.7332830269006 14.42219440964982,170.27257324203674 14.710054234426934,169.68990924248646 15.235711305751465,168.71428173861932 15.623696286987979,168.1316128862527 16.26199415931478,166.9933708235185 17.11305798916146,165.28599474475777 18.30204422189854,163.05012155379518 18.690029203135055,162.12866300798487 18.890279515995644,161.38336233432346 19.09052982891444,160.01471154537285 19.015435961598996,159.62173075541796 19.00292031711433,159.1203402729443 19.15310805174522,158.52409038213955 19.35335836460581,156.83018827644992 20.61743846477475,151.93811285917764 20.755110554862767,151.17921988802846 20.78014184400672,150.35256511130137 20.71756362117594,149.43104400334414 20.517313308257144,148.48241458952543 20.279516061767936,147.8048192045244 19.92907801416004,147.0730134304904 19.541093032981735,146.44962106755702 18.051731330808252,144.60653583735984 17.77638715057401,144.07800069115183 17.626199415884912,143.64432971160568" stroke="#ff0000" stroke-linecap="round" stroke-linejoin="round" stroke-width="0.5"><title>2024-02-23 23.5km</title><desc>10820938891</desc></polyline><polyline fill="none" points="132.1382860322483,141.62132190246484 132.22593210905325,141.8382523102773 132.3511407902115,141.94671741979255 132.6015581524698,142.02806621063792 133.7534780189162,142.04162433900638 134.404563160846,142.08229871823278 134.75514746800764,142.13653121008247 134.89287701720605,142.19076368618698 134.93043962155934,142.2449961466191 134.9179187535192,142.54327439767076 134.86783528100932,142.69241334480466 134.71758486365434,142.84155217303487 134.56733444624115,142.86866831082443 132.8144129103748,142.96357476216508 132.41374513081973,142.96357476216508 132.25097384530818,142.92290057466016 132.05063995550154,142.8144360312872 131.54980523092672,142.3399029144639 131.34947134112008,142.2043218027975 131.14913745131344,142.16364745009923 130.7359488036018,142.1229730885825 130.6608235948952,142.15008933057834 130.63578185864026,142.23143803297717 130.71090706734685,144.238028157386 130.8736783528002,144.97015703136276 131.1240957150585,145.64805158153467 131.46215915412176,146.24459675326943 131.78770172508666,146.70556217367994 132.91457985533634,148.04777854557324 133.20255982194794,148.48162420197332 133.52810239285463,149.13239079983032 133.6157484696596,149.33575489732902 133.62826933781616,149.45777324971277 133.91624930442777,150.18988169253862 134.06649972178275,150.81352736528788 134.12910406233277,151.4371709588886 134.1165831941762,152.11504207202233 134.14162493037293,151.96591063789674 134.0790205898811,151.0304471119307 133.85364496381953,149.8509429548576 134.0164162493311,150.51526230295713 134.10406232607784,151.0168896351388 134.16666666662786,151.6812048425927 134.14162493037293,152.52176356087148 134.04145798558602,153.17251610373205 133.72843628271949,154.50112884999544 132.6766833611764,158.5275812823529 132.6015581524698,158.97495953715406 132.50139120750828,160.2086334253254 132.36366165830987,160.7373483160627 132.37618252646644,161.74054682272254 132.2008903727983,162.97420247776608 132.05063995550154,163.55713583699253 131.59988870337838,164.57387572256266 131.31190873676678,165.3059250197548 131.06149137456669,165.8346255090728 130.48553144128527,166.8513530214259 130.09738452982856,167.69184359465726 129.2835281023872,169.16947109687317 128.55731775180902,170.38952170999255 128.33194212574745,170.9724319732195 128.30690038955072,171.2028843673179 128.2067334446474,171.2299963950063 127.86867000552593,171.1757723356568 127.6307735114242,171.0808801940293 127.86867000552593,171.1757723356568 128.15664997219574,171.21644038164231 128.29437952139415,171.2028843673179 128.44462993880734,170.7013111463457 128.38202559825731,170.76909138988412 127.93127434613416,171.58245239785174 127.61825264326762,172.30091834841005 127.39287701726425,173.79206529380463 127.44296048971592,174.3749649615056 127.39287701726425,175.4323132147838 127.00473010569112,182.42692816548515 126.71675013907952,186.3443406043225 126.70422927103937,186.77809749588778 126.76683361158939,187.6049437875481 126.67918753478443,188.41823166061658 126.7292710072361,188.66221733382554 126.89204229268944,189.01464052288793 127.10489705065265,189.3399536472134 127.28018920420436,189.5161646869965 127.75598219258245,189.84147694020066 128.06900389539078,189.9363595742616 128.4195882026106,189.99057820071175 128.79521424596896,189.97702354560897 129.02058987203054,189.8821409321099 129.22092376177898,189.71948491144576 129.5715080689406,189.2179612917971 129.8594880355522,188.97397634260415 129.90957150806207,188.86553848534822 135.7442960489425,190.32944426052563 136.420422927069,190.41077202366432 136.39538119087229,190.4378812701907 136.63327768503223,190.64120049405028 136.80856983858394,190.96651079316507 136.87117417919217,191.02072912140284 136.9713411240955,191.03428370099573 137.27184195880545,190.99361995926301 137.78519755142042,190.858074089585 138.71174179186346,190.50565436932084 139.46299387863837,190.27522573215538 140.51474680023966,190.05835146176105 141.5790205898811,189.9499142323475 142.54312743461924,189.90925025515025 145.147468002222,189.90925025515025 145.41040623257868,189.9363595742616 145.73594880354358,190.01768750809424 146.0489705063519,190.15323398596956 146.27434613241348,190.31588962991373 146.63745130773168,190.64120049405028 146.93795214249985,190.81741030955163 147.20089037285652,190.89873786075623 147.40122426266316,190.91229244921124 147.73928770166822,190.8851832713699 148.05230940453475,190.79030111797329 148.26516416249797,190.64120049405028 148.67835281020962,190.23456182557857 148.92877017252613,190.04479681150406 149.16666666668607,189.9499142323475 149.60489705059445,189.85503160514054 150.0556483027176,189.8279222742276 151.39538119087229,189.86858626910544 155.16416249301983,189.84147694020066 155.55230940453475,189.9228049152298 155.99053978850134,190.08546075927734 156.26599888701458,190.3023349983123 156.77935447968775,190.79030111797329 157.16750139120268,191.08850200967572 157.39287701726425,191.2240477125888 158.06900389539078,191.522247913701 158.46967167506227,191.63068423273216 158.94546466326574,191.69845690029615 159.45882025599713,191.7120114308491 159.95965498051373,191.65779330270016 160.38536449638195,191.5629115407064 160.78603227605345,191.4273660830222 163.5030606566579,189.97702354560897 163.85364496381953,189.86858626910544 164.29187534778612,189.78725827058952 165.96967167500407,189.70593023668334 167.1090706733521,189.62460216748877 168.32359488034854,189.48905530702905 169.07484696712345,189.36706304873223 169.40038953808835,189.35350834847486 169.66332776850322,189.36706304873223 169.9262659988599,189.43483653537987 170.1766833611764,189.52971937548136 170.7150806899881,189.8008129394293 170.95297718420625,189.8821409321099 171.20339454646455,189.90925025515025 171.62910406233277,189.8279222742276 171.91708402894437,189.70593023668334 172.1174179186928,189.57038343508611 172.3427935448126,189.31284424176556 172.70589872007258,188.77065530877735 172.90623260987923,188.59444356759195 173.18169170839246,188.40467689164507 174.90957150806207,187.82182089902926 175.78603227599524,187.49650513759116 176.53728436282836,187.17118881107308 176.95047301059822,187.04919504295685 177.12576516414993,187.04919504295685 177.32609905395657,187.10341450525448 178.07735114073148,187.4151761089597 178.5030606565997,187.5371696386719 178.77851975517115,187.7133823746699 184.08736783528002,186.98142069295864 184.33778519753832,186.8052072682476 184.66332776850322,186.6561034716724 186.3286032275646,185.70725834830955 186.51641624927288,185.51748874674377 186.60406232607784,185.27349897637032 186.60406232607784,185.0701739249489 186.5414579855278,184.8804036777292 184.83861992211314,181.46450634075154 184.7384529771516,181.24762186627777 184.75097384524997,181.19340070836188 185.6023928769864,182.8471389600454 186.3286032275646,184.324646847439 186.62910406233277,184.98884384254052 186.66666666668607,185.19216898229206 186.6541457985295,185.39549390129105 186.5790205898229,185.57170865252556 186.4412910406245,185.720813312495 186.20339454646455,185.88347280617745 184.07484696712345,187.02208530589996 181.5331107401289,188.43178642856947 181.22008903726237,188.55377929609676 180.98219254310243,188.56733405424166 181.2451307735173,188.55377929609676 181.55815247638384,188.44534119553282 181.17000556486892,188.54022453693324 180.85698386194417,188.4995602536801 179.09154145797947,187.848930520282 179.06649972172454,187.86248532947502 179.0790205898229,187.93025936059712 178.99137451307615,187.7811564597505 178.66583194211125,187.67271791183157 177.57651641621487,187.2389630923717 177.21341124095488,187.13052423050976 176.96299387869658,187.11696936836233 176.4120756816701,187.29318249976495 175.5856983861886,187.6320534401748 174.52142459654715,188.0386977593298 173.19421257649083,188.4860054906021 173.00639955478255,188.59444356759195 172.86867000552593,188.74354582093656 172.61825264326762,189.05530469429505 172.39287701720605,189.40772714366904 172.1925431273994,189.62460216748877 171.87952142459108,189.8279222742276 171.60406232613605,189.9363595742616 171.16583194211125,189.99057820071175 170.81524763494963,189.9499142323475 170.41457985527813,189.8279222742276 170.05147468001815,189.61104748588696 169.65080690034665,189.43483653537987 169.40038953808835,189.38061774804373 166.4955481357756,189.74659425804566 164.56733444629936,189.81436760732322 164.16666666662786,189.85503160514054 163.85364496381953,189.90925025515025 163.49053978850134,190.04479681150406 162.58903728437144,190.51920898622484 162.11324429605156,190.7089735196496 160.73594880354358,191.4273660830222 160.17250973841874,191.57646608106734 159.45882025599713,191.68490236876823 159.13327768503223,191.68490236876823 158.65748469665414,191.61712969630025 158.19421257649083,191.49513882413157 157.79354479693575,191.35959331736376 157.3427935447544,191.12916573081748 156.9796883694362,190.89873786075623 155.95297718414804,190.05835146176105 155.55230940453475,189.89569559412485 155.12659988866653,189.81436760732322 151.94629938784055,189.8008129394293 149.42960489704274,189.85503160514054 149.12910406233277,189.9228049152298 148.85364496381953,190.05835146176105 148.27768503059633,190.55987283101422 148.02726766827982,190.73608272298588 147.7142459654715,190.83096490390017 147.40122426266316,190.87162868095038 147.15080690040486,190.84451949723007 146.83778519753832,190.73608272298588 146.56232609902509,190.55987283101422 145.97384529770352,190.08546075927734 145.69838619919028,189.9634688894439 145.3352810239303,189.8821409321099 143.88286032277392,189.85503160514054 141.79187534778612,189.89569559412485 140.9279354479513,189.9499142323475 140.22676683362806,190.0719061109994 139.46299387863837,190.2481164621131 138.2359488036018,190.64120049405028 137.67250973847695,190.87162868095038 136.88369504729053,191.0478382796573 136.83361157483887,191.08850200967572 136.84613244293723,191.21049314668926 136.80856983858394,191.25115684139018 136.84613244293723,191.4138115318492 136.72092376183718,190.7496373232134 136.58319421258057,190.55987283101422 136.39538119087229,190.41077202366432 136.22008903726237,190.3565535188245 135.94462993880734,190.32944426052563 135.69421257654903,190.37010814651148 135.2685030606808,190.69541891649715 135.0932109070709,190.9394016231381 135.0556483027758,190.83096490390017 135.00556483026594,190.77674652068526 134.70506399555597,190.6547551011463 134.1917084028828,190.38366277322348 133.0022259320831,189.63815684813017 132.36366165830987,189.35350834847486 131.83778519753832,189.20440658074222 130.24763494712533,189.00108579709195 129.8594880355522,189.01464052288793 129.7217584863538,189.05530469429505 129.5339454646455,189.19085186868324 129.17084028938552,189.70593023668334 128.9955481357756,189.85503160514054 128.80773511406733,189.9499142323475 128.58235948800575,189.99057820071175 128.26933778519742,189.97702354560897 127.96883695048746,189.89569559412485 127.61825264326762,189.7330395852332 127.31775180861587,189.54327406299126 127.11741791875102,189.3399536472134 126.9421257651411,189.09596885692736 126.79187534778612,188.83842901124444 126.6917084028828,188.55377929609676 126.66666666668607,188.26912914826244 126.7292710072361,187.4558406277065 126.67918753478443,186.7645426082163 126.74179187539266,186.2630110752798 126.8670005564345,183.4842309466767 126.99220923759276,182.44048336712876 127.43043962161755,174.52407853845216 127.44296048971592,173.4260575981025 127.5932109070709,172.3280302170606 127.64329437952256,172.0975792082172 127.79354479687754,171.7586801504076 128.35698386200238,170.76909138988412 128.707568169164,170.21329266836983 129.4713411240955,168.81701055026497 130.0473010573187,167.77318119174743 130.49805230938364,166.81068402697565 131.06149137456669,165.79395629372448 131.8127434612834,164.28918911142682 132.0255982193048,163.76048425605404 132.16332776850322,163.2995608557103 132.3511407902115,161.99812394993205 132.43878686701646,161.64564989702194 132.3887033945648,161.2660617128713 132.37618252646644,160.68312121651252 132.47634947131155,160.39842868618143 132.55147468001815,160.37131508925813 132.61407902056817,158.98851643729722 132.7142459654715,158.35134107006888 133.95381190872286,153.7012508779735 134.09154145797947,153.03694284397352 134.1541457985295,152.38618982949993 134.1541457985295,151.49140073833405 134.06649972178275,150.74573989288183 133.89120756811462,150.00007607509906 133.6533110740129,149.3221972977044 133.19003895379137,148.44095121444843 132.7518085698248,147.79018221098522 132.5639955481165,147.31566171857412 132.3887033945648,146.97671777266078 131.46215915412176,145.6887251764274 131.42459654982667,145.5395886186452 131.374513077375,145.0786203245516 131.2743461324717,144.80746197374538 130.8361157484469,144.45495552997454 130.74846967164194,144.3193759515998 130.7359488036018,144.08889044282841 130.7985531441518,144.0211005332385 130.8736783528002,144.0211005332385 130.7609905397985,143.85840465000365 130.71090706734685,143.62791857314005 130.6608235948952,142.1229730885825 130.67334446299355,142.08229871823278 130.72342793544522,142.08229871823278 131.36199220921844,142.2043218027975 131.56232609902509,142.32634480770503 132.03811908734497,142.80087795895815 132.16332776850322,142.88222637826402 132.33861992211314,142.93645863815618" stroke="#ff2600" stroke-linecap="round" stroke-linejoin="round" stroke-width="0.5"><title>2024-01-12 21.5km</title><desc>10543784153</desc></polyline></svg>