<?xml version="1.0" encoding="utf-8" ?>
<svg baseProfile="full" height="200mm" version="1.1" viewBox="0,0,200,200" width="200mm" xmlns="http://www.w3.org/2000/svg" xmlns:ev="http://www.w3.org/2001/xml-events" xmlns:xlink="http://www.w3.org/1999/xlink"><defs /><rect fill="none" height="200" width="200" x="0" y="0" /><polyline fill="none" points="67.45088098908309,85.5 67.67794872750528,85.40163705627492 67.57198378292378,85.30327406972356 67.63253517978592,85.38524322817102 68.05639495817013,85.28688023447467 68.419703339634,84.92621555789083 68.93439021334052,84.8442462329258 69.13118225324433,84.13930881068518 69.50962848396739,84.07373312469281 69.99403965921374,84.23767230394878 70.22110739757773,84.04094527458074 70.20596954837674,83.82782413276436 70.29679664381547,83.90979382644582 70.20596954837674,83.99176349045592 70.61469147750176,83.7786423022626 70.70551857288228,83.61470278991328 71.17479189886944,83.56552091303456 71.09910265280632,83.48355109441036 71.41699748655083,83.23764146010217 71.85599511413602,83.28682340837258 71.82571941567585,83.38518727279734 72.14361424947856,83.6474907019292 72.05278715409804,83.56552091303456 72.2041656463407,83.51633902541653 72.44637123402208,83.07370155521494 72.91564456000924,83.02451956055302 72.83995531388791,82.9261555391422 72.83995531388791,83.02451956055302 73.03674735379172,82.89336752242525 73.14271229837323,82.95894355102791 73.20326369529357,82.81139745994005 72.82481746462872,82.48351691265998 72.55233617854537,81.97530112389359 72.64316327386769,81.59823705800227 72.24957919400185,81.51626652562118 72.0830628525,81.61463116093364 71.90140866173897,81.54905474216503 71.32617039122852,81.6638134624809 71.17479189886944,81.58184295390674 71.14451620046748,81.6638134624809 70.5692779297824,80.87689535235404 70.67524287442211,80.53261781723995 70.3724858899368,80.07358028765884 70.47845083440188,80.04079185698356 69.96376396075357,80.15555134351598 69.01007945946185,79.84406117307662 68.57108183187665,79.92603231217072 68.16235990275163,79.77848424039257 68.04125710896915,79.89324386011867 68.14722205355065,79.745695766891 68.13208420434967,79.68011880562699 67.99584356130799,79.64733031786454 67.34491604450159,78.7948279655393 66.69398852775339,78.6800677877909 66.51233433699235,78.7784336579789 66.07333670946537,78.66367347193591 65.87654466950335,78.7948279655393 65.93709606642369,79.02434814612207 65.78571757412283,78.89319378571236 65.72516617726069,78.99155956314644 65.75544187572086,78.81122227187734 65.46782274037832,78.82761657702213 64.96827371587278,78.53251890221145 64.74120597745059,78.61449051721138 64.78661952516995,78.49973024785868 64.78661952516995,78.63088483661704 64.69579242984764,78.53251890221145 64.87744662049226,78.56530755177664 64.81689522363013,78.61449051721138 64.89258446980966,78.54891322756885 64.75634382670978,78.53251890221145 64.68065458064666,78.6800677877909 64.71093027904863,78.56530755177664 63.7723836270161,77.54885720205493 62.773285578005016,77.13899689614482 62.44025289505953,76.89308035565773 62.182909458177164,76.56519121858582 62.01639311667532,75.94220054690959 62.01639311667532,76.02417310186138 62.01639311667532,75.86022796218458 62.001255267474335,75.97498957245261 62.1374959104578,75.77825534774456 62.076944513537455,75.31920815703052 62.2434608550393,75.1880516455276 62.21318515663734,74.8601600335096 61.698498282930814,74.20437538156693 61.289776353747584,72.89280036590935 61.19894925842527,71.8763244904112 60.714538083120715,71.20413631810516 60.608573138539214,71.236926031459 60.57829744013725,70.67950025702885 60.32095400325488,70.12207310681697 60.214989058615174,70.08928323161672 60.366367550974246,69.54824960339465 60.245264757133555,69.54824960339465 60.27554045559373,69.2367448053119 59.8668185264105,68.81047438534733 59.68516433570767,68.79407935313066 59.70030218490865,68.66291905249818 58.33789575455012,67.90874584586709 58.17137941304827,66.81027166977583 57.94431167462608,66.41678708305699 57.85348457930377,65.9413256260741 57.30852200713707,65.1379574414168 57.338797705597244,64.05586516513722 56.89980007795384,63.12132675378234 56.566767395008355,62.95737224779441 56.68787018879084,62.924581332321395 56.70300803805003,62.67864931431541 56.2942861088668,62.072015858168015 56.33969965658616,61.72770965808013 56.1883211642853,61.69491856402601 56.1883211642853,61.49817189970054 56.03694267204264,61.350611788919196 55.310325909173116,60.82595283641422 55.23463666299358,60.89153527216695 55.12867171841208,60.79316161140741 55.18922311539063,60.678392286397866 54.901603979989886,60.842348447142285 54.91674182924908,60.989908890027436 54.34150355862221,60.97351329000958 54.08416012173984,60.82595283641422 53.41809475584887,60.104544786241604 53.28185411274899,59.76023558608722 52.96395927894628,59.41592586095794 52.96395927894628,59.530695827677846 52.948821429745294,59.41592586095794 52.888270032883156,59.48150870621612 52.903407882142346,59.26836438945611 52.82771863596281,59.33394727758423 52.70661584212212,59.16999002156081 52.661202294402756,59.25196866445185 52.191928968415596,58.20263978753064 51.601552848587744,57.71076519774215 51.67724209470907,57.268077150773024 51.601552848587744,57.169701911334414 51.207968768663704,56.89097183351987 51.117141673283186,56.44828217916074 50.95062533183955,56.153155260690255 50.5721791011747,55.98919569485588 50.451076307334006,55.79244405867939 50.360249212011695,55.92361183515459 50.29969781509135,55.69406817627896 50.22400856897002,55.71046415963792 50.1331814735895,55.51371228057542 49.966665132087655,55.49731628289737 49.80014879058581,55.16939607959648 49.67904599674512,55.16939607959648 49.67904599674512,55.08741595434549 49.663908147544134,55.18579210108146 49.391426861460786,54.89066353229282 49.088669876917265,54.8414753999823 48.99784278153675,54.98903976473957 48.9372913846164,55.005435799321276 49.04325632925611,54.90705957404862 48.9372913846164,54.98903976473957 49.01298063079594,54.92345561455295 48.86160213849507,54.85787144530332 48.90701568615623,54.98903976473957 47.78681484336266,55.2677721906075 47.25699012045516,55.61208824154164 47.21157657285221,55.48092028404062 46.93909528671065,55.48092028404062 46.53037335758563,55.23498015837686 46.46982196072349,55.316960230018594 46.363857016083784,55.07101992574462 46.303305619221646,55.16939607959648 46.24275422224309,54.743099103245186 46.16706497617997,54.89066353229282 45.83403229311807,54.447969955785084 45.122553379507735,53.77572990185581 44.78952069650404,53.546184059159714 44.78952069650404,53.644560877481126 44.68355575186433,53.25105334703403 44.50190156121971,53.26744950780994 43.941801139793824,52.85754513066786 43.80556049681036,52.578809729078785 43.04866803542245,52.03773414356692 42.897289543179795,51.85737532688654 42.97297878930112,51.791790266899625 42.85187599546043,51.677016366113094 42.71563535241876,51.74260145939479 42.60967040777905,51.513053549439064 42.503705463255756,51.56224240692973 42.47342976479558,51.447468389436835 42.04956998641137,51.332694313532556 42.15553493105108,51.29990170974634 41.94360504182987,51.16873124684207 41.53488311270485,51.16873124684207 41.519745263503864,51.31629801224335 41.610572358826175,51.20152386970585 41.4743317157845,50.77521940073348 40.777990651433356,50.20134672893619 40.641750008333474,49.13557932508411 39.99082249158528,48.5780989863415 39.763754753163084,48.25016873219283 39.65778980858158,48.29935830069007 39.80916830082424,47.72547933465103 39.50641131628072,47.47953075970872 39.40044637169922,47.29916830112052 39.44585991941858,46.82366658310639 39.0976893871557,46.72528679219249 38.74951885500923,46.2497838652198 38.49217541812686,46.16780050074158 38.20455628284253,45.57751939717855 37.91693714749999,45.36436195264105 38.47703756886767,44.823269073982374 38.49217541812686,44.67569806375832 37.90179929829901,44.08541305808467 37.38711242453428,43.757476276761736 37.17518253537128,43.00321987144707 36.94811479700729,42.85564767126925 36.79673630470643,42.82285383588169 36.90270124928793,42.49491522008611 37.31142317841295,42.019403380851145 37.11463113850914,41.54389053970226 37.20545823383145,41.37992036216019 37.356836726132315,41.34712631236471 37.6898694090778,41.494699498915 37.90179929829901,41.44550844747573 38.31052122742403,41.06837669668312 38.613278211967554,40.96999439717911 38.62841606116854,40.494479345026775 38.74951885500923,40.37969969958067 39.61237626092043,40.6420530891337 39.73347905476112,40.494479345026775 39.7486169039621,40.592861851808266 40.59633646067232,40.150140233541606 40.73257710371399,39.871389139429084 40.747714952914976,39.969771917836624 40.929369143617805,39.92058053398796 41.898191494168714,39.33028309151996 42.27663772483356,38.47762850433355 42.62480825703824,38.14968357452017 43.457389964489266,38.03490273650095 43.71473340137163,37.477394978515804 43.95693898899481,37.24783256019873 44.00235253671417,36.70672022164217 44.19914457667619,36.23119618628698 44.01749038597336,35.72287628184131 43.80556049681036,34.19790969794849 44.07804178277729,34.11592195526464 44.441350164299365,34.31269248765602 44.85007209336618,33.93554881650198 45.25879402254941,34.05033173967968 45.56155100709293,33.05007858957106 45.697791650134604,33.09927147113194 46.12165142846061,33.41082613856997 46.40927056374494,33.24685005142237 46.757441095949616,33.42722374069854 47.3175415173755,33.31244050056557 48.46801805862924,33.738777955266414 48.710223646252416,33.62399487361836 49.103807726176456,33.738777955266414 49.45197825838113,33.60759728576522 49.482253956841305,33.26324766551261 49.72445954446448,33.09927147113194 50.239146418171,33.14846434195351 50.46621415653499,33.05007858957106 50.46621415653499,33.14846434195351 50.55704125191551,33.03368096004124 50.63273049809504,33.197657202064875 50.52676555351354,32.951692794362316 50.67814404569799,32.312184079462895 51.05659027642105,32.04982100542111 51.45017435628688,31.689071280503413 51.889171983872075,31.14794561173767 52.358445309859235,31.229934432849404 52.43413455603877,31.049558987040655 52.358445309859235,30.442840520263417 51.737793491687626,30.541227409499697 51.404760808625724,30.14767959517485 50.90521178412018,29.852518283951213 50.92034963343758,29.39337769895792 50.647868347296026,29.016225805229624 49.54280535370344,28.688267124278354 49.45197825838113,28.442297800676897 49.42170255986275,28.04874632519204 48.99784278153675,28.114338285435224 49.103807726176456,28.065144317035447 48.634534400189295,28.097940297186142 48.54370730480878,28.01595033791091 48.67994794779224,28.229124170000432 48.66481009859126,28.097940297186142 48.55884515400976,28.114338285435224 48.66481009859126,28.147134258426377 48.60425870161271,27.75358226808021 48.45288020942826,27.60600009468908 47.847366240341216,27.638796141545754 47.49919570813654,27.474815859546652 47.18130087427562,27.802776304393774 46.98450883443002,27.85197033001168 46.57578690524679,27.29443741166324 45.65237810247345,27.081262696403428 45.198242625570856,26.654912661615526 45.03172628412722,26.32695054812939 45.13769122870872,26.212163695759955 45.86430799163645,26.212163695759955 46.21247852384113,26.048182376820478 45.879445840837434,25.326663157335133 46.40927056374494,25.16268119473534 46.348719166824594,24.539548649729113 45.86430799163645,24.293574802941293 45.682653800875414,24.30997306772042 45.53127530863276,24.014804118982283 46.40927056374494,23.408066733682062 46.46982196072349,23.260481717516086 46.12165142846061,22.834124461805914 45.54641315783374,22.65374230335874 45.198242625570856,22.079798112317803 45.71292949927738,21.57144632357813 45.95513508701697,20.948303858473082 46.15192712692078,20.83351426923764 46.60606260376517,21.456657051458023 47.3175415173755,21.456657051458023 47.66571204958018,21.83382158340828 47.69598774804035,21.719032444801996 47.635436351178214,21.86661846943025 47.81709054188104,22.014204397521098 48.51343160623219,21.76822779707436 49.07353202771628,21.817423138592858 49.194634821556974,21.637040167173836 49.936389433569275,21.407461631242768 50.042354378208984,21.243476819669013 50.07263007661095,19.603622147347778 51.63182854698971,18.800089005904738 51.63182854698971,18.47211547246843 51.207968768663704,18.242533715296304 50.51162770425435,16.733847783470992 50.08776792592835,16.373073565540835 49.57308105222182,16.241882797708968 49.164359123038594,15.848310036511975 49.194634821556974,15.389140947110718 49.63363244908396,14.71678452238848 49.57308105222182,14.388805051275995 48.60425870161271,13.749243710801238 47.99874473258387,12.3553216845321 47.48405785881914,11.879746316219098 47.151025175873656,11.223778645260609 46.62120045290794,11.207379429033608 45.83403229311807,11.600960289186332 45.56155100709293,11.551762719245744 45.50099961011438,11.387770741872373 45.45558606245322,11.469766745474772 45.04686413338641,10.928592570853652 45.001450585667044,10.584208328989916 45.90972153929761,9.501854430811363 45.83403229311807,8.7802822793019 45.04686413338641,7.763517601371859 44.86520994262537,7.041939887334593 43.850974044413306,4.680396678624675 43.33628717070678,4.5655988089274615 42.36746482021408,4.647597293253057 42.322051272552926,4.532799406835693 41.92846719262889,4.532799406835693 41.41378031892236,4.66399698650639 41.2624018266215,4.5655988089274615 40.27844162686961,4.5 39.491273467079736,4.5 39.35503282409627,4.581998508176184 39.35503282409627,4.516399704036303 39.35503282409627,4.860793212879798 39.218792181054596,4.877192890678998 38.90089734719368,4.81159417242452 38.885759497992694,4.5 38.764656704152,4.893592567270389 38.18941843364155,5.008390269955271 38.2348319812445,5.2379855000035604 38.09859133826103,5.647976400781772" stroke="#4dd2ff" stroke-linecap="round" stroke-linejoin="round" stroke-width="0.5"><title>2023-11-18 16.3km</title><desc>10515816715</desc></polyline><polyline fill="none" points="125.92694187955931,70.94137908291304 120.38321564393118,71.41778466280084 115.27946768072434,71.98947090283036 112.33161325380206,72.13239238521783 111.49565453571267,72.27531383640599 109.99972840864211,72.32295431324746 108.19581749057397,72.46587572310818 106.74388919072226,72.41823525656946 106.25991309061646,72.22767335613025 106.08392178174108,71.9418304017745 105.99592612730339,71.56070626946166 106.03992395452224,65.74853586842073 105.95192830008455,63.79525394953089 105.68794133630581,61.794324989430606 105.68794133630581,60.079238175356295 105.5119500271976,58.0782979024807 105.55594785464928,54.69574215920875 105.5119500271976,52.64714359672507 105.20396523643285,50.02683380234521 104.5,46.07252833322855 104.5,45.31024984479882 104.67599130910821,44.833825340436306 104.93997827288695,44.40504299127497 105.64394350908697,43.64276256860467 108.72379141789861,40.73656034539454 113.78354155342095,35.73405100614764 118.13932645297609,31.732016114867292 120.11922868015245,30.016850842745043 121.21917436178774,29.302197324635927 123.3750678980723,27.539381990151014 127.15888104285114,24.25195697596064 128.74280282459222,23.108500941598322 130.41472026100382,21.631533952080645 131.95464421529323,20.39278488472337 133.31857686047442,19.58283230860252 134.72650733287446,18.868167441803962 136.3544269418344,18.20114619791275 138.02634437801316,17.86763532209443 140.13824008684605,17.67705760273384 141.10619228659198,17.72470203769626 142.82210755045526,17.915279743319843 146.20994025003165,18.582301277318038 151.00570342200808,19.01110047736438 152.72161868563853,19.05874481558567 156.19744703965262,18.77287873410387 160.3332428028807,18.77287873410387 163.985062466003,18.868167441803962 165.04101032041945,19.05874481558567 165.7449755568523,19.344610772794113 166.53693644749,19.96398658643011 167.63688212935813,21.01215971034253 169.1328082564287,22.58441626088461 171.68468223814853,24.776040326745715 173.79657794674858,26.92001331737265 177.31640412821434,30.636216596292797 180.9242259641178,34.68590136669809 182.90412819106132,37.11570024921093 183.652091254713,38.30677485122578 184.40005431813188,39.8313471917063 184.88403041800484,41.45120142784435 185.19201520923525,42.928123869292904 185.36800651834346,44.69089792179875 185.5,53.83819004968973 185.36800651834346,67.36832622770453 185.28001086367294,68.17821991047822 185.14801738178357,68.6546274930588 184.84003259101883,69.03575331054162 184.62004345469177,69.17867543513421 183.87208039104007,69.3215975286439 179.95627376413904,69.51216027152259 170.71673003793694,69.60744162229821 166.88891906570643,69.36923821951495 163.67707767523825,69.4645195910125 160.28924497566186,69.41687890689354 154.04155350336805,69.75036362255923 151.6216730037704,69.70272295933682 143.92205323209055,69.84564493881771 134.33052688767202,69.84564493881771 130.72270505153574,70.17912943690317 127.51086366106756,70.703176163428 117.08337859855965,71.65598732320359 112.7275936990045,72.13239238521783 111.71564367203973,72.22767335613025 109.38375882664695,72.18003287247848 107.49185225437395,72.32295431324746 106.83188484539278,72.27531383640599 106.47990222740918,72.13239238521783 106.25991309061646,71.84654938941821 106.12791960895993,71.41778466280084 105.86393264541402,67.22540370951174 105.68794133630581,62.985354866134 105.7759369907435,60.50801029842114 105.95192830008455,59.555182978336234 105.86393264541402,53.933473672601394 105.5119500271976,49.83626540971454 104.89598044543527,47.16830211144406 104.71998913632706,46.21545545133995 104.7639869635459,45.59610438148957 104.98397610010579,44.78618287097197 105.46795219997875,44.1668304540799 107.84383487235755,41.87998570443597 109.1637696903199,40.49834647838725 114.97148288995959,34.97176052501891 116.20342205325142,33.97125292662531 119.63525258004665,30.779147071938496 122.84709397074766,28.11110640061088 124.87099402514286,26.205356431135442 127.33487235195935,24.01373713288922 129.97474198811688,21.869754658837337 132.35062466049567,20.059275121311657 134.2425312330015,18.963456135592423 136.13443780550733,18.10585739358794 137.98234655079432,17.67705760273384 139.17028788710013,17.534124276950024 140.71021184138954,17.581768722389825 142.29413362313062,17.72470203769626 146.0339489406906,18.5346569045214 149.02580119483173,18.868167441803962 152.94160782173276,18.868167441803962 156.32944052154198,18.582301277318038 160.5972297664266,18.5346569045214 164.42504073888995,18.77287873410387 164.9970124932006,18.868167441803962 165.48098859307356,19.05874481558567 166.3609451383818,19.725765188690275 169.1328082564287,22.536772178311367 171.37669744691812,24.490176732710097 172.52064095600508,25.53834263596218 177.6243889189791,30.96972099103732 182.1121673004236,36.115195915161166 183.25611080927774,37.735059311729856 184.26806083647534,39.593132996640634 184.57604562747292,40.40306090761442 185.01602390012704,41.87998570443597 185.28001086367294,43.73804766975809 185.36800651834346,52.31365020311205 185.28001086367294,55.648576524225064 185.45600217278115,61.69904250605032 185.36800651834346,67.13012201344827 185.3240086908918,68.0352975683636 185.19201520923525,68.5593460042146 185.10401955456473,68.7975497005391 184.70803910912946,69.17867543513421 184.13606735458598,69.36923821951495 183.52009777282365,69.41687890689354 179.78028245503083,69.60744162229821 172.4766431285534,69.65508229256375 170.23275393806398,69.60744162229821 167.24090168392286,69.36923821951495 163.54508419334888,69.41687890689354 160.28924497566186,69.4645195910125 158.44133623014204,69.60744162229821 154.52552960347384,69.79800428246381 151.26969038578682,69.75036362255923 149.94975556759164,69.89328559173737 147.66186854965053,69.75036362255923" stroke="#4dd2ff" stroke-linecap="round" stroke-linejoin="round" stroke-width="0.5"><title>2023-11-17 11.0km</title><desc>10515814213</desc></polyline><polyline fill="none" points="56.94966906809714,152.27185457882297 56.75987827387871,152.2921709005459 56.58734118810389,152.21090560029552 56.53558006242383,152.12964026484406 56.466565228183754,151.90616041030444 56.19050589110702,151.9467931309191 56.104237348306924,152.00774219541927 56.0869836396887,152.41406878479756 56.05247622256866,152.69849687266105 56.069729931186885,152.7188131481089 56.069729931186885,153.12513819432934 55.9144465540885,154.1409469521459 55.759163176990114,155.64433380012633 55.46585013135336,157.2492875187745 55.34507417137502,158.2650739029632 55.36232787993504,158.44791486689064 55.53486496559344,158.9964366875065 55.86268542835023,160.43883825145895 56.60459489672212,163.62833465672156 56.77713198232232,164.50188152017654 56.96692277659895,165.1316453358304 57.45002661651233,167.26470058945415 57.77784707926912,168.8086111398734 57.98489158204757,169.66181940451497 58.05390641634585,170.088422079265 58.17468237626599,170.49470943743654 58.329965753422584,171.12445310071053 58.95109926175792,173.90748844925838 58.985606678936165,174.13094204873778 58.985606678936165,174.39502323159832 59.037367804616224,174.47627890521835 59.14089005597634,174.69973182602553 59.261666016012896,175.1669507080369 59.675755021569785,176.9545600178244 59.727516147191636,177.34051887923852 60.08984402718488,178.70152535925445 60.57294786698185,180.9563053757156 61.280349918291904,183.90169784436875 61.48739442101214,184.63296052187798 61.746200049470644,185.24234390574566 62.298318723682314,186.27829110865423 63.00572077493416,187.25329500730732 63.14375044341432,187.39548265191843 63.23001898621442,187.61892016101046 63.40255607198924,187.78142000018852 63.661361700389534,188.26891867209633 64.90362871717662,190.0564029483212 65.17968805425335,190.52358352721785 66.21491056826198,191.94543029431952 66.54273103107698,192.47354205921874 67.19837195653236,193.36726626989548 68.4061315561994,195.1140785528114 68.59592235041782,195.418753445716 68.6649371846579,195.5 68.64768347615609,195.418753445716 68.47514639049768,195.23594856941781 66.232164276822,191.9860543290415 65.78356785408687,191.4173170405702 65.40398626565002,190.80795374400623 65.04165838571498,190.3204616795847 64.23073408316122,189.06110130804882 64.00643587176455,188.7767284395668 63.557839449029416,188.12673169051413 63.29903382057091,187.65954513398174 63.16100415197434,187.557982684928 63.07473560917424,187.33454510317824 62.88494481489761,187.1111072548374 62.298318723682314,186.29860374162672 61.918737135245465,185.62828569015255 61.72894634096883,185.28296939416032 61.50464812957216,184.7345245568431 61.280349918291904,184.04388803301845 61.107812832517084,183.41418780668755 60.659216409840155,181.34225599122874 60.48667932418175,180.69223344375496 60.262381112843286,179.5546885576041 60.038082901446614,178.76246571658703 59.83103839860996,177.66553625093366 59.693008730129804,177.1576963598054 59.14089005597634,174.74035960115725 58.9338455531979,174.27313965500798 58.9338455531979,173.90748844925838 58.86483071895782,173.5215225132706 58.20918979338603,170.65722413387266 58.071160124847665,170.12905085469538 57.48453403363237,167.48816211473604 57.19122098799562,166.3708518215135 56.96692277659895,165.19259010885435 56.34578926820541,162.65320776334556 56.20775959972525,161.94217453568126 55.500357548415195,158.89485869383498 55.379581588553265,158.3666522383428 55.36232787993504,158.1634955124755 55.379581588553265,157.81812857279147 55.776416885550134,155.17706620776153 55.94895397115033,153.55177854384237 56.0869836396887,152.75944569241256 56.069729931186885,152.02805854586768 55.96620767976856,151.56078192863788 55.87993913691025,151.35761781831388 55.24155191995669,150.24021127074957 55.13802966859657,149.7119803995447 55.06901483429829,149.52913090461516 54.844716622901615,149.20406469490263 54.55140357732307,148.65551418626274 54.10280715464614,147.94442780142708 53.61970331473276,147.37555674898613 53.067584640637506,146.82700088284037 52.60173450928414,146.23780945855833 52.18764550372725,145.91273753419227 52.04961583518889,145.75020136030798 51.08340815542033,144.36863818528946 50.28973756136838,143.33245911319682 49.70311147009488,142.39786130539142 49.20275392167969,141.74770355674264 48.667888956086244,140.97563829760475 48.3745759105077,140.58960447393474 48.13302399055101,140.14261694681772 47.7879498192342,139.7565814053669 47.529144190775696,139.35022734382073 47.2013237279607,138.96419016833534 46.977025516622234,138.61878781019186 46.63195134536363,138.21243127889466 45.51046028849669,136.58699633239303 45.21714724285994,136.11968117310607 44.82031194580486,135.59141045773868 42.57732983218739,132.46239180739212 42.404792746470775,132.03570339331054 42.09422599233221,131.52773972744762 41.766405529517215,130.53212694356625 41.52485360961873,129.49587127882114 41.421331358200405,128.662798839272 41.36957023257855,127.89067960891407 41.404077649640385,127.36238566868997 41.36957023257855,125.7368564997887 41.404077649640385,124.65993565070676 41.36957023257855,123.21725838733255 41.404077649640385,122.66863172074954 41.36957023257855,121.8964877617982 41.38682394102216,121.46977525981492 41.36957023257855,120.59602757733956 41.38682394102216,119.66131623818364 41.438585066760425,119.05171937141859 41.438585066760425,114.5 41.404077649640385,114.54064084139827 41.404077649640385,114.62192249760847 41.438585066760425,117.18227659823606 41.45583877537865,117.81219961876923 41.404077649640385,120.25059132190654 41.438585066760425,121.06338149630756 41.38682394102216,122.14032304035209 41.421331358200405,123.4204530409479 41.438585066760425,124.17227134104178 41.38682394102216,124.92408662120579 41.404077649640385,126.06196346294018 41.404077649640385,126.52930373324489 41.352316523960326,127.07791908323998 41.36957023257855,128.13450707840093 41.45583877537865,128.9879007202253 41.64562956959708,130.00384045876854 41.7491518210154,130.36957741473452 41.99070374091389,131.06041193731653 42.21500195231056,131.60901400663715 42.715359500667546,132.60462106256455 43.0949410891626,133.11258180605364 43.44001526047941,133.66117786077666 44.14741731173126,134.55518280121032 46.977025516622234,138.65942341486516 47.73618869355414,139.67531066360243 48.21929253335111,140.22388748567028 48.49535187048605,140.77246270015894 49.133739087497815,141.62579872753122 49.61684292729478,142.19468725152547 50.186215310008265,143.08865143923322 51.92883987521054,145.52671389092575 52.10137696086895,145.81115244208195 52.34292888082564,146.09559056110447 52.774271595000755,146.3597112847201 53.447166229074355,147.27397245059547 53.70597185759107,147.49745783432445 54.03379232028965,147.72094295125862 54.2408368231263,147.96474459275487 54.413373908784706,148.24917943993933 54.87922404007986,149.16343137901276 55.01725370861823,149.63071397939348 55.034507417236455,149.83387996364036 55.06901483429829,149.12279805433354 54.89647774869809,149.0212147039274 54.75844808004331,148.87899792080862 54.396120200224686,148.37107995639963 54.223583114508074,148.00537816880387 53.93027006887132,147.6599924912589 53.412658811954316,147.09112057459424 52.89504755492089,146.6035146987997 52.5672270921641,146.21749247983098 52.32567517226562,146.05495657055872 52.11863066942897,145.8517864854948 51.135169281158596,144.4295897167758 50.186215310008265,143.21055531593447 49.5478280929965,142.17436983397056 49.185500213177875,141.74770355674264 48.35732220194768,140.58960447393474 48.08126286487095,140.14261694681772 47.615412733634,139.59403988662234 46.06257896259194,137.35907969178515 44.83756565436488,135.69300109572941 43.923119100392796,134.3113636954513 42.73261320928577,132.70621332152223 42.301270495168865,131.91379223926924 41.81816665525548,130.73531365611416 41.662883278215304,130.16639030519582 41.404077649640385,129.02853841564502 41.3350628153421,127.40302371697908 41.38682394102216,126.8544093199016 41.38682394102216,122.52639491502487 41.421331358200405,119.80355522139871 41.36957023257855,118.88915987159999" stroke="#4dd2ff" stroke-linecap="round" stroke-linejoin="round" stroke-width="0.5"><title>2023-10-01 12.0km</title><desc>10515810517</desc></polyline><polyline fill="none" points="146.18187973846216,170.84975133219996 146.22334920294816,170.95959114156722 146.43069652549457,171.20367922318837 147.31192264630226,172.42411169323896 147.37412684306037,172.4729287168375 147.40522894141031,172.53394996662973 147.79918885428924,173.0709355384388 147.96506671229145,173.32722320387984 148.00653617683565,173.42485644681437 148.02727090904955,173.40044814400608 148.00653617683565,173.32722320387984 147.9754340784275,173.36383567989105 148.04800564126344,173.44926474427484 148.3071897944901,173.92522548784473 148.92923176207114,175.18224034168816 149.0225380572374,175.26766802638303 149.1054769862676,175.30427987135772 149.17804854916176,175.27987197606126 149.32319167489186,175.08460862272477 149.35429377330001,174.91375291079748 149.43723270233022,174.8893449307725 149.64458002481842,174.9015489214362 149.77935578447068,174.86493694547244 150.44286721659591,174.5720407090921 151.1374807471875,174.2303274703154 151.30335860518971,174.18151120867697 151.35519543575356,174.18151120867697 151.3240933374036,174.21812340690667 151.1374807471875,174.2547355932038 150.1940504295635,174.70628491204116 149.69641685549868,174.8893449307725 149.50980426522437,174.91375291079748 149.47870216681622,174.91375291079748 149.32319167489186,174.96256885496405 149.33355904108612,175.04799670628563 149.76898841839284,175.68260157279292 149.64458002481842,175.7436210829619 149.44760006846627,175.7680288777774 149.41649797005812,175.80464056007622 149.46833480068017,175.90227165472606 149.93486627639504,176.39042585804418 150.03853993769735,176.42703733795497 150.1318462328636,176.40262968599563 150.20441779569956,176.42703733795497 150.52580614568433,176.87857794496085 150.992337621341,177.40333907800232 151.1582154794014,177.5741910121942 151.18931757775135,177.64741319035966 151.31372597132577,177.70843163575773 153.11764767736895,179.50235915445228 153.39756656280952,179.75863218119775 153.89520013687434,180.13693891662842 154.01960853039054,180.25897307626292 153.99887379817665,180.35660030877625 153.9263022352825,180.52744776199688 153.77079174335813,180.72270167683746 153.79152647563023,180.72270167683746 153.78115910949418,180.72270167683746 153.58417915308382,180.95456526100315 153.59454651921988,180.99117525693873 154.56907893513562,181.74777917533356 155.37773349304916,182.43115899030818 156.27969434612896,183.11453465816885 156.52851113310317,183.33419024215982 158.31169810699066,185.06701371623785 158.7885969488416,185.57953385979636 159.17218949552625,186.03103776807984 159.74239463248523,186.82421592656465 160.67545758391498,188.00787140557804 164.9675471605151,193.59650966443587 165.16452711692546,193.95036607110524 165.22673131368356,194.15779862028285 165.26820077816956,194.36523078745813 165.26820077816956,194.49945139796182 165.1956292152754,194.76789213912707 164.91571032983484,195.31697348084708 165.14379238465335,195.5 164.9260776959709,195.35357880849187 164.58395461377222,193.1328340695909 164.1485252364655,192.53493377455015 163.78566742199473,192.0834559384457 163.65089166234247,191.88822171912034 163.0599517931114,191.15609038269758 162.75929817539873,190.72901157204615 162.71782871097093,190.74121384628233 162.74893080932088,190.72901157204615 162.72819607704878,190.70460701967386 162.76966554159299,190.72901157204615 162.75929817539873,190.70460701967386 162.66599188034888,190.619191044716 162.31350143201416,190.1799078645563 161.89880678692134,189.6185990855156 161.60852053534472,189.27693150256528 160.74802914680913,188.12989703629137 160.4577428952325,187.7882249371396 159.8979051244096,187.00725624676124 159.037413735874,185.8601986643116 158.68492328753928,185.4575054657398 158.1976570796105,184.95718766772188 157.48230881680502,184.28602615516138 156.42483747191727,183.24876867706917 155.54361135110958,182.55319066371158 154.85936518671224,182.05285996231396 153.77079174335813,181.1742250582247 153.15911714185495,180.7471083923956 152.82736142585054,180.46643084417155 152.59927937103203,180.24676966622792 152.39193204848561,179.99049775043386 151.90466584055685,179.4657486744327 150.61911244079238,177.98911605875765 149.80009051674278,177.12265319480503 149.3750285055139,176.64670596754877 149.2506201120559,176.46364880600595 149.1676811829675,176.40262968599563 149.1469464507536,176.43924116194103 149.15731381688965,176.46364880600595 149.34392640716396,176.5734831386435 149.41649797005812,176.6833173641353 150.0489073038334,177.3301167411555 150.08000940218335,177.3423204672581 150.12147886666935,177.3301167411555 150.08000940218335,177.3301167411555 150.08000940218335,177.3667279155634 150.1525809650775,177.48876507751265 150.49470404727617,177.85487576986634 151.56254275829997,179.0386255281701 151.8528290098766,179.34371365512925 152.0809110646951,179.5389696225393 152.41266678075772,179.9660908709193 152.91030035488075,180.51524438109482 153.50124022411183,180.97897192626988 153.56344442086993,181.00337858631246 153.65675071597798,180.95456526100315 153.8226285740384,180.6982949559897 153.99887379817665,180.4542274566411 154.0299758965848,180.39321049913997 154.0299758965848,180.34439690934232 153.8848327707965,180.36880370687868 153.81226120790234,180.4786342303778 153.78115910949418,180.51524438109482 153.75005701114424,180.51524438109482 153.58417915308382,180.35660030877625 153.32499499997357,180.05151492617006 153.1487497757771,179.9782943113387 153.0658108466887,179.90507364889345 152.51634044200182,179.29489961036597 152.31936048564967,179.11184675404365 150.28735672472976,176.82976283149765 150.26662199245766,176.75654012163432 150.34956092148786,176.70772495528217 150.37029565370176,176.67111356660462 150.34956092148786,176.6100945590224 150.2355198940495,176.43924116194103 150.16294833121356,176.31720286243944 149.91413154412294,176.01210653499584 149.67568212322658,175.58497028766578 149.43723270233022,175.2310561694394 149.2091506475117,174.97477283766057 148.8981296637212,174.4988165309769 148.71151707344688,174.2547355932038 148.62857814441668,174.08387862190284 148.49380238476442,173.92522548784473 147.58147416560678,172.57056270060275 147.14604478830006,171.99696183360356 146.98016693018144,171.8749187189169 146.9490648318315,171.8261014359814 146.89722800120944,171.81389711192605 146.8661259028013,171.78948845991545 146.26481866743416,170.98399997358501 146.1300429077819,170.7643202952604 145.55983777082292,170.00764256667026 145.1451431257883,169.40961947330652 144.21208017430035,168.2745873147578 143.9114265566459,167.83521695517993 143.7870181631297,167.74978363057744 143.24791512457887,167.0907243756592 142.7399141843198,166.28520226851106 142.36668900371296,165.79700424669863 141.52693234744947,164.53988459492393 141.21591136365896,164.13711513495218 140.77011462015798,163.44141903682612 140.50056310085347,163.08746674010035 140.3243178767152,162.80674516159343 140.2206442154711,162.6114601723093 140.1169705541688,162.5016122169618 140.06513372354675,162.37955880750815 139.9303579638945,162.25750526569027 139.77484747197013,162.00119239711057 139.60896961396793,161.793700599781 139.50529595266562,161.61061928450363 139.2772138979053,161.15901743360155 139.1528055043309,160.90270206351124 139.05949920922285,160.63418057360104 138.8210497883265,159.74317285829602 138.7795803238405,159.4502372742354 138.41672250936972,157.83907793324033 138.21974255295936,157.143342905787 137.86725210468285,155.4345017762098 137.7117416127585,154.83640125072998 137.58733321924228,154.5190404974419 137.56659848697018,154.26271000492125 137.39035326283192,153.3960644918916 137.0378628144972,151.98012225143611 136.92382178705884,151.38200336643786 135.45165579707827,144.9611799824852 135.43092106480617,144.74144950447953 135.44128843094222,144.60716955667158 135.6797378518968,143.06904235932598 135.75230941473274,142.71502597993094 135.77304414700484,142.34880096690904 135.87671780824894,141.57972455925483 135.87671780824894,141.26232641401293 135.8248809776269,141.03038104926236 135.8041462453548,140.8838889935505 135.60716628894443,140.43220395438402 135.39981896639802,140.13921809443127 135.36871686798986,140.04155597156932 135.3376147696399,139.7974002934643 135.30651267128997,139.71194568095234 135.0680632503354,139.40675010631094 134.85034856171114,139.04051432388223 134.66373597137863,138.69869318456767 133.9794898069813,137.91738382315816 133.51295833132463,137.5145190633266 133.43001940229442,137.42906271670654 133.19156998139806,137.05061240114446 132.9945900249877,136.79424210922298 132.88054899754934,136.611120114394 132.57989537989488,136.23266704711568 131.9474860461196,135.29263295167766 131.63646506232908,134.91417544853175 131.27360724791652,134.41363292420283 131.09736202377826,134.07179772519885 130.9003820673097,133.85204597726988 130.33017693035072,133.05849442436738 129.32454241602682,131.66671356559527 129.0757256289362,131.27603514127986 128.49515312589938,130.50688302786148 128.14266267756466,129.98190316839464 127.85237642604625,129.5912188919756 127.71760066633578,129.38366731815768 127.55172280833358,129.00518993283185 127.33400811965112,128.48020306401304 127.17849762772676,128.00405006378423 127.0437218680745,127.1005747272211 127.0229871358024,126.7587173018037 127.0437218680745,125.29360228010773 127.03335450193845,124.12149652006337 127.0644566003466,123.5354390589564 127.05408923426876,122.4976214786293 127.07482396648265,121.59410190404014 127.0644566003466,120.84930328272458 127.0644566003466,118.93233988100837 127.10592606489081,118.517197005036 127.07482396648265,118.15089319460094 127.10592606489081,117.60143524147861 127.09555869869655,114.85410520018195 127.07482396648265,114.81747367944627 127.0437218680745,114.79305265901348 126.63939458917594,114.73200008471031 126.66012932138983,114.707579045702 126.66012932138983,114.71978956586099 125.50935168133583,114.52442108412652 125.27090226038126,114.5 125.21906542975921,114.53663162416342 125.20869806362316,114.5976843045355 125.14649386686506,115.30589297435654 125.15686123300111,115.58673310819722 125.16722859913716,115.59894353287382 125.25016752816737,115.57452268218913 125.37457592168357,115.56231225483498 125.77890320064034,115.59894353287382 125.8722094957484,115.65999563645892 125.8929442280205,115.74546852573985 125.84110739739845,118.41951610561227 125.82037266512634,118.83465934221749 125.82037266512634,120.59289605848608 125.78927056671819,121.25222773953283 125.79963793285424,121.61852144746808 125.76853583444608,121.91155555478326 125.78927056671819,122.29005681326089 125.75816846836824,122.68076645347173 125.74780110223219,122.70518576095492 125.73743373609614,122.70518576095492 125.74780110223219,122.92495928928838 125.72706637001829,123.2668283686071 125.75816846836824,123.40113379395916 125.76853583444608,123.81625864021044 125.75816846836824,124.37789569893357 125.72706637001829,124.5488281601065 125.58192324417178,124.53661870719225 125.33310645713937,126.12383646913804 125.38494328776142,126.4168588372413 125.40567802003352,126.81976334680803 125.37457592168357,127.36917626105424 125.39531065395568,127.68661361040722 125.43678011844167,128.1749770137685 125.49898431514157,128.45578501048294 125.56118851195788,128.49241208878084 125.58192324417178,128.57787522514263 125.54045377968578,128.73659230609337 125.63376007479383,129.4447119384422 125.71669900388224,130.28712431509484 125.72706637001829,130.45804779545142 125.69596427161014,130.567927038559 125.66486217326019,130.59234463352186 125.58192324417178,130.59234463352186 125.27090226038126,130.47025660555664 125.0324528394849,130.34816844503075 124.8873097136966,130.29933314371738 124.79400341853034,130.22608015202422 124.76290132018039,130.27491548513353 124.73179922177223,130.25049782123097 124.75253395404434,130.22608015202422 124.8873097136966,130.27491548513353 125.0531875716988,130.34816844503075 125.60265797644388,130.51909183263342 125.69596427161014,130.60455342906062 125.72706637001829,130.7022237454148 125.8307400312624,132.04518199510494 125.8722094957484,132.2649372730666 125.98625052318675,132.53352647410065 126.0795568182948,132.66782083414 126.24543467629701,132.81432358950406 126.51498619565973,133.00966029982374 126.67049668752588,133.08291147871205 127.40657968254527,133.38812421073817 128.22560160659486,133.5712514524057 128.39147946459707,133.64450226561166 128.9305825032061,134.07179772519885 129.2623382192687,134.36479938797856 129.66666549822548,134.88975879170903 129.69776759657543,134.9019671208007 129.75997179333353,134.9019671208007 129.86364545469405,134.9385921000794 129.96731911587995,134.88975879170903 131.2943419801304,133.92529660762375 131.41875037370482,133.9619219049273 131.60536296397913,133.8154206442341 131.75050608976744,133.75437839596998 132.33107859286247,133.6567107298324 132.41401752183447,133.68112765432306 132.61099747824483,133.8276290898866 132.8909163636854,134.1206313886869 132.94275319436565,134.1816734381573 132.94275319436565,134.2060902487283 133.57516252808273,134.9019671208007 134.07279610220576,135.53679840701807 134.1661023973138,135.61004794023756 134.25940869248006,135.65888093595277 134.36308235372417,135.82979625384178 134.51859284564853,135.97629489106475 134.80887909716694,136.26929159312567 135.1510021793656,136.67216081244987 135.53459472610848,137.22152560455288 135.58643155673053,137.22152560455288" stroke="#4dd2ff" stroke-linecap="round" stroke-linejoin="round" stroke-width="0.5"><title>2023-09-30 17.0km</title><desc>10515810217</desc></polyline></svg>