<?xml version="1.0" encoding="utf-8" ?>
<svg baseProfile="full" height="200mm" version="1.1" viewBox="0,0,200,200" width="200mm" xmlns="http://www.w3.org/2000/svg" xmlns:ev="http://www.w3.org/2001/xml-events" xmlns:xlink="http://www.w3.org/1999/xlink"><defs /><rect fill="none" height="200" width="200" x="0" y="0" /><text alignment-baseline="middle" fill="#FFFFFF" style="dominant-baseline: central; font-size:9.0px; font-family:Arial;" text-anchor="middle" x="100.0" y="100.0">2026</text><line stroke="#FFFFFF" stroke-width="0.3" x1="100.0" x2="100.0" y1="15.0" y2="10.0" /><path d="M 100.0 14.0 a86.0,86.0 0 0,1 42.46469731375804,11.215312516191453" fill="none" id="id49" stroke="none" /><text fill="#FFFFFF" style="font-size:6.75px; font-family:Arial;" text-anchor="middle"><textPath startOffset="22.20632615414155" xlink:href="#id49">January</textPath></text><path d="M 100.0 79.0 l 0.0 -19.435025169130142 a40.43502516913014,40.43502516913014 0 0,0 0.6960224894063768,0.0059908853084628885 l -0.3345420101338484 19.432145660430237" fill="#4dd2ff" stroke="none" /><path d="M 100.72285384407766 79.0124445844662 l 1.0062436207951622 -29.215579229453397 a50.2329026259258,50.2329026259258 0 0,0 0.8639082523355773,0.037201706624852046 l -1.5089927055200711 29.19392979630435" fill="#4dd2ff" stroke="none" /><path d="M 101.80526077348638 79.07773832637324 l 1.4070868418050464 -16.307582557675524 a37.368174676969446,37.368174676969446 0 0,0 0.6403746244163778,0.06081128676414938 l -1.6875865933116683 16.280945726396194" fill="#4dd2ff" stroke="none" /><path d="M 102.16513564639614 79.11191278185805 l 0.7469079813319012 -7.205774420626137 a28.244381031774022,28.244381031774022 0 0,0 0.4831581954938842,0.054288452864790775 l -0.8708328803355107 7.191850014290746" fill="#4dd2ff" stroke="none" /><path d="M 102.52436894288641 79.15227682838746 l 1.8082139734144467 -14.93329430272676 a36.04237070762128,36.04237070762128 0 0,0 0.6152694784924986,0.07987963666059501 l -2.064998180414791 14.899956342902028" fill="#4dd2ff" stroke="none" /><path d="M 102.88285421437855 79.19881850522331 l 2.0644633966509067 -14.896097620502005 a36.03847510340184,36.03847510340184 0 0,0 0.6137369807155287,0.09044887716080341 l -2.320569357795091 14.858354259180233" fill="#4dd2ff" stroke="none" /><path d="M 103.2404852339499 79.25152402106235 l 3.0490451266433634 -19.522705706559847 a40.75937029080765,40.75937029080765 0 0,0 0.6922703313762815,0.11423053627817464 l -3.38464466415852 19.467328907342047" fill="#4dd2ff" stroke="none" /><path d="M 103.59715602781102 79.31037775812273 l 2.632830931528348 -15.14315113909565 a36.37032287024272,36.37032287024272 0 0,0 0.6158792504629075,0.11254799642099755 l -2.8931053030941567 15.095587661323913" fill="#4dd2ff" stroke="none" /><path d="M 104.66035177308747 79.52364482259891 l 3.2461704684743777 -14.262815923621954 a35.627560999070184,35.627560999070184 0 0,0 0.5968062881319381,0.14124476636300717 l -3.4912004435688395 14.204825245118078" fill="#4dd2ff" stroke="none" /><path d="M 105.01212808612495 79.60689891045804 l 3.588241366513515 -14.599660595976644 a36.034146654269136,36.034146654269136 0 0,0 0.601068632229082,0.15322577770656423 l -3.839018887427622 14.535731822101212" fill="#4dd2ff" stroke="none" /><path d="M 105.71112130821622 79.79150937346287 l 6.287195809984411 -22.24689876758319 a44.118246817788325,44.118246817788325 0 0,0 0.7290220582221347,0.2128215298961452 l -6.669208085929973 22.13537890876834" fill="#4dd2ff" stroke="none" /><path d="M 106.0581310904928 79.89281104454417 l 9.072045966430824 -30.110497731861944 a52.44748148385649,52.44748148385649 0 0,0 0.8621732272719536,0.26788141855761655 l -9.589004566413497 29.949876178421807" fill="#4dd2ff" stroke="none" /><path d="M 107.08798089147638 80.2323363322302 l 6.103852033026634 -17.023027560895542 a39.08426047645003,39.08426047645003 0 0,0 0.6313367589390567,0.23252665638733738 l -6.395971117738267 16.915437636701878" fill="#4dd2ff" stroke="none" /><path d="M 107.4271985657038 80.35727306442388 l 5.142648582053174 -13.600773014115036 a35.54055917150277,35.54055917150277 0 0,0 0.5703698460058058,0.22129463902303478 l -5.376001593058647 13.510235671201455" fill="#4dd2ff" stroke="none" /><path d="M 108.09893153111575 80.62456947434976 l 8.494691258857253 -20.322223948985847 a43.02617910160634,43.02617910160634 0 0,0 0.6808713407469852,0.291513574882574 l -8.843246357394554 20.172990846140483" fill="#4dd2ff" stroke="none" /><path d="M 108.43124777332544 80.76684994638697 l 8.90412799659266 -20.31187250798794 a43.17781910288885,43.17781910288885 0 0,0 0.6781341345590185,0.30425901904107117 l -9.252444249618458 20.155593158430335" fill="#4dd2ff" stroke="none" /><path d="M 109.08828744355905 81.06846463323043 l 6.543876669556043 -13.63135061196565 a36.12071563692328,36.12071563692328 0 0,0 0.5582004800155808,0.27390655130557706 l -6.777548416582055 13.51668890052524" fill="#4dd2ff" stroke="none" /><path d="M 109.41281617654863 81.2277094730956 l 8.180397464792913 -16.31443714127136 a39.250472923145985,39.250472923145985 0 0,0 0.6013537152477972,0.30803672965494117 l -8.460011667629466 16.171207886303918" fill="#4dd2ff" stroke="none" /><path d="M 110.36928655335952 81.73862282372117 l 14.722669480662908 -25.928131028548773 a50.81652185065248,50.81652185065248 0 0,0 0.7569320990300541,0.4384639283445684 l -15.166798312158292 25.670862942814153" fill="#4dd2ff" stroke="none" /><line stroke="#FFFFFF" stroke-width="0.3" x1="143.23703022742887" x2="145.7803849466894" y1="26.81831364943548" y2="22.513508569990506" /><path d="M 143.74570117128098 25.957352633546492 a86.0,86.0 0 0,1 28.547481713284135,27.462654790039103" fill="none" id="id50" stroke="none" /><text fill="#FFFFFF" style="font-size:6.75px; font-family:Arial;" text-anchor="middle"><textPath startOffset="19.985693538727396" xlink:href="#id50">February</textPath></text><path d="M 110.68208982089419 81.91981866633111 l 10.504946294117135 -17.78035357150663 a41.65175222033409,41.65175222033409 0 0,0 0.6141410712342464,0.37001312374728584 l -10.809449431569018 17.59689383830073" fill="#4dd2ff" stroke="none" /><path d="M 111.60114157652 82.49532879139004 l 8.297422887985235 -12.519773039141304 a36.019718490493446,36.019718490493446 0 0,0 0.5138732651690342,0.3469695225229596 l -8.51170084756081 12.375091604319675" fill="#4dd2ff" stroke="none" /><path d="M 113.6212207817346 84.01681056812373 l 7.974406426338083 -9.35719716766106 a33.29423835326558,33.29423835326558 0 0,0 0.43299347445759884,0.3754876742610803 l -8.134293699442447 9.21854449998031" fill="#4dd2ff" stroke="none" /><path d="M 114.16331599549186 84.49514656593476 l 9.861378162056756 -10.795439649108234 a35.6215011702844,35.6215011702844 0 0,0 0.4491567941563784,0.41744228929256266 l -10.04574284000798 10.624092773741031" fill="#4dd2ff" stroke="none" /><path d="M 114.42810811169701 84.74124197986012 l 10.33916497151009 -10.93440769983412 a36.04857481804483,36.04857481804483 0 0,0 0.44720275161867135,0.4302086927388861 l -10.52585096674118 10.75481592033293" fill="#4dd2ff" stroke="none" /><path d="M 115.19652480421416 85.50635884689758 l 16.721028801786098 -15.94763238872692 a44.10670428676777,44.10670428676777 0 0,0 0.5192675533273552,0.5539184210064984 l -16.993063677083917 15.657444550842367" fill="#4dd2ff" stroke="none" /><path d="M 115.4437574822437 85.77008943001954 l 15.331531462788217 -14.126505280023508 a41.84739812113246,41.84739812113246 0 0,0 0.4835493941793025,0.5339473184085215 l -15.572424497583555 13.860505174345437" fill="#4dd2ff" stroke="none" /><path d="M 115.9244219780498 86.31012108654704 l 8.544452431473859 -7.345479749900534 a32.26781878226298,32.26781878226298 0 0,0 0.3584637927534765,0.42430806531960674 l -8.669626837714452 7.1973127349518204" fill="#4dd2ff" stroke="none" /><path d="M 116.15771136456269 86.58626213691792 l 11.484902096427298 -9.534485585781287 a35.926801115778,35.926801115778 0 0,0 0.3909203918964871,0.47922217751765533 l -11.647320980400194 9.33537923865553" fill="#4dd2ff" stroke="none" /><path d="M 116.38621287248628 86.86637796730983 l 13.545909955553585 -10.857106692652275 a38.35996665491039,38.35996665491039 0 0,0 0.4085261909963007,0.5187867760810654 l -13.73079022714385 10.622327522618171" fill="#4dd2ff" stroke="none" /><path d="M 117.04232023915458 87.72973835380427 l 11.72412308753298 -8.441224894115136 a35.44677610696078,35.44677610696078 0 0,0 0.3522521353409507,0.49823566454509477 l -11.867687842677814 8.23816272923825" fill="#4dd2ff" stroke="none" /><path d="M 117.65298651832404 88.62581576622439 l 16.63422622445842 -10.71777591099947 a40.78808233672128,40.78808233672128 0 0,0 0.3751967575953489,0.5934711668196107 l -16.816250578299726 10.429857096465652" fill="#4dd2ff" stroke="none" /><line stroke="#FFFFFF" stroke-width="0.3" x1="172.23445277983987" x2="176.4835382374775" y1="55.19839476539836" y2="52.563006222186495" /><path d="M 173.08426987136738 54.67131705675599 a86.0,86.0 0 0,1 12.851231095245387,41.99856678651699" fill="none" id="id51" stroke="none" /><text fill="#FFFFFF" style="font-size:6.75px; font-family:Arial;" text-anchor="middle"><textPath startOffset="22.20632615414155" xlink:href="#id51">March</textPath></text><path d="M 117.84615892207809 88.93136811851018 l 17.341892516842265 -10.755873307831015 a41.40661771778512,41.40661771778512 0 0,0 0.37045949121778826,0.6089379977974616 l -17.524467806346276 10.455767536826473" fill="#4dd2ff" stroke="none" /><path d="M 118.3937258080291 89.86733742301442 l 12.651410231458387 -6.969358591962553 a35.444034755843404,35.444034755843404 0 0,0 0.2897835094570262,0.5369248325361458 l -12.769501840133877 6.750552776093949" fill="#4dd2ff" stroke="none" /><path d="M 118.73160827565052 90.50648371742162 l 17.631424543663208 -8.935923361578302 a40.766584372695505,40.766584372695505 0 0,0 0.31184493264588575,0.6286603551783806 l -17.7826294892625 8.631103417900972" fill="#4dd2ff" stroke="none" /><path d="M 118.89224826269711 90.83032412892265 l 18.29534033950036 -8.87995639965797 a41.33649684183526,41.33649684183526 0 0,0 0.30518500621965144,0.6427974549786741 l -18.445483539561767 8.563716529038755" fill="#4dd2ff" stroke="none" /><path d="M 119.34039704204932 91.81776055985345 l 11.303638795564442 -4.78217065395043 a33.27360607906634,33.27360607906634 0 0,0 0.21862076371441624,0.529407520177887 l -11.384281246165056 4.58688856331924" fill="#4dd2ff" stroke="none" /><path d="M 119.61058180528143 92.48833698450437 l 10.820613206914652 -4.144741896921908 a32.58725832825676,32.58725832825676 0 0,0 0.19613713933351679,0.525550020163273 l -10.890354934749794 3.9578687397293018" fill="#4dd2ff" stroke="none" /><path d="M 119.85752413597 93.16781622104841 l 16.393556171273882 -5.640370258940033 a38.33673731123152,38.33673731123152 0 0,0 0.2093235260984077,0.6258506998329454 l -16.48821699114406 5.357346456184773" fill="#4dd2ff" stroke="none" /><path d="M 119.97218684219823 93.5106431181261 l 11.660268800692968 -3.7886509967151945 a33.2603321683927,33.2603321683927 0 0,0 0.1722323205409826,0.5460235228407334 l -11.723756605002157 3.5873773074480417" fill="#4dd2ff" stroke="none" /><path d="M 120.37134235888165 94.90015583598534 l 14.229978364355778 -3.5623902851877904 a35.669114110744175,35.669114110744175 0 0,0 0.14397956763547978,0.5968882605781606 l -14.289190732252077 3.3169167929502237" fill="#4dd2ff" stroke="none" /><path d="M 120.53481517161879 95.60439243477599 l 23.693344636119235 -5.071710850941911 a45.230081118343,45.230081118343 0 0,0 0.15641144460170825,0.7627177522718511 l -23.77713537663594 4.663117442506648" fill="#4dd2ff" stroke="none" /><path d="M 120.73433829027371 96.67025291283417 l 14.27754969108426 -2.2928452709799805 a35.46048286254769,35.46048286254769 0 0,0 0.09159629576618653,0.6035051452419002 l -14.314901880289746 2.046741013345998" fill="#4dd2ff" stroke="none" /><path d="M 120.83666639777658 97.38593545837742 l 11.020414106398599 -1.3825663472064735 a32.106800474526274,32.106800474526274 0 0,0 0.0640754606700762,0.5489594167968214 l -11.042579920072264 1.1926631920847994" fill="#4dd2ff" stroke="none" /><path d="M 120.91429891909075 98.10471618934814 l 30.646805468024514 -2.7772575344958823 a51.772387700791946,51.772387700791946 0 0,0 0.0727907843220535,0.8882319410247153 l -30.69007073616606 2.2493116762633982" fill="#4dd2ff" stroke="none" /><line stroke="#FFFFFF" stroke-width="0.3" x1="184.98032266829074" x2="189.97916517819016" y1="98.17113171792111" y2="98.06355123074" /><path d="M 185.9800911702706 98.14961562048488 a86.0,86.0 0 0,1 -9.607161424134198,41.387399972396054" fill="none" id="id52" stroke="none" /><text fill="#FFFFFF" style="font-size:6.75px; font-family:Arial;" text-anchor="middle"><textPath startOffset="21.466115282336823" xlink:href="#id52">April</textPath></text><path d="M 120.9764740272857 100.99374915477107 l 17.321782954655276 0.820610134378427 a38.34121004200199,38.34121004200199 0 0,0 -0.036905512682693625,0.65897272067061 l -17.305091091085053 -1.1186545713844604" fill="#4dd2ff" stroke="none" /><path d="M 120.95626037817324 101.35467743843564 l 14.412510343769151 0.9316692120441343 a35.44259193946584,35.44259193946584 0 0,0 -0.04459596423315686,0.6084765003028796 l -14.394337820871657 -1.1796188488437842" fill="#4dd2ff" stroke="none" /><path d="M 120.8583938346157 102.4346265915055 l 11.638101551204917 1.358418665208171 a32.717111802237966,32.717111802237966 0 0,0 -0.07010574537632577,0.5588117683074805 l -11.612994296581743 -1.5585481878030463" fill="#4dd2ff" stroke="none" /><path d="M 120.76222939487914 103.15116336523771 l 15.494428142283041 2.351648919711525 a36.67187149315464,36.67187149315464 0 0,0 -0.10009368277504296,0.623283458187074 l -15.45165270514671 -2.6180116075918036" fill="#4dd2ff" stroke="none" /><path d="M 120.5718875245553 104.21870165774334 l 14.169361846919479 2.905728034990148 a35.46423418512937,35.46423418512937 0 0,0 -0.1277826366913943,0.5969579375919958 l -14.117245171503642 -3.149199791998313" fill="#4dd2ff" stroke="none" /><path d="M 120.23288151984713 105.62410040840565 l 19.102906554444967 5.310003147559618 a40.827182660553405,40.827182660553405 0 0,0 -0.19404064022473333,0.675480924362773 l -19.008673277334136 -5.638041547426973" fill="#4dd2ff" stroke="none" /><path d="M 120.13307415673323 105.97154293290107 l 11.951312553934425 3.544802719383571 a33.465933502196286,33.465933502196286 0 0,0 -0.16856189512487824,0.5508700261940823 l -11.888523886303416 -3.7499997181297107" fill="#4dd2ff" stroke="none" /><path d="M 119.9155931802556 106.66101706037122 l 14.00193280233111 4.683120027123488 a35.76433999166373,35.76433999166373 0 0,0 -0.20029591944206437,0.5821536983402689 l -13.919246051945814 -4.923446428553057" fill="#4dd2ff" stroke="none" /><path d="M 119.54520255179757 107.68017299344265 l 6.092572746172338 2.3940408159870437 a27.54605790503062,27.54605790503062 0 0,0 -0.17720954335638692,0.43981955376167764 l -6.0504605885585585 -2.4985597375915347" fill="#4dd2ff" stroke="none" /><path d="M 119.41010516605496 108.01547362559984 l 13.4078313329001 5.536812784162507 a35.50607586007887,35.50607586007887 0 0,0 -0.23814266412397883,0.5628989117833305 l -13.310537687583812 -5.766786221612001" fill="#4dd2ff" stroke="none" /><path d="M 118.64920377521936 109.65438752849418 l 13.36130632463895 6.916929575105543 a36.04554490365193,36.04554490365193 0 0,0 -0.28999068576852294,0.5485530916307462 l -13.240263130645534 -7.145897681822424" fill="#4dd2ff" stroke="none" /><line stroke="#FFFFFF" stroke-width="0.3" x1="174.80103733775053" x2="179.2010983576182" y1="140.37084112569926" y2="142.7455964860345" /><path d="M 175.68104954172406 140.8457921977663 a86.0,86.0 0 0,1 -30.038265399797805,32.042727171017184" fill="none" id="id53" stroke="none" /><text fill="#FFFFFF" style="font-size:6.75px; font-family:Arial;" text-anchor="middle"><textPath startOffset="22.206326154141568" xlink:href="#id53">May</textPath></text><path d="M 118.48025628344425 109.97397251340804 l 12.706609893290908 6.857879883831462 a35.439129180159675,35.439129180159675 0 0,0 -0.2943533408340586,0.5343368143212942 l -12.58668014300534 -7.075587216550561" fill="#4dd2ff" stroke="none" /><path d="M 118.12598468904814 110.60418214915192 l 13.007739226543318 7.609872703372425 a36.070217063708355,36.070217063708355 0 0,0 -0.31813781037690114,0.5332172694443496 l -12.874820540468189 -7.832652066702879" fill="#4dd2ff" stroke="none" /><path d="M 117.75023020441432 111.22182372390056 l 12.741257569081535 8.055115050028403 a36.07396838629004,36.07396838629004 0 0,0 -0.3363384556536012,0.5220047522719001 l -12.600714250050883 -8.273241402221757" fill="#4dd2ff" stroke="none" /><path d="M 117.35343817320211 111.8261652097733 l 9.96863110387885 6.793505538966201 a33.06338773285454,33.06338773285454 0 0,0 -0.3245550834951042,0.46754580423665065 l -9.85021511322161 -6.9640926053898715" fill="#4dd2ff" stroke="none" /><path d="M 117.14729908036423 112.12312394758627 l 51.44189724109271 36.36937184275882 a84.0,84.0 0 0,0 -0.8448808304975888,1.1734655781954753 l -50.80823661821952 -37.24947102640542" fill="#4dd2ff" stroke="none" /><path d="M 116.71984013943494 112.70617746262583 l 15.671188503879895 11.909258732140557 a40.6829010227965,40.6829010227965 0 0,0 -0.4285133505730789,0.5539112697966657 l -15.463868336088748 -12.177247996050475" fill="#4dd2ff" stroke="none" /><path d="M 116.27256486870786 113.27417163493432 l 9.244198414305231 7.5408564887545735 a32.929782936291645,32.929782936291645 0 0,0 -0.36207707631557523,0.436145163305551 l -9.113025338096111 -7.6988629091738945" fill="#4dd2ff" stroke="none" /><path d="M 115.80600337817218 113.82643327865902 l 4.746622675965388 4.15214777309473 a27.306406104716405,27.306406104716405 0 0,0 -0.31251681215129423,0.35111595141995805 l -4.6744470141657555 -4.233237894255555" fill="#4dd2ff" stroke="none" /><path d="M 115.32070863581623 114.36230785411682 l 9.17135177738969 8.597629574218093 a33.57111481612107,33.57111481612107 0 0,0 -0.3988463433107993,0.418188796394706 l -9.021998882699926 -8.754225487195306" fill="#4dd2ff" stroke="none" /><line stroke="#FFFFFF" stroke-width="0.3" x1="143.8653032363475" x2="146.44561519142675" y1="172.8068346515853" y2="177.08958963109032" /><path d="M 144.38136562736335 173.6633856474863 a86.0,86.0 0 0,1 -40.68145358897372,12.25698825130547" fill="none" id="id54" stroke="none" /><text fill="#FFFFFF" style="font-size:6.75px; font-family:Arial;" text-anchor="middle"><textPath startOffset="21.466115282336833" xlink:href="#id54">June</textPath></text><line stroke="#FFFFFF" stroke-width="0.3" x1="102.19456741930631" x2="102.32365962044197" y1="184.97166512339345" y2="189.96999836594603" /><path d="M 102.22038585953345 185.97133177190398 a86.0,86.0 0 0,1 -42.740103519485714,-10.115201625700543" fill="none" id="id55" stroke="none" /><text fill="#FFFFFF" style="font-size:6.75px; font-family:Arial;" text-anchor="middle"><textPath startOffset="22.20632615414155" xlink:href="#id55">July</textPath></text><line stroke="#FFFFFF" stroke-width="0.3" x1="58.666819895761336" x2="56.23545636021788" y1="174.27360380694188" y2="178.64263932499728" /><path d="M 58.180547188652646 175.14741091055294 a86.0,86.0 0 0,1 -31.652253787137756,-30.449443065178592" fill="none" id="id56" stroke="none" /><text fill="#FFFFFF" style="font-size:6.75px; font-family:Arial;" text-anchor="middle"><textPath startOffset="22.20632615414155" xlink:href="#id56">August</textPath></text><line stroke="#FFFFFF" stroke-width="0.3" x1="26.63291911575756" x2="22.317208475507996" y1="142.92168965132927" y2="145.44649492493687" /><path d="M 25.769776987707644 143.4266507060508 a86.0,86.0 0 0,1 -11.730757126820373,-40.83630448921669" fill="none" id="id57" stroke="none" /><text fill="#FFFFFF" style="font-size:6.75px; font-family:Arial;" text-anchor="middle"><textPath startOffset="21.46611528233685" xlink:href="#id57">September</textPath></text><line stroke="#FFFFFF" stroke-width="0.3" x1="15.007084014347285" x2="10.007500721073583" y1="101.09737516637583" y2="101.16192664675087" /><path d="M 14.007167355692545 101.11028546245083 a86.0,86.0 0 0,1 10.666146001902534,-42.60595125391555" fill="none" id="id58" stroke="none" /><text fill="#FFFFFF" style="font-size:6.75px; font-family:Arial;" text-anchor="middle"><textPath startOffset="22.20632615414155" xlink:href="#id58">October</textPath></text><line stroke="#FFFFFF" stroke-width="0.3" x1="26.266209847984243" x2="21.928928074336255" y1="57.711370442889674" y2="55.22380399835377" /><path d="M 25.398753493254645 57.213857153982495 a86.0,86.0 0 0,1 29.58750427330803,-30.492523968695096" fill="none" id="id59" stroke="none" /><text fill="#FFFFFF" style="font-size:6.75px; font-family:Arial;" text-anchor="middle"><textPath startOffset="21.46611528233685" xlink:href="#id59">November</textPath></text><line stroke="#FFFFFF" stroke-width="0.3" x1="56.762969772571076" x2="54.21961505331055" y1="26.818313649435495" y2="22.513508569990535" /><path d="M 56.25429882871897 25.957352633546506 a86.0,86.0 0 0,1 42.265352541879196,-11.944610805530505" fill="none" id="id60" stroke="none" /><text fill="#FFFFFF" style="font-size:6.75px; font-family:Arial;" text-anchor="middle"><textPath startOffset="22.20632615414155" xlink:href="#id60">December</textPath></text></svg>