<?xml version="1.0" encoding="utf-8" ?>
<svg baseProfile="full" height="200mm" version="1.1" viewBox="0,0,200,200" width="200mm" xmlns="http://www.w3.org/2000/svg" xmlns:ev="http://www.w3.org/2001/xml-events" xmlns:xlink="http://www.w3.org/1999/xlink"><defs /><rect fill="none" height="200" width="200" x="0" y="0" /><text alignment-baseline="middle" fill="#FFFFFF" style="dominant-baseline: central; font-size:9.0px; font-family:Arial;" text-anchor="middle" x="100.0" y="100.0">2026</text><line stroke="#FFFFFF" stroke-width="0.3" x1="100.0" x2="100.0" y1="15.0" y2="10.0" /><path d="M 100.0 14.0 a86.0,86.0 0 0,1 42.46469731375804,11.215312516191453" fill="none" id="id73" stroke="none" /><text fill="#FFFFFF" style="font-size:6.75px; font-family:Arial;" text-anchor="middle"><textPath startOffset="22.20632615414155" xlink:href="#id73">January</textPath></text><path d="M 101.08401301168833 79.027996857942 l 1.5273666079447663 -29.549402964271607 a50.5888503375844,50.5888503375844 0 0,0 0.8692560527320696,0.052435898936110115 l -2.035784709516448 29.518733795955193" fill="#4dd2ff" stroke="none" /><path d="M 101.80526077348638 79.07773832637324 l 1.7851665823936498 -20.689377909498905 a41.76625093773443,41.76625093773443 0 0,0 0.7157440118159119,0.06796851825902389 l -2.1410357212998057 20.655583846724703" fill="#4dd2ff" stroke="none" /><path d="M 102.52436894288641 79.15227682838746 l 3.560972264280511 -29.408602968560217 a50.62341054013504,50.62341054013504 0 0,0 0.8641784319685274,0.112195162556581 l -4.066665424756884 29.342949482839497" fill="#4dd2ff" stroke="none" /><path d="M 103.95276090670814 79.375362276772 l 5.5677995586833084 -29.051554476394077 a50.58028413353338,50.58028413353338 0 0,0 0.8536834150295822,0.171240862018332 l -6.0670493831800165 28.951409658298537" fill="#4dd2ff" stroke="none" /><path d="M 104.66035177308747 79.52364482259891 l 3.285102242448974 -14.433871858968654 a35.80299137284321,35.80299137284321 0 0,0 0.5997449667072078,0.14194025663687668 l -3.533070896118705 14.375185690190909" fill="#4dd2ff" stroke="none" /><path d="M 105.71112130821622 79.79150937346287 l 8.043394581392397 -28.461112140931952 a50.57585333833458,50.57585333833458 0 0,0 0.8357293264470174,0.2439723075969458 l -8.532114125562842 28.318441504416302" fill="#4dd2ff" stroke="none" /><path d="M 106.40334571778207 80.00007090966166 l 6.342158458907165 -19.80881949034721 a41.79933420855214,41.79933420855214 0 0,0 0.6833537834583855,0.22529099845283443 l -6.682195064607968 19.69671476763514" fill="#4dd2ff" stroke="none" /><path d="M 107.08798089147638 80.2323363322302 l 4.997445267046889 -13.937370705367977 a35.806240622655665,35.806240622655665 0 0,0 0.5783861746116546,0.21302450931119182 l -5.236613767431121 13.84928292825046" fill="#4dd2ff" stroke="none" /><path d="M 107.4271985657038 80.35727306442388 l 5.243613330970629 -13.867794687975005 a35.82603150787697,35.82603150787697 0 0,0 0.5749512261622335,0.22307214334771755 l -5.48154772213253 13.77547984073674" fill="#4dd2ff" stroke="none" /><path d="M 109.08828744355905 81.06846463323043 l 12.805332237734113 -26.6743984108586 a50.5888503375844,50.5888503375844 0 0,0 0.7817874049264358,0.3836196843319799 l -13.262590909670982 26.45002356639179" fill="#4dd2ff" stroke="none" /><line stroke="#FFFFFF" stroke-width="0.3" x1="143.23703022742887" x2="145.7803849466894" y1="26.81831364943548" y2="22.513508569990506" /><path d="M 143.74570117128098 25.957352633546492 a86.0,86.0 0 0,1 28.547481713284135,27.462654790039103" fill="none" id="id74" stroke="none" /><text fill="#FFFFFF" style="font-size:6.75px; font-family:Arial;" text-anchor="middle"><textPath startOffset="19.985693538727396" xlink:href="#id74">February</textPath></text><path d="M 110.68208982089419 81.91981866633111 l 15.058501151303677 -25.487562452085925 a50.60361965491373,50.60361965491373 0 0,0 0.7461333443740968,0.4495369914424213 l -15.49499656189541 25.224578851184887" fill="#4dd2ff" stroke="none" /><path d="M 113.89432698308785 84.25364557470407 l 19.567626681367983 -22.175869717312644 a50.57467179294824,50.57467179294824 0 0,0 0.6478110008686708,0.5816111128173549 l -19.946448669832645 21.83575959572599" fill="#4dd2ff" stroke="none" /><path d="M 114.42810811169701 84.74124197986012 l 5.59907738222443 -5.921425473804002 a29.149413915978997,29.149413915978997 0 0,0 0.3616147982852327,0.3478731494433646 l -5.700175424122081 5.824169237598335" fill="#4dd2ff" stroke="none" /><path d="M 114.68862486808459 84.99185889309783 l 22.754420957969227 -23.24938948404001 a53.531489122280576,53.531489122280576 0 0,0 0.6529929084219372,0.6501887493527104 l -23.15124966655849 22.854264884037182" fill="#4dd2ff" stroke="none" /><path d="M 115.4437574822437 85.77008943001954 l 5.876129593417461 -5.4142781449452135 a28.990200675168794,28.990200675168794 0 0,0 0.3349836454117621,0.36989730797180553 l -5.968456879445259 5.312328049703859" fill="#4dd2ff" stroke="none" /><path d="M 115.68641384162765 86.03803664274999 l 7.008799732923425 -6.238303160770539 a30.382947299324833,30.382947299324833 0 0,0 0.34435184122498824,0.3936536817548546 l -7.115143437726261 6.116733922812736" fill="#4dd2ff" stroke="none" /><path d="M 116.15771136456269 86.58626213691792 l 22.75041821039137 -18.886842280087844 a50.56846867966992,50.56846867966992 0 0,0 0.5502367307948317,0.6745251712310706 l -23.07215343326261 18.492432939248673" fill="#4dd2ff" stroke="none" /><path d="M 116.82858285166822 87.43820079747576 l 23.693363258930198 -17.68605677106332 a50.56640097524381,50.56640097524381 0 0,0 0.5146633542398584,0.7020002367928561 l -23.99428922568368 17.275594090598968" fill="#4dd2ff" stroke="none" /><path d="M 117.45458315368197 88.32363383020206 l 12.297673700085936 -8.226615319003313 a35.79560671417855,35.79560671417855 0 0,0 0.3381889910236894,0.5150850351421069 l -12.437459326467549 8.013712219883534" fill="#4dd2ff" stroke="none" /><path d="M 117.65298651832404 88.62581576622439 l 2.9046976222527383 -1.871556739966811 a24.455429482370594,24.455429482370594 0 0,0 0.22495781418795482,0.3558292383094137 l -2.936483032686649 1.821279853943191" fill="#4dd2ff" stroke="none" /><line stroke="#FFFFFF" stroke-width="0.3" x1="172.23445277983987" x2="176.4835382374775" y1="55.19839476539836" y2="52.563006222186495" /><path d="M 173.08426987136738 54.67131705675599 a86.0,86.0 0 0,1 12.851231095245387,41.99856678651699" fill="none" id="id75" stroke="none" /><text fill="#FFFFFF" style="font-size:6.75px; font-family:Arial;" text-anchor="middle"><textPath startOffset="22.20632615414155" xlink:href="#id75">March</textPath></text><path d="M 117.84615892207809 88.93136811851018 l 25.12327161569309 -15.582078271687152 a50.563151725431354,50.563151725431354 0 0,0 0.45238178086024805,0.7435967019539603 l -25.38776919483956 15.14731379652611" fill="#4dd2ff" stroke="none" /><path d="M 118.56541770881063 90.18545643968196 l 26.145484166440184 -13.821719353793739 a50.574081020255065,50.574081020255065 0 0,0 0.40023500915059,0.7731266454341545 l -26.379528608750892 13.36961998609924" fill="#4dd2ff" stroke="none" /><path d="M 118.89224826269711 90.83032412892265 l 26.613196910342133 -12.91717037420274 a50.582351837959486,50.582351837959486 0 0,0 0.37344662803280965,0.7865738394011582 l -26.831601732216697 12.457154119161041" fill="#4dd2ff" stroke="none" /><path d="M 119.34039704204932 91.81776055985345 l 27.23035046400463 -11.520200286021785 a50.56699174793698,50.56699174793698 0 0,0 0.3322451533628534,0.8045579923173201 l -27.424617304253683 11.049767723251161" fill="#4dd2ff" stroke="none" /><path d="M 119.61058180528143 92.48833698450437 l 3.3263879312156153 -1.2741440027737512 a24.562063953488373,24.562063953488373 0 0,0 0.14783486574526478,0.39612394132630163 l -3.347827385462505 1.2166969244181163" fill="#4dd2ff" stroke="none" /><path d="M 119.85752413597 93.16781622104841 l 27.965702806755267 -9.621885375790374 a50.57467179294824,50.57467179294824 0 0,0 0.27614422544685574,0.8256360857856578 l -28.127184325973893 9.139076187082402" fill="#4dd2ff" stroke="none" /><path d="M 120.08093135843002 93.85539295169968 l 16.95938598025396 -5.189438715220097 a38.735587021755435,38.735587021755435 0 0,0 0.18960904370252085,0.63926743566014 l -17.046200921068184 4.896741892813428" fill="#4dd2ff" stroke="none" /><path d="M 120.37134235888165 94.90015583598534 l 28.67212948866864 -7.177896756465216 a50.55694861215304,50.55694861215304 0 0,0 0.20407480767666022,0.8460218278355748 l -28.79143709660612 6.683289696970236" fill="#4dd2ff" stroke="none" /><path d="M 120.6074358757038 95.95851677861258 l 31.048259737728724 -6.0891137325460205 a52.639717741935485,52.639717741935485 0 0,0 0.16672822472353216,0.8906688433282172 l -31.148473686362117 5.55376681175524" fill="#4dd2ff" stroke="none" /><path d="M 120.73433829027371 96.67025291283417 l 14.613683730927585 -2.34682535582265 a35.800923668417106,35.800923668417106 0 0,0 0.09247567230671944,0.6092991379178851 l -14.651915296673604 2.094927105512683" fill="#4dd2ff" stroke="none" /><path d="M 120.83666639777658 97.38593545837742 l 22.56198301717237 -2.8305141843694575 a43.73884096024006,43.73884096024006 0 0,0 0.08728949450837271,0.7478430821517907 l -22.607362864684333 2.4417273638928143" fill="#4dd2ff" stroke="none" /><path d="M 120.91429891909075 98.10471618934814 l 62.74289675727228 -5.6858514319555935 a84.0,84.0 0 0,0 0.118102064722021,1.441144331168925 l -62.831473305813795 4.6049931835789" fill="#4dd2ff" stroke="none" /><path d="M 120.96714384426684 98.82574320788733 l 29.51896231300641 -1.653198082181503 a50.565219429857464,50.565219429857464 0 0,0 0.04118992634887418,0.869454244156782 l -29.54304584758878 1.1448327314017213" fill="#4dd2ff" stroke="none" /><line stroke="#FFFFFF" stroke-width="0.3" x1="184.98032266829074" x2="189.97916517819016" y1="98.17113171792111" y2="98.06355123074" /><path d="M 185.9800911702706 98.14961562048488 a86.0,86.0 0 0,1 -9.607161424134198,41.387399972396054" fill="none" id="id76" stroke="none" /><text fill="#FFFFFF" style="font-size:6.75px; font-family:Arial;" text-anchor="middle"><textPath startOffset="21.466115282336823" xlink:href="#id76">April</textPath></text><path d="M 120.99513854157772 99.54816195383933 l 14.793362832378829 -0.31836913793594773 a35.79678825956489,35.79678825956489 0 0,0 0.007955397905525375,0.6161543349390296 l -14.796651237402068 0.06367854493645539" fill="#4dd2ff" stroke="none" /><line stroke="#FFFFFF" stroke-width="0.3" x1="174.80103733775053" x2="179.2010983576182" y1="140.37084112569926" y2="142.7455964860345" /><path d="M 175.68104954172406 140.8457921977663 a86.0,86.0 0 0,1 -30.038265399797805,32.042727171017184" fill="none" id="id77" stroke="none" /><text fill="#FFFFFF" style="font-size:6.75px; font-family:Arial;" text-anchor="middle"><textPath startOffset="22.206326154141568" xlink:href="#id77">May</textPath></text><line stroke="#FFFFFF" stroke-width="0.3" x1="143.8653032363475" x2="146.44561519142675" y1="172.8068346515853" y2="177.08958963109032" /><path d="M 144.38136562736335 173.6633856474863 a86.0,86.0 0 0,1 -40.68145358897372,12.25698825130547" fill="none" id="id78" stroke="none" /><text fill="#FFFFFF" style="font-size:6.75px; font-family:Arial;" text-anchor="middle"><textPath startOffset="21.466115282336833" xlink:href="#id78">June</textPath></text><line stroke="#FFFFFF" stroke-width="0.3" x1="102.19456741930631" x2="102.32365962044197" y1="184.97166512339345" y2="189.96999836594603" /><path d="M 102.22038585953345 185.97133177190398 a86.0,86.0 0 0,1 -42.740103519485714,-10.115201625700543" fill="none" id="id79" stroke="none" /><text fill="#FFFFFF" style="font-size:6.75px; font-family:Arial;" text-anchor="middle"><textPath startOffset="22.20632615414155" xlink:href="#id79">July</textPath></text><line stroke="#FFFFFF" stroke-width="0.3" x1="58.666819895761336" x2="56.23545636021788" y1="174.27360380694188" y2="178.64263932499728" /><path d="M 58.180547188652646 175.14741091055294 a86.0,86.0 0 0,1 -31.652253787137756,-30.449443065178592" fill="none" id="id80" stroke="none" /><text fill="#FFFFFF" style="font-size:6.75px; font-family:Arial;" text-anchor="middle"><textPath startOffset="22.20632615414155" xlink:href="#id80">August</textPath></text><line stroke="#FFFFFF" stroke-width="0.3" x1="26.63291911575756" x2="22.317208475507996" y1="142.92168965132927" y2="145.44649492493687" /><path d="M 25.769776987707644 143.4266507060508 a86.0,86.0 0 0,1 -11.730757126820373,-40.83630448921669" fill="none" id="id81" stroke="none" /><text fill="#FFFFFF" style="font-size:6.75px; font-family:Arial;" text-anchor="middle"><textPath startOffset="21.46611528233685" xlink:href="#id81">September</textPath></text><line stroke="#FFFFFF" stroke-width="0.3" x1="15.007084014347285" x2="10.007500721073583" y1="101.09737516637583" y2="101.16192664675087" /><path d="M 14.007167355692545 101.11028546245083 a86.0,86.0 0 0,1 10.666146001902534,-42.60595125391555" fill="none" id="id82" stroke="none" /><text fill="#FFFFFF" style="font-size:6.75px; font-family:Arial;" text-anchor="middle"><textPath startOffset="22.20632615414155" xlink:href="#id82">October</textPath></text><line stroke="#FFFFFF" stroke-width="0.3" x1="26.266209847984243" x2="21.928928074336255" y1="57.711370442889674" y2="55.22380399835377" /><path d="M 25.398753493254645 57.213857153982495 a86.0,86.0 0 0,1 29.58750427330803,-30.492523968695096" fill="none" id="id83" stroke="none" /><text fill="#FFFFFF" style="font-size:6.75px; font-family:Arial;" text-anchor="middle"><textPath startOffset="21.46611528233685" xlink:href="#id83">November</textPath></text><line stroke="#FFFFFF" stroke-width="0.3" x1="56.762969772571076" x2="54.21961505331055" y1="26.818313649435495" y2="22.513508569990535" /><path d="M 56.25429882871897 25.957352633546506 a86.0,86.0 0 0,1 42.265352541879196,-11.944610805530505" fill="none" id="id84" stroke="none" /><text fill="#FFFFFF" style="font-size:6.75px; font-family:Arial;" text-anchor="middle"><textPath startOffset="22.20632615414155" xlink:href="#id84">December</textPath></text></svg>