<?xml version="1.0" encoding="utf-8" ?>
<svg baseProfile="full" height="200mm" version="1.1" viewBox="0,0,200,200" width="200mm" xmlns="http://www.w3.org/2000/svg" xmlns:ev="http://www.w3.org/2001/xml-events" xmlns:xlink="http://www.w3.org/1999/xlink"><defs /><rect fill="none" height="200" width="200" x="0" y="0" /><text alignment-baseline="middle" fill="#FFFFFF" style="dominant-baseline: central; font-size:9.0px; font-family:Arial;" text-anchor="middle" x="100.0" y="100.0">2024</text><line stroke="#FFFFFF" stroke-width="0.3" x1="100.0" x2="100.0" y1="15.0" y2="10.0" /><path d="M 100.0 14.0 a86.0,86.0 0 0,1 42.35913384403234,11.155469271406648" fill="none" id="id49" stroke="none" /><text fill="#FFFFFF" style="font-size:6.75px; font-family:Arial;" text-anchor="middle"><textPath startOffset="22.145653131862478" xlink:href="#id49">January</textPath></text><path d="M 100.0 79.0 l 0.0 -13.256069465086469 a34.25606946508647,34.25606946508647 0 0,0 0.5880509845378364,0.005047710452438117 l -0.22755805968898166 13.254116152828466" fill="#4dd2ff" stroke="none" /><path d="M 100.36049292484886 79.00309439819443 l 0.23076809748706348 -13.441084761582191 a34.443065628153974,34.443065628153974 0 0,0 0.5910867749987795,0.015224298594831978 l -0.46146818655658434 13.435142745637314" fill="#4dd2ff" stroke="none" /><path d="M 101.08105385017728 79.02784411241856 l 0.6966589939312872 -13.514998368320605 a34.532941832784694,34.532941832784694 0 0,0 0.5917559121908919,0.03559856621784539 l -0.9285592582546414 13.501047824278068" fill="#4dd2ff" stroke="none" /><path d="M 101.80034050326958 79.07731436759882 l 1.1604848770239717 -13.486593352220204 a34.53642956609872,34.53642956609872 0 0,0 0.5902447452569323,0.05589679105097932 l -1.391829185665917 13.46468480566404" fill="#4dd2ff" stroke="none" /><path d="M 102.87502721639298 79.19773525538626 l 1.8444039766697495 -13.345188386369042 a34.47204064337821,34.47204064337821 0 0,0 0.5854910217126008,0.08604701770110422 l -2.073220103990032 13.311560295369054" fill="#4dd2ff" stroke="none" /><path d="M 103.94208987418118 79.37332000966035 l 10.80315575643172 -56.52667589675345 a78.54974597888622,78.54974597888622 0 0,0 1.3222672030565172,0.2644904728641047 l -11.771919445019194 56.33289602722648" fill="#4dd2ff" stroke="none" /><path d="M 104.64783097203109 79.52079915486377 l 2.98455340593381 -13.150492993604749 a34.48491842792231,34.48491842792231 0 0,0 0.5761737646314692,0.135975439613202 l -3.2098593243051643 13.09732141034532" fill="#4dd2ff" stroke="none" /><path d="M 105.69591212413111 79.78721728523813 l 3.663170341006973 -12.999299240633745 a34.505576540628475,34.505576540628475 0 0,0 0.5687504684066067,0.16555497229502367 l -3.885780821795184 12.934500574036205" fill="#4dd2ff" stroke="none" /><path d="M 106.72888874123014 80.10723608172694 l 4.0006603813004 -11.827241546551122 a33.48554868986428,33.48554868986428 0 0,0 0.5429350499430613,0.18886099395849085 l -4.20310120328848 11.756822120024042" fill="#4dd2ff" stroke="none" /><path d="M 107.74402155503746 80.48000691201159 l 4.980652795662067 -12.55449864828318 a34.50638140216248,34.50638140216248 0 0,0 0.5487262918911114,0.22316220589280605 l -5.195433548743618 12.467149185811081" fill="#4dd2ff" stroke="none" /><path d="M 108.07796709384702 80.6158196554323 l 5.175619011640966 -12.419601509993672 a34.45487026398607,34.45487026398607 0 0,0 0.5440012604329109,0.2322017897643093 l -5.388055347244307 12.32892507056996" fill="#4dd2ff" stroke="none" /><path d="M 109.3889696526874 81.21577127319529 l 6.016428627172307 -12.036887500105237 a34.45674827423208,34.45674827423208 0 0,0 0.5268154237677878,0.2689957090843406 l -6.222171272653674 11.931833839348062" fill="#4dd2ff" stroke="none" /><path d="M 109.71004243097381 81.37971332152246 l 6.229986512299937 -11.946820591847745 a34.47365036644622,34.47365036644622 0 0,0 0.5223762432031885,0.27813592654678704 l -6.434151571289685 11.838114197578385" fill="#4dd2ff" stroke="none" /><line stroke="#FFFFFF" stroke-width="0.3" x1="143.13028292997686" x2="145.6673583964461" y1="26.7553504044142" y2="22.446841604673864" /><path d="M 143.63769802327073 25.89364864446614 a86.0,86.0 0 0,1 29.32050498858742,28.57503671076993" fill="none" id="id50" stroke="none" /><text fill="#FFFFFF" style="font-size:6.75px; font-family:Arial;" text-anchor="middle"><textPath startOffset="20.669276256404974" xlink:href="#id50">February</textPath></text><path d="M 110.65571695917076 81.90426304109057 l 6.8386394191873405 -11.613504803160025 a34.47740638693825,34.47740638693825 0 0,0 0.5074208072885769,0.30469161539281686 l -7.036992983033351 11.494399187231286" fill="#4dd2ff" stroke="none" /><path d="M 111.5731344415666 82.4767994020092 l 7.427568617297367 -11.246285567095203 a34.47767467411625,34.47767467411625 0 0,0 0.49106668918153296,0.33041158409135785 l -7.619531594575901 11.117124308946726" fill="#4dd2ff" stroke="none" /><path d="M 112.16784306229584 82.88440491214696 l 7.814068049710953 -10.991465294469991 a34.48599157663432,34.48599157663432 0 0,0 0.4795506864981242,0.3471577151302447 l -8.001599746583047 10.855706807966671" fill="#4dd2ff" stroke="none" /><path d="M 112.7482090630111 83.31218511350987 l 8.153548719523112 -10.67325700628587 a34.43126099232188,34.43126099232188 0 0,0 0.4666092605754223,0.36283818328432943 l -8.335567924733759 10.53171777138075" fill="#4dd2ff" stroke="none" /><path d="M 113.31354834802062 83.75963576809568 l 8.526696604267322 -10.401183435731541 a34.449504520426025,34.449504520426025 0 0,0 0.4541193822218963,0.37884253996501627 l -8.70399032065111 10.253278711854655" fill="#4dd2ff" stroke="none" /><path d="M 113.86319453409587 84.22622945171908 l 8.887043117563387 -10.111823695783292 a34.462114017792125,34.462114017792125 0 0,0 0.44100834696100666,0.3943523832449447 l -9.059316491347769 9.95777578265496" fill="#4dd2ff" stroke="none" /><path d="M 114.13192950727249 84.46653392183569 l 8.365126369995142 -9.194739235078167 a33.43054981837384,33.43054981837384 0 0,0 0.4211775338355741,0.38983563750272904 l -8.52173367514468 9.049785851443064" fill="#4dd2ff" stroke="none" /><path d="M 115.16444852881244 85.47280134310134 l 9.71133549188684 -9.303239721931318 a34.448431371714015,34.448431371714015 0 0,0 0.40541565954552033,0.4305373811915392 l -9.869606985168621 9.135160880795283" fill="#4dd2ff" stroke="none" /><path d="M 115.41159269507618 85.73525988315684 l 9.878467126695792 -9.1433616955186 a34.46050429472411,34.46050429472411 0 0,0 0.39810464628802017,0.4375867439398284 l -10.03396947382569 8.9724373760211" fill="#4dd2ff" stroke="none" /><path d="M 115.8921839302757 86.27271002978787 l 10.1948390705885 -8.806059175731443 a34.4715040690222,34.4715040690222 0 0,0 0.38297091920902776,0.45113877986155865 l -10.34450455330464 8.629753613420332" fill="#4dd2ff" stroke="none" /><path d="M 116.1254893667686 86.54754324733833 l 10.32843558002764 -8.61634830439982 a34.45057766913803,34.45057766913803 0 0,0 0.3749423383499145,0.4573686880154503 l -10.474824737616181 8.437777334685874" fill="#4dd2ff" stroke="none" /><path d="M 116.57777611688842 87.10902102172516 l 49.73332835066524 -38.672936934824556 a84.0,84.0 0 0,0 0.875392090582773,1.1459163470364722 l -50.389872418602316 37.813499674547195" fill="#4dd2ff" stroke="none" /><path d="M 117.81537515405839 88.88188828441811 l 11.420828153828571 -7.127441448787177 a34.46238230497013,34.46238230497013 0 0,0 0.30890116052288813,0.5045668308906777 l -11.541497278806862 6.930337501771945" fill="#4dd2ff" stroke="none" /><line stroke="#FFFFFF" stroke-width="0.3" x1="172.87174338648825" x2="177.1583165268699" y1="56.24261187166439" y2="53.66864786411523" /><path d="M 173.72905801456457 55.72781907015455 a86.0,86.0 0 0,1 12.242430191666344,42.057860355516425" fill="none" id="id51" stroke="none" /><text fill="#FFFFFF" style="font-size:6.75px; font-family:Arial;" text-anchor="middle"><textPath startOffset="22.145653131862474" xlink:href="#id51">March</textPath></text><path d="M 118.53625476483649 90.13048839642627 l 11.872066110971431 -6.32120650730927 a34.45004109478203,34.45004109478203 0 0,0 0.2734544701896062,0.5243850029119763 l -11.978828650135982 6.116475261292796" fill="#4dd2ff" stroke="none" /><path d="M 118.8641267826498 90.77261029715802 l 12.078204970970397 -5.908055297871134 a34.44574849993399,34.44574849993399 0 0,0 0.2552606162707608,0.533396512818488 l -12.17784484520107 5.699846282987542" fill="#4dd2ff" stroke="none" /><path d="M 119.16976305983485 91.42560881287824 l 12.264099659071086 -5.485575784452499 a34.43501701281391,34.43501701281391 0 0,0 0.2367261775628346,0.5416758212974457 l -12.35645971865089 5.274237893379205" fill="#4dd2ff" stroke="none" /><path d="M 119.58574465831526 92.42381321644754 l 12.559004389137689 -4.858092695861112 a34.46587003828415,34.46587003828415 0 0,0 0.20871433926233118,0.5536395816485259 l -12.64054941221446 4.641784834018428" fill="#4dd2ff" stroke="none" /><path d="M 119.94978838288452 93.4421083053983 l 12.788617788989962 -4.203872681466836 a34.46184573061412,34.46184573061412 0 0,0 0.17991591673886645,0.5635840466687217 l -12.858898421506087 3.9837196011067273" fill="#4dd2ff" stroke="none" /><path d="M 120.26092885502905 94.47779374421319 l 12.995577870509987 -3.542002537375377 a34.469626058776186,34.469626058776186 0 0,0 0.1506987745201448,0.5722277929080377 l -13.05446612583486 3.3183942400945408" fill="#4dd2ff" stroke="none" /><path d="M 120.43855184770803 95.1765574152323 l 13.093840308936947 -3.090110660230404 a34.453528828096054,34.453528828096054 0 0,0 0.1309055895948518,0.576794181457169 l -13.144956760089466 2.8648821448342083" fill="#4dd2ff" stroke="none" /><path d="M 120.51834098615036 95.52812308129327 l 3.8793166970957627 -0.845479018494027 a24.97038194725389,24.97038194725389 0 0,0 0.0876844345895432,0.4196017616336108 l -3.8932588425096726 0.7787608055750117" fill="#4dd2ff" stroke="none" /><path d="M 120.592083275326 95.88100663000786 l 13.18562243701786 -2.6374937722971254 a34.44682164864601,34.44682164864601 0 0,0 0.11100686381233998,0.5808348185019259 l -13.228955593112357 2.4107563887618855" fill="#4dd2ff" stroke="none" /><path d="M 120.7213421655516 96.59031103205396 l 13.26388975350964 -2.1825680114380015 a34.44226076661997,34.44226076661997 0 0,0 0.09099072546270695,0.5842257298128138 l -13.29940197111061 1.9545540996937463" fill="#4dd2ff" stroke="none" /><path d="M 120.82617615685814 97.30363454192243 l 13.33072872742955 -1.7259297242526568 a34.441992479441964,34.441992479441964 0 0,0 0.07088147904865885,0.5870003279880256 l -13.358392292737873 1.4968357193412183" fill="#4dd2ff" stroke="none" /><path d="M 120.93736805541906 98.37931529534042 l 7.84084697591589 -0.6069311449179109 a28.864302048777166,28.864302048777166 0 0,0 0.033999452210562595,0.4943445732875349 l -7.850110389291519 0.4722431474760418" fill="#4dd2ff" stroke="none" /><path d="M 120.99303781780057 99.45929381324524 l 15.797412266397535 -0.40688530270325707 a36.80265135868292,36.80265135868292 0 0,0 0.010845510727793137,0.6316966277501186 l -15.802069208723992 0.13564175898407216" fill="#4dd2ff" stroke="none" /><line stroke="#FFFFFF" stroke-width="0.3" x1="184.99686870605535" x2="189.99668451229388" y1="99.2704041080226" y2="99.22748670261217" /><path d="M 185.99683186730306 99.26182062694052 a86.0,86.0 0 0,1 -10.086455211305974,41.156179273409016" fill="none" id="id52" stroke="none" /><text fill="#FFFFFF" style="font-size:6.75px; font-family:Arial;" text-anchor="middle"><textPath startOffset="21.40746469413373" xlink:href="#id52">April</textPath></text><path d="M 118.70294669586154 109.54985784667822 l 7.215301074106002 3.6841841394941177 a29.10146791413107,29.10146791413107 0 0,0 -0.2309990420128602,0.44297112142503636 l -7.150993963118193 -3.807501504023657" fill="#4dd2ff" stroke="none" /><line stroke="#FFFFFF" stroke-width="0.3" x1="174.33088141563837" x2="178.70328620479359" y1="141.23008692659167" y2="143.65538615756765" /><path d="M 175.20536237346943 141.71514677278685 a86.0,86.0 0 0,1 -30.301960400862466,31.631185727798858" fill="none" id="id53" stroke="none" /><text fill="#FFFFFF" style="font-size:6.75px; font-family:Arial;" text-anchor="middle"><textPath startOffset="22.145653131862474" xlink:href="#id53">May</textPath></text><path d="M 118.36410011445183 110.18625677009912 l 7.1291557067814635 3.9544224944703275 a29.152442477951478,29.152442477951478 0 0,0 -0.24650005296274646,0.43554197440628717 l -7.0602222887973385 -4.076221238975737" fill="#4dd2ff" stroke="none" /><path d="M 117.62189284568427 111.42229804090321 l 6.03820905125262 3.913894155449831 a28.195730401195796,28.195730401195796 0 0,0 -0.2667525027379761,0.40389728807651215 l -5.9701321095939175 -4.016971321865404" fill="#4dd2ff" stroke="none" /><path d="M 117.423217284605 111.72311816256416 l 2.927303507448251 1.969620441215909 a24.528244677906336,24.528244677906336 0 0,0 -0.23805276206010992,0.3473260941386857 l -2.893061008572821 -2.0195812704246388" fill="#4dd2ff" stroke="none" /><path d="M 114.39649973595853 115.28858382429668 l 3.3251553560732243 3.531199758449467 a25.850363891100958,25.850363891100958 0 0,0 -0.32567793744217827,0.30144263680718825 l -3.2640476473170787 -3.587760141389035" fill="#4dd2ff" stroke="none" /><path d="M 114.13192950727249 115.5334660781643 l 3.8656189046244793 4.248992332943228 a26.744296768204137,26.744296768204137 0 0,0 -0.34224418450623617,0.30603686016784487 l -3.7921096932948655 -4.314724722994459" fill="#4dd2ff" stroke="none" /><path d="M 112.45986205192187 116.90419585922612 l 6.329393222663676 8.587037501708291 a31.66763477172168,31.66763477172168 0 0,0 -0.4403595576135413,0.3187863601514803 l -6.181052654676167 -8.694424633232849" fill="#4dd2ff" stroke="none" /><path d="M 111.5731344415666 117.5232005979908 l 4.125852023761507 6.247065824305114 a28.486553702150132,28.486553702150132 0 0,0 -0.41036151344679467,0.2659913751690627 l -4.0180048780577025 -6.316971041178071" fill="#4dd2ff" stroke="none" /><line stroke="#FFFFFF" stroke-width="0.3" x1="143.1302829299769" x2="145.66735839644613" y1="173.24464959558577" y2="177.55315839532614" /><path d="M 143.63769802327073 174.10635135553383 a86.0,86.0 0 0,1 -40.68552437913181,11.842963189579606" fill="none" id="id54" stroke="none" /><text fill="#FFFFFF" style="font-size:6.75px; font-family:Arial;" text-anchor="middle"><textPath startOffset="21.407464694133747" xlink:href="#id54">June</textPath></text><path d="M 108.4095320186766 119.2426549942271 l 3.242760354646466 7.420070295806927 a29.09771189363904,29.09771189363904 0 0,0 -0.45941812651080377,0.19609827951699976 l -3.114907152965231 -7.474643224983331" fill="#4dd2ff" stroke="none" /><path d="M 107.06938296918513 119.77432235084164 l 4.528869092760776 12.668052885998655 a34.45326054091805,34.45326054091805 0 0,0 -0.5586255404005527,0.19431896102805082 l -4.310737780315201 -12.743930279595297" fill="#4dd2ff" stroke="none" /><path d="M 105.69591212413111 120.21278271476187 l 3.6485438563319135 12.947395006478647 a34.45165081785004,34.45165081785004 0 0,0 -0.5706154725215079,0.15552378445003562 l -3.4257469828757103 -13.008119285072826" fill="#4dd2ff" stroke="none" /><path d="M 104.9986988182912 120.39639698878246 l 3.2027707226499156 13.068397496600646 a34.45513855116407,34.45513855116407 0 0,0 -0.575676202668619,0.13585801634476188 l -2.9779623662414174 -13.121451656591633" fill="#4dd2ff" stroke="none" /><line stroke="#FFFFFF" stroke-width="0.3" x1="101.45913802915013" x2="101.54496967792366" y1="184.9874750549273" y2="189.98673829345242" /><path d="M 101.47630435890484 185.9873277026323 a86.0,86.0 0 0,1 -42.54439059252881,-10.42667462771756" fill="none" id="id55" stroke="none" /><text fill="#FFFFFF" style="font-size:6.75px; font-family:Arial;" text-anchor="middle"><textPath startOffset="22.145653131862474" xlink:href="#id55">July</textPath></text><path d="M 97.12497278360702 120.80226474461374 l -1.371980916868367 9.926970462930255 a31.02133095991449,31.02133095991449 0 0,0 -0.526882378287455,-0.07743356541708891 l 1.542188400763507 -9.901955824214284" fill="#4dd2ff" stroke="none" /><path d="M 95.00130118170881 120.39639698878247 l -3.2315082969279505 13.185656606376337 a34.57586778126504,34.57586778126504 0 0,0 -0.5752678659482464,-0.14623084195655492 l 3.4573814561015754 -13.12824053258452" fill="#4dd2ff" stroke="none" /><path d="M 94.30408787586889 120.21278271476187 l -2.19404546983912 7.785893353284624 a29.08912670394297,29.08912670394297 0 0,0 -0.4794719027206043,-0.1395672829835869 l 2.327377384941331 -7.747082375998522" fill="#4dd2ff" stroke="none" /><line stroke="#FFFFFF" stroke-width="0.3" x1="58.13341422392154" x2="55.67067388415222" y1="173.97424548756322" y2="178.32567169271397" /><path d="M 57.64086615596768 174.84453072859336 a86.0,86.0 0 0,1 -31.369924170532247,-30.572349798747897" fill="none" id="id56" stroke="none" /><text fill="#FFFFFF" style="font-size:6.75px; font-family:Arial;" text-anchor="middle"><textPath startOffset="22.145653131862474" xlink:href="#id56">August</textPath></text><path d="M 88.4268655584334 117.5232005979908 l -2.5129181507203207 3.804878364088504 a25.559808877324624,25.559808877324624 0 0,0 -0.3640492243209001,-0.2449485651237747 l 2.5778636631382263 -3.7611801249076082" fill="#4dd2ff" stroke="none" /><line stroke="#FFFFFF" stroke-width="0.3" x1="26.387840678322732" x2="22.057713659400548" y1="142.50000000000003" y2="145.00000000000006" /><path d="M 25.521815274538298 143.00000000000003 a86.0,86.0 0 0,1 -11.493303480769221,-40.785679425670985" fill="none" id="id57" stroke="none" /><text fill="#FFFFFF" style="font-size:6.75px; font-family:Arial;" text-anchor="middle"><textPath startOffset="21.40746469413373" xlink:href="#id57">September</textPath></text><path d="M 81.81346652052679 110.50000000000001 l -10.464984108655704 6.041961392197534 a33.08392278439506,33.08392278439506 0 0,0 -0.2797428971770277,-0.4942788948651128 l 10.56716037085411 -5.861425727233299" fill="#4dd2ff" stroke="none" /><path d="M 80.83023694016515 108.57439118712176 l -7.822505485759717 3.4989072055274355 a29.569360752566826,29.569360752566826 0 0,0 -0.20327684871847135,-0.4651372109073409 l 7.881416216495157 -3.3641079248442454" fill="#4dd2ff" stroke="none" /><path d="M 80.68587082218212 108.24405325689762 l -12.360160956659946 5.275817731796059 a34.43904132048394,34.43904132048394 0 0,0 -0.2274192842900566,-0.545723493212641 l 12.44890608548649 -5.062861729142138" fill="#4dd2ff" stroke="none" /><path d="M 80.5471966667186 107.91128576633889 l -4.704996606452732 1.9134811597883685 a26.079212853936795,26.079212853936795 0 0,0 -0.16509548155442083,-0.4161484618678634 l 4.737150762973277 -1.8324316807069396" fill="#4dd2ff" stroke="none" /><path d="M 80.41425534168474 107.57618678355246 l -6.198681378150063 2.3977831199108928 a27.64627826064738,27.64627826064738 0 0,0 -0.1674170619753501,-0.4440936472331145 l 6.238929123939849 -2.2910211924836332" fill="#4dd2ff" stroke="none" /><path d="M 80.28708602549918 107.23885506374661 l -3.6688620464843065 1.3472569625035953 a24.90840760913539,24.90840760913539 0 0,0 -0.1439466719962296,-0.4026444607389016 l 3.691448888524479 -1.2840775453837723" fill="#4dd2ff" stroke="none" /><path d="M 79.73907114497094 105.5222062557868 l -14.127248715625505 3.8504444585283224 a35.642577601001605,35.642577601001605 0 0,0 -0.155826835952646,-0.5916998774340201 l 14.191265032382884 -3.6073640767214994" fill="#4dd2ff" stroke="none" /><path d="M 79.48165901384964 104.47187691870673 l -5.184742546919188 1.129990506574319 a26.30645209370462,26.30645209370462 0 0,0 -0.0923760951180432,-0.4420530556627079 l 5.203376352861598 -1.040820999626202" fill="#4dd2ff" stroke="none" /><path d="M 79.2786578344484 103.40968896794605 l -13.293803922880274 2.187490376624265 a34.472577217734205,34.472577217734205 0 0,0 -0.09107081648515461,-0.5847399716303608 l 13.329396231503697 -1.9589622230624542" fill="#4dd2ff" stroke="none" /><path d="M 79.17382384314188 102.69636545807758 l -13.413209335487013 1.7366084902850039 a34.52516150462263,34.52516150462263 0 0,0 -0.07105264056085915,-0.5884177908450137 l 13.441044062307531 -1.506097022516591" fill="#4dd2ff" stroke="none" /><line stroke="#FFFFFF" stroke-width="0.3" x1="15.003131293944662" x2="10.003315487706104" y1="100.72959589197737" y2="100.7725132973878" /><path d="M 14.003168132696942 100.73817937305945 a86.0,86.0 0 0,1 10.791469493833604,-42.45332614584628" fill="none" id="id58" stroke="none" /><text fill="#FFFFFF" style="font-size:6.75px; font-family:Arial;" text-anchor="middle"><textPath startOffset="22.145653131862435" xlink:href="#id58">October</textPath></text><path d="M 79.06263194458094 98.37931529534042 l -14.603453779897247 -1.1303996812606532 a35.647138483027646,35.647138483027646 0 0,0 0.05246304341439301,-0.609700088780378 l 14.581897113785113 1.3809208174167118" fill="#4dd2ff" stroke="none" /><path d="M 79.13060592940154 97.66154086499901 l -13.38932005167361 -1.5003012392391053 a34.47311379209021,34.47311379209021 0 0,0 0.07094552658224729,-0.5875307334441421 l 13.361592438831696 1.7299256496066837" fill="#4dd2ff" stroke="none" /><path d="M 79.2786578344484 96.59031103205396 l -13.284273745027685 -2.1859221894852747 a34.46291887932613,34.46291887932613 0 0,0 0.10106691185398206,-0.5829270900870992 l 13.244792015681469 2.4136423124929665" fill="#4dd2ff" stroke="none" /><path d="M 79.407916724674 95.88100663000787 l -13.218243836874004 -2.6440189658839377 a34.480089258718266,34.480089258718266 0 0,0 0.12107812918657362,-0.5794026789339214 l 13.170907996863065 2.8705380961032683" fill="#4dd2ff" stroke="none" /><path d="M 79.56144815229197 95.17655741523228 l -13.273486983298783 -3.132506786227269 a34.63811040656154,34.63811040656154 0 0,0 0.1415419967042189,-0.5775396478780223 l 13.217757460078266 3.359902258713409" fill="#4dd2ff" stroke="none" /><path d="M 79.73907114497095 94.47779374421319 l -12.975905641729387 -3.536640783942709 a34.44923623324802,34.44923623324802 0 0,0 0.16040467932218747,-0.5692196190728702 l 12.913282470332618 3.7588683269185927" fill="#4dd2ff" stroke="none" /><path d="M 79.94057633289273 93.78553927170692 l -12.83711540606419 -3.976971167240731 a34.43904132048394,34.43904132048394 0 0,0 0.17979686112047813,-0.5632111066398042 l 12.766953829166455 4.196751307571927" fill="#4dd2ff" stroke="none" /><path d="M 80.16572619554312 93.10060997987247 l -12.72698461525471 -4.427105902968513 a34.474991802336234,34.474991802336234 0 0,0 0.1992323401365703,-0.5572883140927355 l 12.649112105074195 4.644929173442171" fill="#4dd2ff" stroke="none" /><path d="M 80.41425534168474 92.42381321644754 l -12.564008774055264 -4.860028499453665 a34.4712357818442,34.4712357818442 0 0,0 0.21822151239967955,-0.5500607640898447 l 12.478728586689453 5.074990280757093" fill="#4dd2ff" stroke="none" /><path d="M 80.83023694016515 91.42560881287825 l -12.307937625382444 -5.505183949187137 a34.48304041767629,34.48304041767629 0 0,0 0.24633294103251244,-0.5382819321738613 l 12.211620219494884 5.715654863575669" fill="#4dd2ff" stroke="none" /><path d="M 81.29705330413844 90.45014215332179 l -11.977872886176097 -6.115987241404786 a34.44896794607001,34.44896794607001 0 0,0 0.2734459518452766,-0.5243686678635429 l 11.871118865355882 6.320702152372815" fill="#4dd2ff" stroke="none" /><line stroke="#FFFFFF" stroke-width="0.3" x1="26.387840678322718" x2="22.05771365940052" y1="57.49999999999999" y2="54.99999999999999" /><path d="M 25.521815274538284 56.99999999999999 a86.0,86.0 0 0,1 29.574782752854787,-30.34633250058573" fill="none" id="id59" stroke="none" /><text fill="#FFFFFF" style="font-size:6.75px; font-family:Arial;" text-anchor="middle"><textPath startOffset="21.40746469413373" xlink:href="#id59">November</textPath></text><path d="M 81.99639281039701 89.18935116829357 l -11.580598387585383 -6.953816594127324 a34.50799112523049,34.50799112523049 0 0,0 0.3093099720027318,-0.505234593719621 l 11.459520451127258 7.151588303971488" fill="#4dd2ff" stroke="none" /><path d="M 82.18462484594161 88.88188828441811 l -11.392150333477781 -7.109544367885857 a34.42857812054186,34.42857812054186 0 0,0 0.3172057508952771,-0.49870012688218585 l 11.268426890956615 7.304058169446716" fill="#4dd2ff" stroke="none" /><path d="M 82.576782715395 88.27688183743585 l -6.694668108129696 -4.5044714766945235 a29.069005165592806,29.069005165592806 0 0,0 0.28212198063411836,-0.4116244010627159 l 6.616356390680265 4.6187306128272745" fill="#4dd2ff" stroke="none" /><path d="M 82.98947788004972 87.6856937992154 l -10.895085012476471 -7.887201344035314 a34.450309381960025,34.450309381960025 0 0,0 0.35089769531018433,-0.4760601155419278 l 10.758085297582468 8.073067768846105" fill="#4dd2ff" stroke="none" /><path d="M 83.2033758604659 87.39550010848427 l -10.755724844830379 -8.071296441095333 a34.447358223002006,34.447358223002006 0 0,0 0.3589874396415167,-0.4699260821423681 l 10.615585427834555 8.254743436478586" fill="#4dd2ff" stroke="none" /><path d="M 83.64595745247003 86.82634096563983 l -10.518282672101561 -8.47278397048152 a34.50638140216248,34.50638140216248 0 0,0 0.3755496774299629,-0.4581095429411648 l 10.371286175432969 8.652095795121179" fill="#4dd2ff" stroke="none" /><path d="M 84.10781606972428 86.27271002978789 l -10.181235935589012 -8.794309111708694 a34.453528828096054,34.453528828096054 0 0,0 0.39045517469859714,-0.44426631393918264 l 10.028769696931821 8.967787703459177" fill="#4dd2ff" stroke="none" /><path d="M 84.58840730492382 85.73525988315684 l -9.860156167539632 -9.126413345090409 a34.435553587169906,34.435553587169906 0 0,0 0.4052641038633832,-0.4303764343091031 l 9.702036229939976 9.294331239344023" fill="#4dd2ff" stroke="none" /><path d="M 85.60350026404147 84.71141617570332 l -12.899483981315093 -13.698804970344227 a39.81632122918113,39.81632122918113 0 0,0 0.5016292006210261,-0.4643004992056959 l 12.662425009380113 13.918223215682287" fill="#4dd2ff" stroke="none" /><path d="M 86.13680546590413 84.22622945171909 l -14.198582499279008 -16.155380486339723 a42.50804648607675,42.50804648607675 0 0,0 0.5522413026950702,-0.4770128843765154 l 13.919161716821089 16.396737503180947" fill="#4dd2ff" stroke="none" /><path d="M 86.68645165197937 83.75963576809568 l -13.624242977367642 -16.619361161467587 a42.4900712451506,42.4900712451506 0 0,0 0.568050227125084,-0.45758105280623085 l 13.336941979887312 16.850790508067217" fill="#4dd2ff" stroke="none" /><path d="M 87.25179093698888 83.31218511350988 l -13.044407598281467 -17.075548277259713 a42.48792494772658,42.48792494772658 0 0,0 0.5833936269552971,-0.43778945379634293 l 12.749360982415418 17.296956758320057" fill="#4dd2ff" stroke="none" /><path d="M 87.83215693770416 82.88440491214696 l -12.655441820578478 -17.80146380504299 a42.84152744833342,42.84152744833342 0 0,0 0.603055515016249,-0.420979585132884 l 12.347991214388463 18.016088205981" fill="#4dd2ff" stroke="none" /><path d="M 88.4268655584334 82.4767994020092 l -10.384490839953026 -15.723442686617796 a39.84314994698134,39.84314994698134 0 0,0 0.5739583483380747,-0.3720328670247038 l 10.113046859357926 15.899389395346406" fill="#4dd2ff" stroke="none" /><path d="M 89.03521579738668 82.08984904055464 l -11.239997610542707 -18.359691378207444 a42.527094875714894,42.527094875714894 0 0,0 0.6258919992789365,-0.3758301622291981 l 10.923172854706337 18.549935540972566" fill="#4dd2ff" stroke="none" /><line stroke="#FFFFFF" stroke-width="0.3" x1="56.869717070023135" x2="54.33264160355391" y1="26.7553504044142" y2="22.446841604673864" /><path d="M 56.362301976729285 25.89364864446614 a86.0,86.0 0 0,1 42.16139366436587,-11.88097634709845" fill="none" id="id60" stroke="none" /><text fill="#FFFFFF" style="font-size:6.75px; font-family:Arial;" text-anchor="middle"><textPath startOffset="22.145653131862474" xlink:href="#id60">December</textPath></text><path d="M 89.34428304082924 81.90426304109057 l -13.724653109657194 -23.307461475962715 a48.04817671182124,48.04817671182124 0 0,0 0.7143334607145297,-0.4124206158346885 l 13.322527181082265 23.539628989073577" fill="#4dd2ff" stroke="none" /><path d="M 89.65649057296885 81.72400993836675 l -3.9984231728975703 -7.064830625001373 a29.1178334319892,29.1178334319892 0 0,0 0.4371222008446254,-0.2424643162454868 l 3.876556783896842 7.132427856680006" fill="#4dd2ff" stroke="none" /><path d="M 89.97174638481275 81.54914285379989 l -2.56387250840583 -4.717236640487814 a26.368963006179122,26.368963006179122 0 0,0 0.3995666164131714,-0.21274671756083993 l 2.4825170762060966 4.760553825771229" fill="#4dd2ff" stroke="none" /><path d="M 90.28995756902619 81.37971332152246 l -9.963686240445607 -19.106682127329574 a42.548557849955074,42.548557849955074 0 0,0 0.6505325562364496,-0.3321665584423122 l 9.634226462495574 19.27490663744472" fill="#4dd2ff" stroke="none" /><path d="M 90.93487009805054 81.0573650232925 l -9.298568877335548 -19.430432652847177 a42.54077752179301,42.54077752179301 0 0,0 0.6614306657879077,-0.30958294918093093 l 8.963649497676117 19.587191833598652" fill="#4dd2ff" stroke="none" /><path d="M 93.61358852112211 79.99465700312896 l -8.177287200049282 -25.615235686262437 a47.88881412808796,47.88881412808796 0 0,0 0.7852838916989131,-0.2432829570037101 l 7.736362675478753 25.75183523107279" fill="#4dd2ff" stroke="none" /><path d="M 93.95794788825049 79.88797359093562 l -5.704548555667613 -18.988586837950407 a40.826959028715244,40.826959028715244 0 0,0 0.6729449091759727,-0.19588445545693808 l 5.377743634110016 19.083714987709865" fill="#4dd2ff" stroke="none" /><path d="M 94.6519064749342 79.69241777938228 l -5.474540317974362 -20.78772128914538 a42.49651013742265,42.49651013742265 0 0,0 0.7070502713528349,-0.17972941407931373 l 5.116884753396149 20.878635935059958" fill="#4dd2ff" stroke="none" /><path d="M 95.35216902796891 79.52079915486377 l -4.758255628018628 -20.965752254133704 a42.49892472202467,42.49892472202467 0 0,0 0.7128437400177131,-0.15536097532356588 l 4.397649471381796 21.044344687590986" fill="#4dd2ff" stroke="none" /><path d="M 96.05791012581881 79.37332000966035 l -5.047378526979634 -26.41001727230932 a47.888009266553965,47.888009266553965 0 0,0 0.8087720745825094,-0.14738521360425116 l 4.593271718846086 26.492770659844936" fill="#4dd2ff" stroke="none" /><path d="M 97.12497278360702 79.19773525538626 l -3.676613546882181 -26.602144122249676 a47.85500994365969,47.85500994365969 0 0,0 0.8147251137378534,-0.10548247733839271 l 3.219410611253534 26.661338195788467" fill="#4dd2ff" stroke="none" /><path d="M 99.27912038922189 79.0123766808444 l -0.7378959834611261 -21.483036443330324 a42.495705275888646,42.495705275888646 0 0,0 0.729280304314472,-0.018783673703808478 l 0.3690023650759101 21.49253783438418" fill="#4dd2ff" stroke="none" /></svg>